<svg xmlns="http://www.w3.org/2000/svg" viewBox="0 0 2130 1906" fill="#333" role="img" aria-label="line art">
<g transform="translate(0.000000,1906.000000) scale(0.100000,-0.100000)"
fill="#333" stroke="none">
<path d="M6558 18650 c-264 -42 -431 -156 -525 -358 -151 -325 -27 -901 255
-1178 174 -172 363 -250 597 -247 375 4 611 231 536 516 -46 176 -137 299
-267 364 -68 33 -84 37 -177 41 -60 2 -119 0 -145 -7 -107 -29 -80 -134 29
-109 71 16 176 5 240 -26 175 -83 278 -365 183 -498 -148 -205 -546 -229 -810
-47 -328 225 -502 848 -327 1172 175 323 659 358 1208 87 500 -246 995 -707
1407 -1310 581 -852 1151 -2235 1542 -3748 l44 -173 -26 -16 c-210 -127 -330
-245 -435 -428 -101 -173 -148 -337 -149 -510 0 -182 48 -302 170 -423 l73
-74 -12 -67 c-21 -118 15 -243 96 -339 l37 -42 -18 -70 c-10 -39 -21 -70 -24
-70 -4 0 -51 84 -105 188 -1049 1997 -2305 3746 -3410 4752 -962 876 -2597
1770 -3792 2074 -362 92 -606 126 -904 126 -234 0 -313 -8 -482 -51 -567 -142
-888 -569 -947 -1259 -18 -212 -24 -774 -11 -1015 39 -706 162 -1229 444
-1870 19 -44 60 -137 90 -207 31 -70 65 -145 76 -166 79 -155 192 -479 236
-676 56 -251 58 -281 61 -1031 3 -920 24 -1217 114 -1620 217 -971 789 -1558
1760 -1806 85 -22 159 -41 164 -42 5 -2 -15 -21 -45 -42 -357 -259 -775 -653
-1069 -1009 -470 -570 -767 -1154 -888 -1751 -43 -208 -52 -290 -59 -520 -16
-541 96 -1020 363 -1554 670 -1343 1889 -2436 3275 -2936 888 -321 1762 -355
2429 -95 411 161 719 422 1062 903 485 680 942 1753 1298 3047 55 199 177 693
206 828 9 45 20 82 23 82 3 0 16 -118 29 -262 83 -971 249 -1764 435 -2082
166 -285 367 -259 526 68 183 374 307 1009 410 2105 5 57 12 105 14 107 2 2
11 -33 21 -79 28 -131 150 -615 206 -817 531 -1913 1263 -3266 2019 -3734 679
-420 1681 -451 2723 -85 1398 492 2636 1594 3312 2950 269 538 380 1016 363
1563 -15 482 -120 879 -358 1361 -187 379 -419 717 -734 1070 -249 280 -638
633 -924 840 -30 21 -50 40 -45 42 5 1 79 20 164 42 973 249 1542 834 1761
1811 90 401 121 856 111 1660 -10 855 32 1067 343 1760 357 795 463 1149 539
1800 38 324 46 1025 16 1365 -68 764 -455 1202 -1143 1294 -208 28 -582 9
-872 -44 -1222 -225 -3030 -1168 -4100 -2136 -314 -285 -691 -684 -1009 -1068
-89 -107 -198 -234 -243 -283 -46 -49 -83 -95 -83 -103 0 -9 -78 -120 -173
-248 -675 -903 -1410 -2084 -1951 -3134 -27 -51 -51 -91 -55 -88 -4 2 -13 29
-20 59 l-12 56 35 43 c77 94 113 218 95 329 -6 34 -12 65 -14 68 -3 4 22 30
54 58 67 58 131 152 163 237 32 87 32 323 0 439 -81 294 -311 589 -540 697
-34 16 -51 30 -52 43 0 10 21 98 46 195 389 1493 959 2873 1532 3711 489 714
1086 1222 1663 1415 669 223 1111 -60 1014 -650 -75 -459 -338 -810 -671 -895
-378 -97 -767 165 -730 492 25 215 170 390 337 405 138 13 339 -102 339 -193
0 -45 62 -70 94 -38 38 38 5 136 -69 207 -140 135 -359 176 -518 97 -207 -102
-343 -411 -282 -643 55 -213 260 -395 497 -442 397 -78 763 126 973 545 132
262 187 621 129 834 -99 366 -468 539 -945 442 -588 -119 -1250 -605 -1773
-1301 -652 -866 -1293 -2366 -1706 -3988 l-43 -167 -41 8 c-55 10 -239 9 -302
-1 l-51 -9 -18 74 c-266 1104 -741 2386 -1206 3250 -452 841 -968 1442 -1566
1824 -385 246 -823 379 -1105 334z m-4295 -559 c483 -72 1063 -258 1687 -541
291 -132 952 -476 875 -456 -819 214 -1457 257 -1957 131 -533 -136 -862 -435
-1042 -948 -5 -16 -18 -10 -103 49 -372 256 -692 584 -955 978 l-106 160 38
76 c157 311 448 502 865 565 134 21 518 13 698 -14z m17464 14 c432 -61 716
-251 886 -590 124 -247 163 -492 174 -1075 17 -962 -109 -1613 -468 -2416
-305 -684 -364 -853 -421 -1201 -18 -118 -21 -192 -28 -938 -5 -445 -11 -830
-14 -855 -3 -25 -11 -101 -17 -170 -64 -746 -328 -1350 -752 -1721 -438 -382
-1018 -574 -1877 -619 -173 -9 -628 -5 -617 6 1 2 63 17 137 33 1257 281 2009
975 2248 2076 105 479 108 1068 11 1680 -94 589 -53 860 231 1535 151 359 181
434 240 610 126 377 176 731 150 1070 -29 398 -135 814 -265 1039 -366 633
-1152 852 -2305 640 -160 -29 -414 -89 -553 -130 -116 -34 -105 -27 178 129
910 500 1865 839 2550 905 108 10 418 6 512 -8z m-19033 -894 c268 -397 623
-752 1011 -1011 44 -29 81 -54 83 -55 2 -2 -6 -38 -17 -81 -136 -540 -109
-1086 80 -1634 33 -96 63 -184 66 -196 6 -25 -92 -87 -310 -197 -174 -89 -486
-217 -527 -217 -8 0 -39 64 -122 255 -282 646 -393 1113 -439 1850 -13 211 -7
750 11 953 16 182 69 468 84 450 2 -1 38 -54 80 -117z m3177 -96 c486 -393
837 -915 1017 -1512 22 -72 45 -162 52 -201 l13 -71 -38 -83 c-79 -173 -117
-407 -98 -595 7 -59 10 -109 9 -111 -2 -1 -48 53 -103 121 -553 680 -1285
1236 -2098 1594 -171 76 -382 156 -507 195 -43 12 -78 28 -78 35 0 6 28 53 62
104 211 316 556 505 1048 573 75 11 183 14 376 13 l271 -2 74 -60z m14160 54
c550 -43 944 -239 1170 -582 61 -93 70 -117 44 -117 -8 0 -92 -27 -186 -61
-963 -340 -1841 -958 -2482 -1746 -55 -68 -101 -122 -103 -121 -1 2 2 52 9
111 19 189 -19 422 -99 596 l-38 84 17 82 c115 561 486 1193 928 1582 190 168
182 163 301 172 155 12 289 12 439 0z m-13873 -45 c327 -52 759 -164 1062
-275 199 -73 839 -534 1231 -885 225 -202 810 -807 828 -856 2 -6 -45 23 -105
65 -764 526 -1518 703 -1937 456 -76 -45 -186 -143 -218 -195 -11 -19 -24 -34
-29 -34 -4 0 -20 48 -34 108 -99 395 -318 832 -582 1162 -71 88 -337 361 -434
444 l-55 47 60 -6 c33 -3 129 -17 213 -31z m13197 -16 c-84 -70 -357 -348
-429 -438 -264 -330 -483 -767 -582 -1162 -14 -60 -30 -108 -34 -108 -5 0 -18
15 -29 33 -29 47 -127 138 -194 181 -405 259 -1102 121 -1881 -371 -83 -52
-143 -87 -136 -76 54 68 340 371 511 540 388 384 688 627 1154 938 160 107
218 140 290 165 471 165 810 256 1180 314 213 34 210 35 150 -16z m-15183
-717 c1028 -352 1924 -990 2597 -1850 66 -84 77 -104 102 -190 71 -246 178
-472 330 -698 55 -81 58 -88 28 -72 -93 49 -440 155 -604 184 l-100 18 -135
131 c-158 154 -254 232 -405 332 -381 250 -704 365 -1227 439 -304 42 -405 63
-520 105 -163 59 -286 147 -377 270 l-56 75 1 245 c0 277 12 387 71 640 45
194 122 420 144 420 4 0 72 -22 151 -49z m17146 -23 c45 -110 68 -188 106
-353 57 -247 70 -359 70 -635 l1 -245 -56 -75 c-91 -123 -214 -211 -377 -270
-115 -42 -216 -63 -520 -105 -523 -74 -846 -189 -1227 -439 -151 -100 -247
-178 -405 -332 l-135 -131 -95 -17 c-167 -29 -415 -104 -592 -179 -21 -9 -38
-14 -38 -12 0 2 35 57 77 122 134 205 237 427 302 654 25 86 36 106 102 190
620 793 1429 1395 2374 1770 98 38 356 128 372 128 6 1 25 -32 41 -71z
m-13468 -748 c538 -65 1255 -456 1789 -975 130 -127 309 -355 606 -775 596
-844 1249 -1929 1728 -2873 l55 -109 -18 -146 c-10 -81 -26 -248 -36 -372 -9
-124 -18 -227 -20 -229 -2 -2 -56 52 -121 120 -65 68 -239 250 -387 404 -578
602 -842 912 -1073 1260 -145 220 -229 375 -549 1015 -284 569 -390 761 -549
1000 -342 516 -766 921 -1292 1236 -200 120 -506 267 -662 319 l-54 18 24 18
c35 27 179 77 251 88 89 12 209 13 308 1z m9920 -4 c81 -15 204 -59 241 -87
22 -16 22 -16 -32 -34 -80 -27 -259 -105 -386 -169 -62 -31 -118 -56 -125 -56
-6 0 -21 -8 -32 -18 -12 -10 -72 -49 -133 -85 -501 -297 -946 -724 -1277
-1226 -163 -245 -267 -436 -560 -1021 -321 -642 -405 -796 -559 -1025 -214
-320 -459 -618 -875 -1065 -325 -350 -652 -695 -661 -698 -5 -2 -12 41 -15 95
-12 164 -35 411 -52 551 -19 157 -30 119 120 407 614 1178 1398 2415 2119
3342 134 173 244 276 488 458 618 461 1303 709 1739 631z m-10402 -182 c64
-25 187 -79 273 -121 l157 -75 27 -137 c164 -828 420 -1461 769 -1896 205
-257 399 -437 921 -855 458 -368 723 -619 903 -858 91 -121 208 -309 199 -318
-3 -3 -90 70 -194 163 -1078 960 -2014 1648 -2796 2058 -141 74 -149 80 -209
153 -209 259 -399 638 -464 927 -25 111 -30 380 -9 490 20 106 66 234 118 327
46 82 141 188 169 188 11 0 72 -21 136 -46z m10775 -14 c98 -106 179 -280 212
-455 21 -110 16 -379 -9 -491 -51 -225 -176 -507 -330 -737 -163 -245 -179
-261 -363 -357 -751 -391 -1694 -1097 -2816 -2106 -100 -90 -183 -161 -185
-159 -7 6 85 170 148 263 192 286 453 544 964 954 328 264 458 373 597 502
503 469 775 961 978 1771 39 158 112 489 126 574 l7 43 172 84 c184 89 388
173 422 174 14 0 42 -22 77 -60z m-10167 -286 c489 -296 898 -681 1226 -1154
167 -240 292 -467 620 -1125 384 -770 496 -956 803 -1340 200 -249 405 -477
779 -865 99 -102 262 -272 363 -378 l183 -194 -1 -71 c-1 -125 3 -126 -169 48
-158 160 -645 629 -913 879 -140 132 -150 144 -198 238 -202 393 -482 691
-1164 1237 -450 362 -691 584 -864 801 -344 429 -574 969 -747 1755 -45 206
-50 235 -36 235 5 0 58 -30 118 -66z m9419 -106 c-145 -724 -330 -1230 -597
-1630 -199 -299 -443 -539 -1008 -993 -366 -294 -473 -386 -650 -564 -250
-251 -404 -456 -521 -697 l-59 -121 -168 -159 c-251 -238 -510 -492 -773 -758
-186 -189 -237 -235 -242 -222 -4 10 -7 54 -7 100 l0 81 301 320 c665 707 871
940 1102 1250 251 335 348 505 712 1234 246 493 356 700 474 896 340 560 775
1001 1331 1348 92 57 126 74 128 63 2 -9 -9 -75 -23 -148z m-13460 -111 c176
-148 374 -216 785 -267 504 -63 872 -193 1244 -438 173 -114 476 -375 476
-410 0 -7 -3 -11 -8 -8 -4 2 -80 10 -170 16 -351 26 -704 -35 -992 -173 -296
-142 -571 -403 -740 -703 l-55 -98 -16 135 c-38 308 -98 505 -295 969 -201
474 -286 727 -329 974 -22 132 -21 136 23 82 21 -25 55 -60 77 -79z m17535 31
c-34 -233 -130 -525 -320 -973 -209 -492 -271 -693 -309 -1004 l-16 -135 -55
98 c-341 607 -983 932 -1732 876 -90 -6 -166 -14 -170 -16 -5 -3 -8 1 -8 8 0
35 303 296 476 410 372 245 740 375 1244 438 359 45 550 101 710 210 64 43
180 155 180 173 0 6 3 8 6 4 4 -3 1 -43 -6 -89z m-17480 -885 c359 -806 422
-1141 325 -1723 -26 -160 -40 -270 -55 -433 l-10 -109 -50 -63 c-112 -141
-297 -288 -465 -372 -97 -49 -269 -108 -289 -100 -13 5 -15 100 -19 714 -3
665 -5 716 -25 841 -40 252 -116 509 -222 757 -27 64 -50 122 -50 128 0 7 37
25 83 41 215 75 496 208 677 319 41 26 76 47 77 47 1 0 12 -21 23 -47z m2500
-388 c685 -107 1470 -520 2567 -1350 l92 -70 -127 -6 c-389 -19 -719 -245
-797 -546 -25 -96 -15 -287 20 -375 6 -14 -17 -29 -128 -82 -518 -250 -1019
-370 -1592 -383 -490 -11 -830 48 -1141 196 -609 291 -823 846 -698 1814 17
126 18 130 62 190 111 151 316 333 477 424 172 96 422 179 615 202 124 14 523
6 650 -14z m12948 15 c214 -23 475 -108 651 -211 163 -96 356 -269 463 -416
44 -60 45 -64 62 -190 125 -969 -88 -1523 -698 -1814 -311 -148 -651 -207
-1141 -196 -552 12 -1035 125 -1540 358 -197 92 -188 84 -169 145 21 67 29
245 15 315 -27 129 -119 265 -250 371 -149 120 -330 185 -545 197 l-119 6 249
186 c1099 820 1855 1192 2549 1252 94 8 383 6 473 -3z m-6658 -624 c64 -16
160 -52 172 -64 5 -5 -11 -38 -36 -75 -74 -111 -90 -164 -90 -297 0 -97 3
-124 23 -173 93 -234 318 -364 551 -318 34 7 65 10 68 7 13 -14 -22 -146 -55
-209 -88 -167 -297 -268 -618 -298 -424 -39 -799 92 -901 316 -27 57 -53 179
-42 191 4 3 30 1 58 -5 269 -58 533 129 580 411 23 133 -24 303 -110 402 -39
44 -37 47 55 81 122 46 241 57 345 31z m-486 -183 c59 -71 81 -139 81 -253 0
-99 -2 -110 -32 -171 -42 -85 -119 -158 -198 -189 -69 -27 -186 -32 -247 -11
-45 15 -47 25 -18 131 45 164 163 356 294 478 73 67 76 68 120 15z m851 -17
c146 -133 280 -368 310 -544 7 -42 6 -43 -32 -59 -54 -24 -183 -22 -245 3
-223 91 -314 357 -191 562 34 57 71 102 83 102 3 0 37 -29 75 -64z m-8511 -96
c-96 -906 124 -1442 711 -1735 290 -144 566 -203 1001 -212 636 -14 1208 109
1782 383 l133 63 10 -27 c76 -202 221 -439 388 -633 49 -57 88 -106 86 -108
-2 -1 -50 11 -107 27 -483 143 -856 211 -1203 219 -315 8 -465 -16 -640 -101
-149 -73 -231 -160 -335 -358 l-47 -88 -234 -5 c-478 -8 -878 -62 -1351 -181
-75 -19 -141 -34 -146 -34 -5 0 -26 35 -47 78 -134 278 -218 590 -267 987 -19
156 -16 695 5 885 51 451 84 599 178 799 43 92 89 175 94 169 1 -2 -3 -59 -11
-128z m16102 -15 c106 -219 138 -357 191 -825 22 -196 25 -719 5 -885 -36
-302 -97 -566 -181 -787 -46 -121 -120 -278 -132 -278 -4 0 -79 18 -166 39
-480 118 -855 168 -1332 176 l-234 5 -54 100 c-100 189 -179 272 -328 345
-174 86 -324 110 -640 102 -347 -8 -720 -76 -1203 -219 -57 -16 -105 -28 -107
-27 -2 2 37 51 86 108 167 194 312 431 388 633 l10 27 133 -63 c446 -213 893
-333 1397 -377 194 -17 599 -7 768 19 789 122 1225 513 1330 1195 28 182 21
636 -13 832 -5 29 -4 29 12 10 9 -11 40 -69 70 -130z m-11546 -626 c41 -6 90
-12 108 -14 23 -2 62 -27 130 -81 674 -541 1422 -1216 2175 -1966 l329 -327
-7 -288 c-4 -158 -9 -291 -12 -295 -2 -4 -160 71 -351 166 -831 415 -1601 750
-2306 1002 -239 86 -261 99 -396 234 -275 275 -474 610 -526 887 -30 162 -3
281 91 401 169 216 460 323 765 281z m7275 -19 c217 -56 419 -217 486 -388 33
-84 32 -244 -4 -362 -80 -267 -265 -559 -507 -800 -135 -135 -158 -148 -396
-234 -716 -257 -1470 -584 -2295 -997 -187 -93 -341 -169 -343 -169 -2 0 -7
107 -10 238 -4 130 -9 253 -11 272 -5 34 2 41 446 485 448 447 511 508 874
844 400 370 885 792 1235 1073 43 35 77 45 195 62 67 10 253 -4 330 -24z
m-4282 -519 c138 -49 257 -65 477 -65 218 0 324 14 473 64 49 17 93 28 98 24
5 -3 9 -36 9 -73 0 -165 -150 -315 -380 -377 -90 -25 -309 -25 -400 -1 -245
65 -400 233 -382 415 5 50 2 50 105 13z m-7924 -566 c55 -522 212 -979 463
-1342 30 -44 47 -77 42 -83 -35 -33 -345 -165 -578 -246 l-140 -48 -40 48
c-85 100 -168 226 -240 366 -183 356 -279 752 -322 1332 l-6 87 43 11 c243 61
484 193 665 363 l89 84 6 -231 c4 -127 12 -280 18 -341z m8129 41 c123 -38
251 -51 370 -36 105 13 253 57 319 96 l41 24 11 -33 c24 -79 81 -445 81 -526
0 -35 -6 -45 -57 -91 -67 -59 -208 -132 -303 -156 -87 -22 -245 -22 -330 1
-142 37 -287 125 -370 225 l-42 50 17 132 c16 128 60 372 71 389 3 5 28 -4 57
-20 29 -16 89 -41 135 -55z m-4653 -450 c954 -145 2341 -662 3910 -1459 l260
-132 3 -69 c2 -53 0 -67 -10 -63 -7 2 -71 28 -143 57 -540 216 -1223 388
-2137 535 -1021 165 -1272 238 -1933 560 -468 228 -761 344 -939 370 -58 9
-62 16 -28 48 76 73 227 135 392 162 109 18 482 13 625 -9z m10445 10 c171
-26 323 -88 402 -163 34 -32 30 -39 -28 -48 -178 -26 -471 -142 -939 -370
-661 -322 -912 -395 -1935 -560 -940 -152 -1739 -344 -2165 -520 -46 -19 -88
-35 -93 -35 -6 0 -12 19 -15 43 -4 34 0 46 17 61 27 24 544 283 886 443 1457
686 2609 1076 3410 1156 98 10 374 6 460 -7z m-6020 -122 c134 -137 331 -218
530 -218 170 1 320 53 463 163 l65 50 6 -37 c10 -66 38 -545 52 -878 l6 -162
-53 -39 c-333 -246 -781 -239 -1102 16 -41 33 -78 69 -82 81 -16 50 45 1070
64 1070 3 0 26 -21 51 -46z m-5371 -139 c219 -53 388 -121 806 -322 686 -331
938 -414 1629 -533 227 -39 252 -45 225 -54 -336 -113 -949 -256 -1329 -310
-481 -69 -952 -74 -1410 -15 -85 11 -182 23 -215 27 -59 7 -60 8 -73 47 -97
286 -60 627 103 960 79 161 120 225 143 225 9 0 64 -11 121 -25z m11898 -32
c83 -130 167 -330 214 -508 57 -222 18 -652 -61 -661 -14 -1 -90 -11 -170 -23
-344 -48 -877 -63 -1185 -33 -459 45 -969 150 -1520 313 -129 39 -129 39 -123
44 3 3 108 23 234 45 691 119 943 202 1629 533 413 199 566 260 787 317 155
40 152 41 195 -27z m-12316 -181 c15 -6 14 -15 -13 -82 -62 -156 -89 -290 -95
-466 -7 -192 5 -289 52 -431 55 -165 136 -311 244 -440 28 -35 46 -63 39 -63
-25 0 -214 49 -346 90 -348 107 -662 262 -925 458 -119 88 -358 318 -393 379
-14 22 -31 43 -38 46 -28 11 -203 285 -189 297 21 20 504 123 743 159 304 45
863 77 921 53z m12944 -2 c403 -21 710 -68 1164 -178 63 -15 116 -32 118 -37
2 -6 -29 -60 -68 -120 -355 -547 -909 -914 -1677 -1111 -73 -19 -140 -34 -148
-34 -9 0 5 24 37 63 108 129 189 275 244 440 47 142 59 238 52 430 -5 177 -32
309 -95 467 -27 67 -28 76 -13 82 24 10 171 9 386 -2z m-14380 -730 c407 -431
930 -705 1650 -865 66 -14 121 -28 123 -29 10 -11 -446 -15 -618 -6 -741 39
-1244 178 -1668 460 -112 75 -282 213 -282 229 0 4 78 36 173 70 183 67 414
166 481 207 23 13 46 23 51 22 6 -2 46 -41 90 -88z m4926 -15 c676 -113 1315
-278 1809 -465 201 -76 240 -96 240 -119 0 -12 -2 -21 -4 -21 -2 0 -55 9 -118
19 -282 47 -610 34 -1538 -64 -1088 -115 -2516 -217 -2815 -201 -141 8 -346
29 -499 52 l-110 17 -86 83 c-99 96 -179 202 -246 329 l-47 88 49 -6 c27 -3
103 -13 169 -21 845 -109 1654 -21 2695 293 107 32 203 59 213 60 10 0 140
-19 288 -44z m6086 -19 c1071 -316 1843 -399 2688 -290 66 8 142 18 169 21
l49 6 -47 -88 c-67 -127 -147 -233 -246 -329 l-86 -83 -110 -17 c-322 -48
-544 -61 -814 -47 -507 27 -1132 71 -1465 101 -267 25 -839 83 -1175 119 -638
69 -706 75 -1000 75 -245 0 -287 -2 -380 -22 -130 -27 -120 -28 -120 11 0 38
-1 37 145 94 348 135 716 235 1385 375 194 40 725 135 767 137 12 1 120 -28
240 -63z m-3835 -26 c301 -243 757 -263 1086 -46 l81 53 6 -51 c4 -28 7 -265
8 -525 l2 -475 -60 -49 c-75 -61 -216 -131 -320 -159 -117 -31 -326 -31 -444
1 -155 41 -329 132 -420 219 l-43 41 6 118 c3 65 8 287 11 493 6 346 10 430
21 430 2 0 32 -22 66 -50z m2138 -630 c164 -11 244 -19 1000 -99 780 -83 1357
-131 1985 -166 154 -9 289 -20 300 -25 11 -5 90 -34 175 -64 198 -69 295 -109
505 -210 181 -88 424 -224 464 -260 40 -36 168 -192 219 -269 334 -495 352
-892 53 -1187 -111 -109 -318 -231 -475 -279 -461 -141 -1135 115 -2086 793
-285 202 -531 391 -1250 957 -284 224 -595 458 -747 562 -124 86 -362 232
-393 242 -40 13 -18 25 38 20 31 -3 127 -10 212 -15z m-507 -11 c85 -28 278
-129 422 -221 227 -144 485 -336 1020 -756 l240 -188 69 -130 c482 -907 1304
-1631 2274 -2004 62 -24 109 -46 105 -50 -4 -4 -109 -18 -233 -31 -490 -50
-822 -24 -1253 97 -197 55 -192 53 -363 190 -723 581 -1649 1624 -2481 2794
-132 186 -135 192 -131 233 4 37 30 49 163 71 107 18 97 19 168 -5z m-2383 6
c0 -3 -28 -19 -62 -36 -259 -131 -610 -382 -1453 -1040 -1246 -973 -1899
-1364 -2487 -1488 -266 -57 -475 -33 -700 79 -258 129 -412 280 -484 477 -27
73 -29 88 -29 228 l0 150 43 125 c67 196 183 395 334 575 100 120 101 121 268
216 269 154 544 278 845 382 148 51 169 55 280 62 788 42 1343 87 2317 184
326 33 656 65 733 71 77 6 158 12 180 13 71 6 215 7 215 2z m441 -21 c105 -20
110 -24 102 -82 -7 -50 -23 -74 -281 -422 -808 -1087 -1672 -2036 -2357 -2585
-150 -120 -159 -125 -352 -179 -432 -121 -763 -147 -1253 -97 -124 13 -229 27
-233 31 -4 4 43 26 105 50 962 370 1790 1095 2263 1983 l57 108 332 257 c762
592 1098 816 1379 918 106 38 125 40 238 18z m-6088 -269 c299 -36 1014 -39
1556 -9 83 5 112 4 107 -5 -4 -6 -12 -11 -17 -11 -18 0 -220 -91 -380 -170
-432 -217 -800 -474 -1112 -779 -85 -83 -151 -141 -156 -135 -4 5 -140 185
-301 399 -161 215 -297 395 -302 402 -9 12 175 163 337 277 68 48 85 55 113
50 18 -3 87 -11 155 -19z m14120 -17 c165 -111 370 -277 359 -292 -5 -6 -141
-186 -302 -401 -161 -214 -296 -394 -301 -399 -5 -6 -70 51 -156 135 -312 305
-680 562 -1112 779 -160 79 -362 170 -380 170 -5 0 -13 5 -17 11 -5 9 24 10
112 5 327 -17 989 -27 1202 -17 204 10 491 37 501 47 11 11 37 0 94 -38z
m-6303 -173 c938 -1299 1917 -2361 2668 -2893 369 -261 560 -462 706 -742 146
-280 200 -510 200 -840 0 -213 -9 -294 -55 -470 -128 -486 -429 -864 -774
-973 -302 -96 -783 -46 -1281 132 -314 112 -335 124 -484 278 -208 212 -372
433 -425 573 -236 616 -490 1514 -655 2311 l-40 194 12 313 c6 171 15 312 20
312 4 0 8 -1 8 -3 0 -11 699 -1424 795 -1607 340 -651 553 -932 860 -1135 l55
-37 0 -73 c0 -341 223 -658 535 -762 118 -39 304 -39 420 0 232 78 415 268
497 517 45 139 51 339 14 485 -88 343 -347 574 -677 601 l-77 7 -6 71 c-17
176 -78 312 -214 479 -57 70 -259 268 -1002 978 -608 582 -750 729 -928 965
-81 107 -197 299 -244 404 l-38 85 0 490 c0 269 4 485 8 480 5 -6 51 -68 102
-140z m-1645 -810 c-22 -75 -122 -267 -203 -389 -188 -282 -405 -509 -1364
-1425 -312 -297 -595 -573 -629 -613 -148 -171 -217 -321 -235 -504 l-6 -71
-77 -7 c-518 -43 -839 -602 -648 -1129 79 -218 266 -402 482 -474 116 -39 302
-39 420 0 313 104 535 420 535 762 l0 73 56 38 c308 204 519 482 854 1124 67
129 146 280 175 335 29 55 115 219 191 365 75 146 173 333 216 415 43 83 115
221 160 308 44 86 85 157 90 157 4 0 9 -57 9 -127 1 -71 4 -180 8 -243 6 -111
4 -124 -46 -370 -157 -779 -434 -1763 -662 -2351 -60 -154 -206 -352 -421
-572 -133 -137 -153 -150 -317 -215 -577 -229 -1112 -301 -1448 -195 -393 124
-725 599 -817 1168 -19 117 -16 456 5 575 35 202 113 420 211 594 145 253 332
443 678 688 590 418 1335 1170 2094 2113 218 271 528 677 664 869 l35 48 3
-448 c2 -372 0 -457 -13 -499z m175 833 c110 -95 336 -194 500 -219 98 -15
263 -6 365 21 97 26 242 94 315 149 30 23 58 41 62 41 5 0 8 -236 8 -524 l0
-524 -52 -47 c-140 -126 -322 -194 -538 -202 -110 -4 -137 -1 -223 21 -157 40
-311 120 -434 223 l-53 45 0 524 c0 288 3 524 6 524 3 0 23 -15 44 -32z
m-6731 -623 c221 -293 310 -419 303 -428 -355 -447 -528 -785 -647 -1262 l-43
-170 -78 -27 c-551 -187 -1093 -308 -1380 -308 -65 0 -63 -6 -34 161 138 771
644 1607 1393 2299 89 82 165 150 168 150 3 0 147 -187 318 -415z m15126 267
c433 -399 819 -892 1059 -1354 505 -970 514 -1931 29 -2903 -393 -787 -1014
-1525 -1741 -2072 -209 -157 -530 -365 -679 -442 l-42 -21 -16 52 c-54 179
-85 471 -91 873 l-6 320 49 31 c292 187 676 596 903 964 499 808 629 1954 322
2851 -123 360 -281 636 -574 1006 -10 13 608 846 623 841 5 -2 78 -68 164
-146z m-14209 -306 c-226 -354 -280 -739 -142 -1013 93 -185 269 -342 521
-463 182 -88 330 -117 533 -107 560 29 1221 372 2330 1210 145 109 266 196
269 193 7 -7 -70 -139 -175 -301 -510 -786 -1314 -1415 -2187 -1711 l-99 -34
-181 19 c-629 69 -1035 48 -1456 -75 -201 -58 -407 -143 -560 -231 -42 -23
-78 -43 -82 -43 -26 0 -11 409 23 617 108 665 397 1215 896 1704 134 130 334
303 342 295 2 -3 -12 -30 -32 -60z m12919 -52 c124 -103 360 -340 451 -454
355 -438 561 -903 648 -1455 30 -194 43 -595 19 -595 -3 0 -40 20 -82 43 -153
88 -359 173 -560 231 -421 123 -827 144 -1457 75 l-181 -19 -103 35 c-798 278
-1509 799 -2020 1480 -134 178 -276 401 -354 554 -22 43 -31 48 204 -134 922
-713 1533 -1081 2033 -1224 428 -122 743 -85 1068 124 302 194 440 419 441
715 0 214 -78 457 -217 674 -57 90 -60 91 110 -50z m-7265 -646 l0 -411 -69
-131 c-66 -125 -207 -397 -631 -1211 -427 -820 -531 -986 -765 -1221 -107
-108 -261 -232 -273 -220 -2 3 -10 36 -17 73 -60 312 -300 568 -589 626 -59
12 -61 14 -64 46 -5 45 24 182 53 254 35 86 127 219 220 316 85 90 335 331
885 855 663 631 883 866 1056 1126 56 84 133 215 160 273 10 20 21 37 26 37 4
0 8 -185 8 -412z m1594 264 c190 -334 401 -569 1151 -1283 859 -818 952 -911
1025 -1022 87 -133 132 -259 134 -376 l1 -65 -61 -12 c-289 -59 -530 -315
-589 -627 -7 -37 -15 -70 -17 -73 -12 -11 -165 111 -269 215 -294 295 -396
475 -1223 2155 l-226 458 0 374 c0 206 2 374 4 374 2 0 33 -53 70 -118z
m-1450 -1 c48 -53 223 -152 347 -197 274 -99 570 -62 815 102 53 35 98 64 100
64 13 0 -8 -1029 -21 -1070 -8 -23 -112 -96 -200 -140 -335 -168 -774 -98
-1023 162 l-32 34 -10 225 c-12 277 -13 839 -2 839 5 0 17 -9 26 -19z m45
-1160 c163 -136 335 -200 562 -208 235 -9 412 45 608 184 l24 18 -7 -145 c-8
-182 -31 -489 -52 -730 l-17 -185 -47 -46 c-96 -94 -272 -171 -420 -184 -135
-12 -289 27 -421 105 -84 50 -205 167 -213 207 -9 42 -43 470 -55 688 -6 105
-14 223 -17 263 -3 39 -3 72 1 72 4 0 28 -17 54 -39z m-7180 -483 c-41 -367
-2 -876 97 -1263 25 -99 48 -190 51 -203 6 -24 -25 -73 -195 -307 -256 -352
-472 -543 -729 -644 l-51 -20 -55 87 c-374 595 -561 1093 -617 1651 -11 115
-13 356 -4 448 l7 60 131 6 c335 17 716 100 1236 270 74 24 137 42 139 41 2
-2 -3 -58 -10 -126z m2016 -224 c173 -14 243 -22 607 -64 375 -43 641 -47 953
-14 46 5 27 -7 -215 -133 -932 -490 -1391 -804 -1888 -1296 -225 -222 -385
-408 -571 -659 -77 -104 -63 -108 -180 52 -317 431 -509 910 -590 1477 -26
180 -29 242 -10 254 204 134 492 256 769 324 339 83 650 99 1125 59z m12080
16 c476 -35 927 -177 1264 -399 19 -12 16 -74 -10 -254 -81 -564 -275 -1051
-587 -1473 -121 -164 -106 -160 -183 -56 -123 168 -297 378 -410 496 -561 589
-1036 927 -2049 1459 -254 133 -263 138 -210 133 358 -38 547 -32 1120 34 533
61 821 77 1065 60z m-10396 -227 c-407 -427 -594 -1005 -513 -1584 18 -132 17
-135 -37 -219 -90 -139 -242 -265 -376 -311 -289 -100 -649 99 -748 413 -67
213 -30 440 125 757 l67 137 174 116 c204 135 416 262 694 415 209 116 653
343 669 343 5 0 -20 -30 -55 -67z m8266 -49 c424 -214 818 -439 1124 -642
l174 -116 67 -137 c139 -285 183 -496 144 -686 -74 -359 -450 -593 -773 -482
-135 46 -296 185 -381 328 l-42 71 17 135 c25 192 17 450 -19 632 -72 361
-237 675 -495 946 -35 37 -60 67 -55 67 5 0 113 -52 239 -116z m-4602 -244
c125 -83 249 -120 413 -120 173 0 321 48 448 145 26 20 51 34 54 30 13 -13
-49 -474 -104 -775 -128 -702 -308 -1121 -454 -1060 -127 52 -274 430 -379
970 -53 271 -131 817 -131 915 l0 29 53 -50 c28 -28 74 -66 100 -84z m-2702
-506 c502 -148 647 -859 250 -1227 -124 -114 -245 -161 -411 -161 -160 1 -280
49 -400 161 -297 275 -307 777 -21 1063 161 162 380 223 582 164z m6424 11
c413 -86 642 -580 464 -999 -77 -181 -238 -330 -414 -382 -81 -24 -239 -24
-320 0 -361 107 -564 540 -435 928 107 322 408 515 705 453z m-8998 -191 c-51
-112 -99 -251 -118 -339 -19 -90 -17 -287 5 -360 65 -219 220 -385 437 -467
76 -29 95 -32 199 -32 107 0 120 2 198 33 139 55 267 163 364 304 22 32 41 57
43 55 1 -2 25 -71 53 -153 182 -548 521 -892 955 -969 271 -48 636 -11 1016
104 74 22 137 40 140 40 31 -1 -287 -172 -434 -235 -473 -201 -919 -284 -1464
-272 -321 7 -522 34 -821 108 -656 162 -1252 502 -1693 966 l-58 61 102 138
c292 392 609 718 1014 1043 55 44 101 78 103 76 2 -1 -17 -47 -41 -101z
m11393 4 c372 -295 696 -630 989 -1021 l103 -138 -54 -57 c-386 -404 -846
-694 -1398 -884 -560 -191 -1171 -246 -1770 -157 -342 50 -733 178 -1030 337
-103 54 -231 132 -219 132 3 0 66 -18 140 -40 423 -128 820 -158 1105 -85 384
100 707 454 868 955 21 63 41 124 45 134 7 17 13 12 48 -40 98 -143 225 -249
365 -305 78 -31 91 -33 198 -33 104 0 123 3 199 32 217 82 372 248 437 467 22
74 25 271 5 360 -21 94 -65 221 -115 333 -51 114 -53 121 -28 100 9 -8 60 -48
112 -90z m-13245 -290 c37 -97 159 -343 219 -443 222 -367 554 -730 878 -959
l87 -61 0 -205 c1 -426 -38 -816 -100 -1007 l-10 -33 -42 22 c-76 38 -290 170
-427 263 -606 409 -1124 915 -1548 1512 l-52 73 108 54 c285 144 495 350 792
779 29 42 57 77 60 77 4 0 19 -33 35 -72z m9487 -1363 c544 -457 1264 -728
2001 -752 177 -6 179 -6 188 -30 16 -42 22 -476 10 -668 -13 -201 -46 -474
-58 -486 -10 -10 -193 6 -318 27 -304 51 -611 167 -825 310 -320 214 -630 584
-935 1114 -128 222 -395 765 -395 802 0 3 53 -48 118 -114 64 -66 161 -158
214 -203z m-3647 281 c-136 -326 -394 -809 -578 -1086 -415 -622 -795 -919
-1357 -1060 -192 -48 -503 -90 -523 -71 -12 12 -45 285 -58 486 -12 192 -6
626 10 668 9 24 11 24 188 30 580 19 1173 198 1650 497 212 133 378 267 563
454 63 64 116 116 117 116 1 0 -4 -15 -12 -34z m-4440 -521 c497 -292 1119
-481 1688 -511 l125 -7 -5 -286 c-7 -341 14 -680 53 -875 l6 -29 -183 6 c-473
16 -984 136 -1503 352 -116 48 -391 177 -402 189 -1 0 9 44 22 96 62 241 82
424 91 833 3 158 8 287 11 287 2 0 46 -25 97 -55z m12318 -232 c10 -411 29
-593 91 -833 13 -52 23 -96 22 -96 -11 -12 -286 -141 -402 -189 -519 -216
-1030 -336 -1503 -352 l-183 -6 6 29 c40 197 59 513 54 860 l-5 301 125 7
c569 30 1209 225 1692 514 47 28 88 51 91 52 3 0 9 -129 12 -287z"/>
<path d="M4333 13140 c-188 -26 -347 -102 -507 -240 -88 -77 -197 -262 -238
-405 -33 -116 -33 -343 0 -463 104 -382 457 -652 852 -652 384 0 720 248 841
620 97 299 13 652 -210 878 -191 194 -482 298 -738 262z m350 -147 c247 -86
426 -276 499 -529 30 -105 32 -296 4 -394 -79 -271 -269 -467 -531 -546 -190
-57 -419 -31 -594 69 -440 250 -523 855 -165 1212 100 101 242 180 378 211
108 24 303 13 409 -23z"/>
<path d="M16753 13140 c-367 -51 -648 -301 -750 -664 -13 -46 -17 -100 -17
-221 0 -153 2 -164 32 -255 108 -324 377 -557 702 -609 381 -62 758 135 933
485 134 267 112 615 -55 869 -183 278 -527 439 -845 395z m317 -135 c215 -67
378 -204 476 -400 56 -112 73 -174 80 -295 8 -117 -7 -216 -47 -321 -169 -439
-688 -626 -1099 -396 -247 139 -405 429 -387 711 22 347 266 635 601 712 83
19 301 12 376 -11z"/>
<path d="M7039 11727 c-312 -108 -392 -507 -147 -733 209 -193 557 -120 681
144 61 131 46 302 -36 423 -110 159 -319 229 -498 166z m272 -119 c204 -94
251 -375 89 -522 -73 -66 -114 -81 -220 -81 -84 0 -101 3 -146 27 -173 91
-227 309 -116 471 85 122 256 168 393 105z"/>
<path d="M7854 10950 c-95 -30 -175 -120 -194 -217 -43 -233 202 -410 411
-297 190 104 189 384 -1 488 -58 32 -158 44 -216 26z m153 -121 c85 -41 118
-150 70 -233 -30 -54 -97 -89 -155 -83 -168 18 -210 241 -60 316 54 26 90 27
145 0z"/>
<path d="M14005 11736 c-125 -40 -219 -121 -274 -236 -35 -72 -36 -79 -36
-185 0 -103 2 -114 32 -177 146 -308 562 -341 755 -61 159 232 41 569 -229
653 -74 23 -186 26 -248 6z m261 -136 c235 -116 232 -447 -6 -571 -65 -34
-215 -35 -278 -1 -118 63 -177 159 -177 287 0 246 239 394 461 285z"/>
<path d="M13277 10946 c-137 -51 -212 -184 -183 -326 53 -256 407 -299 522
-64 53 108 26 258 -58 329 -78 66 -198 92 -281 61z m182 -129 c128 -85 74
-287 -81 -304 -58 -6 -125 29 -155 83 -88 153 88 318 236 221z"/>
<path d="M16000 7599 c-25 -5 -78 -25 -118 -45 -300 -148 -366 -553 -128 -789
313 -310 846 -94 846 342 0 320 -285 553 -600 492z m195 -115 c118 -30 206
-103 259 -214 62 -129 35 -300 -63 -412 -162 -185 -477 -162 -607 44 -186 295
78 669 411 582z"/>
<path d="M5090 7599 c-76 -15 -180 -73 -242 -135 -314 -314 -96 -845 346 -844
145 0 249 43 352 145 238 236 172 642 -128 789 -108 53 -213 67 -328 45z m193
-114 c123 -32 207 -100 258 -210 116 -246 -50 -526 -322 -543 -88 -5 -155 12
-231 60 -157 99 -221 313 -142 478 82 171 263 260 437 215z"/>
<path d="M4060 4956 c-225 -66 -368 -272 -331 -474 60 -324 471 -420 710 -167
81 86 116 169 116 280 0 78 -4 98 -29 153 -37 81 -122 162 -203 193 -71 27
-198 34 -263 15z m235 -126 c131 -58 186 -215 123 -350 -96 -207 -371 -263
-517 -105 -206 223 107 584 394 455z"/>
<path d="M17008 4951 c-71 -23 -112 -48 -165 -103 -104 -106 -130 -274 -66
-411 177 -375 722 -344 794 46 54 291 -271 561 -563 468z m264 -128 c188 -83
252 -312 127 -448 -171 -186 -502 -70 -544 192 -14 90 52 215 138 259 75 40
186 38 279 -3z"/>
</g>
</svg>
