<svg xmlns="http://www.w3.org/2000/svg" viewBox="0 0 2096 2075" fill="#333" role="img" aria-label="line art">
<g transform="translate(0.000000,2075.000000) scale(0.100000,-0.100000)"
fill="#333" stroke="none">
<path d="M5529 20326 c-204 -87 -352 -261 -395 -466 -16 -77 -16 -335 0 -372
27 -61 192 -81 291 -34 203 94 375 386 379 641 3 202 -113 300 -275 231z m141
-118 c41 -68 35 -168 -21 -322 -51 -140 -167 -284 -266 -331 -34 -16 -123 -22
-143 -10 -6 4 -10 56 -10 124 0 135 22 242 67 319 45 77 148 174 232 215 92
46 115 47 141 5z"/>
<path d="M13346 20259 c-118 -79 -260 -308 -335 -543 -51 -157 -61 -220 -68
-391 -6 -176 4 -280 41 -427 13 -51 23 -94 22 -95 -1 -1 -35 27 -76 61 -513
433 -1054 409 -1535 -69 -217 -216 -313 -386 -257 -455 24 -30 52 -29 287 4
312 43 460 56 660 56 186 0 389 -9 381 -17 -2 -2 -52 -15 -110 -28 -408 -92
-816 -330 -1136 -661 -292 -302 -590 -722 -825 -1164 -43 -80 -86 -158 -97
-173 -63 -89 -24 -184 55 -132 12 8 78 33 147 55 381 126 654 360 1025 875
492 685 751 938 1068 1043 99 33 333 72 434 72 227 0 655 -181 953 -405 41
-31 97 -72 123 -92 26 -19 46 -37 44 -40 -3 -2 -40 5 -83 16 -300 75 -698 46
-1021 -75 -321 -120 -597 -316 -764 -544 -181 -246 -191 -344 -41 -400 145
-55 563 5 1010 144 425 133 720 278 957 470 39 31 107 75 153 98 l82 41 35
-29 c57 -48 263 -239 264 -244 1 -3 -54 -5 -122 -6 -327 -3 -808 -169 -1082
-374 -98 -74 -127 -109 -127 -158 0 -128 289 -143 721 -37 381 94 612 211 732
370 23 30 45 55 50 55 4 0 37 -22 73 -49 192 -145 483 -279 800 -366 32 -9 56
-18 53 -21 -3 -3 -69 0 -147 7 -173 14 -511 7 -700 -16 -523 -63 -901 -252
-1043 -523 -49 -94 -67 -168 -67 -282 0 -107 14 -170 58 -264 101 -217 293
-380 561 -476 61 -23 63 -24 58 -54 -3 -17 -13 -74 -22 -126 -78 -438 89 -841
425 -1028 364 -202 890 -46 1174 348 157 218 256 455 367 880 l12 45 23 -146
c37 -233 79 -380 167 -574 184 -410 372 -625 609 -700 197 -62 370 -50 618 42
362 135 636 364 745 622 154 366 -27 784 -530 1229 l-60 53 35 -5 c379 -60
778 -16 1043 115 244 121 350 289 349 554 -1 205 -63 347 -241 552 -39 45 -71
85 -71 90 0 4 23 59 50 120 122 273 137 466 50 650 -37 80 -133 179 -210 216
-275 132 -828 80 -1200 -114 -187 -98 -436 -305 -582 -485 -28 -35 -53 -62
-55 -61 -2 2 6 46 16 99 76 367 96 866 47 1132 -64 337 -239 584 -501 706
-101 47 -155 60 -250 60 -153 0 -271 -49 -433 -180 -202 -162 -191 -159 -309
-92 -112 64 -174 82 -285 82 -364 0 -608 -368 -585 -883 16 -372 146 -687 424
-1032 86 -107 281 -301 376 -375 31 -25 53 -46 48 -48 -18 -6 -306 95 -428
150 -186 85 -413 239 -413 282 0 11 -11 56 -25 99 -46 143 -55 241 -60 615 -5
455 -30 751 -125 1472 -16 124 -43 342 -60 485 -40 339 -54 392 -111 415 -44
19 -76 5 -146 -63 -152 -145 -309 -442 -377 -715 -48 -187 -59 -305 -53 -557
7 -313 37 -492 123 -724 58 -156 168 -378 253 -511 16 -25 16 -25 -6 -10 -12
8 -66 51 -121 95 -100 80 -101 81 -157 195 -110 221 -211 569 -295 1015 -62
331 -202 969 -236 1085 -60 196 -114 238 -218 169z m89 -126 c34 -80 174 -710
259 -1167 69 -367 162 -720 235 -890 11 -25 18 -46 15 -46 -11 0 -153 91 -165
106 -7 9 -49 34 -93 56 -316 158 -516 410 -604 757 -24 98 -27 122 -27 311 0
190 2 213 27 311 42 167 110 324 191 444 44 65 124 155 138 155 5 0 16 -17 24
-37z m1109 2 c3 -13 22 -156 41 -317 19 -161 48 -394 65 -518 85 -643 110
-951 115 -1405 3 -252 8 -378 19 -449 9 -55 16 -102 16 -104 0 -26 -174 194
-277 348 -298 449 -415 818 -416 1310 0 241 26 408 94 615 51 154 185 392 278
498 49 54 56 57 65 22z m2159 -976 c181 -61 361 -238 441 -436 63 -154 86
-314 86 -599 0 -408 -76 -858 -194 -1143 -14 -36 -26 -73 -26 -84 0 -22 6 -23
-110 19 -62 23 -96 28 -202 32 l-128 4 0 150 c0 83 7 223 16 312 22 223 15
499 -15 611 -71 256 -229 415 -414 415 -150 0 -279 -119 -344 -314 -24 -74
-27 -95 -27 -231 1 -171 20 -284 80 -463 72 -213 160 -361 300 -498 l92 -92
-64 -51 c-35 -28 -64 -56 -64 -61 0 -37 -157 46 -294 156 -405 325 -672 729
-753 1139 -29 147 -24 401 10 529 53 199 155 343 283 404 53 24 70 27 164 27
112 0 128 -5 282 -91 107 -59 167 -41 348 105 63 51 134 104 158 118 109 64
259 81 375 42z m-4303 -120 c183 -50 364 -162 526 -323 96 -96 281 -323 271
-333 -2 -1 -39 6 -83 17 -324 80 -955 130 -1284 101 -137 -12 -503 -57 -552
-67 -16 -3 -28 -1 -28 4 0 24 92 143 188 243 311 325 641 448 962 358z m3877
-680 c63 -30 143 -115 181 -191 93 -183 109 -388 66 -818 -8 -85 -14 -213 -12
-284 l3 -129 -90 -28 c-49 -16 -98 -29 -109 -29 -32 0 -225 205 -275 293 -124
220 -190 448 -198 682 -8 214 24 324 124 435 90 100 197 124 310 69z m-3935
-153 c-275 -170 -506 -420 -902 -976 -215 -302 -407 -513 -588 -647 -116 -86
-388 -220 -407 -201 -7 6 99 201 193 358 235 392 555 798 791 1004 276 240
571 404 871 485 113 30 121 25 42 -23z m6565 -311 c145 -28 237 -95 296 -214
31 -63 32 -71 32 -186 0 -141 -16 -204 -98 -380 -38 -81 -51 -122 -52 -157 0
-50 -8 -38 133 -200 119 -137 182 -288 182 -437 -1 -285 -180 -454 -575 -542
-117 -26 -452 -37 -605 -20 -326 38 -610 135 -874 301 l-87 55 6 44 c11 73 8
71 111 71 100 0 396 37 562 70 643 129 959 461 785 827 -55 118 -213 228 -363
253 -138 23 -301 -11 -495 -105 -198 -95 -341 -202 -576 -432 l-126 -123 -33
41 c-31 40 -32 42 -20 83 17 58 44 108 113 211 216 324 466 560 734 694 286
144 660 201 950 146z m-5069 -216 c156 -16 390 -81 448 -123 17 -13 16 -15
-12 -29 -17 -9 -90 -60 -163 -115 -237 -178 -435 -278 -781 -393 -393 -131
-742 -204 -947 -197 -143 4 -153 11 -119 83 51 108 192 284 301 374 246 204
565 341 897 385 198 27 251 29 376 15z m4574 -369 c121 -37 211 -110 266 -214
25 -46 27 -61 27 -161 0 -101 -2 -114 -28 -164 -100 -189 -371 -340 -747 -415
-177 -36 -427 -67 -545 -69 l-100 -2 -2 45 c-5 86 -25 185 -55 264 l-30 78
128 129 c216 217 365 329 561 425 201 98 385 128 525 84z m-3635 -224 c5 -5
-25 -39 -65 -76 -140 -132 -462 -253 -839 -316 -106 -18 -316 -24 -330 -11
-16 17 147 131 285 201 147 74 415 160 612 196 106 20 320 23 337 6z m2025
-257 c178 -38 296 -161 348 -363 51 -200 1 -389 -139 -526 -177 -174 -411
-207 -634 -88 -165 88 -261 274 -262 508 0 154 57 276 171 362 118 90 359 140
516 107z m-967 -323 c61 -9 123 -20 139 -24 l29 -8 1 -107 1 -107 -30 -5 c-16
-2 -64 -10 -105 -16 -225 -34 -516 -167 -689 -314 -286 -242 -343 -593 -133
-817 66 -70 129 -100 224 -106 97 -6 160 9 273 64 231 111 405 293 604 631
l72 123 33 -25 c18 -13 72 -43 121 -66 l88 -41 -6 -132 c-6 -146 -40 -343 -92
-541 -164 -628 -431 -985 -817 -1095 -105 -31 -301 -38 -388 -15 -252 65 -454
290 -511 570 -26 126 -22 330 10 469 35 151 25 177 -81 216 -317 116 -505 289
-573 524 -30 102 -18 237 29 331 136 275 487 441 1056 500 173 18 589 13 745
-9z m199 -372 c25 -87 76 -192 115 -237 l32 -36 -47 -83 c-118 -206 -215 -342
-318 -443 -341 -339 -657 -374 -797 -90 -112 228 3 516 282 703 209 139 490
243 679 251 35 1 35 1 54 -65z m1291 -194 c92 -56 281 -148 376 -183 276 -100
675 -479 824 -782 115 -234 120 -399 19 -605 -143 -288 -644 -580 -997 -580
-276 0 -469 146 -660 500 -153 284 -226 530 -267 895 -10 89 -39 478 -36 481
0 1 42 4 93 5 l92 4 6 -50 c35 -287 243 -808 401 -1007 50 -64 162 -144 251
-180 92 -36 229 -34 302 7 168 93 228 291 156 515 -80 248 -214 413 -560 690
-125 100 -225 191 -225 205 0 7 7 19 16 26 9 7 34 40 56 72 38 55 41 58 61 44
12 -8 54 -33 92 -57z m-210 -181 c28 -28 102 -93 166 -145 370 -298 506 -471
564 -716 52 -221 -49 -405 -237 -433 -93 -14 -263 60 -358 156 -158 159 -388
717 -423 1026 l-5 42 82 39 c44 21 92 49 106 60 37 31 51 27 105 -29z"/>
<path d="M16536 16565 c-77 -27 -117 -73 -166 -187 -20 -46 -20 -51 -5 -114
40 -173 114 -251 250 -261 90 -8 142 10 196 67 123 126 117 343 -11 452 -66
57 -175 75 -264 43z m182 -115 c97 -60 96 -261 -2 -321 -40 -24 -111 -25 -156
0 -105 56 -115 261 -17 321 44 27 131 27 175 0z"/>
<path d="M15360 20205 c-60 -35 -97 -71 -123 -120 -29 -53 -28 -151 1 -217
l21 -47 -51 -17 c-29 -9 -71 -34 -95 -57 -133 -122 -136 -283 -8 -362 62 -39
165 -41 260 -6 83 31 86 30 99 -8 73 -212 401 -202 446 14 l6 30 89 2 c266 5
415 166 304 328 -26 37 -94 85 -121 85 -23 0 -23 -2 12 65 50 96 35 195 -39
258 -45 37 -94 50 -175 45 -82 -6 -136 -30 -200 -88 l-42 -39 -34 47 c-76 101
-250 145 -350 87z m167 -90 c78 -23 153 -118 153 -195 0 -23 -6 -29 -42 -39
-22 -7 -59 -24 -81 -38 -36 -23 -44 -24 -77 -14 -21 6 -53 11 -73 11 -32 0
-37 4 -57 46 -50 102 -30 176 60 222 53 26 52 26 117 7z m525 -25 c129 -36 55
-227 -108 -280 -33 -11 -37 -10 -77 25 -23 20 -48 41 -55 47 -19 14 -7 73 23
119 26 40 80 78 129 89 44 11 47 11 88 0z m-268 -331 c46 -36 32 -82 -38 -123
-70 -41 -143 -30 -172 25 -23 44 -17 57 39 89 65 37 131 41 171 9z m-378 -52
c35 -9 42 -16 50 -47 9 -32 6 -42 -24 -94 -40 -68 -85 -93 -184 -103 -59 -5
-66 -3 -96 22 -50 42 -39 116 27 179 33 31 136 68 166 60 11 -4 38 -11 61 -17z
m800 -8 c73 -69 11 -143 -140 -170 -72 -12 -138 -2 -184 27 l-23 15 20 25 c11
14 25 40 31 58 9 29 16 34 53 40 23 3 69 12 102 20 71 18 111 13 141 -15z
m-522 -194 c86 -1 89 -2 103 -29 25 -47 20 -86 -14 -116 -91 -82 -213 -19
-213 109 0 47 2 52 18 45 9 -5 57 -9 106 -9z"/>
<path d="M3945 20091 c-62 -28 -150 -115 -182 -179 -24 -48 -28 -69 -27 -132
1 -83 25 -185 48 -208 21 -22 114 -24 133 -3 89 98 161 217 197 324 53 156
-35 259 -169 198z m73 -134 c-9 -81 -139 -299 -164 -274 -5 4 -8 43 -9 86 0
91 24 138 104 198 60 46 75 44 69 -10z"/>
<path d="M6337 19976 c-91 -33 -174 -123 -198 -217 -12 -46 -7 -71 29 -151 2
-3 -6 -9 -18 -13 -41 -13 -137 -113 -160 -167 -61 -141 25 -317 183 -376 l50
-19 2 -59 c7 -238 352 -365 610 -225 51 27 57 28 92 15 111 -39 257 11 379
131 77 75 103 129 104 208 0 31 4 57 9 57 4 0 32 23 61 52 65 63 110 154 110
219 0 149 -184 290 -361 277 -57 -4 -60 -3 -65 21 -23 108 -80 193 -158 234
-33 18 -57 22 -131 22 -95 0 -135 -13 -213 -72 l-32 -24 -39 30 c-84 67 -171
86 -254 57z m148 -114 c44 -27 95 -82 110 -119 23 -54 105 -43 105 14 0 41 22
71 72 98 61 33 159 33 205 -1 48 -35 78 -108 79 -197 2 -112 30 -133 106 -81
100 70 318 -29 318 -144 0 -68 -103 -197 -148 -185 -51 13 -82 -47 -47 -93 40
-53 0 -150 -92 -217 -110 -80 -186 -96 -263 -57 l-40 20 -81 -40 c-185 -94
-393 -66 -460 60 -29 54 -25 72 32 151 16 22 3 66 -22 74 -11 4 -33 1 -49 -5
-86 -36 -230 82 -230 187 0 84 71 163 163 183 80 17 89 56 32 140 -41 60 -42
68 -16 118 50 97 152 139 226 94z"/>
<path d="M6693 19506 c-17 -8 -34 -12 -36 -9 -12 12 -66 -29 -76 -58 -54 -154
120 -295 269 -219 112 57 117 220 8 276 -43 22 -126 27 -165 10z m119 -113
c60 -54 -41 -113 -106 -62 -33 26 -33 45 2 63 36 20 81 20 104 -1z"/>
<path d="M4462 19880 c-116 -24 -266 -148 -350 -290 -74 -125 -142 -375 -142
-526 0 -37 -3 -33 -49 61 -164 334 -398 530 -613 512 -231 -20 -352 -193 -352
-507 0 -185 39 -316 148 -494 25 -42 46 -79 46 -81 0 -3 -32 16 -71 41 -109
71 -286 152 -395 181 -137 36 -327 38 -424 4 -271 -95 -358 -310 -235 -578 82
-180 270 -366 486 -481 49 -26 89 -50 89 -53 0 -3 -33 -12 -72 -19 -444 -78
-750 -335 -699 -587 24 -123 108 -217 256 -288 136 -66 215 -80 435 -80 176 0
319 18 408 53 10 3 -37 -48 -104 -113 -249 -248 -378 -510 -379 -770 0 -99 3
-116 27 -168 119 -253 391 -298 742 -121 49 25 91 43 93 41 2 -3 -12 -33 -31
-68 -172 -315 -375 -963 -486 -1549 -155 -828 -202 -1434 -139 -1821 l20 -127
-30 -50 c-45 -72 -86 -167 -107 -247 -35 -138 -21 -432 32 -660 7 -33 14 -66
14 -73 0 -7 -53 35 -117 94 -452 409 -916 498 -1116 213 -159 -226 -81 -715
181 -1136 250 -404 696 -755 1240 -978 177 -72 514 -181 647 -209 319 -66 676
-61 986 15 76 18 91 26 127 62 39 41 40 44 57 162 37 268 125 496 308 800 208
346 383 513 772 740 363 212 530 331 675 481 147 152 206 265 217 414 30 411
-514 479 -1090 136 -59 -35 -107 -61 -107 -57 0 3 7 24 15 46 23 65 19 198 -9
276 -45 129 -168 270 -293 337 -165 87 -370 103 -550 40 -262 -90 -477 -299
-633 -613 l-70 -140 0 105 c0 294 -132 454 -422 514 -132 27 -224 20 -394 -29
-20 -6 -22 -2 -28 92 -8 112 7 488 29 733 49 534 161 1013 349 1495 103 262
385 866 404 865 4 -1 25 -30 47 -66 72 -118 202 -230 299 -259 157 -47 308 14
416 168 78 110 113 220 158 491 l7 39 89 -101 c48 -56 118 -124 155 -152 96
-73 251 -147 346 -167 264 -54 476 137 435 393 -29 182 -129 374 -283 542 -31
33 -37 44 -22 40 140 -38 195 -49 301 -58 288 -25 564 53 716 201 82 80 103
130 103 245 0 84 -3 95 -37 165 -99 199 -321 350 -618 419 -52 12 -102 24
-110 27 -8 2 44 19 115 38 267 68 444 159 563 289 222 244 104 529 -255 613
-119 28 -416 25 -536 -5 -49 -12 -91 -22 -94 -22 -3 0 33 40 79 89 187 196
292 414 274 570 -14 127 -122 265 -243 312 -225 86 -508 -17 -749 -274 -54
-58 -75 -75 -70 -57 86 312 96 482 36 656 -66 190 -241 301 -418 264z m173
-126 c81 -38 145 -141 164 -264 33 -204 -16 -419 -169 -740 -48 -102 -98 -216
-110 -255 -13 -38 -24 -71 -25 -73 -1 -1 -37 7 -81 18 -43 12 -131 24 -194 28
l-115 7 -8 45 c-15 88 -20 557 -7 653 28 209 92 357 205 475 118 126 228 160
340 106z m-1176 -254 c86 -41 185 -139 276 -274 113 -169 126 -204 200 -561
15 -71 36 -145 47 -162 25 -42 21 -47 -49 -62 -71 -16 -184 -67 -280 -127 -66
-41 -73 -43 -100 -32 -134 58 -391 416 -463 643 -61 196 -19 472 85 551 80 60
187 70 284 24z m2176 -319 c107 -50 172 -157 161 -263 -17 -167 -184 -407
-389 -561 -95 -71 -289 -209 -354 -251 l-51 -33 -54 54 c-66 68 -190 162 -269
205 -56 31 -60 35 -54 63 30 157 352 574 545 705 163 111 339 141 465 81z
m-3029 -500 c223 -46 417 -156 671 -383 60 -52 121 -106 136 -119 l28 -24 -84
-85 c-94 -96 -188 -243 -232 -365 -25 -68 -29 -74 -61 -79 -98 -19 -541 189
-711 333 -163 138 -273 329 -273 473 0 196 237 309 526 249z m1793 -351 c245
-70 501 -266 620 -474 150 -263 168 -575 48 -811 -99 -197 -329 -380 -588
-468 -297 -102 -726 -67 -943 78 -165 109 -298 306 -347 513 -80 335 67 710
367 938 21 16 47 38 58 49 31 31 188 123 256 151 142 57 375 68 529 24z m1771
-95 c435 -116 322 -478 -203 -650 -219 -71 -506 -116 -649 -101 l-66 7 -6 48
c-16 118 -69 268 -137 382 -23 38 -40 71 -38 73 2 2 58 31 124 64 201 100 353
153 530 186 106 20 353 15 445 -9z m-3252 -700 c48 -13 99 -28 113 -33 l27
-11 5 -153 c5 -158 21 -238 69 -350 11 -27 18 -51 15 -54 -10 -10 -268 -84
-372 -106 -217 -47 -504 -24 -654 52 -345 174 -184 503 311 635 220 58 326 63
486 20z m2605 -215 c280 -19 501 -81 657 -185 181 -121 274 -292 226 -419 -35
-93 -184 -190 -361 -237 -104 -27 -339 -30 -460 -4 -160 33 -336 120 -465 228
-103 87 -102 82 -41 158 89 110 171 309 171 415 0 60 6 65 69 59 31 -3 122
-10 204 -15z m-2200 -625 c47 -51 112 -107 159 -138 75 -48 79 -53 74 -82 -22
-135 -29 -251 -19 -342 l10 -98 -39 -58 c-182 -267 -551 -449 -777 -381 -69
20 -141 90 -164 159 -54 157 25 422 193 647 130 173 381 377 464 378 11 0 53
-36 99 -85z m1791 -160 c250 -252 374 -409 430 -543 80 -191 73 -323 -20 -401
-137 -112 -402 -34 -616 182 -170 170 -318 398 -368 565 -23 75 -21 142 3 142
26 0 235 110 300 158 l69 50 41 -17 c29 -11 80 -54 161 -136z m-1352 -95 c196
-46 486 -48 629 -4 14 4 19 -8 28 -62 14 -79 67 -214 116 -297 32 -54 35 -65
35 -139 0 -285 -97 -548 -237 -645 -51 -35 -61 -38 -122 -38 -146 2 -273 120
-394 366 -147 300 -199 527 -168 740 12 79 17 99 26 99 2 0 41 -9 87 -20z
m-88 -777 l28 -61 -40 -69 c-89 -154 -301 -606 -399 -853 -266 -669 -392
-1357 -397 -2155 0 -121 3 -236 7 -255 7 -35 6 -37 -48 -73 -30 -20 -56 -33
-59 -29 -25 41 -40 373 -27 602 42 710 209 1598 415 2195 96 281 159 426 292
671 57 105 104 195 104 200 0 5 7 20 16 33 17 23 17 23 49 -60 17 -46 44 -112
59 -146z m1251 -3303 c94 -30 148 -63 220 -135 99 -99 155 -235 138 -339 -9
-58 -53 -140 -120 -222 -261 -319 -260 -318 -390 -534 -170 -284 -284 -549
-356 -835 -92 -361 -124 -662 -91 -857 5 -32 3 -31 -63 38 -208 216 -364 566
-443 994 -29 154 -36 498 -15 683 76 660 414 1146 855 1231 53 10 197 -3 265
-24z m-1519 -150 c167 -43 244 -105 284 -231 28 -87 30 -205 5 -421 -26 -225
-17 -932 14 -1098 30 -161 82 -357 126 -475 102 -273 291 -564 436 -673 27
-20 45 -38 40 -40 -13 -4 -180 45 -253 75 -194 78 -320 163 -473 317 -137 138
-224 254 -389 516 -147 235 -249 385 -348 517 -82 108 -116 187 -163 368 -71
278 -83 547 -31 710 106 331 428 517 752 435z m2894 -306 c204 -61 197 -307
-16 -543 -114 -127 -298 -259 -624 -451 -232 -136 -329 -200 -422 -277 -329
-273 -666 -842 -742 -1251 -22 -120 -42 -83 -67 128 -13 108 -7 217 21 403 95
621 329 1126 700 1511 347 360 849 569 1150 480z m-4425 -551 c107 -33 253
-111 361 -191 113 -83 419 -388 470 -467 21 -33 61 -85 89 -116 27 -30 95
-126 150 -212 367 -577 397 -619 570 -792 210 -209 417 -322 763 -415 45 -12
82 -26 82 -30 0 -9 -54 -22 -173 -42 -117 -20 -541 -17 -652 5 -378 76 -857
256 -1145 431 -250 153 -544 409 -678 591 -195 266 -319 579 -339 856 -23 332
176 484 502 382z"/>
<path d="M4110 18059 c-30 -5 -83 -13 -118 -18 -348 -52 -606 -584 -442 -912
59 -116 219 -230 397 -281 104 -30 350 -32 458 -4 444 115 656 574 424 920
-146 218 -447 342 -719 295z m209 -50 c433 -70 666 -438 497 -783 -67 -137
-215 -262 -369 -312 -119 -39 -345 -46 -467 -15 -215 54 -361 169 -408 321
-26 86 -21 234 12 335 78 241 259 424 424 431 29 2 76 7 105 13 109 23 126 23
206 10z"/>
<path d="M4168 17746 c-128 -35 -238 -174 -238 -299 0 -193 280 -340 459 -242
201 111 183 411 -32 514 -76 37 -128 44 -189 27z m142 -126 c98 -50 138 -188
78 -272 -56 -79 -208 -79 -291 0 -62 58 -69 98 -32 169 62 116 148 152 245
103z"/>
<path d="M7924 19636 c-83 -36 -133 -117 -176 -285 -69 -271 -41 -516 72 -626
36 -35 53 -47 107 -76 60 -32 212 87 271 213 59 125 86 318 63 455 -37 216
-206 376 -337 319z m139 -155 c64 -70 86 -123 94 -236 12 -180 -42 -349 -142
-444 l-55 -52 -39 30 c-24 19 -49 53 -67 93 -70 152 -14 557 88 643 43 36 60
32 121 -34z"/>
<path d="M8533 19150 c-134 -67 -260 -264 -193 -300 11 -6 20 -17 20 -25 0
-76 226 -44 377 54 75 48 105 89 111 152 4 46 2 51 -34 88 -70 69 -180 81
-281 31z m181 -90 c14 -5 26 -16 26 -23 0 -47 -194 -146 -288 -147 -22 0 -22
1 -8 29 59 114 178 176 270 141z"/>
<path d="M18404 19161 c-117 -30 -185 -101 -233 -244 l-17 -49 -26 38 c-40 61
-128 145 -172 165 -158 72 -341 -64 -362 -268 -17 -162 82 -277 253 -291 70
-5 70 -5 47 -77 -52 -171 133 -320 358 -287 133 19 216 70 259 158 28 59 24
172 -9 228 l-21 35 42 12 c107 29 227 121 268 206 47 96 22 222 -58 294 -72
65 -235 105 -329 80z m176 -117 c222 -66 134 -319 -126 -365 -56 -10 -63 -9
-124 20 -36 17 -72 31 -82 31 -15 0 -15 5 -3 58 55 234 154 310 335 256z
m-661 -79 c73 -37 222 -265 173 -265 -4 0 -30 -18 -57 -41 l-50 -41 -90 4
c-132 6 -180 38 -192 128 -8 56 13 122 55 170 51 61 103 75 161 45z m371 -396
c122 -19 175 -175 87 -255 -93 -86 -310 -75 -366 17 -23 38 -21 59 16 136 22
47 32 57 91 88 45 23 75 32 92 29 14 -3 50 -10 80 -15z"/>
<path d="M8400 18663 c-95 -16 -231 -81 -307 -148 -49 -43 -123 -164 -123
-201 0 -27 -17 -14 -55 42 -190 275 -591 313 -844 79 -173 -161 -201 -444 -65
-647 19 -28 33 -52 32 -52 -2 -1 -36 -15 -76 -30 -179 -69 -299 -216 -321
-396 -29 -228 80 -454 257 -534 32 -15 41 -23 36 -35 -24 -57 -36 -105 -44
-173 -30 -260 80 -503 266 -590 125 -59 318 -48 482 27 30 14 56 24 56 23 1
-2 13 -28 26 -58 65 -143 266 -270 430 -270 212 0 421 170 446 363 7 48 7 49
37 43 179 -36 338 2 494 117 80 59 167 166 194 236 74 195 -4 452 -167 547
-24 14 -44 28 -44 30 0 2 31 34 69 71 105 104 126 152 126 289 0 110 0 111
-42 196 -86 172 -242 298 -371 298 -62 0 -60 -9 -16 105 32 83 43 236 25 326
-15 72 -59 163 -104 215 -82 93 -259 150 -397 127z m219 -133 c224 -97 246
-465 42 -684 -68 -72 -67 -72 -45 -104 21 -30 55 -28 132 10 122 60 215 39
323 -73 117 -121 161 -286 106 -395 -31 -61 -126 -153 -194 -188 -58 -29 -70
-51 -53 -101 8 -26 19 -37 38 -41 127 -26 182 -66 234 -172 45 -91 48 -218 6
-297 -56 -109 -172 -207 -296 -252 -124 -45 -305 -27 -380 38 -37 33 -58 36
-84 12 -20 -18 -23 -44 -9 -71 44 -83 52 -107 46 -141 -17 -89 -87 -171 -191
-222 -151 -75 -351 -15 -451 135 -30 44 -33 55 -33 123 0 89 -10 113 -49 113
-21 0 -36 -9 -55 -35 -63 -82 -281 -149 -419 -127 -173 26 -275 169 -285 397
-7 178 20 265 89 279 43 8 59 23 59 56 0 38 -15 47 -85 52 -203 14 -346 224
-313 460 22 160 156 293 331 330 51 11 59 10 116 -15 109 -47 182 -43 189 12
4 27 -23 61 -49 61 -10 0 -20 4 -24 9 -3 5 -36 19 -73 31 -80 26 -126 70 -175
169 -30 62 -32 72 -32 176 0 105 2 114 33 177 97 198 369 286 581 188 121 -56
244 -212 267 -340 9 -46 31 -70 65 -70 38 0 53 31 69 139 17 120 44 186 102
247 51 54 156 114 233 133 61 16 175 6 234 -19z"/>
<path d="M7965 17635 c-81 -22 -251 -113 -286 -153 -122 -139 -126 -419 -9
-602 95 -148 285 -237 449 -211 380 61 531 562 256 850 -105 110 -265 155
-410 116z m252 -131 c169 -82 238 -328 146 -523 -107 -225 -390 -270 -559 -89
-56 60 -89 132 -103 225 -20 132 22 291 80 303 13 3 44 19 69 36 129 90 249
105 367 48z"/>
<path d="M1529 17989 c-178 -42 -389 -225 -444 -385 -45 -130 99 -192 345
-149 266 47 432 126 529 252 44 57 54 150 19 184 -82 78 -316 130 -449 98z
m234 -114 c65 -17 137 -51 137 -65 0 -29 -114 -123 -195 -161 -171 -80 -515
-131 -515 -76 0 7 16 37 36 67 131 198 336 288 537 235z"/>
<path d="M9529 17695 c-58 -31 -96 -181 -119 -467 -26 -337 63 -558 325 -806
102 -97 133 -110 201 -85 84 32 114 108 134 339 19 234 -27 451 -151 696 -123
245 -286 380 -390 323z m109 -125 c112 -81 260 -365 308 -593 35 -169 5 -509
-47 -538 -19 -9 -32 0 -119 89 -223 225 -286 393 -261 696 16 200 49 376 70
376 5 0 26 -13 49 -30z"/>
<path d="M19564 17450 c-114 -57 -120 -263 -11 -371 l27 -26 -26 -24 c-120
-112 -82 -287 64 -297 48 -3 63 0 92 20 42 28 77 88 86 145 6 41 7 41 33 31
50 -21 201 -15 248 10 97 51 110 148 31 237 -69 78 -161 105 -243 71 l-33 -14
-12 49 c-18 74 -62 133 -122 163 -63 31 -81 32 -134 6z m111 -123 c39 -39 61
-124 47 -179 -11 -42 -31 -46 -72 -11 -61 51 -88 152 -54 201 21 30 40 28 79
-11z m339 -211 c66 -61 41 -91 -73 -90 -83 2 -131 15 -131 38 0 8 21 31 46 51
63 48 109 48 158 1z m-324 -183 c0 -37 -25 -89 -48 -98 -21 -8 -52 13 -52 36
0 32 28 77 58 93 35 18 42 13 42 -31z"/>
<path d="M1518 17385 c-317 -117 -542 -375 -556 -637 -7 -138 25 -188 122
-188 191 0 540 356 586 598 11 60 -2 143 -26 163 -8 6 -14 21 -14 33 0 46 -41
57 -112 31z m45 -142 c8 -48 -4 -99 -37 -166 -100 -203 -442 -490 -458 -384
-8 51 14 145 51 222 63 132 171 235 336 322 98 52 101 52 108 6z"/>
<path d="M1835 16523 c-40 -12 -65 -30 -123 -90 l-72 -74 -46 40 c-115 101
-235 123 -337 61 -69 -42 -188 -156 -221 -212 -14 -24 -31 -65 -37 -93 -7 -27
-14 -52 -15 -53 -2 -2 -37 13 -79 34 -172 85 -324 28 -354 -131 -14 -73 6
-169 78 -380 70 -204 99 -345 130 -630 58 -521 118 -731 280 -976 213 -323
500 -461 956 -463 164 0 223 14 400 94 178 82 266 261 221 451 l-15 66 35 99
c122 341 69 652 -217 1270 -105 227 -135 313 -187 539 -71 305 -128 407 -249
451 -49 17 -86 16 -148 -3z m132 -109 c67 -32 104 -125 182 -449 46 -194 67
-251 184 -506 202 -442 272 -711 246 -946 -10 -91 -28 -171 -39 -178 -5 -3
-26 28 -48 67 -120 217 -232 357 -522 653 -124 127 -276 283 -338 349 l-112
118 0 104 c0 284 160 666 326 779 43 29 73 31 121 9z m-496 -63 c24 -15 59
-44 77 -64 l34 -35 -22 -42 c-65 -127 -125 -324 -144 -472 l-11 -87 -80 92
c-44 50 -110 124 -146 162 -77 81 -89 101 -89 148 0 97 60 190 181 281 77 58
129 63 200 17z m-652 -296 c97 -34 190 -117 415 -375 200 -229 259 -291 586
-625 355 -363 479 -519 598 -753 177 -348 119 -505 -230 -614 -124 -39 -446
-22 -602 32 -220 75 -404 245 -528 486 -95 184 -141 374 -183 754 -38 340 -65
473 -140 695 -35 105 -68 216 -74 247 -23 132 41 195 158 153z"/>
<path d="M12490 16260 c-100 -18 -214 -82 -327 -184 -33 -31 -64 -56 -68 -56
-3 0 -34 23 -68 52 -163 136 -327 152 -518 52 -222 -117 -301 -413 -176 -660
82 -163 253 -320 521 -479 78 -46 179 -108 226 -139 106 -70 132 -76 202 -44
225 104 576 568 649 859 31 119 24 270 -14 353 -81 175 -258 276 -427 246z
m180 -135 c160 -81 214 -258 145 -475 -77 -243 -336 -591 -540 -726 l-55 -37
-82 53 c-46 30 -146 92 -223 138 -188 113 -256 165 -363 277 -105 110 -147
185 -161 290 -26 186 43 325 197 398 59 28 77 32 152 32 96 0 129 -13 219 -87
88 -71 134 -98 156 -91 11 3 56 38 100 77 204 182 319 220 455 151z"/>
<path d="M19840 16238 c-69 -35 -105 -94 -106 -174 -1 -63 -2 -64 -42 -94
-139 -100 -123 -285 26 -309 36 -6 37 -8 43 -58 15 -117 106 -188 214 -164 53
12 53 12 100 -23 62 -48 115 -62 180 -47 107 25 169 85 182 176 5 38 15 56 52
94 47 47 71 100 71 158 0 88 -72 192 -146 210 -38 9 -39 10 -45 63 -16 144
-136 225 -254 171 -22 -10 -46 -25 -54 -35 -13 -16 -16 -15 -40 8 -53 51 -113
58 -181 24z m132 -128 c21 -23 38 -47 38 -54 0 -19 39 -56 60 -56 30 0 50 28
50 71 0 87 88 108 129 31 7 -14 11 -51 9 -92 -3 -89 11 -108 90 -112 47 -3 58
-7 76 -31 49 -66 12 -167 -61 -167 -49 0 -74 -40 -50 -82 32 -56 18 -97 -43
-128 -22 -11 -47 -20 -56 -20 -37 0 -87 35 -115 81 -16 26 -39 49 -51 52 -23
6 -58 -8 -58 -23 0 -17 -32 -40 -55 -40 -54 0 -85 81 -60 155 30 86 -7 127
-81 91 -75 -35 -113 -10 -78 52 24 45 76 72 136 72 40 0 50 4 64 26 26 39 9
77 -36 84 -32 5 -35 8 -38 41 -2 27 3 41 24 62 37 37 61 34 106 -13z"/>
<path d="M8937 15779 c-134 -31 -190 -125 -138 -227 84 -164 304 -147 351 26
19 73 -23 162 -93 196 -38 18 -62 19 -120 5z m85 -116 c26 -23 24 -78 -4 -97
-36 -25 -73 -20 -102 15 -40 48 -30 73 37 89 47 12 49 11 69 -7z"/>
<path d="M19335 15493 c-136 -55 -240 -188 -265 -339 -11 -64 -8 -96 21 -254
39 -211 41 -267 14 -505 -7 -57 -5 -63 21 -93 37 -42 60 -41 147 10 229 132
430 458 467 752 24 194 -42 355 -172 420 -62 31 -168 35 -233 9z m183 -107
c173 -90 149 -423 -54 -734 -58 -89 -156 -193 -211 -225 l-31 -17 5 157 c5
134 2 177 -16 283 -44 251 -44 244 -26 312 27 105 90 185 177 223 43 18 122
19 156 1z"/>
<path d="M6475 15424 c-215 -74 -385 -117 -870 -219 -632 -133 -788 -172
-1017 -251 -484 -168 -908 -445 -1164 -760 -238 -292 -344 -598 -361 -1043 -7
-180 14 -745 29 -774 17 -34 70 -18 94 28 22 44 125 138 327 300 180 145 281
212 647 432 1037 624 1564 1006 2015 1458 417 417 637 749 562 846 -40 52 -69
50 -262 -17z m45 -108 c0 -6 -164 -126 -250 -183 -192 -127 -387 -223 -880
-433 -657 -279 -803 -348 -998 -470 -452 -283 -783 -677 -1126 -1339 -75 -147
-85 -162 -91 -138 -4 15 -5 148 -2 295 5 302 23 439 82 618 169 515 675 946
1403 1195 189 64 437 125 1006 244 455 96 642 141 773 189 72 25 83 28 83 22z
m49 -83 c-145 -223 -427 -535 -717 -791 -364 -323 -972 -741 -1791 -1231 -384
-230 -420 -256 -843 -601 l-31 -25 8 25 c45 150 327 647 503 889 339 464 672
711 1347 996 962 406 1116 483 1420 710 77 57 141 102 144 100 2 -3 -16 -35
-40 -72z"/>
<path d="M7372 15180 c-162 -24 -298 -175 -348 -385 -22 -96 -15 -298 16 -410
72 -265 277 -593 529 -846 133 -133 180 -162 262 -162 100 1 276 91 444 226
109 89 356 343 438 452 153 203 223 423 186 584 -78 339 -509 460 -850 240
-33 -22 -63 -39 -68 -39 -4 0 -25 25 -46 56 -81 118 -249 244 -360 272 -62 16
-145 21 -203 12z m152 -115 c37 -8 88 -26 111 -40 98 -57 228 -190 238 -245 5
-22 15 -30 56 -44 69 -22 71 -22 156 33 215 141 457 147 604 15 231 -207 86
-583 -389 -1011 -210 -189 -413 -302 -502 -280 -59 15 -220 180 -363 372 -138
187 -208 311 -263 465 -121 344 -22 694 208 739 63 12 67 12 144 -4z"/>
<path d="M20109 15063 c-18 -15 -122 -139 -231 -276 -247 -308 -376 -459 -638
-752 -849 -948 -1055 -1216 -1278 -1661 -164 -328 -272 -635 -441 -1250 -50
-181 -130 -447 -179 -590 -50 -144 -97 -297 -107 -340 -9 -44 -21 -87 -26 -96
-26 -51 9 -94 68 -83 83 15 168 92 412 373 262 302 427 431 896 703 723 418
1037 655 1333 1009 370 443 514 823 563 1495 32 439 -52 1157 -162 1382 -55
113 -137 147 -210 86z m112 -136 c78 -152 152 -682 152 -1082 0 -723 -139
-1172 -503 -1624 -296 -367 -586 -590 -1343 -1032 -489 -286 -646 -409 -914
-716 -70 -81 -147 -167 -171 -193 l-43 -45 20 50 c78 205 229 512 357 732 289
494 575 889 1361 1875 305 383 417 539 573 798 244 407 358 704 440 1150 30
164 31 165 71 87z m-126 -89 c-59 -367 -201 -737 -425 -1108 -178 -297 -237
-378 -655 -905 -878 -1108 -1167 -1524 -1457 -2100 -61 -121 -108 -213 -106
-205 73 219 111 345 173 576 159 582 264 882 425 1209 215 436 411 695 1199
1575 321 358 455 515 665 778 98 122 180 222 183 222 3 0 2 -19 -2 -42z"/>
<path d="M471 14387 c-61 -31 -66 -51 -65 -260 0 -310 58 -735 144 -1074 70
-272 210 -607 331 -788 150 -225 407 -405 754 -529 323 -116 397 -152 570
-281 55 -41 110 -74 122 -75 30 0 57 41 47 72 -4 13 -7 31 -5 40 1 9 -5 43
-13 75 -8 32 -31 157 -51 278 -63 390 -108 552 -210 754 -166 330 -514 752
-1263 1528 -247 256 -298 293 -361 260z m132 -179 c377 -378 956 -1020 1140
-1264 300 -399 368 -577 472 -1229 8 -55 18 -111 22 -125 l6 -24 -30 19 c-61
40 -636 723 -879 1045 -265 350 -449 671 -628 1092 -107 254 -194 538 -164
538 5 0 32 -24 61 -52z m66 -538 c144 -335 323 -659 503 -913 151 -211 555
-715 760 -948 44 -50 78 -92 75 -95 -3 -3 -22 3 -44 14 -21 11 -117 48 -213
82 -471 167 -685 328 -853 640 -187 347 -293 732 -358 1305 -39 352 -39 360
20 195 27 -74 76 -200 110 -280z"/>
<path d="M16370 14333 c-56 -51 -73 -149 -74 -413 -1 -256 12 -353 70 -529 73
-220 167 -360 382 -566 364 -350 366 -352 511 -593 108 -182 160 -283 191
-375 24 -72 48 -94 82 -76 36 19 41 46 20 117 -11 37 -23 92 -27 122 -52 443
-126 789 -221 1049 -124 337 -494 937 -737 1198 -93 99 -142 116 -197 66z
m117 -135 c209 -218 586 -828 707 -1147 73 -191 206 -764 183 -787 -2 -3 -32
39 -65 94 -90 147 -139 207 -269 333 -303 293 -392 387 -447 471 -99 152 -161
328 -186 530 -21 167 -1 548 29 548 4 0 25 -19 48 -42z"/>
<path d="M5732 13843 c-113 -40 -227 -239 -205 -357 6 -28 5 -28 -28 -20 -72
19 -180 10 -235 -18 -113 -59 -175 -192 -144 -307 15 -57 94 -137 173 -175 39
-19 55 -32 49 -40 -81 -103 -122 -194 -122 -270 1 -79 71 -161 164 -192 86
-29 248 1 348 65 l47 30 31 -49 c72 -113 168 -172 278 -172 202 1 336 192 274
388 l-19 62 61 6 c139 15 233 67 286 158 50 89 30 188 -56 270 -40 37 -126 88
-150 88 -19 0 -18 5 14 69 50 102 33 231 -40 298 -74 69 -217 56 -338 -31 -28
-20 -52 -36 -54 -36 -2 0 -13 27 -25 60 -26 69 -73 135 -120 167 -41 27 -122
30 -189 6z m139 -103 c46 -25 106 -201 92 -270 -7 -40 14 -89 42 -96 35 -9 63
12 71 52 8 46 84 122 155 158 69 34 127 35 158 2 66 -70 18 -196 -117 -308
-38 -31 -42 -70 -10 -92 25 -18 74 -21 83 -6 15 24 87 32 131 15 52 -20 120
-86 129 -125 12 -55 -46 -123 -127 -149 -62 -20 -183 -16 -222 8 -42 26 -61
26 -86 1 -30 -30 -24 -63 20 -116 45 -54 80 -137 80 -187 -1 -80 -72 -164
-149 -174 -122 -16 -218 70 -285 259 -29 79 -82 74 -110 -10 -21 -62 -48 -87
-122 -113 -150 -53 -274 -20 -274 74 0 69 31 121 136 225 110 108 125 139 88
176 -20 21 -33 20 -69 -4 -40 -26 -79 -25 -140 4 -59 29 -86 51 -110 88 -38
61 12 171 92 204 69 29 190 4 263 -55 54 -43 95 -45 110 -6 8 21 3 37 -24 88
-44 81 -51 124 -32 191 37 127 147 208 227 166z"/>
<path d="M5813 13250 c-65 -37 -83 -63 -83 -118 0 -177 239 -246 311 -89 35
78 20 148 -45 205 -50 44 -109 44 -183 2z m127 -99 c16 -32 12 -59 -14 -76
-54 -35 -116 36 -66 77 29 24 67 23 80 -1z"/>
<path d="M18440 13846 c-91 -35 -362 -199 -495 -299 -333 -252 -443 -483 -390
-817 31 -193 49 -225 119 -213 32 5 40 13 67 63 43 82 151 221 289 376 221
248 450 549 515 678 74 146 18 259 -105 212z m14 -158 c-56 -108 -294 -421
-484 -633 -83 -93 -184 -214 -223 -267 -86 -117 -88 -115 -95 58 -4 104 -2
132 16 190 67 218 282 420 682 641 63 34 116 59 118 54 2 -5 -4 -25 -14 -43z"/>
<path d="M2090 13351 c-171 -38 -187 -58 -121 -149 99 -137 220 -341 308 -520
80 -161 99 -193 121 -199 33 -8 53 5 74 48 50 100 71 468 34 583 -34 103 -109
181 -206 215 -65 23 -161 33 -210 22z m190 -132 c110 -49 135 -109 134 -324
-1 -88 -5 -171 -11 -184 -9 -21 -12 -17 -42 50 -40 90 -121 229 -213 367 -45
67 -64 104 -56 106 7 3 20 7 28 10 26 9 113 -5 160 -25z"/>
<path d="M14965 13237 c-101 -34 -180 -108 -211 -198 -25 -73 -23 -195 4 -271
l20 -57 -52 -29 c-220 -125 -271 -466 -96 -640 79 -78 128 -97 253 -97 102 0
107 -1 107 -21 0 -85 83 -194 182 -240 57 -26 73 -29 168 -29 219 0 404 106
428 246 l8 44 74 -3 c239 -11 403 114 417 318 12 176 -69 332 -203 391 l-44
20 27 52 c57 109 31 263 -62 365 -62 69 -132 97 -245 97 -113 0 -176 -25 -251
-99 l-46 -45 -39 50 c-49 62 -101 104 -162 131 -59 27 -216 35 -277 15z m218
-111 c53 -19 101 -59 150 -123 39 -53 42 -60 40 -117 -2 -68 8 -86 47 -86 35
0 56 25 68 78 50 221 354 274 454 79 52 -103 -2 -272 -94 -292 -76 -17 -69
-125 9 -125 10 0 31 7 47 15 37 20 62 19 111 -4 90 -42 139 -132 139 -256 0
-88 -12 -121 -61 -166 -61 -57 -86 -64 -246 -65 -173 -1 -174 -1 -182 -93 -7
-76 -22 -101 -83 -140 -166 -105 -393 -86 -459 38 -33 64 -32 163 2 232 29 56
23 84 -21 95 -31 8 -58 -15 -90 -77 -21 -43 -28 -48 -74 -59 -259 -62 -413
261 -224 470 47 52 105 82 152 79 196 -9 223 -3 208 54 -8 33 -31 46 -114 61
-67 11 -67 12 -92 61 -50 102 -26 251 51 307 62 46 184 62 262 34z"/>
<path d="M15305 12668 c-72 -25 -145 -122 -145 -192 0 -142 190 -237 331 -165
76 38 104 93 97 185 -10 124 -160 215 -283 172z m108 -109 c104 -54 84 -159
-30 -159 -86 0 -130 55 -93 115 33 54 75 69 123 44z"/>
<path d="M16680 12403 c-53 -21 -91 -87 -143 -248 -107 -334 -143 -667 -102
-940 41 -274 221 -868 364 -1204 21 -51 31 -87 29 -119 -2 -66 40 -94 82 -52
46 46 247 815 290 1110 38 256 28 514 -27 739 -96 398 -283 704 -436 717 -23
2 -49 1 -57 -3z m103 -134 c99 -82 215 -324 281 -588 77 -307 68 -611 -29
-1021 -54 -224 -148 -561 -156 -553 -11 12 -99 255 -159 438 -113 346 -178
627 -195 840 -13 165 38 500 111 728 64 197 78 213 147 156z"/>
<path d="M14784 11390 c-65 -20 -85 -78 -65 -192 29 -169 111 -367 546 -1323
331 -728 462 -1040 500 -1190 12 -47 18 -108 18 -185 0 -121 -4 -139 -62 -279
-29 -69 -30 -76 -16 -97 34 -52 77 -31 266 133 299 258 618 635 710 839 165
370 88 884 -198 1314 -322 485 -720 788 -1223 934 -129 37 -415 64 -476 46z
m320 -126 c156 -22 366 -100 571 -212 371 -203 771 -680 909 -1085 51 -149 69
-259 70 -427 1 -293 -58 -440 -292 -730 -103 -126 -474 -500 -480 -482 -7 23
62 209 151 402 149 323 177 422 177 621 0 208 -46 379 -171 629 -196 392 -406
642 -834 990 -194 158 -345 295 -345 312 0 11 89 5 244 -18z m42 -316 c473
-389 652 -600 854 -1013 116 -238 153 -376 153 -585 1 -204 -10 -241 -186
-628 -36 -79 -67 -146 -70 -148 -2 -3 -7 20 -11 49 -19 169 -114 401 -591
1447 -327 718 -464 1052 -465 1129 0 21 7 17 63 -36 35 -33 149 -129 253 -215z"/>
<path d="M6890 11183 c-89 -25 -106 -102 -76 -343 20 -158 134 -832 201 -1190
163 -862 412 -1879 591 -2409 226 -669 476 -1149 871 -1673 251 -332 429 -584
572 -811 196 -309 316 -625 467 -1227 90 -356 151 -540 330 -997 153 -389 193
-482 217 -502 26 -21 66 -6 72 27 3 15 10 41 15 57 51 163 51 2341 -1 2975
-29 364 -125 981 -184 1181 l-13 47 111 4 c62 3 113 4 115 3 1 -1 -5 -18 -13
-38 -25 -59 -35 -164 -24 -242 33 -244 257 -393 498 -331 72 18 155 57 188 88
13 12 24 20 25 17 2 -2 25 -48 51 -101 54 -109 151 -223 237 -278 168 -108
383 -89 556 49 89 71 211 249 252 370 l12 35 38 -37 c72 -70 240 -126 343
-114 195 23 311 190 295 424 l-6 92 47 -5 c70 -8 240 21 330 56 168 65 313
216 363 379 45 144 7 303 -107 452 l-51 65 66 50 c135 101 206 229 207 374 0
77 -3 92 -32 150 -102 204 -303 307 -540 277 l-62 -8 39 83 c122 263 144 498
62 666 -123 253 -453 330 -802 188 l-60 -25 0 70 c0 215 -153 361 -336 320
-31 -7 -102 -36 -156 -63 -148 -76 -245 -173 -281 -280 -5 -14 -25 1 -94 71
-151 151 -281 213 -449 215 -96 1 -103 0 -176 -36 -185 -92 -306 -301 -324
-562 -6 -84 8 -285 23 -323 5 -12 2 -15 -13 -10 -169 53 -197 59 -284 64 -255
14 -425 -104 -471 -326 -35 -170 104 -411 303 -524 21 -12 38 -25 38 -28 0 -3
-24 -22 -54 -42 -30 -20 -84 -64 -120 -97 -64 -61 -66 -61 -76 -38 -5 12 -27
66 -48 118 -129 317 -190 453 -308 690 -152 305 -236 448 -488 830 -438 663
-970 1346 -1394 1789 -277 290 -423 403 -492 384z m341 -393 c251 -251 353
-366 654 -745 585 -734 1002 -1359 1279 -1915 124 -249 169 -351 321 -728 l62
-153 -44 -87 c-125 -250 -92 -492 92 -678 54 -54 87 -78 145 -104 102 -45 105
-51 170 -385 76 -391 117 -732 142 -1170 17 -290 18 -2438 2 -2474 -10 -23
-14 -17 -51 80 -43 110 -40 89 -128 729 -119 855 -334 1759 -700 2935 -46 149
-94 297 -105 330 -12 33 -86 269 -165 525 -338 1091 -572 1709 -900 2375 -218
442 -470 851 -939 1525 -74 107 -136 199 -136 203 -1 26 92 -55 301 -263z
m-125 -93 c603 -871 869 -1356 1209 -2202 170 -422 310 -827 501 -1445 69
-223 161 -515 204 -650 372 -1159 610 -2080 744 -2885 39 -233 106 -708 101
-714 -16 -16 -154 416 -235 734 -162 640 -285 964 -489 1285 -126 197 -323
478 -533 757 -285 380 -406 569 -550 858 -240 478 -412 971 -592 1695 -217
867 -342 1479 -485 2365 -62 388 -73 465 -62 465 3 0 88 -118 187 -263z m4793
-1474 c46 -34 81 -117 80 -192 -1 -118 -7 -134 -75 -185 -121 -91 -249 -247
-314 -384 -14 -28 -27 -52 -31 -52 -3 0 -12 26 -19 58 -21 97 -60 213 -103
305 l-40 88 17 74 c22 91 55 139 138 198 155 110 276 141 347 90z m-1034 -48
c89 -24 170 -72 257 -154 173 -162 277 -376 324 -661 15 -86 15 -222 1 -419
-2 -21 -10 -26 -79 -42 -154 -36 -281 -112 -348 -208 -19 -28 -39 -50 -45 -51
-5 0 -51 21 -102 46 -152 75 -309 260 -393 460 -113 272 -129 599 -39 791 94
199 245 284 424 238z m1744 -241 c259 -58 348 -302 233 -634 -93 -267 -339
-564 -558 -674 -64 -32 -198 -86 -213 -86 -4 0 -15 21 -24 48 -54 149 -236
293 -408 322 l-69 12 0 58 c0 164 72 379 186 551 53 81 188 218 241 245 21 10
54 31 73 46 76 59 289 127 403 128 37 0 99 -7 136 -16z m-2490 -634 c93 -26
221 -80 221 -93 0 -20 75 -184 118 -257 24 -41 70 -108 103 -147 32 -40 59
-74 59 -75 0 -2 -49 -1 -109 0 -127 4 -238 -14 -374 -60 -162 -55 -228 -38
-358 91 -140 140 -179 275 -116 403 16 32 45 71 65 88 82 68 249 89 391 50z
m2947 -351 c173 -32 325 -196 311 -335 -12 -112 -104 -244 -210 -299 l-54 -28
-59 36 c-153 92 -378 161 -672 203 l-33 5 58 38 c90 58 193 150 278 250 83 97
94 104 219 126 92 17 92 17 162 4z m-1434 -150 c181 -38 325 -193 336 -364 16
-258 -191 -500 -472 -552 -237 -43 -442 101 -520 366 -30 102 -9 218 48 262
15 12 35 37 45 57 85 166 351 275 563 231z m-956 -194 c86 -15 180 -51 203
-78 7 -9 4 -31 -10 -78 -42 -132 -2 -296 114 -462 l41 -58 -25 -45 c-96 -177
-398 -354 -727 -426 -141 -31 -331 -31 -427 -1 -233 73 -362 326 -286 563 85
266 392 507 745 585 84 18 265 18 372 0z m1839 -210 c101 -18 308 -83 401
-125 227 -102 382 -315 360 -495 -14 -119 -136 -279 -259 -338 -153 -74 -328
-87 -480 -37 -235 79 -487 272 -558 428 -16 36 -41 81 -56 100 -17 23 -23 39
-17 47 98 128 147 232 165 348 7 40 13 78 15 86 6 19 303 9 429 -14z m-654
-610 c84 -133 100 -462 35 -718 -82 -323 -249 -533 -457 -578 -165 -35 -341
81 -443 293 -61 126 -77 191 -83 338 -10 224 25 399 117 585 82 167 66 155
152 112 166 -83 373 -70 563 37 59 33 60 33 69 12 5 -11 26 -48 47 -81z
m-1011 -222 c0 -5 -9 -51 -21 -103 -26 -122 -36 -360 -20 -455 l12 -68 -28
-24 c-126 -103 -287 -130 -403 -67 -93 51 -143 143 -144 264 -1 164 49 228
217 284 121 40 224 86 312 139 62 37 75 43 75 30z m1409 -160 c36 -22 102 -54
146 -73 104 -44 102 -42 116 -129 28 -185 -47 -326 -186 -347 -50 -7 -148 15
-215 49 -57 29 -114 116 -106 162 29 160 38 270 32 383 l-6 123 77 -65 c42
-35 106 -81 142 -103z"/>
<path d="M19012 11009 c-104 -52 -178 -239 -189 -479 -7 -146 -3 -154 75 -165
79 -11 212 47 284 122 164 172 145 452 -34 527 -50 21 -85 20 -136 -5z m114
-105 c39 -26 58 -71 58 -144 1 -123 -81 -228 -216 -276 l-41 -14 6 87 c10 148
58 295 109 338 35 29 50 31 84 9z"/>
<path d="M18355 10406 c-204 -64 -375 -356 -375 -641 0 -71 15 -105 47 -105 6
0 16 -7 23 -15 18 -22 57 -18 117 9 230 107 429 347 441 532 6 88 -8 130 -56
176 -59 56 -117 69 -197 44z m122 -120 c103 -89 -78 -381 -316 -509 l-71 -38
0 59 c0 183 127 421 261 489 57 29 91 29 126 -1z"/>
<path d="M19008 10206 c-164 -67 -372 -268 -354 -340 24 -97 157 -151 298
-121 221 46 361 247 280 403 -42 81 -119 101 -224 58z m128 -111 c36 -55 -19
-154 -115 -208 -87 -49 -241 -50 -241 -1 0 38 157 171 251 213 60 27 85 26
105 -4z"/>
<path d="M5790 10181 c-53 -29 -78 -61 -93 -118 l-13 -52 -46 33 c-211 150
-404 108 -448 -97 -70 -323 -38 -1080 65 -1544 85 -381 274 -737 487 -914 181
-151 524 -307 713 -325 44 -4 91 -16 125 -33 76 -36 261 -39 326 -4 130 69
159 192 158 668 -1 514 -57 868 -194 1238 -155 415 -354 673 -592 766 -17 6
-28 18 -28 30 0 10 -21 60 -46 111 -50 100 -120 179 -199 226 -62 36 -164 43
-215 15z m171 -119 c78 -50 139 -132 174 -231 12 -36 12 -36 -44 -91 -31 -30
-65 -74 -75 -98 -10 -23 -22 -42 -26 -42 -3 0 -16 22 -29 49 -27 61 -92 162
-142 222 -23 28 -36 53 -34 65 2 10 7 41 10 67 12 90 79 114 166 59z m-506
-46 c163 -50 352 -265 449 -512 l36 -90 -20 -131 c-111 -760 38 -1529 372
-1916 28 -32 48 -60 45 -63 -8 -8 -254 93 -334 137 -300 166 -516 484 -627
928 -125 493 -155 1459 -51 1618 28 42 60 49 130 29z m899 -375 c99 -68 222
-231 314 -416 195 -393 286 -851 287 -1445 0 -297 -10 -407 -44 -485 -29 -65
-49 -76 -145 -82 -81 -6 -89 -4 -149 25 -198 98 -389 355 -490 662 -145 438
-175 1038 -75 1500 38 176 97 283 152 273 13 -3 32 0 42 5 22 12 50 2 108 -37z"/>
<path d="M17402 9724 c-161 -80 -227 -341 -146 -583 44 -133 73 -157 158 -127
48 17 154 136 196 221 104 211 69 451 -73 504 -44 17 -79 13 -135 -15z m120
-101 c64 -73 51 -250 -26 -371 -35 -56 -107 -133 -117 -127 -4 3 -18 36 -29
73 -40 126 -25 274 36 368 44 68 104 93 136 57z"/>
<path d="M18237 9549 c-103 -25 -209 -75 -326 -153 -123 -82 -148 -109 -156
-167 -7 -44 -5 -48 32 -86 122 -129 493 -115 678 25 128 97 154 257 55 346
-66 59 -145 69 -283 35z m192 -104 c70 -36 49 -132 -44 -197 -99 -69 -320
-101 -447 -64 -91 26 -91 36 -1 100 190 134 407 205 492 161z"/>
<path d="M14825 9424 c-164 -25 -332 -129 -374 -231 -16 -38 -22 -40 -46 -13
-31 35 -113 81 -176 101 -235 73 -465 -96 -477 -351 -5 -110 19 -177 90 -255
28 -31 49 -57 47 -59 -2 -2 -23 -13 -45 -24 -112 -57 -214 -250 -214 -408 0
-127 88 -225 233 -261 107 -26 246 8 369 91 l53 35 11 -37 c34 -114 111 -179
259 -218 139 -38 288 3 374 102 53 60 74 117 79 216 l4 88 53 -6 c166 -20 368
80 452 224 40 68 44 165 9 236 -53 108 -174 186 -323 208 l-80 12 26 60 c36
86 38 245 2 323 -25 57 -93 127 -145 148 -36 15 -135 25 -181 19z m120 -115
c143 -40 171 -275 49 -420 -39 -46 -47 -114 -18 -143 19 -20 27 -20 105 0 100
26 211 -2 289 -72 79 -71 91 -137 41 -217 -81 -126 -287 -188 -447 -134 -85
29 -110 -2 -80 -98 67 -214 -87 -376 -305 -321 -136 35 -179 87 -179 216 0
101 -6 110 -71 110 -43 0 -49 -3 -68 -32 -48 -79 -156 -146 -272 -169 -73 -15
-154 7 -207 56 -37 33 -37 34 -37 112 0 71 4 87 37 154 65 131 156 193 281
192 50 -1 60 2 78 25 26 34 21 73 -11 88 -14 7 -57 21 -95 33 -148 44 -211
174 -155 323 56 150 219 215 362 145 68 -33 158 -126 158 -163 0 -29 32 -64
59 -64 30 0 44 27 62 116 27 132 67 180 190 230 102 42 168 51 234 33z"/>
<path d="M14437 8807 c-93 -30 -137 -103 -137 -225 0 -101 37 -155 134 -196
138 -58 310 35 324 173 7 76 -4 114 -49 165 -71 81 -179 114 -272 83z m128
-111 c102 -43 116 -154 25 -201 -63 -33 -159 -6 -180 51 -41 107 49 194 155
150z"/>
<path d="M16823 8999 c-131 -64 -210 -309 -184 -565 11 -110 21 -126 86 -138
33 -6 41 -2 119 63 136 114 198 197 236 320 45 143 10 268 -90 319 -55 28
-113 28 -167 1z m135 -109 c73 -68 22 -249 -106 -377 -88 -88 -99 -93 -108
-46 -18 92 28 315 79 390 37 55 96 69 135 33z"/>
<path d="M2864 8909 c-120 -35 -111 -148 29 -363 275 -420 698 -738 1112 -836
192 -46 273 -52 631 -51 l342 1 118 -31 c189 -49 193 -50 214 -39 46 25 44 41
-24 187 -35 76 -78 172 -96 213 -60 140 -173 349 -225 417 -126 166 -307 260
-638 332 -95 21 -568 92 -1007 152 -217 29 -393 36 -456 18z m456 -130 c118
-15 368 -51 555 -78 800 -117 930 -183 1125 -572 62 -122 191 -402 187 -405
-1 -2 -34 7 -72 19 -65 20 -94 21 -435 23 -385 2 -490 11 -669 55 -360 90
-730 363 -991 733 -78 110 -133 210 -128 234 7 38 92 36 428 -9z"/>
<path d="M17531 8900 c-162 -58 -404 -252 -403 -324 0 -39 21 -100 38 -113 48
-35 158 -42 263 -18 191 45 347 199 345 340 -1 119 -101 166 -243 115z m136
-106 c9 -25 -38 -113 -81 -150 -73 -62 -190 -104 -289 -104 -77 0 -79 13 -12
75 149 139 359 238 382 179z"/>
<path d="M17972 8665 c-39 -19 -131 -70 -204 -113 -545 -324 -947 -483 -1421
-562 -100 -16 -331 -48 -513 -70 -376 -45 -450 -58 -588 -101 -282 -87 -566
-246 -852 -475 -422 -338 -756 -686 -973 -1013 -42 -62 -80 -119 -85 -127 -7
-8 -6 -22 2 -39 14 -31 16 -31 202 -1 120 20 181 21 705 17 981 -9 1671 106
2275 379 439 198 790 484 1138 928 274 350 523 822 549 1041 19 162 -72 215
-235 136z m125 -128 c-15 -149 -186 -500 -385 -792 -239 -351 -567 -684 -872
-886 -320 -213 -797 -393 -1255 -473 -450 -79 -1037 -115 -1563 -96 -182 7
-300 7 -371 0 -57 -6 -105 -9 -108 -6 -16 15 421 288 657 410 347 179 553 243
1340 416 876 192 1199 297 1608 525 414 230 574 380 790 744 127 214 169 256
159 158z m-137 -12 c0 -11 -158 -267 -205 -330 -163 -221 -394 -397 -774 -587
-376 -189 -635 -266 -1601 -478 -799 -175 -1056 -274 -1619 -626 -74 -47 -136
-82 -138 -80 -15 15 317 377 502 546 438 401 774 621 1120 734 154 50 213 61
589 106 182 22 403 52 490 65 487 76 911 238 1451 555 161 94 185 107 185 95z"/>
<path d="M3395 7410 c-60 -9 -110 -33 -125 -59 -14 -28 -12 -87 4 -119 39 -75
263 -269 812 -703 285 -226 563 -521 879 -933 72 -93 166 -210 211 -260 241
-271 581 -505 869 -600 124 -40 236 -62 578 -111 174 -24 380 -58 458 -75 78
-16 152 -30 163 -30 33 0 76 46 76 80 0 35 -36 66 -235 201 -409 278 -614 489
-1049 1084 -245 334 -342 452 -505 615 -340 340 -701 547 -1277 733 -424 138
-715 197 -859 177z m302 -136 c318 -63 779 -218 1068 -359 427 -209 707 -456
1074 -950 361 -483 426 -569 514 -671 162 -188 414 -411 640 -565 49 -34 86
-63 84 -65 -2 -2 -35 2 -73 10 -39 8 -202 33 -364 56 -340 47 -444 68 -583
117 -334 116 -661 371 -942 735 -463 599 -655 796 -1165 1194 -327 255 -580
478 -580 511 0 29 146 23 327 -13z"/>
<path d="M5236 7354 c-25 -25 -19 -48 35 -146 124 -223 235 -383 480 -688 414
-516 716 -832 1324 -1385 574 -522 836 -782 1540 -1525 389 -412 624 -647 663
-666 58 -27 102 9 102 83 0 116 -211 822 -349 1166 -213 535 -695 1231 -1200
1738 -420 420 -654 565 -1411 876 -311 127 -405 174 -679 338 -208 124 -297
168 -370 181 -20 4 -47 15 -60 25 -29 23 -54 24 -75 3z m232 -183 c31 -15 149
-83 262 -150 250 -149 341 -194 630 -311 768 -312 1003 -459 1435 -901 472
-483 925 -1144 1128 -1644 68 -166 181 -503 252 -750 70 -244 82 -295 68 -295
-6 0 -117 114 -249 252 -928 980 -1310 1362 -1844 1842 -580 522 -946 906
-1356 1421 -203 255 -416 565 -389 565 4 0 32 -13 63 -29z"/>
<path d="M16335 6143 c-11 -2 -74 -22 -141 -43 -345 -111 -697 -147 -1324
-136 -195 3 -416 10 -490 15 -825 58 -1114 26 -1560 -171 -765 -338 -1494
-959 -1853 -1579 -174 -300 -349 -755 -451 -1171 -140 -567 -350 -1767 -391
-2228 -8 -96 -17 -183 -19 -193 -7 -32 12 -208 24 -222 18 -22 67 -19 80 4 5
11 10 74 10 140 0 317 193 900 458 1387 511 936 1339 1747 2250 2203 233 117
704 302 1362 536 802 285 1220 495 1665 838 141 109 402 362 455 441 42 62 52
132 23 158 -21 19 -67 29 -98 21z m-25 -132 c0 -18 -264 -276 -361 -353 -449
-359 -915 -596 -1709 -873 -394 -137 -916 -336 -1145 -435 -786 -343 -1526
-942 -2092 -1695 -261 -346 -491 -744 -637 -1100 -27 -66 -45 -100 -46 -85 -1
74 196 1111 280 1475 96 413 236 800 411 1135 321 612 982 1209 1754 1581 242
117 433 180 655 216 136 22 514 21 870 -2 868 -55 1527 -17 1898 109 109 37
122 40 122 27z"/>
<path d="M10671 5486 c-30 -10 -39 -21 -72 -91 -118 -257 -150 -489 -152
-1120 -1 -462 6 -505 79 -505 36 0 69 41 146 182 176 326 286 658 295 893 7
161 -8 221 -104 434 -105 232 -107 235 -192 207z m94 -256 c84 -180 90 -205
90 -360 -1 -119 -4 -149 -32 -250 -44 -163 -113 -345 -192 -506 l-68 -139 -8
70 c-11 92 12 772 29 900 24 172 94 411 118 403 6 -2 34 -55 63 -118z"/>
<path d="M14534 4571 c-43 -21 -158 -81 -254 -133 -96 -52 -317 -164 -490
-249 -822 -405 -1525 -811 -1875 -1084 -235 -183 -489 -419 -629 -585 -406
-479 -762 -1144 -871 -1627 -41 -178 -32 -273 25 -273 11 0 71 52 142 123 68
68 179 165 248 217 69 52 190 146 270 210 188 151 653 517 1000 789 1183 924
1891 1573 2377 2176 93 115 220 308 234 354 20 67 -16 121 -80 121 -9 0 -53
-17 -97 -39z m29 -132 c-91 -156 -425 -543 -742 -860 -461 -461 -959 -882
-2161 -1825 -272 -213 -563 -442 -646 -508 -83 -67 -205 -163 -272 -215 -68
-51 -145 -113 -172 -138 -60 -54 -61 -49 -20 91 98 335 273 693 524 1071 167
251 272 381 456 566 484 486 1034 835 2315 1474 226 113 482 243 570 290 88
46 161 85 163 85 2 0 -5 -14 -15 -31z"/>
<path d="M7550 4239 c-25 -11 -57 -32 -71 -45 l-27 -26 -51 37 c-66 48 -111
54 -179 25 -85 -37 -156 -131 -169 -225 -5 -42 -8 -45 -37 -45 -41 -1 -105
-31 -138 -66 -130 -139 20 -430 211 -412 l49 5 4 -82 c4 -105 31 -150 113
-190 49 -24 64 -27 128 -23 72 5 139 30 165 61 11 13 19 12 65 -5 65 -25 152
-26 202 -3 109 52 162 177 117 278 l-20 46 38 26 c127 88 139 263 26 363 -32
28 -89 52 -123 52 -8 0 -13 15 -13 43 -1 77 -63 170 -133 196 -44 17 -107 13
-157 -10z m145 -112 c47 -40 44 -158 -5 -202 -28 -25 -25 -61 5 -81 25 -16 27
-15 74 14 64 39 83 45 114 33 55 -21 76 -124 36 -175 -25 -32 -115 -80 -124
-66 -10 15 -61 12 -75 -5 -14 -17 -8 -79 11 -101 6 -8 22 -14 36 -14 32 0 73
-42 73 -75 0 -67 -51 -115 -123 -115 -64 0 -112 22 -132 59 -30 59 -105 38
-105 -29 0 -75 -152 -100 -208 -34 -21 24 -23 34 -19 98 3 39 8 86 12 104 13
58 -4 65 -121 58 -100 -7 -101 -7 -134 21 -54 45 -84 135 -64 188 17 45 125
60 182 25 89 -54 144 19 66 88 -33 30 -36 36 -31 72 9 71 77 150 128 150 31 0
99 -61 121 -111 16 -34 31 -52 47 -56 45 -11 57 7 77 115 11 55 112 80 159 39z"/>
<path d="M8425 3381 c-59 -27 -100 -65 -124 -116 -20 -44 -22 -45 -67 -45
-108 0 -194 -101 -194 -227 0 -73 27 -130 90 -186 l49 -44 -21 -43 c-43 -86
-16 -196 64 -265 81 -68 195 -75 269 -16 l41 33 51 -28 c103 -56 226 -27 296
70 41 58 53 134 28 182 -15 29 -15 30 23 61 50 43 90 124 90 182 -1 119 -97
211 -239 229 l-53 7 -19 51 c-22 58 -86 137 -130 159 -38 20 -105 18 -154 -4z
m131 -113 c37 -33 77 -136 76 -193 -1 -57 17 -85 58 -85 30 0 50 16 50 42 0
44 94 27 142 -24 48 -51 40 -99 -25 -165 -36 -35 -62 -53 -79 -53 -28 0 -52
-17 -62 -43 -6 -19 15 -44 68 -80 74 -51 -35 -168 -128 -137 -37 12 -70 44
-81 78 -8 28 -43 43 -68 30 -11 -5 -28 -30 -39 -54 -35 -80 -102 -101 -169
-53 -80 56 -64 200 21 191 35 -4 62 23 58 56 -4 31 -45 63 -87 68 -67 8 -122
55 -140 120 -12 42 -5 70 26 112 39 52 97 43 159 -24 34 -37 64 -43 88 -18 24
23 19 68 -9 102 -42 50 -24 106 46 140 44 22 62 20 95 -10z"/>
<path d="M9144 2730 c-53 -21 -75 -83 -125 -350 -15 -83 -23 -171 -26 -316 -8
-303 21 -446 132 -663 130 -253 379 -496 640 -626 138 -68 167 -71 195 -15 18
35 22 77 36 332 29 533 -7 807 -134 1025 -139 237 -479 573 -620 613 -44 12
-69 12 -98 0z m146 -147 c77 -50 333 -311 409 -418 141 -199 182 -342 196
-690 6 -137 -15 -608 -27 -620 -9 -10 -156 68 -228 120 -93 69 -253 227 -322
320 -223 297 -274 647 -172 1162 32 162 38 176 67 168 12 -4 47 -23 77 -42z"/>
</g>
</svg>
