<svg xmlns="http://www.w3.org/2000/svg" viewBox="0 0 1471 2694" fill="#333" role="img" aria-label="Cluster of mushrooms line art">
<g transform="translate(0.000000,2694.000000) scale(0.100000,-0.100000)"
fill="#333" stroke="none">
<path d="M6375 26534 c-963 -41 -1651 -188 -2415 -517 -728 -312 -1355 -697
-1707 -1046 -446 -443 -786 -1058 -890 -1606 -20 -108 -29 -446 -14 -571 69
-602 376 -1153 876 -1575 526 -444 1107 -667 2210 -849 138 -23 260 -45 272
-50 23 -9 55 -100 138 -391 41 -145 97 -408 89 -420 -9 -15 -68 -10 -207 15
-284 53 -394 61 -807 61 -491 -1 -760 -29 -1128 -120 -433 -107 -989 -359
-1330 -603 -311 -224 -600 -530 -766 -815 -426 -727 -389 -1479 105 -2142 129
-174 253 -297 484 -484 339 -275 807 -517 1134 -587 l80 -17 6 -51 c3 -28 19
-265 35 -526 72 -1134 112 -1543 200 -2072 40 -233 43 -212 -37 -239 -428
-140 -801 -369 -1123 -689 -209 -207 -331 -376 -446 -615 -260 -540 -253 -984
23 -1540 391 -785 1072 -1370 1835 -1575 61 -16 112 -31 114 -32 5 -6 63 -350
78 -468 44 -340 62 -723 71 -1500 9 -761 26 -1042 86 -1399 138 -825 484
-1535 1014 -2080 450 -462 941 -736 1363 -760 l113 -6 38 -90 c81 -197 218
-353 434 -497 592 -395 1437 -367 1992 67 197 154 297 297 384 550 l28 79 64
17 c335 88 728 382 1140 854 337 387 634 911 920 1623 111 279 186 433 237
491 l39 43 184 -13 c384 -26 796 -14 1051 32 585 105 899 459 967 1091 93 852
-412 1824 -1249 2400 -385 266 -840 440 -1189 455 l-124 6 7 106 c12 179 88
675 107 696 5 5 60 10 122 12 538 15 1367 178 1787 350 447 183 774 482 961
878 294 624 275 1524 -48 2241 -325 723 -916 1227 -1786 1523 -143 49 -449
131 -487 131 -30 0 -31 12 -5 106 69 258 326 864 363 856 169 -33 207 -37 452
-37 508 0 854 95 1240 341 359 228 638 636 760 1109 167 649 93 1200 -229
1687 -416 632 -1033 954 -2033 1064 -193 22 -654 25 -813 6 -526 -63 -979
-256 -1445 -618 -133 -103 -396 -361 -494 -484 -336 -423 -487 -880 -436
-1325 67 -578 394 -997 898 -1146 23 -7 42 -18 42 -25 0 -47 -256 -432 -535
-804 -215 -287 -291 -397 -362 -527 -44 -81 -83 -117 -104 -96 -4 4 -26 74
-48 155 -128 471 -185 868 -303 2133 -18 189 -18 1523 0 1865 33 651 88 1162
155 1465 l22 100 35 3 c390 33 1130 158 1514 257 254 65 536 169 740 273 50
25 106 52 125 58 18 7 45 23 60 37 14 13 60 47 102 75 675 450 1071 1284 1019
2151 -27 447 -156 858 -395 1256 -320 532 -553 782 -1145 1226 -185 139 -210
154 -480 292 -157 80 -352 176 -435 212 -689 305 -1452 482 -2345 545 -148 11
-811 20 -955 14z m840 -194 c458 -34 842 -96 1280 -207 614 -155 1383 -433
1742 -629 231 -126 699 -528 957 -824 289 -329 501 -674 595 -963 123 -381
179 -895 135 -1239 -57 -446 -287 -924 -579 -1208 l-57 -55 17 40 c36 82 94
274 116 375 29 138 32 403 5 525 -82 374 -353 731 -756 998 -476 315 -1561
639 -2565 766 -552 70 -806 86 -1350 86 -536 0 -800 -16 -1315 -81 -537 -66
-1204 -205 -1675 -349 -642 -196 -1293 -598 -1547 -955 -189 -266 -278 -647
-212 -905 15 -60 -168 200 -250 356 -178 337 -267 747 -237 1091 43 485 237
890 677 1414 491 584 990 921 1929 1304 691 282 1141 392 1845 450 352 30 914
34 1245 10z m-179 -2552 c-51 -311 -72 -475 -101 -783 -76 -812 -71 -1469 16
-2225 65 -566 208 -1355 247 -1368 18 -6 16 23 -32 399 -136 1055 -166 1417
-166 2024 0 599 55 1333 143 1900 l12 80 138 -2 c285 -4 834 -65 1124 -124
l53 -10 -29 -42 c-167 -243 -402 -952 -525 -1582 -93 -477 -131 -868 -156
-1605 -17 -488 -13 -597 20 -564 16 16 27 114 55 514 32 445 77 904 116 1170
93 638 290 1368 492 1826 42 94 78 186 82 205 12 67 8 66 182 30 253 -53 821
-202 870 -229 9 -6 -9 -23 -61 -59 -310 -216 -563 -531 -797 -995 -91 -180
-171 -367 -184 -426 -6 -29 -5 -33 12 -30 12 2 54 69 126 198 340 614 502 829
822 1092 72 59 147 123 168 142 21 20 40 36 42 36 14 0 330 -116 425 -156 130
-54 352 -165 420 -209 l45 -29 -65 -14 c-390 -81 -691 -252 -1021 -582 -303
-302 -548 -658 -770 -1115 -296 -611 -444 -1208 -518 -2087 -68 -803 -81
-2032 -31 -2783 45 -661 194 -1550 324 -1933 14 -39 21 -74 16 -77 -5 -3 -71
-24 -147 -46 -807 -238 -1473 -695 -1950 -1336 -213 -286 -398 -641 -461 -883
-11 -41 -24 -76 -31 -78 -9 -3 -154 27 -212 44 -14 4 -17 31 -23 177 -15 389
30 1135 109 1800 14 114 25 210 25 212 0 3 41 5 91 5 151 0 467 29 596 55 597
121 1048 509 1227 1055 212 651 48 1487 -437 2232 -438 672 -1227 1349 -2007
1724 -85 41 -162 78 -170 83 -10 6 -20 45 -32 127 -23 156 -45 253 -119 519
-33 121 -74 270 -91 330 -53 191 -173 545 -237 693 -354 825 -769 1279 -1354
1481 -211 73 -451 108 -659 97 -68 -3 -118 -2 -118 3 0 5 37 42 83 82 262 232
568 409 977 565 l114 44 41 -27 c220 -145 496 -433 706 -738 207 -301 467
-784 619 -1152 26 -63 48 -103 57 -103 46 0 -99 401 -281 776 -271 555 -550
938 -874 1197 -62 50 -109 94 -105 98 20 18 462 136 733 195 141 31 156 32
165 17 6 -9 69 -104 140 -212 409 -617 749 -1339 995 -2112 185 -584 364
-1483 406 -2040 12 -161 43 -147 51 22 14 301 -102 1105 -238 1644 -235 931
-643 1846 -1132 2537 -61 88 -116 165 -122 173 -5 8 -7 16 -4 19 13 13 553 94
809 121 l55 6 83 -140 c207 -350 304 -643 526 -1598 40 -175 81 -353 91 -395
9 -43 21 -78 27 -78 38 0 -81 686 -204 1175 -119 477 -251 816 -380 976 -27
34 -47 63 -45 65 5 5 344 31 472 37 39 2 222 4 409 5 l339 2 -7 -42z m3886
-1086 c59 -61 134 -153 172 -210 93 -139 153 -285 112 -269 -44 17 -258 58
-355 68 -141 15 -436 6 -581 -16 -229 -35 -499 -115 -715 -210 -68 -30 -127
-55 -130 -55 -27 0 238 279 367 386 243 203 530 344 788 388 239 40 219 45
342 -82z m-7899 -241 c318 -69 609 -216 805 -408 48 -46 78 -81 67 -77 -429
157 -615 190 -1009 181 -286 -6 -517 -44 -678 -112 -36 -15 -38 -14 -38 4 0
62 101 303 158 379 47 62 467 82 695 33z m7947 -262 c139 -13 258 -33 271 -46
48 -48 36 -405 -21 -613 -35 -125 -116 -330 -131 -330 -5 0 -34 16 -66 36
-126 81 -409 201 -608 257 -403 113 -857 138 -1208 66 -54 -11 -101 -19 -103
-16 -2 2 28 54 67 116 79 124 100 142 289 244 447 239 959 336 1510 286z
m-7705 -153 c145 -21 271 -51 414 -98 131 -42 334 -125 376 -152 24 -16 110
-134 103 -141 -2 -2 -52 4 -111 15 -400 72 -728 35 -1097 -125 -148 -63 -310
-162 -418 -253 l-53 -44 -40 28 c-128 89 -265 382 -276 595 -7 115 -15 108
137 138 309 60 701 76 965 37z m669 -462 c55 -8 148 -26 208 -40 l108 -26 35
-61 35 -62 -38 -7 c-20 -4 -77 -14 -126 -23 -115 -21 -244 -69 -348 -131 -137
-82 -313 -264 -388 -401 -13 -24 -27 -43 -32 -43 -18 0 -260 92 -368 140 -196
87 -475 251 -467 274 5 16 197 132 329 197 364 183 676 237 1052 183z m5901
-74 c344 -25 670 -105 1011 -250 67 -28 142 -64 168 -81 l47 -29 -22 -38 c-48
-78 -117 -178 -135 -193 -29 -24 -147 -86 -259 -136 l-99 -44 -26 21 c-126
101 -367 244 -552 327 -287 130 -551 190 -873 199 -154 4 -150 1 -109 70 34
57 37 59 139 89 116 33 236 54 377 64 164 12 179 12 333 1z m-5426 -300 c23
-49 50 -110 61 -135 l19 -45 -72 -36 c-144 -72 -284 -191 -360 -306 -22 -33
-45 -58 -55 -58 -18 0 -388 90 -478 116 -30 8 -54 20 -54 26 0 5 33 49 74 96
213 251 403 365 691 416 137 24 126 29 174 -74z m4869 -31 c268 -29 525 -109
788 -243 133 -69 384 -216 384 -227 0 -18 -432 -143 -701 -204 l-157 -35 -88
89 c-172 171 -460 325 -666 356 -57 9 -58 12 -17 102 17 37 42 92 54 121 l24
52 141 0 c77 0 184 -5 238 -11z m-4670 -458 c40 -112 71 -205 70 -207 -4 -4
-535 83 -557 92 -17 6 101 129 185 195 63 48 205 130 219 126 5 -2 42 -95 83
-206z m4237 78 c93 -18 199 -55 299 -105 145 -73 361 -222 345 -238 -24 -25
-887 -152 -905 -133 -7 7 56 227 100 349 57 156 53 149 78 144 13 -3 50 -10
83 -17z m-4539 -1399 c259 -20 543 -68 694 -116 309 -98 920 -484 1340 -846
718 -620 1213 -1446 1299 -2168 72 -606 -59 -1058 -403 -1388 -86 -83 -112
-99 -102 -62 3 11 8 28 11 38 14 48 21 211 14 290 -46 490 -419 876 -1241
1288 -1015 508 -1969 735 -2993 711 -789 -19 -1387 -170 -1773 -447 -46 -33
-94 -62 -108 -65 -13 -3 -35 -7 -49 -10 -38 -8 -65 -43 -65 -86 0 -30 -10 -52
-49 -102 -26 -36 -59 -83 -72 -106 -12 -22 -26 -41 -31 -41 -11 0 -53 95 -89
202 -143 425 -107 925 97 1345 257 528 804 982 1556 1293 333 138 697 225
1078 259 69 6 141 13 160 15 87 8 610 5 726 -4z m7674 -145 c663 -79 1098
-239 1470 -539 253 -204 482 -528 589 -830 214 -605 31 -1474 -407 -1936 l-81
-85 -1 112 c0 182 -34 311 -136 518 -317 645 -990 1008 -2119 1142 -211 25
-736 25 -915 0 -384 -54 -652 -174 -883 -396 -49 -47 -111 -115 -138 -151
-101 -133 -197 -367 -217 -525 -4 -33 -12 -60 -17 -60 -29 0 -126 247 -162
415 -25 119 -25 410 0 530 94 439 374 852 827 1217 405 327 888 541 1340 592
52 6 111 13 130 15 85 10 593 -3 720 -19z m-871 -1781 l43 -6 -6 -71 c-24
-247 -129 -616 -276 -967 -102 -244 -307 -648 -422 -830 -157 -250 -130 -284
39 -50 269 372 544 945 668 1390 42 154 94 428 95 509 0 11 14 12 73 7 105
-11 420 -65 430 -75 5 -5 -3 -27 -17 -49 -48 -76 -229 -416 -381 -717 -190
-376 -340 -753 -312 -781 16 -17 36 13 86 127 87 198 245 509 443 875 102 186
207 381 234 431 27 51 54 93 60 93 52 1 505 -146 510 -166 2 -5 -25 -30 -60
-56 -306 -231 -697 -747 -807 -1066 -32 -92 -18 -159 16 -77 47 110 238 406
367 567 159 197 405 434 563 544 l54 36 68 -37 c88 -48 217 -134 268 -178 l40
-35 -40 -23 c-275 -162 -605 -439 -778 -654 -184 -229 -366 -561 -544 -995
-30 -74 -86 -208 -124 -297 -86 -204 -140 -365 -173 -512 -14 -62 -27 -115
-30 -118 -2 -3 -94 16 -203 41 -486 112 -820 160 -1203 173 -230 7 -613 -19
-772 -53 -61 -13 -27 42 297 476 134 179 287 393 340 475 54 83 122 187 152
233 97 149 246 489 317 725 57 186 79 329 79 497 1 167 -9 228 -65 398 -22 68
-38 125 -36 127 21 21 396 91 410 77 17 -17 38 -118 44 -212 12 -172 -31 -486
-102 -756 -44 -167 -50 -204 -35 -204 19 0 87 154 126 284 92 309 129 646 90
831 -8 38 -15 71 -15 72 0 11 396 8 489 -3z m-1150 -216 c11 -35 25 -82 31
-105 12 -48 30 -224 24 -235 -3 -4 -38 15 -79 42 -85 55 -207 99 -296 107
l-60 6 23 24 c54 58 298 223 330 223 3 0 15 -28 27 -62z m-261 -287 c96 -34
171 -80 248 -155 67 -64 67 -73 29 -261 -4 -19 -12 -20 -187 -20 -196 0 -275
-14 -407 -72 -79 -34 -82 -33 -75 35 17 144 74 302 155 425 l50 77 52 0 c31 0
85 -12 135 -29z m-6293 -52 c83 -5 159 -12 171 -14 24 -5 106 -180 155 -329
63 -193 139 -548 139 -649 0 -23 5 -49 10 -57 19 -29 30 11 30 110 0 247 -79
634 -169 826 -47 100 -65 94 169 60 245 -36 350 -57 350 -70 0 -6 8 -67 16
-136 13 -98 17 -256 21 -740 7 -886 -11 -1451 -57 -1840 -13 -111 -13 -120 4
-120 29 0 84 287 110 580 53 589 70 1748 32 2100 -8 74 -13 136 -11 138 13 13
454 -101 692 -179 157 -51 448 -161 461 -173 2 -2 -19 -35 -47 -72 -91 -126
-241 -407 -332 -620 -23 -54 -45 -103 -49 -109 -32 -40 -167 -506 -210 -724
-56 -286 -110 -926 -84 -995 7 -19 28 -21 43 -3 12 15 19 65 56 382 94 801
265 1324 637 1939 43 71 78 135 78 143 0 7 4 13 9 13 20 0 394 -193 516 -267
196 -117 272 -174 252 -187 -8 -6 -57 -40 -108 -76 -531 -373 -857 -925 -958
-1625 -62 -428 -81 -1412 -36 -1883 10 -101 16 -185 14 -186 -2 -2 -76 5 -164
15 -451 51 -931 46 -1456 -17 l-56 -6 -6 98 c-21 340 -132 608 -130 317 1
-122 26 -264 66 -361 l25 -62 -22 -5 c-11 -2 -84 -16 -161 -30 -77 -14 -211
-42 -298 -62 -86 -20 -159 -34 -162 -31 -14 14 -99 644 -134 998 -37 365 -41
456 -51 1080 -11 715 -23 918 -71 1169 -47 246 -139 472 -287 707 -37 58 -168
221 -225 279 -180 181 -442 320 -687 366 -125 23 -124 21 -43 62 256 130 603
208 1110 251 42 3 45 2 117 -74 221 -232 359 -451 489 -780 153 -386 267 -865
362 -1518 14 -96 28 -178 31 -183 30 -49 33 210 5 456 -86 752 -274 1370 -539
1773 -55 84 -213 284 -247 312 -17 14 -16 15 6 22 29 9 419 1 624 -13z m9674
-223 c100 -124 174 -246 221 -367 l21 -51 -23 5 c-128 30 -181 38 -293 47
-140 12 -358 1 -515 -24 -47 -8 -87 -12 -90 -9 -11 11 216 212 347 306 82 60
246 157 263 157 9 0 40 -29 69 -64z m-11663 -251 c225 -36 432 -136 602 -290
103 -94 108 -90 -101 -90 -292 -1 -562 -64 -777 -181 l-64 -36 -28 34 c-74 85
-158 203 -158 219 0 42 115 228 193 312 l44 47 99 0 c54 0 140 -7 190 -15z
m8444 -6 c36 -5 69 -14 73 -18 13 -13 -106 -378 -133 -405 -22 -22 -300 100
-405 179 -63 47 -82 77 -87 140 l-3 39 75 23 c155 49 338 65 480 42z m3340
-209 c136 -23 137 -23 152 -88 7 -32 13 -114 13 -187 0 -120 -3 -135 -30 -205
-30 -75 -30 -75 -97 -108 l-68 -33 -72 63 c-232 201 -538 331 -817 347 l-113
6 56 72 56 71 87 21 c85 19 264 46 368 55 85 7 396 -3 465 -14z m-11075 -280
c53 -8 74 -16 87 -33 23 -30 118 -212 118 -226 0 -7 -29 -11 -87 -11 -211 0
-449 -62 -618 -161 -82 -48 -64 -52 -241 65 -136 90 -256 198 -238 216 32 32
369 131 509 149 98 12 386 13 470 1z m10310 -49 c111 -27 214 -65 325 -121
115 -57 322 -182 327 -197 9 -26 -307 -118 -500 -147 -168 -25 -166 -26 -215
42 -67 92 -153 163 -299 248 -35 19 -65 39 -68 44 -6 9 70 129 93 149 24 18
231 7 337 -18z m-5757 -193 c62 -62 134 -140 158 -174 43 -61 110 -191 102
-199 -2 -3 -48 11 -101 30 -184 66 -274 79 -529 80 -225 0 -227 0 -214 20 18
27 159 149 236 205 133 96 214 150 223 150 6 0 62 -51 125 -112z m5471 -146
c72 -57 151 -134 151 -145 0 -13 -352 -2 -417 13 -29 6 -53 14 -53 17 0 12 81
176 100 203 l21 29 71 -36 c39 -19 96 -56 127 -81z m-9744 -54 c46 -145 112
-454 100 -466 -21 -21 -766 310 -860 381 -19 15 -17 17 40 42 189 85 361 123
557 124 l137 1 26 -82z m4189 -159 c92 -12 237 -48 318 -79 70 -26 73 -36 72
-225 0 -113 -4 -141 -27 -212 -36 -109 -94 -195 -150 -221 l-42 -20 -11 47
c-17 76 -64 150 -158 248 -168 176 -388 297 -609 334 -42 7 -77 15 -77 18 0 4
15 23 33 44 27 32 42 39 102 52 165 34 359 39 549 14z m-588 -218 c180 -37
366 -141 508 -284 88 -88 172 -206 182 -254 6 -30 6 -30 -88 -61 -117 -38
-392 -80 -415 -63 -4 3 -23 36 -41 73 -66 132 -213 275 -359 349 -35 18 -63
36 -63 41 0 13 48 106 86 166 40 61 47 62 190 33z m-263 -327 c116 -59 215
-144 297 -255 51 -68 60 -89 38 -89 -107 1 -421 46 -483 70 l-24 9 15 53 c34
115 86 238 101 238 2 0 27 -12 56 -26z m4452 -488 c721 -90 1755 -366 2195
-586 839 -419 1341 -1238 1367 -2231 13 -492 -86 -875 -314 -1218 -181 -272
-432 -461 -804 -605 -176 -68 -172 -68 -100 10 154 167 234 304 276 469 112
443 -212 971 -835 1362 -471 296 -1249 598 -1869 728 -336 70 -568 96 -923
102 -484 9 -824 -33 -1236 -151 -373 -108 -590 -230 -853 -481 -42 -39 -81
-75 -86 -78 -6 -4 -78 25 -161 63 -184 84 -447 186 -611 236 l-122 38 6 34
c30 162 178 474 342 720 211 318 547 657 891 899 562 395 1210 627 1957 702
143 15 728 6 880 -13z m-4574 -17 l52 -11 -6 -47 c-105 -825 -141 -1319 -135
-1829 3 -269 2 -292 -14 -292 -9 0 -20 5 -23 10 -40 65 -57 1299 -22 1660 17
173 51 447 62 498 6 25 14 26 86 11z m3677 -2134 c12 -12 6 -685 -7 -830 -27
-305 -130 -1068 -180 -1340 -18 -99 -18 -121 0 -109 55 34 230 862 284 1344
41 368 45 799 9 912 -8 25 38 24 278 -7 352 -44 878 -165 865 -199 -3 -6 -32
-48 -66 -93 -368 -489 -753 -1486 -876 -2269 -48 -303 -24 -405 31 -133 119
590 321 1184 599 1764 122 256 293 538 402 663 l38 44 157 -56 c264 -94 532
-207 723 -304 78 -39 79 -40 53 -51 -445 -172 -772 -489 -1022 -990 -121 -242
-190 -452 -231 -703 -10 -65 12 -42 38 40 62 193 242 571 364 764 249 396 563
666 925 797 l87 32 101 -63 c222 -138 423 -308 549 -465 69 -85 137 -190 129
-198 -2 -3 -24 2 -49 10 -73 24 -216 45 -313 45 -460 0 -901 -272 -1175 -725
-110 -182 -175 -343 -290 -720 -54 -177 -121 -581 -141 -850 -6 -82 -14 -153
-18 -156 -4 -3 -52 -14 -107 -24 -469 -84 -1031 -382 -1410 -747 -285 -273
-443 -540 -517 -869 -20 -89 -23 -131 -23 -289 1 -245 28 -372 105 -487 181
-271 408 -471 688 -608 71 -35 102 -55 102 -67 0 -27 -17 -23 -126 28 -196 92
-465 168 -729 206 -140 20 -721 17 -905 -6 -267 -32 -543 -97 -835 -195 -134
-46 -135 -46 -135 -27 0 7 39 42 88 77 521 375 1119 1512 1307 2489 l17 85 95
75 c463 365 701 909 654 1496 -67 826 -585 1513 -1524 2020 -70 38 -126 74
-125 80 5 21 143 135 244 203 173 117 390 213 646 287 183 52 178 53 207 -31
97 -288 142 -599 157 -1102 7 -220 13 -253 39 -219 44 58 69 456 45 721 -22
247 -61 450 -116 618 -14 43 -24 80 -22 82 12 12 320 47 513 59 90 5 396 -2
403 -9z m-4528 -175 c823 -50 1577 -242 2267 -575 701 -339 1137 -732 1398
-1260 315 -636 245 -1279 -199 -1830 -66 -83 -283 -301 -291 -294 -2 3 0 22 5
44 13 55 12 153 -1 217 -125 585 -1405 1194 -2844 1352 -240 27 -420 36 -713
36 -987 0 -1826 -193 -2344 -539 -196 -131 -312 -286 -354 -471 l-17 -74 -24
30 c-232 289 -435 687 -504 990 -32 140 -32 375 -1 521 122 569 601 1145 1212
1458 588 300 1502 450 2410 395z m7697 -1345 c137 -22 138 -23 163 -102 28
-90 38 -186 28 -277 -7 -68 -39 -179 -58 -199 -4 -5 -36 13 -71 40 -121 91
-328 183 -499 219 -121 27 -422 27 -533 1 -43 -10 -81 -17 -83 -14 -8 7 97 92
188 151 253 165 564 230 865 181z m-426 -424 c163 -37 410 -143 487 -208 l32
-28 -49 -65 c-87 -116 -331 -330 -375 -330 -7 0 -20 13 -29 29 -57 96 -222
234 -362 302 -139 67 -253 91 -432 92 -108 0 -151 3 -146 11 3 6 28 41 55 77
l48 66 117 32 c65 17 150 35 188 40 109 15 365 5 466 -18z m-506 -320 c158
-41 346 -154 474 -284 29 -30 51 -60 47 -65 -11 -18 -257 -91 -375 -112 -142
-25 -148 -25 -156 0 -11 35 -111 135 -184 183 -92 62 -160 93 -248 113 -40 9
-73 18 -73 20 0 12 70 142 82 151 36 30 312 26 433 -6z m-435 -268 c66 -18
115 -43 195 -96 63 -43 145 -115 145 -127 0 -9 -285 -39 -442 -47 -110 -6
-118 -5 -118 12 0 23 79 256 92 272 11 13 41 10 128 -14z m-6890 -183 c0 -11
18 -64 39 -117 109 -274 141 -465 186 -1128 18 -256 23 -297 38 -292 22 7 28
69 34 343 12 568 -50 965 -184 1177 l-25 40 223 -6 c198 -6 458 -23 466 -31 2
-2 -6 -41 -17 -87 -61 -261 -68 -678 -14 -949 21 -106 42 -167 61 -174 14 -6
15 6 9 111 -10 180 -8 536 4 658 12 127 59 417 69 427 11 13 723 -91 740 -108
2 -2 -27 -36 -65 -76 -171 -180 -298 -453 -311 -670 -5 -75 -3 -88 11 -94 29
-11 44 15 91 159 77 233 164 384 330 567 38 41 73 78 79 81 21 13 574 -136
599 -161 5 -4 -19 -27 -52 -49 -244 -166 -496 -553 -550 -843 -21 -117 20
-136 64 -30 160 381 386 682 605 805 47 26 95 47 107 47 57 0 457 -206 621
-320 86 -59 242 -188 242 -200 0 -3 -70 -4 -155 -2 -238 7 -384 -22 -567 -113
-309 -153 -533 -416 -647 -762 -166 -500 -122 -1415 104 -2157 30 -99 92 -275
119 -337 6 -13 -22 -32 -140 -94 -435 -227 -592 -376 -725 -686 -101 -232
-110 -416 -29 -584 83 -173 245 -291 471 -342 109 -25 462 -24 619 1 173 28
155 38 154 -79 -3 -223 -97 -414 -375 -760 -389 -487 -503 -706 -541 -1042
l-12 -103 -42 0 c-161 0 -575 120 -799 232 -148 75 -347 230 -533 418 -540
543 -891 1275 -1011 2105 -47 321 -71 751 -71 1260 0 571 -31 1570 -55 1751
-50 375 -166 704 -343 969 -80 120 -265 311 -397 408 -170 127 -385 216 -578
242 -30 4 -47 11 -44 18 6 21 161 140 248 192 118 69 298 148 472 206 172 57
176 57 253 23 318 -140 606 -555 828 -1193 34 -96 67 -176 74 -179 21 -7 14
123 -12 233 -89 368 -272 745 -479 986 -63 74 -198 191 -244 212 -13 5 -23 14
-23 18 0 16 282 62 485 79 203 16 209 16 408 18 180 2 187 1 187 -18z m-2055
-790 c164 -43 354 -157 494 -297 35 -35 61 -66 58 -70 -3 -3 -46 3 -94 13
-125 27 -444 27 -557 1 l-79 -19 -23 29 c-13 15 -41 62 -61 103 -34 66 -38 82
-37 145 1 38 6 83 13 99 l12 29 97 -6 c53 -4 133 -16 177 -27z m5472 -315
c134 -18 136 -19 154 -104 18 -85 -12 -198 -72 -275 l-20 -26 -37 24 c-118 74
-380 136 -574 136 -87 0 -201 -16 -291 -41 -126 -35 -128 -35 -87 1 275 247
556 333 927 285z m-5081 -130 c208 -42 279 -69 315 -118 63 -87 204 -396 187
-412 -20 -20 -614 258 -776 364 -119 78 -235 172 -225 182 27 27 337 17 499
-16z m8674 -109 c267 -53 612 -229 909 -465 457 -365 816 -902 951 -1425 122
-469 62 -994 -145 -1276 -160 -217 -447 -345 -845 -376 -94 -7 -94 -9 -5 58
254 192 340 462 225 704 -96 200 -337 398 -714 583 -549 271 -1112 426 -1592
438 -538 14 -930 -109 -1127 -353 -26 -32 -52 -60 -57 -62 -12 -4 -73 126 -98
209 -84 275 -33 613 137 898 193 325 561 641 1002 860 226 113 445 178 719
216 144 19 522 14 640 -9z m-3908 -106 c107 -18 299 -77 321 -99 12 -12 -18
-79 -42 -98 -53 -42 -337 -172 -487 -223 l-52 -18 -32 44 c-84 111 -309 214
-470 214 -140 0 129 146 340 185 112 20 289 18 422 -5z m568 -257 c0 -25 -88
-341 -129 -464 -238 -712 -619 -1367 -1021 -1753 -62 -58 -116 -106 -121 -106
-27 0 -128 280 -173 481 -72 323 -96 554 -103 993 -5 289 -3 350 8 357 8 5 52
9 99 9 244 1 639 107 1007 271 145 64 385 188 408 210 11 11 25 12 25 2z
m-1211 -38 c107 -26 290 -127 291 -161 0 -25 -343 -101 -498 -111 l-103 -6 7
29 c15 68 38 143 61 202 l25 62 77 0 c42 0 105 -7 140 -15z m3611 -1555 c149
-21 280 -48 280 -58 0 -4 -13 -56 -29 -117 -29 -111 -62 -202 -235 -648 -126
-324 -141 -381 -86 -332 64 58 382 786 436 1000 10 39 19 72 20 73 10 16 567
-177 672 -232 23 -12 22 -13 -35 -48 -170 -105 -348 -330 -499 -629 -62 -124
-95 -209 -87 -222 10 -16 52 35 184 225 236 337 350 455 551 566 l56 31 89
-46 c171 -90 403 -248 386 -263 -5 -4 -37 -15 -73 -25 -292 -78 -575 -280
-748 -532 -52 -76 -192 -337 -192 -358 0 -3 -24 -40 -54 -83 -72 -103 -132
-227 -226 -461 -257 -645 -456 -1018 -760 -1428 -366 -490 -778 -851 -1117
-979 -72 -27 -71 -28 -54 62 13 68 29 247 41 459 22 392 60 656 125 870 36
118 117 305 132 305 4 0 73 -14 153 -31 330 -69 619 -44 817 72 80 47 221 190
260 264 59 113 78 195 77 335 0 140 -15 213 -71 349 -113 277 -363 571 -666
786 -50 35 -66 52 -62 64 124 318 103 677 -53 934 -49 81 -54 76 105 101 170
27 166 28 201 -56 79 -193 86 -467 20 -783 -33 -156 -32 -155 -14 -155 56 0
166 433 166 655 0 81 -19 201 -45 282 -12 40 -20 75 -16 78 9 10 197 -4 351
-25z m-945 -135 c38 -57 100 -183 94 -190 -2 -2 -40 6 -84 17 -58 14 -116 20
-212 22 -73 0 -133 3 -133 6 0 9 81 84 115 108 33 22 166 91 177 92 3 0 22
-25 43 -55z m-60 -240 c125 -23 179 -47 186 -81 10 -45 10 -257 0 -273 -20
-31 -310 148 -433 269 -77 74 -84 97 -35 103 48 7 202 -3 282 -18z m-645 -503
c548 -99 1034 -383 1330 -777 151 -201 220 -384 220 -584 0 -253 -137 -430
-387 -500 -168 -46 -293 -35 -563 51 -69 22 -188 55 -265 74 -77 18 -205 52
-285 74 -493 136 -716 168 -1075 156 -270 -8 -397 -26 -835 -115 -320 -65
-626 -62 -810 8 -202 76 -309 286 -255 496 59 224 286 488 599 693 87 57 123
73 300 133 515 174 880 263 1236 304 192 21 639 14 790 -13z m3514 -4 c20 -33
46 -125 46 -167 0 -59 -10 -65 -64 -42 -103 45 -164 55 -329 56 -176 0 -176
-1 -54 61 88 45 152 70 240 93 100 27 143 27 161 -1z m-148 -249 c91 -16 154
-39 154 -56 0 -40 -106 -157 -206 -229 -57 -41 -252 -140 -258 -132 -2 1 -13
24 -24 50 -33 77 -110 188 -169 245 -52 51 -54 55 -39 72 10 11 38 21 69 25
29 4 86 13 127 20 92 17 266 20 346 5z m-564 -206 c61 -63 170 -221 162 -235
-6 -10 -303 -10 -359 0 -30 6 -40 12 -39 26 3 32 154 266 172 266 4 0 33 -26
64 -57z m-3644 -1238 c4 -4 7 -70 6 -148 0 -166 -34 -344 -129 -697 -72 -266
-73 -270 -48 -270 40 0 75 68 142 273 94 289 144 537 144 715 l1 122 30 -5
c213 -34 498 -94 512 -107 2 -3 -4 -26 -15 -51 -94 -220 -165 -626 -147 -854
7 -92 13 -113 31 -113 20 0 32 50 50 200 29 253 68 440 124 602 43 125 70 178
88 178 23 0 286 -80 296 -90 5 -4 -4 -31 -18 -61 -92 -180 -162 -445 -199
-744 -15 -117 -20 -173 -52 -594 -27 -358 -83 -611 -172 -770 -144 -258 -470
-468 -862 -556 -111 -25 -434 -31 -565 -11 -333 51 -723 256 -843 443 -142
221 -133 575 22 899 69 143 158 275 351 518 354 446 454 647 460 929 1 70 5
130 7 133 8 7 205 44 239 44 l30 0 -6 -72 c-33 -395 -88 -639 -194 -872 -44
-98 -39 -136 14 -102 36 24 73 86 123 209 77 190 120 399 160 782 l7 70 55 7
c66 7 349 2 358 -7z"/>
<path d="M3151 24914 c-79 -60 -229 -220 -291 -311 -78 -116 -115 -244 -75
-260 23 -8 44 16 123 140 39 61 128 185 197 274 69 90 125 169 125 177 0 30
-20 25 -79 -20z"/>
<path d="M10815 24570 c-3 -5 20 -40 51 -78 105 -124 206 -308 263 -483 35
-105 61 -141 89 -122 14 8 17 26 16 84 0 67 -5 84 -47 173 -54 113 -135 240
-202 314 -79 87 -154 137 -170 112z"/>
<path d="M2527 24409 c-163 -108 -366 -451 -328 -553 24 -62 63 -39 101 59 61
158 181 362 266 454 30 32 54 61 54 65 0 16 -52 3 -93 -25z"/>
<path d="M10974 23836 c-3 -9 -2 -22 4 -29 5 -6 35 -81 66 -166 73 -200 118
-261 147 -197 32 70 -90 331 -182 389 -26 17 -30 17 -35 3z"/>
<path d="M11370 23478 c0 -35 38 -185 55 -218 9 -17 23 -30 32 -30 14 0 15 11
10 90 -7 113 -34 180 -71 180 -20 0 -26 -5 -26 -22z"/>
<path d="M5311 20870 c-11 -6 3 -56 62 -231 41 -123 96 -300 122 -394 51 -182
87 -275 106 -275 32 0 -25 373 -87 571 -63 200 -159 357 -203 329z"/>
<path d="M5697 19507 c-14 -36 27 -197 50 -197 13 0 15 11 8 72 -10 102 -41
169 -58 125z"/>
<path d="M8094 15398 c-29 -46 -25 -725 5 -800 26 -69 47 -3 62 202 24 315
-17 680 -67 598z"/>
<path d="M7630 14614 c-14 -37 -28 -326 -20 -414 12 -118 28 -137 62 -69 47
94 64 423 25 483 -22 34 -55 34 -67 0z"/>
<path d="M5955 13077 c-24 -38 -72 -176 -90 -263 -40 -189 0 -552 62 -572 17
-5 21 36 27 283 3 121 12 274 21 340 24 197 18 269 -20 212z"/>
<path d="M1845 18355 c-203 -123 -347 -314 -296 -393 20 -32 56 -7 136 93 44
55 125 147 181 205 56 58 99 111 97 118 -8 22 -58 12 -118 -23z"/>
<path d="M1299 18121 c-100 -63 -249 -272 -300 -420 -53 -154 18 -254 85 -119
14 29 26 57 26 64 0 43 102 241 207 401 73 112 69 130 -18 74z"/>
<path d="M13237 18144 c-3 -3 7 -31 23 -63 16 -31 45 -121 64 -201 54 -216 75
-250 104 -164 36 105 -59 373 -148 419 -33 17 -34 17 -43 9z"/>
<path d="M13600 17845 c0 -8 4 -15 10 -15 30 0 63 -128 80 -305 12 -122 23
-151 54 -139 82 31 40 318 -64 437 -33 38 -80 51 -80 22z"/>
<path d="M10923 15318 c-81 -88 -266 -479 -239 -505 25 -24 207 272 276 448
16 39 18 54 9 65 -16 19 -22 18 -46 -8z"/>
<path d="M10992 14848 c-5 -7 -21 -40 -35 -73 -14 -33 -41 -96 -61 -140 -20
-44 -36 -91 -36 -104 l0 -24 25 23 c40 38 127 220 133 279 5 51 -5 64 -26 39z"/>
<path d="M4222 13638 c-18 -23 -32 -92 -39 -190 -5 -84 -4 -98 9 -98 37 0 102
226 80 275 -13 27 -34 32 -50 13z"/>
<path d="M3162 13287 c-36 -43 -53 -319 -27 -420 37 -143 118 -299 146 -282
15 10 10 93 -12 190 -11 53 -23 164 -29 269 -7 136 -14 187 -27 214 -20 41
-35 49 -51 29z"/>
<path d="M12716 12651 c-3 -5 12 -31 34 -57 90 -109 136 -299 133 -550 -2
-161 -1 -173 18 -190 23 -21 41 -14 71 27 85 115 8 538 -129 707 -47 57 -111
89 -127 63z"/>
<path d="M13220 12048 c0 -7 5 -31 10 -53 5 -22 14 -112 20 -200 10 -157 22
-229 39 -240 18 -10 40 7 54 43 59 150 -7 462 -99 462 -13 0 -24 -6 -24 -12z"/>
<path d="M9062 9648 c-7 -7 -12 -22 -12 -34 0 -12 -16 -78 -36 -146 -89 -305
-104 -368 -85 -368 36 0 181 389 181 486 0 47 -27 83 -48 62z"/>
<path d="M8813 8727 c-23 -28 -85 -206 -79 -223 6 -16 9 -14 27 11 31 45 69
134 75 175 6 39 -6 59 -23 37z"/>
<path d="M7839 6413 c-50 -57 -137 -195 -174 -276 -100 -219 -126 -406 -43
-306 53 63 228 401 269 520 35 101 9 131 -52 62z"/>
<path d="M7311 5833 c-43 -49 -151 -257 -169 -325 -13 -47 3 -61 30 -28 61 75
206 376 189 393 -5 5 -27 -13 -50 -40z"/>
<path d="M2214 10785 c-96 -99 -168 -265 -148 -336 20 -69 63 -64 101 12 45
88 144 342 139 356 -10 26 -49 13 -92 -32z"/>
<path d="M7471 10777 c-8 -11 1 -32 43 -93 83 -124 145 -239 197 -364 46 -110
76 -160 98 -160 53 0 55 124 3 233 -66 141 -190 306 -276 369 -44 32 -49 33
-65 15z"/>
<path d="M1787 10745 c-19 -14 -62 -64 -94 -112 -122 -183 -172 -396 -101
-434 33 -18 63 24 84 118 23 108 58 201 115 314 66 128 65 160 -4 114z"/>
<path d="M7430 10340 c0 -6 6 -21 14 -33 8 -12 35 -86 61 -164 48 -149 76
-200 95 -173 14 21 12 73 -4 151 -17 80 -45 136 -93 189 -33 37 -73 53 -73 30z"/>
<path d="M4446 7553 c-73 -369 -54 -1073 41 -1475 46 -200 61 -114 43 247 -7
143 -16 474 -19 735 -6 486 -9 520 -46 520 -7 0 -16 -12 -19 -27z"/>
<path d="M4595 5607 c-14 -36 27 -159 46 -140 13 13 -5 111 -26 139 -13 18
-14 18 -20 1z"/>
<path d="M4745 5170 c-14 -23 97 -190 126 -190 17 0 9 40 -17 93 -41 83 -91
126 -109 97z"/>
<path d="M3975 4331 c-7 -12 46 -381 79 -542 56 -276 157 -493 331 -709 73
-90 151 -164 159 -151 8 12 -26 97 -59 151 -198 320 -263 477 -355 855 -84
344 -124 445 -155 396z"/>
<path d="M4985 2808 c9 -45 67 -167 106 -225 71 -105 260 -283 301 -283 17 0
18 2 3 30 -8 16 -48 69 -88 117 -92 112 -156 195 -236 306 -66 92 -98 112 -86
55z"/>
<path d="M9435 7328 c-67 -35 -190 -166 -225 -239 -46 -97 -37 -179 19 -179
25 0 43 23 89 115 49 99 117 190 185 248 44 39 49 47 38 61 -18 22 -58 19
-106 -6z"/>
<path d="M9718 7200 c-130 -86 -211 -231 -164 -295 21 -28 38 -14 111 91 37
53 88 121 112 150 23 30 43 61 43 69 0 25 -53 18 -102 -15z"/>
<path d="M12385 7090 c-4 -6 0 -19 8 -28 48 -55 111 -240 167 -492 34 -154 52
-200 75 -200 99 0 -31 532 -167 682 -35 39 -72 56 -83 38z"/>
<path d="M12788 6195 c-3 -3 1 -29 9 -57 7 -31 13 -105 13 -180 0 -130 5 -147
38 -129 63 34 50 276 -19 350 -20 21 -31 26 -41 16z"/>
<path d="M9524 2592 c-112 -89 -267 -282 -226 -282 29 0 238 182 276 240 53
81 27 103 -50 42z"/>
<path d="M6247 4439 c-166 -110 -289 -374 -206 -442 35 -29 60 -4 85 86 27 96
62 168 136 278 76 111 71 135 -15 78z"/>
<path d="M6393 4128 c-99 -104 -138 -238 -77 -262 39 -15 59 15 108 155 47
138 36 176 -31 107z"/>
<path d="M7569 2154 c-146 -212 -186 -348 -63 -211 102 113 148 215 111 245
-13 11 -20 6 -48 -34z"/>
<path d="M7995 1459 c-81 -83 -197 -172 -308 -237 -138 -81 -174 -132 -94
-132 148 0 397 181 477 346 42 85 -2 98 -75 23z"/>
<path d="M7275 1306 c-22 -13 -100 -47 -174 -76 -142 -56 -189 -86 -178 -113
15 -39 182 -11 288 48 82 46 131 97 127 132 -4 35 -16 37 -63 9z"/>
</g>
</svg>
