<svg xmlns="http://www.w3.org/2000/svg" viewBox="0 0 1976 2829" fill="#333" role="img" aria-label="line art">
<g transform="translate(0.000000,2829.000000) scale(0.100000,-0.100000)"
fill="#333" stroke="none">
<path d="M2825 27883 c-175 -23 -329 -129 -408 -279 -125 -242 -112 -659 38
-1184 136 -473 313 -842 546 -1139 38 -47 67 -87 66 -88 -2 -1 -55 15 -118 37
-320 108 -562 113 -666 11 -62 -60 -78 -102 -78 -207 0 -88 1 -94 47 -185 80
-161 217 -310 386 -422 34 -23 62 -44 62 -48 0 -3 -33 -9 -72 -12 -190 -17
-367 -101 -443 -211 -170 -249 27 -574 407 -670 278 -71 515 -61 958 39 186
42 184 42 140 7 -125 -97 -206 -208 -246 -338 -32 -103 -30 -227 6 -329 20
-57 20 -61 3 -73 -119 -85 -147 -108 -173 -143 -57 -79 -60 -124 -13 -236 3
-9 -7 -13 -34 -13 -100 0 -227 -55 -345 -148 -75 -60 -146 -147 -282 -345
-104 -151 -158 -210 -265 -291 -162 -123 -246 -236 -272 -367 -12 -61 -3 -119
41 -279 40 -142 16 -225 -110 -380 -187 -229 -210 -271 -210 -393 0 -91 25
-148 104 -235 58 -65 69 -87 38 -78 -42 11 -720 17 -802 7 -214 -29 -379 -75
-513 -144 -105 -54 -133 -93 -131 -186 4 -182 133 -425 702 -1326 535 -845
680 -1053 857 -1230 294 -294 634 -448 1266 -575 487 -97 1054 -122 1710 -75
215 15 354 39 473 82 67 24 69 24 87 6 10 -10 61 -119 113 -243 52 -124 163
-382 246 -575 328 -754 463 -1117 593 -1595 72 -264 172 -688 164 -696 -2 -2
-44 33 -93 79 -49 45 -115 105 -147 132 l-57 50 -4 100 c-3 78 -15 145 -55
300 -171 679 -368 983 -936 1445 -230 187 -419 311 -710 467 -621 334 -1079
428 -1790 369 -161 -13 -557 -39 -950 -61 -541 -32 -910 -113 -1007 -222 -111
-124 -28 -382 255 -788 49 -71 144 -209 210 -305 178 -258 328 -469 435 -608
51 -68 92 -125 90 -126 -2 -2 -59 -30 -128 -63 -257 -123 -581 -318 -936 -565
-413 -286 -474 -344 -474 -457 0 -81 42 -127 203 -225 152 -91 229 -149 321
-236 75 -71 272 -308 284 -340 2 -8 22 -33 42 -55 20 -22 79 -94 129 -160 181
-236 262 -315 466 -461 172 -123 172 -123 344 -364 60 -84 386 -355 523 -434
l47 -27 -46 -57 c-26 -31 -73 -113 -105 -181 -73 -154 -75 -156 -211 -266
-127 -103 -198 -185 -228 -265 -30 -77 -37 -236 -15 -351 27 -142 22 -185 -29
-305 -115 -269 -119 -365 -29 -661 l35 -115 -7 -167 c-14 -334 53 -464 282
-551 l26 -10 -50 -54 c-60 -63 -95 -129 -112 -211 -25 -117 -34 -124 -199
-170 -271 -74 -419 -181 -510 -367 -54 -109 -71 -182 -71 -296 0 -123 18 -190
92 -342 60 -124 60 -126 68 -240 18 -265 61 -334 383 -624 115 -104 134 -136
170 -293 15 -62 37 -134 51 -160 55 -110 218 -234 465 -355 79 -38 173 -89
210 -113 106 -68 149 -80 276 -79 119 1 235 23 385 74 47 15 134 38 194 49
115 23 181 47 257 93 60 36 60 36 42 -19 -24 -73 -24 -344 1 -448 44 -194 104
-292 204 -338 43 -20 65 -22 259 -23 116 -1 223 -4 238 -8 16 -4 84 -62 160
-135 207 -201 322 -256 531 -256 l110 0 0 -240 c-1 -353 26 -484 181 -870 168
-423 365 -819 528 -1065 196 -295 506 -632 745 -809 176 -131 203 -146 270
-146 77 0 121 29 282 182 184 176 319 299 553 503 986 861 1107 987 1345 1400
144 252 426 865 536 1168 42 117 94 306 94 345 0 34 15 16 43 -51 92 -226 346
-599 588 -868 398 -441 909 -728 1529 -859 207 -43 351 -55 775 -65 985 -23
1156 -48 1795 -270 296 -103 342 -103 414 -6 19 25 21 41 20 154 0 110 -7 157
-47 352 -102 495 -115 735 -76 1395 17 290 14 805 -5 1025 -47 520 -140 915
-318 1360 -235 584 -513 1045 -862 1434 -70 78 -301 290 -426 392 -104 83
-235 161 -296 175 -30 7 -54 13 -54 14 0 1 11 35 25 76 14 41 46 142 71 224
25 83 63 208 86 279 l40 129 39 -99 c98 -243 224 -444 387 -615 259 -273 442
-327 787 -233 101 28 155 37 245 41 136 5 201 -9 448 -101 186 -69 264 -86
392 -86 194 0 365 91 527 280 100 116 173 173 325 251 108 55 148 82 182 120
71 79 78 110 85 369 l6 226 32 64 c22 43 68 103 139 180 228 247 270 353 239
602 -19 157 -9 246 49 441 105 350 84 519 -95 756 -115 153 -322 337 -443 395
-53 25 -39 30 35 11 154 -40 404 -56 539 -34 96 15 276 79 362 128 93 53 295
210 402 311 176 167 206 268 227 758 18 416 -10 544 -176 802 -43 67 -165 299
-165 314 0 3 13 6 29 6 58 0 201 205 404 580 55 102 138 250 184 330 117 203
201 375 215 442 10 48 9 68 -6 133 -10 44 -15 90 -12 108 7 34 115 236 259
487 155 267 223 423 273 619 88 344 -30 440 -691 561 -297 54 -272 46 -302 93
-55 90 -159 142 -469 231 -473 137 -868 172 -1319 120 -263 -31 -450 -83 -705
-197 -373 -166 -538 -272 -906 -581 -33 -27 -35 -28 -60 -11 -22 14 -25 22
-20 49 14 73 26 444 20 605 l-7 173 39 -6 c473 -73 767 -33 1289 179 267 108
338 131 535 175 167 37 193 50 220 105 26 53 25 79 -5 202 -31 128 -68 226
-159 418 -238 501 -455 814 -709 1022 -75 62 -74 72 3 53 56 -13 126 -60 236
-156 261 -227 457 -273 682 -160 114 58 272 122 440 180 346 119 411 179 547
502 55 134 85 171 209 259 181 128 248 226 276 403 17 100 -2 188 -86 420
-144 393 -144 401 -33 637 107 225 114 248 114 380 0 95 -5 126 -34 225 -38
131 -41 202 -16 340 8 47 15 108 15 135 0 221 -203 478 -483 611 -49 23 -74
40 -70 48 4 6 19 28 34 48 66 93 78 272 24 378 -52 103 -82 141 -329 418 -92
103 -120 166 -146 327 -38 236 -89 305 -360 488 -215 144 -211 141 -326 367
-68 133 -89 165 -149 226 -110 112 -193 143 -492 188 -212 32 -238 41 -295 98
-27 26 -48 52 -48 59 0 6 -21 54 -46 107 -84 170 -195 262 -359 297 -131 28
-319 15 -445 -31 -38 -13 -75 -21 -83 -18 -9 3 -26 36 -38 72 -52 158 -149
314 -256 412 -108 99 -224 153 -497 231 -54 16 -119 47 -210 102 -319 191
-531 250 -841 231 -154 -9 -271 8 -545 78 -387 99 -439 95 -705 -57 -219 -125
-247 -133 -662 -190 -196 -27 -306 -57 -421 -113 -263 -130 -438 -477 -432
-857 4 -198 0 -209 -39 -127 -88 182 -314 447 -546 641 -90 75 -338 262 -795
602 -336 250 -388 273 -454 207 -30 -30 -38 -52 -84 -243 -159 -650 -200 -931
-189 -1290 13 -408 78 -809 162 -999 14 -31 25 -59 25 -61 0 -3 -35 -5 -78 -5
-65 0 -109 9 -267 56 -540 158 -719 170 -972 69 -108 -43 -201 -100 -413 -250
-219 -155 -277 -184 -455 -225 -230 -54 -317 -89 -435 -176 -219 -160 -376
-440 -397 -701 l-6 -83 -51 47 c-28 26 -52 51 -54 55 -4 10 45 138 102 266 78
177 167 325 408 677 325 476 460 792 475 1112 9 196 -22 301 -113 382 -128
113 -288 87 -495 -79 -115 -92 -279 -266 -359 -378 -35 -50 -65 -90 -67 -89
-1 2 9 68 23 147 62 354 -2 571 -169 570 -69 -1 -170 -71 -242 -170 -20 -28
-40 -50 -44 -50 -4 0 -47 78 -96 173 -230 448 -386 678 -615 907 -361 361
-860 587 -1195 543z m302 -149 c277 -69 553 -235 799 -479 242 -241 365 -423
615 -909 l118 -228 -24 -62 c-13 -33 -34 -97 -46 -141 -12 -44 -23 -82 -24
-83 -2 -2 -13 14 -24 36 -67 131 -225 228 -716 442 -360 156 -675 311 -795
390 -226 149 -439 414 -519 648 -27 79 -26 115 3 177 100 211 313 284 613 209z
m5521 -246 c48 -35 157 -115 242 -178 85 -64 261 -195 390 -292 464 -347 673
-560 830 -846 l61 -112 -56 -68 c-150 -180 -166 -357 -45 -495 18 -21 31 -39
29 -41 -2 -2 -36 -15 -75 -30 -40 -15 -102 -45 -139 -67 -37 -22 -68 -39 -70
-37 -2 2 -24 57 -50 123 -122 309 -250 520 -604 995 -219 294 -422 602 -496
753 -77 158 -138 357 -109 357 3 0 45 -28 92 -62z m3812 -36 c281 -72 355 -82
610 -81 315 1 442 -35 719 -206 131 -80 177 -101 317 -140 263 -75 405 -171
514 -348 115 -187 199 -563 187 -837 -25 -569 -341 -1618 -692 -2298 -148
-286 -259 -452 -437 -650 -187 -209 -322 -403 -384 -553 -20 -49 -40 -89 -44
-89 -4 0 -35 29 -69 65 l-63 65 7 153 c9 209 27 353 91 702 114 622 129 763
129 1235 0 355 -5 455 -41 770 -91 811 -339 1280 -924 1751 -201 162 -456 283
-642 304 -83 10 -88 14 -43 37 22 11 92 50 155 86 215 125 245 126 610 34z
m-3980 -147 c50 -165 286 -547 595 -960 334 -449 441 -626 575 -957 l68 -167
-25 -33 c-35 -47 -77 -132 -102 -211 -14 -40 -41 -90 -67 -125 -25 -31 -63
-79 -84 -107 -45 -57 -82 -148 -105 -261 -9 -43 -17 -80 -19 -81 -2 -2 -74 74
-162 169 -389 425 -480 500 -627 515 l-53 5 -32 72 c-68 153 -95 266 -131 556
-70 559 -48 848 115 1533 27 113 33 119 54 52z m-5883 -260 c86 -130 263 -307
393 -393 122 -81 442 -239 785 -388 414 -179 577 -267 662 -355 58 -61 115
-201 124 -304 5 -49 11 -96 14 -102 8 -22 -3 -15 -78 48 -290 245 -625 397
-762 345 -83 -32 -113 -109 -122 -318 l-6 -137 -46 24 c-25 13 -82 47 -126 75
-44 28 -150 85 -235 126 -192 94 -297 163 -398 262 l-78 78 -52 142 c-60 163
-131 403 -160 542 -43 201 -72 489 -57 567 l7 38 35 -75 c18 -41 64 -119 100
-175z m9223 172 c213 -56 405 -167 635 -369 510 -448 717 -892 799 -1718 70
-702 48 -1088 -108 -1934 -48 -260 -70 -421 -83 -616 l-8 -115 -58 88 c-127
191 -161 298 -206 657 -57 450 -132 718 -285 1017 -219 428 -536 794 -861 993
-190 117 -494 238 -705 280 -141 29 -352 37 -505 19 -169 -19 -187 -18 -229
15 -49 37 -96 120 -96 171 0 71 46 150 163 285 27 30 63 82 80 115 l31 60 2
180 c2 247 39 396 134 544 137 211 279 277 708 330 92 11 181 23 197 25 84 12
302 -3 395 -27z m3529 -838 c152 -24 218 -84 316 -285 102 -208 146 -235 462
-284 371 -57 412 -84 557 -369 107 -209 137 -243 314 -362 299 -201 316 -221
347 -424 33 -208 69 -284 211 -436 128 -139 229 -266 265 -332 58 -109 38
-247 -49 -330 l-28 -27 -80 20 c-175 45 -259 54 -509 54 -394 0 -727 -60
-1112 -200 -273 -99 -433 -181 -923 -474 -210 -125 -405 -231 -625 -340 -318
-157 -663 -315 -671 -307 -3 2 39 41 93 87 477 401 876 851 1258 1420 65 96
119 177 121 179 2 2 12 -3 21 -11 26 -23 90 -31 159 -19 173 27 296 156 251
262 -30 71 -93 109 -178 109 l-50 0 57 108 58 107 95 1 c150 1 283 64 329 154
26 53 28 80 6 126 -33 69 -131 94 -229 59 -22 -8 -43 -15 -47 -15 -3 0 7 40
24 90 l30 89 42 -5 c112 -16 302 81 352 178 20 39 20 97 1 135 -44 85 -202 81
-314 -7 -36 -28 -40 -26 -48 28 -4 26 -13 62 -21 81 -13 31 -13 36 5 55 125
137 53 351 -119 351 -142 0 -207 -122 -140 -264 23 -51 23 -53 6 -63 -42 -24
-99 -85 -143 -155 -41 -64 -49 -72 -58 -57 -100 173 -159 218 -234 179 -29
-14 -36 -25 -52 -79 -20 -68 48 -233 127 -306 l45 -41 -78 -154 c-74 -146 -93
-175 -93 -140 0 9 -14 52 -31 97 -84 217 -253 254 -275 61 -16 -137 92 -372
187 -405 11 -4 5 -24 -29 -93 l-43 -88 -35 57 c-39 62 -102 106 -151 106 -34
0 -79 -31 -88 -61 -4 -11 -9 -19 -11 -16 -3 2 14 62 37 133 137 429 241 907
268 1225 10 122 2 255 -24 409 -21 119 -22 114 43 143 112 49 270 68 401 46z
m-10300 -38 c26 -26 45 -147 38 -241 -4 -41 -29 -209 -57 -373 -28 -164 -50
-315 -49 -335 1 -20 -12 -86 -29 -147 -17 -60 -36 -130 -42 -154 l-12 -45 -17
30 c-84 139 -109 187 -104 200 3 8 -8 45 -25 82 -85 184 -93 370 -25 587 51
163 154 326 244 387 50 33 53 34 78 9z m937 -112 c21 -12 43 -41 61 -77 26
-53 28 -65 27 -177 -2 -313 -141 -635 -495 -1146 -221 -320 -352 -552 -444
-789 -20 -52 -40 -98 -43 -101 -4 -4 -21 0 -38 7 -30 12 -32 17 -43 91 -68
486 -42 869 85 1251 95 287 231 517 416 703 224 226 372 301 474 238z m-3070
-474 c34 -25 140 -84 235 -131 96 -48 205 -106 242 -130 38 -25 104 -62 147
-84 l78 -39 7 -58 c11 -97 44 -293 64 -378 11 -44 19 -81 18 -81 -6 -5 -244
140 -276 167 -21 19 -58 48 -81 64 -128 90 -391 438 -510 675 -41 82 -41 83
-13 61 15 -12 56 -42 89 -66z m12867 13 c55 -28 71 -118 36 -193 -26 -55 -32
-59 -61 -44 -13 7 -39 15 -58 18 -30 5 -39 13 -62 60 -33 65 -35 99 -7 135 33
41 98 52 152 24z m-11818 -27 c162 -65 395 -223 544 -370 100 -98 172 -196
257 -349 37 -68 76 -129 86 -136 16 -12 17 -20 8 -87 -20 -156 -7 -559 26
-775 l6 -41 -84 -5 c-100 -7 -138 -21 -289 -110 -63 -37 -123 -68 -132 -68
-43 0 -224 292 -375 606 -97 201 -117 251 -161 408 -81 286 -105 448 -105 701
-1 264 1 270 82 262 32 -2 93 -19 137 -36z m11282 -338 c19 -21 50 -71 70
-111 l36 -72 -23 -50 c-13 -28 -26 -50 -30 -50 -4 0 -23 17 -43 37 -74 74
-122 227 -82 266 24 24 33 22 72 -20z m483 -55 c54 -224 -191 -790 -628 -1447
-381 -574 -761 -1008 -1252 -1426 -96 -82 -216 -189 -266 -238 -99 -95 -139
-115 -186 -96 -38 15 -36 25 24 110 97 139 202 261 548 634 271 291 412 458
587 690 254 337 379 547 673 1125 257 504 318 615 375 673 70 72 104 65 125
-25z m-4830 37 c315 -63 654 -223 890 -421 278 -233 571 -657 712 -1032 40
-108 96 -310 122 -447 20 -103 58 -397 52 -403 -3 -2 -15 13 -28 34 -188 320
-488 640 -778 830 -532 348 -1200 532 -1652 455 -243 -42 -522 -169 -606 -276
-25 -31 -36 -31 -49 -2 -6 13 -34 48 -62 79 -44 48 -51 62 -57 110 -13 109 40
295 107 376 104 125 128 163 158 255 79 235 253 367 569 431 182 38 464 43
622 11z m5250 -65 c50 -50 -7 -143 -124 -199 -63 -31 -169 -50 -179 -34 -4 5
-1 39 5 74 10 62 12 65 68 107 102 74 188 94 230 52z m-13473 -145 c244 -47
555 -183 913 -400 166 -100 173 -108 216 -215 21 -52 90 -199 153 -326 l116
-231 -90 47 c-49 27 -130 64 -180 83 -110 44 -489 156 -642 190 -227 51 -484
196 -643 363 -205 215 -255 399 -131 481 42 28 165 32 288 8z m4819 -40 c118
-21 250 -55 474 -122 174 -53 191 -56 297 -57 l111 -1 -61 -38 c-87 -55 -221
-195 -296 -307 -130 -196 -298 -568 -381 -841 -93 -308 -171 -831 -205 -1379
-26 -423 -33 -492 -56 -610 -31 -157 -33 -581 -4 -855 17 -163 23 -525 8 -525
-1 0 -34 55 -74 123 -39 67 -104 167 -143 222 -122 172 -359 711 -495 1125
-245 750 -385 1445 -398 1982 -8 319 20 509 101 682 71 152 115 193 455 424
253 171 429 218 667 177z m7447 -184 c42 -47 52 -65 79 -139 32 -93 40 -168
21 -208 -21 -42 -24 -42 -71 1 -93 83 -151 314 -95 371 21 20 27 18 66 -25z
m-6326 -25 c74 -42 129 -95 341 -326 202 -219 335 -362 452 -485 78 -84 103
-149 104 -275 1 -125 -29 -193 -133 -294 -39 -38 -71 -74 -71 -81 0 -7 -21
-15 -52 -19 -420 -55 -903 -246 -1215 -480 -252 -188 -414 -399 -523 -681 -29
-74 -43 -93 -36 -45 3 19 8 89 11 155 14 282 86 848 140 1105 66 310 208 682
365 957 149 259 313 418 489 474 73 23 78 23 128 -5z m7353 -126 c26 -26 26
-80 1 -112 -42 -53 -185 -108 -282 -108 l-48 0 38 83 c38 82 39 82 111 120 85
44 147 50 180 17z m-9640 -220 c-142 -283 -161 -696 -60 -1340 48 -310 124
-654 210 -958 51 -182 50 -190 -9 -62 -183 398 -457 899 -591 1079 -80 109
-213 245 -308 318 -113 87 -117 95 -117 216 0 266 193 560 450 688 55 27 139
55 270 88 105 27 191 49 193 50 1 0 -16 -35 -38 -79z m8441 -161 c33 -23 89
-113 89 -143 0 -28 -53 -116 -71 -116 -65 0 -137 196 -93 258 19 27 38 28 75
1z m-121 -194 c12 -27 42 -69 67 -92 l46 -43 -44 -67 c-91 -141 -206 -303
-313 -442 -110 -143 -352 -431 -363 -431 -3 0 5 17 17 38 192 322 357 678 501
1077 l54 150 7 -70 c3 -39 16 -92 28 -120z m-3995 120 c418 -59 857 -231 1220
-476 363 -246 739 -721 870 -1099 21 -58 43 -117 51 -132 18 -35 15 -35 -48 6
-122 77 -382 190 -563 244 -233 69 -435 97 -640 89 -235 -9 -384 -47 -606
-154 l-137 -65 -68 48 c-72 51 -144 120 -284 269 -244 260 -493 374 -850 389
-58 2 -106 5 -108 5 -2 1 13 20 33 44 20 23 53 75 73 116 36 74 37 77 37 195
0 67 -4 142 -8 167 -9 45 -8 48 29 89 182 201 625 319 999 265z m-7700 -111
c50 -8 119 -19 155 -24 75 -11 539 -148 648 -191 97 -39 201 -92 292 -149 41
-26 94 -59 118 -72 l43 -25 -98 -6 c-71 -4 -175 -23 -378 -71 -607 -141 -725
-154 -1011 -110 -219 33 -376 123 -445 255 -36 68 -34 180 4 238 89 135 381
202 672 155z m12648 7 c68 -26 87 -96 41 -151 -45 -52 -117 -83 -209 -87 -118
-6 -119 -3 -46 119 54 90 66 104 99 115 46 14 84 16 115 4z m-10638 -396 c80
-21 160 -66 225 -126 122 -114 198 -174 308 -245 63 -41 134 -92 159 -112 219
-182 699 -1112 1043 -2022 124 -329 141 -361 303 -579 93 -125 167 -235 196
-289 16 -29 14 -28 -89 49 -41 31 -147 105 -235 164 -198 135 -279 199 -468
373 -326 298 -631 698 -862 1130 -39 72 -39 73 -22 100 32 48 78 155 94 215
45 176 -81 305 -197 201 -21 -20 -45 -51 -52 -70 -6 -19 -15 -34 -18 -34 -3 0
-31 51 -62 113 l-56 114 61 64 c117 122 159 241 119 333 -51 115 -202 81 -292
-65 l-32 -53 -19 25 c-25 32 -24 36 12 77 75 85 109 236 75 326 -10 25 -35 61
-57 80 -95 87 -213 12 -244 -156 l-7 -36 -29 16 c-18 11 -31 28 -34 47 -31
156 -126 239 -235 206 -45 -13 -95 -67 -105 -111 -16 -74 32 -167 113 -220 48
-31 50 -34 54 -84 2 -28 3 -53 1 -55 -1 -2 -19 4 -39 14 -48 23 -182 17 -234
-9 -134 -69 -115 -189 40 -260 59 -27 240 -61 277 -51 20 5 24 0 36 -42 17
-57 17 -56 -17 -43 -130 49 -350 -95 -306 -201 32 -76 144 -113 325 -107 l123
4 31 -76 c38 -92 38 -87 -1 -95 -53 -11 -130 -58 -150 -90 -29 -48 -23 -89 18
-134 46 -52 113 -75 222 -76 l83 -1 103 -196 c117 -221 156 -289 268 -470 43
-69 78 -129 78 -133 0 -3 -33 20 -72 53 -553 449 -1343 895 -1848 1043 -41 12
-84 30 -96 40 -11 11 -25 19 -32 19 -18 0 -62 83 -62 117 0 40 59 100 152 154
98 58 106 82 63 200 -13 38 -27 97 -31 132 -16 154 86 332 250 438 72 48 138
72 291 110 237 59 295 82 489 197 176 104 257 122 391 87z m-310 -231 c27 -17
54 -70 62 -118 4 -28 2 -35 -15 -40 -12 -4 -32 -20 -46 -37 -14 -16 -28 -29
-31 -29 -21 0 -91 70 -107 107 -44 101 45 177 137 117z m404 -45 c68 -64 65
-180 -7 -296 -24 -38 -52 -57 -52 -35 0 4 -21 34 -46 67 -43 57 -45 63 -41
111 6 59 42 150 66 164 26 15 56 11 80 -11z m12431 -111 c303 -49 562 -174
695 -336 114 -138 145 -236 120 -379 -30 -169 -30 -247 -1 -353 15 -52 34
-131 43 -174 24 -114 7 -187 -87 -382 -40 -82 -80 -173 -90 -203 l-17 -53 -37
66 c-142 254 -402 506 -656 635 -408 208 -741 232 -1585 115 -227 -32 -417
-69 -765 -149 -776 -180 -1087 -225 -1310 -191 -57 9 -108 20 -112 24 -4 4 56
34 133 66 352 145 880 400 1129 544 85 49 259 151 385 226 277 165 473 265
660 339 507 200 1057 276 1495 205z m-7638 -151 c118 -31 261 -99 349 -166 56
-43 341 -331 326 -331 -2 0 -48 20 -100 46 -330 156 -799 144 -1239 -32 -311
-123 -531 -270 -797 -529 -453 -441 -752 -918 -857 -1367 -10 -43 -21 -78 -24
-78 -8 0 -29 263 -37 465 -13 338 64 724 205 1027 230 495 822 859 1597 983
150 24 455 14 577 -18z m-5045 -19 c96 -100 257 -383 452 -798 212 -452 330
-653 564 -967 248 -332 597 -678 872 -865 301 -205 545 -392 545 -418 0 -5
-39 -29 -87 -55 -48 -26 -120 -67 -160 -91 -39 -24 -76 -44 -82 -44 -6 0 -41
22 -78 48 -38 27 -143 98 -234 160 -397 265 -704 587 -1021 1072 -410 625
-803 1516 -834 1889 -10 123 -1 134 63 69z m543 -77 c15 -30 12 -108 -6 -144
-27 -53 -104 -156 -124 -167 -18 -10 -24 -3 -57 63 l-36 75 35 63 c57 104 159
164 188 110z m-765 -62 c42 -39 49 -53 71 -141 6 -27 5 -28 -39 -28 -112 0
-246 45 -286 96 -25 32 -26 36 -3 63 24 30 86 50 155 51 54 0 60 -3 102 -41z
m7309 -254 c294 -54 634 -183 850 -322 192 -124 339 -343 403 -599 24 -97 27
-128 27 -279 0 -160 -1 -175 -28 -255 -16 -47 -35 -97 -42 -112 l-15 -28 -182
0 c-209 1 -292 10 -432 47 -130 34 -289 36 -445 4 -386 -80 -657 -172 -990
-337 -341 -170 -532 -304 -764 -537 -87 -87 -161 -155 -165 -150 -4 4 -25 33
-46 63 -22 30 -57 77 -78 103 -22 27 -36 52 -31 56 5 5 48 31 95 58 163 95
416 289 550 422 234 232 312 396 339 710 13 143 35 243 80 351 72 173 90 351
46 445 -27 59 -65 99 -135 145 -28 17 -51 35 -51 39 0 13 203 108 286 134 75
24 196 50 284 61 73 9 358 -3 444 -19z m-1684 -24 c108 -28 248 -94 373 -178
83 -55 111 -68 169 -79 211 -40 264 -172 172 -425 -72 -201 -85 -246 -95 -343
-33 -310 -59 -404 -152 -544 -115 -173 -408 -421 -716 -606 -51 -31 -97 -56
-100 -56 -4 0 -25 18 -46 41 -151 156 -521 383 -765 467 -264 92 -608 64 -888
-73 -165 -80 -312 -194 -509 -394 -84 -85 -133 -129 -133 -117 0 73 115 522
165 645 190 464 679 1054 1117 1347 233 157 578 293 841 333 114 18 470 6 567
-18z m-5548 -102 c21 -5 49 -20 62 -32 24 -23 71 -135 60 -146 -3 -3 -48 -8
-100 -9 -100 -4 -218 21 -244 53 -29 35 22 99 106 129 48 18 68 19 116 5z
m872 -105 c35 -35 34 -137 -3 -219 -19 -42 -24 -47 -32 -32 -11 18 -49 24 -49
7 0 -19 -17 -10 -28 15 -15 32 -15 125 -1 162 14 37 58 83 80 83 10 0 25 -7
33 -16z m11488 -293 c192 -42 401 -128 548 -226 277 -184 525 -515 620 -825
18 -58 62 -184 98 -280 64 -170 65 -178 66 -270 0 -170 -52 -250 -259 -400
-107 -78 -151 -134 -206 -260 -137 -321 -165 -347 -479 -455 -192 -66 -240
-86 -413 -167 -240 -113 -339 -91 -610 138 -190 160 -259 183 -547 184 -180 0
-214 11 -317 105 -56 50 -57 52 -64 121 -5 38 -8 134 -9 214 -2 471 -52 608
-350 945 -374 422 -713 645 -1150 755 -69 17 -126 32 -127 33 -1 1 67 2 150 3
218 1 554 59 1147 198 440 102 642 138 1090 191 272 32 656 30 812 -4z
m-12068 -162 c20 -45 34 -85 30 -88 -3 -3 -29 -5 -57 -4 -118 5 -203 56 -179
107 15 33 77 65 128 66 l41 0 37 -81z m-1566 55 c276 -57 710 -252 1167 -525
350 -209 477 -297 830 -579 250 -199 252 -201 278 -203 17 -1 49 -33 114 -112
49 -60 123 -146 164 -189 83 -89 82 -89 -53 5 -323 225 -600 369 -933 486
-412 144 -696 198 -1045 198 -304 0 -511 -29 -767 -105 -217 -64 -581 -236
-783 -369 l-105 -69 -7 82 c-3 44 -18 121 -32 171 -57 197 -13 302 186 451
109 81 195 173 288 305 41 57 99 139 129 183 99 140 224 236 352 270 71 19
124 19 217 0z m9852 -184 c12 -17 29 -30 39 -30 10 0 60 -22 112 -49 120 -63
229 -101 450 -156 98 -25 222 -61 275 -80 305 -110 583 -314 872 -640 292
-328 317 -393 332 -860 10 -290 12 -305 79 -695 86 -500 81 -746 -17 -962
-110 -244 -333 -427 -632 -519 -101 -31 -111 -32 -285 -33 -99 -1 -268 3 -375
8 -185 8 -205 7 -390 -19 -201 -28 -295 -29 -370 -4 -42 15 -160 87 -160 99 0
4 42 39 94 78 202 152 376 340 640 692 312 416 518 756 811 1335 409 809 390
940 -145 984 -69 6 -282 18 -475 26 -192 9 -420 20 -505 25 -85 6 -200 10
-255 10 -55 0 -116 3 -136 6 l-36 6 22 62 c76 207 72 510 -9 735 -9 24 -16 46
-16 48 0 11 61 -41 80 -67z m-9130 -800 c382 -33 825 -165 1245 -370 189 -92
406 -229 635 -399 68 -51 157 -116 198 -143 40 -27 72 -51 70 -53 -2 -2 -43 7
-93 18 -134 32 -545 31 -755 -1 -453 -71 -1038 -227 -1435 -385 -160 -63 -285
-124 -860 -416 -158 -81 -347 -153 -509 -195 -88 -23 -106 -25 -170 -16 -208
29 -248 83 -260 345 -7 162 -23 198 -141 324 -171 183 -169 243 15 467 52 63
113 145 136 182 36 59 54 76 151 142 552 377 1172 552 1773 500z m8359 -61
l83 -23 -38 -34 c-144 -128 -296 -277 -375 -369 -252 -292 -491 -670 -564
-894 -15 -46 -32 -89 -39 -96 -6 -7 -119 -61 -251 -121 -267 -121 -350 -162
-540 -265 -371 -201 -789 -478 -1044 -692 -56 -47 -105 -84 -108 -81 -12 12
111 243 211 396 59 91 138 226 176 300 37 74 105 187 149 250 99 139 122 196
123 301 0 89 -5 117 -39 222 l-25 78 44 56 c313 408 995 793 1681 949 265 61
399 66 556 23z m1126 -64 c160 -8 434 -22 610 -30 321 -16 472 -28 554 -46 48
-11 101 -35 101 -48 0 -4 -42 -26 -92 -49 -51 -22 -172 -77 -268 -122 -371
-174 -613 -267 -985 -381 -406 -124 -1211 -385 -1400 -454 -71 -26 -210 -79
-308 -117 -98 -39 -180 -68 -183 -66 -7 8 37 120 81 208 183 363 517 784 829
1045 l99 83 336 -4 c185 -3 467 -11 626 -19z m-4654 -104 c227 -59 586 -268
792 -461 119 -110 317 -369 317 -412 0 -10 9 -32 21 -47 50 -68 76 -261 45
-335 -8 -19 -50 -85 -95 -148 -44 -63 -104 -161 -131 -217 -53 -106 -133 -243
-203 -346 -23 -33 -67 -104 -98 -157 l-56 -98 -12 78 c-81 521 -384 937 -836
1148 -346 160 -775 233 -1155 194 -56 -6 -104 -9 -107 -7 -6 6 287 325 388
423 257 247 478 366 754 403 104 14 287 6 376 -18z m5909 -187 c0 -91 -348
-789 -625 -1254 -148 -248 -439 -670 -463 -670 -4 0 -33 22 -63 49 -142 127
-518 303 -999 469 -293 100 -661 179 -1035 220 l-70 7 115 49 c332 141 1082
396 1875 636 369 112 691 241 1145 459 119 57 120 57 120 35z m-8710 -589
c165 -37 340 -106 400 -156 l25 -20 -100 6 c-521 33 -720 21 -1175 -70 -471
-95 -630 -153 -1346 -495 -188 -89 -394 -213 -548 -330 -244 -184 -324 -230
-394 -230 -40 1 -54 15 -117 120 -65 109 -95 144 -147 171 -21 11 -38 21 -38
23 0 2 64 25 142 52 144 49 229 90 660 312 301 156 486 235 764 328 441 146
941 263 1302 304 128 14 485 5 572 -15z m1850 -89 c886 -119 1399 -599 1479
-1383 l11 -102 -56 -158 c-31 -87 -64 -169 -74 -183 -10 -14 -28 -47 -41 -75
-27 -58 -118 -153 -169 -176 -19 -9 -51 -24 -70 -33 -108 -50 -158 -55 -302
-32 -345 56 -846 301 -1165 570 -401 337 -679 781 -699 1116 -9 136 4 163 106
231 116 78 326 189 356 189 14 0 35 7 47 15 49 32 399 44 577 21z m-1930 -208
c-466 -106 -916 -353 -1274 -698 -230 -222 -360 -420 -446 -679 -71 -213 -84
-298 -84 -536 0 -226 10 -297 68 -480 14 -43 24 -80 23 -82 -1 -1 -22 2 -45 8
-23 5 -125 13 -226 19 -414 21 -594 99 -701 301 -141 269 -54 771 197 1123
121 172 356 395 536 511 40 26 133 73 205 105 73 31 177 80 232 108 226 115
702 241 1115 296 160 21 177 23 340 23 l145 1 -85 -20z m524 -47 c60 -9 111
-20 112 -26 2 -5 -38 -39 -88 -75 -109 -79 -290 -248 -354 -333 -63 -82 -119
-204 -145 -313 -32 -132 -23 -352 19 -516 68 -261 234 -515 437 -669 30 -23
55 -44 55 -48 0 -3 -12 -26 -26 -51 -27 -47 -82 -187 -141 -355 -62 -179 -149
-318 -253 -403 -122 -100 -228 -121 -423 -83 -193 38 -267 28 -452 -60 -203
-95 -285 -113 -396 -85 -125 32 -212 114 -336 320 -36 60 -87 134 -111 165
-25 30 -58 88 -74 128 -149 384 -124 861 66 1242 185 373 667 796 1136 996
375 160 675 212 974 166z m258 -198 c13 -246 161 -562 396 -843 330 -395 847
-728 1352 -870 63 -18 117 -34 118 -36 2 -1 -16 -13 -40 -25 -23 -12 -79 -50
-123 -84 -181 -141 -267 -177 -455 -192 -214 -18 -414 9 -722 97 -597 169
-869 355 -1043 714 -154 318 -152 673 6 902 45 65 159 184 249 258 78 65 240
185 251 186 3 0 9 -48 11 -107z m-5337 41 c49 -6 52 -8 106 -83 156 -210 429
-671 399 -671 -16 0 -208 80 -361 151 -74 34 -240 108 -369 164 -290 127 -612
274 -624 286 -12 11 68 47 194 87 80 25 203 49 345 65 53 7 259 7 310 1z m480
-13 l60 -6 7 -123 c11 -206 51 -300 156 -370 64 -43 121 -57 288 -72 198 -18
205 -22 289 -164 82 -140 118 -166 225 -166 105 0 193 48 465 253 76 59 141
104 143 102 3 -2 -18 -30 -45 -62 -129 -149 -233 -326 -293 -501 l-33 -93 -21
20 c-33 31 -125 68 -300 120 -452 136 -790 252 -820 281 -4 5 -18 33 -30 62
-35 87 -189 349 -315 538 -64 96 -117 178 -119 183 -4 8 257 8 343 -2z m13689
-71 c176 0 483 -261 713 -605 172 -258 390 -707 442 -912 20 -76 28 -153 16
-153 -19 0 -295 -65 -364 -86 -45 -14 -188 -67 -315 -119 -448 -181 -694 -227
-1036 -196 -388 35 -653 122 -817 267 l-47 40 143 -4 c168 -5 253 6 406 55
435 140 714 458 765 873 22 183 10 362 -45 691 -19 114 -35 211 -35 217 0 6
34 -7 76 -29 41 -21 86 -39 98 -39z m-4003 -75 c338 -34 693 -110 1001 -214
330 -112 636 -241 826 -350 91 -52 215 -145 220 -165 8 -34 -328 -406 -472
-523 -312 -251 -898 -517 -1471 -669 -270 -71 -469 -80 -1105 -52 -420 18
-918 16 -1063 -5 -147 -21 -261 -48 -402 -95 -98 -33 -112 -41 -126 -69 -9
-17 -54 -76 -100 -130 -180 -208 -272 -349 -399 -608 -170 -345 -355 -919
-367 -1138 -5 -85 -3 -100 12 -117 18 -20 17 -22 -20 -76 -37 -53 -270 -285
-307 -305 -17 -9 -18 0 -18 122 0 376 119 770 394 1304 237 460 439 805 597
1021 94 129 208 298 253 376 19 33 45 58 86 83 81 49 176 154 235 260 131 237
606 613 1205 957 281 162 788 407 841 408 14 0 95 -7 180 -15z m-10511 -363
c102 -44 289 -127 415 -184 127 -58 267 -119 313 -137 45 -18 82 -36 82 -40 0
-4 -57 -31 -127 -60 -194 -82 -478 -222 -567 -281 -44 -29 -85 -54 -91 -57
-12 -4 -57 65 -265 407 -159 261 -300 537 -300 588 0 6 80 -27 178 -73 97 -45
260 -119 362 -163z m1070 -460 c96 -38 295 -102 589 -191 129 -39 264 -84 299
-101 35 -16 73 -30 83 -30 23 0 23 4 3 -95 -24 -116 -24 -348 0 -440 23 -88
63 -176 109 -239 20 -27 34 -53 31 -57 -2 -4 -24 -14 -48 -22 -77 -26 -601
-364 -876 -566 -69 -50 -131 -91 -137 -91 -23 0 -260 244 -330 340 -160 217
-719 1076 -731 1122 -10 38 320 217 678 366 l165 69 45 -17 c25 -10 79 -31
120 -48z m10866 -753 c16 -17 58 -48 94 -69 120 -71 240 -90 420 -65 333 45
369 48 441 39 67 -8 72 -11 75 -34 4 -29 101 -123 188 -182 88 -60 229 -124
343 -155 l103 -28 -1 -290 c-1 -293 -8 -447 -22 -461 -13 -14 -96 78 -184 206
-48 69 -123 161 -167 205 -139 139 -232 172 -511 185 -208 9 -216 12 -485 148
-381 194 -412 198 -659 83 -209 -97 -322 -121 -591 -126 -137 -2 -197 -7 -230
-19 -64 -22 -66 -22 -78 36 -12 64 -12 65 41 78 253 65 708 242 982 381 105
53 195 97 201 98 5 0 23 -13 40 -30z m-4140 -157 c-13 -26 -59 -91 -229 -325
-31 -43 -89 -131 -129 -195 -84 -137 -79 -131 -86 -113 -3 8 -39 51 -81 96
-84 88 -185 222 -173 228 4 3 25 10 47 17 79 25 175 81 297 173 80 60 141 98
169 106 35 9 155 34 192 40 4 0 1 -12 -7 -27z m-2128 -41 c42 -21 134 -60 205
-87 70 -26 127 -52 127 -58 0 -5 7 -17 15 -26 18 -20 43 -139 100 -483 115
-700 196 -1362 245 -1997 11 -146 26 -300 33 -342 l14 -76 -30 -44 c-80 -117
-123 -263 -112 -379 7 -72 22 -127 83 -295 72 -198 85 -277 86 -534 1 -248 -3
-229 81 -419 35 -79 52 -148 99 -406 38 -208 146 -343 311 -391 156 -44 199
-80 310 -263 79 -130 148 -211 202 -236 20 -10 74 -23 120 -30 46 -7 86 -15
90 -18 3 -4 -10 -19 -28 -34 -132 -108 -250 -249 -330 -394 -25 -44 -51 -79
-59 -79 -8 0 -49 17 -90 38 l-75 37 -55 104 c-87 164 -166 238 -322 300 l-73
29 -7 85 c-9 119 -46 293 -224 1042 -25 105 -83 348 -128 540 -46 193 -103
420 -126 505 -24 85 -43 166 -42 180 1 14 -5 70 -13 125 -61 425 -96 770 -119
1160 -64 1070 -110 1372 -301 1970 -37 116 -83 259 -101 318 l-33 108 21 44
c12 25 28 45 35 45 7 0 48 -17 91 -39z m622 -215 c52 -13 121 -30 152 -36 55
-11 57 -12 46 -35 -9 -21 -6 -37 17 -92 51 -123 146 -306 235 -453 48 -80 114
-194 146 -254 32 -59 73 -120 90 -134 l31 -25 -73 -152 c-180 -375 -273 -656
-319 -960 -18 -119 -20 -407 -4 -455 11 -31 10 -34 -39 -83 -28 -28 -54 -48
-57 -45 -7 7 -18 123 -40 413 -49 640 -197 1747 -300 2237 -20 93 -19 111 3
104 9 -3 60 -16 112 -30z m-3989 -75 c131 -87 327 -135 609 -146 265 -11 287
-23 400 -211 187 -311 321 -414 543 -414 106 0 177 20 337 95 156 73 216 87
316 75 71 -10 226 -38 230 -43 12 -11 -56 -119 -105 -167 -93 -91 -241 -161
-455 -215 -282 -71 -1171 -87 -1631 -29 -297 37 -703 126 -915 199 -168 58
-441 196 -440 222 2 36 836 588 979 648 73 30 64 31 132 -14z m3204 -121 c190
-594 257 -951 295 -1585 5 -93 12 -190 15 -215 3 -25 10 -126 15 -225 13 -217
38 -538 45 -582 10 -55 -1 -37 -35 60 -18 50 -164 445 -325 877 -161 432 -329
885 -374 1008 l-82 224 85 79 c125 117 200 239 271 442 16 43 31 74 36 70 4
-4 28 -73 54 -153z m6395 128 c19 -6 129 -57 245 -115 324 -163 345 -169 603
-182 293 -15 350 -52 572 -372 84 -121 157 -192 261 -254 173 -101 279 -176
327 -230 55 -62 142 -221 166 -305 20 -66 46 -279 46 -370 0 -459 -356 -1132
-1285 -2435 -498 -699 -1192 -1608 -1203 -1577 -2 6 37 75 86 154 194 309 334
587 475 943 177 444 338 988 432 1460 30 149 38 165 90 165 88 0 214 85 236
160 34 114 -86 199 -199 141 -29 -15 -42 -18 -41 -9 0 7 8 66 17 132 l18 119
54 17 c103 32 155 72 184 142 58 139 -61 276 -184 213 l-30 -16 0 106 c0 59 4
104 9 101 15 -10 100 21 137 49 80 61 98 178 37 253 -52 64 -133 68 -199 9
-35 -30 -37 -30 -50 -12 -8 10 -14 23 -14 27 0 5 -11 26 -25 48 l-25 40 23 38
c52 83 62 168 25 233 -57 101 -227 89 -285 -21 -27 -51 -29 -83 -7 -147 15
-44 15 -48 -2 -60 -24 -17 -34 -16 -34 3 0 28 -117 366 -163 470 -126 285
-303 541 -489 705 -95 84 -163 129 -277 182 l-86 40 95 32 c52 18 145 55 205
83 140 64 160 67 255 40z m-4891 -86 c116 -168 230 -290 279 -301 l31 -6 -127
-232 c-70 -127 -130 -229 -134 -227 -3 2 -33 55 -66 117 -33 61 -97 173 -142
247 -70 113 -250 460 -250 481 0 4 80 5 178 3 l177 -5 54 -77z m1910 59 c21
-6 14 -13 -70 -76 -183 -136 -535 -509 -657 -695 -30 -47 -59 -89 -64 -94 -4
-6 -40 22 -85 65 -43 41 -133 121 -200 178 -68 57 -123 106 -123 109 0 11 139
189 214 275 92 105 123 125 241 159 192 56 339 74 700 85 11 1 31 -2 44 -6z
m1627 -18 c3 -16 10 -44 15 -63 15 -61 13 -64 -115 -148 -181 -118 -321 -266
-369 -389 -44 -113 -41 -282 9 -490 32 -134 29 -168 -25 -303 -92 -227 -92
-374 2 -644 19 -53 31 -96 28 -95 -3 0 -30 30 -59 67 -293 367 -552 566 -884
677 -149 50 -257 66 -480 72 l-197 6 -12 30 c-17 42 -110 168 -181 250 l-60
67 17 38 c55 116 200 297 414 515 189 193 325 302 491 394 l55 30 335 -14
c382 -16 788 -11 895 10 107 22 114 21 121 -10z m5514 -148 c242 -23 390 -54
680 -140 198 -59 312 -113 330 -155 17 -41 71 -87 118 -99 21 -6 137 -29 257
-51 263 -49 402 -81 473 -109 52 -21 122 -61 122 -71 0 -3 -55 -13 -122 -23
-205 -28 -689 -156 -1013 -267 -488 -169 -892 -365 -1410 -683 l-170 -105 -9
26 c-11 33 9 515 29 712 50 471 114 724 225 896 22 33 40 66 40 72 0 17 266
15 450 -3z m-4745 -19 c319 -114 594 -403 800 -840 92 -195 206 -539 189 -569
-4 -6 -21 -28 -38 -48 l-30 -36 -43 33 c-103 79 -248 52 -303 -56 -59 -116 27
-246 176 -267 40 -5 45 -8 40 -27 -2 -12 -10 -50 -16 -86 -18 -107 -14 -102
-67 -78 -84 37 -208 10 -257 -56 -30 -39 -29 -120 2 -163 30 -42 110 -80 198
-94 l71 -11 -4 -72 c-3 -39 -6 -75 -7 -80 -1 -5 -31 -9 -66 -10 -72 -2 -127
-26 -172 -73 -84 -88 -75 -240 17 -279 40 -16 122 -18 161 -4 l27 11 -7 -88
c-43 -545 -224 -1254 -465 -1823 -22 -52 -40 -90 -41 -84 0 6 9 69 20 140 62
412 97 901 80 1139 -32 438 -161 815 -405 1180 -123 184 -226 311 -436 535
-347 370 -435 522 -499 861 -6 28 -18 61 -28 74 -27 35 -46 158 -40 269 7 130
34 183 152 302 103 102 351 273 453 310 60 22 470 15 538 -10z m4225 19 c0 -2
-15 -28 -34 -57 -104 -164 -174 -446 -221 -901 -20 -199 -37 -546 -33 -681 l3
-110 -56 -33 -55 -33 -60 20 c-230 80 -630 -31 -870 -242 -19 -17 -36 -29 -38
-27 -2 2 10 56 26 119 51 196 50 480 -3 689 -40 160 -166 368 -274 451 -30 23
-55 46 -55 51 0 12 190 168 298 246 246 176 640 369 893 437 169 46 479 92
479 71z m-10582 -452 c92 -255 347 -943 515 -1393 292 -783 473 -1345 593
-1840 102 -424 225 -944 253 -1070 17 -74 46 -202 66 -283 63 -261 102 -466
96 -510 -1 -9 -61 21 -177 90 l-91 54 -5 107 c-4 79 -13 128 -32 187 -46 136
-295 625 -395 776 -87 132 -90 138 -101 220 -29 210 -183 837 -281 1147 -100
315 -252 696 -537 1349 -78 177 -176 404 -218 505 -42 101 -85 200 -96 221
l-19 38 32 17 c152 84 276 230 295 349 6 41 21 52 86 62 3 1 11 -11 16 -26z
m2951 -228 c170 -158 431 -458 431 -494 0 -4 -33 -17 -73 -29 -52 -15 -97 -38
-151 -77 -85 -60 -96 -65 -96 -35 0 11 -9 25 -21 32 -11 7 -46 51 -77 98 -55
83 -282 323 -382 403 l-45 36 57 113 c32 62 67 128 78 146 l20 33 92 -78 c51
-43 126 -109 167 -148z m10158 -128 c-17 -123 -110 -351 -226 -552 -182 -315
-300 -540 -317 -601 -16 -61 -16 -68 -1 -124 10 -33 17 -79 17 -102 -1 -44
-48 -169 -67 -175 -5 -2 -23 13 -38 34 -87 118 -94 121 -428 222 -498 150
-615 177 -964 216 -186 21 -496 75 -587 102 -20 5 -20 6 0 20 10 8 120 75 244
149 357 214 736 399 1085 529 420 156 1046 323 1219 324 l69 1 -6 -43z
m-10514 -149 c104 -95 212 -218 282 -324 30 -46 64 -89 75 -96 11 -7 20 -16
20 -19 0 -10 -123 -59 -325 -129 -225 -78 -312 -120 -378 -181 -28 -27 -52
-49 -54 -49 -11 0 51 241 114 439 96 308 144 431 166 431 11 0 56 -33 100 -72z
m5051 -179 c34 -16 50 -59 42 -113 -8 -51 -46 -113 -67 -107 -8 2 -33 9 -57
16 -48 13 -57 22 -72 77 -25 91 67 166 154 127z m-2354 -101 c74 -204 168
-338 450 -638 512 -546 730 -961 805 -1533 51 -391 -23 -1164 -166 -1732 -20
-79 -165 -426 -241 -578 l-39 -78 -42 31 c-96 70 -86 32 -93 325 -5 205 -2
298 11 440 22 239 31 775 16 931 -55 543 -191 994 -436 1444 -79 144 -130 258
-256 573 -131 326 -162 465 -136 593 12 57 94 284 102 284 1 0 13 -28 25 -62z
m-7879 32 c429 -43 800 -177 1297 -468 129 -76 115 -51 156 -282 70 -395 77
-811 15 -977 -17 -44 -25 -53 -45 -53 -13 0 -24 -4 -24 -10 0 -23 -51 -10 -60
15 -17 45 -62 94 -190 204 -333 288 -593 464 -982 666 l-96 49 5 36 c3 27 -5
54 -39 120 -48 95 -315 513 -395 621 -29 39 -53 75 -53 80 0 12 281 12 411 -1z
m-461 -47 c103 -116 446 -659 474 -750 11 -33 -2 -30 -159 38 -596 260 -1340
457 -1995 529 -102 11 -201 23 -220 26 -33 6 -34 7 -11 15 51 20 221 58 321
73 155 23 274 34 642 56 496 30 811 50 828 54 57 13 78 6 120 -41z m6980 -54
c296 -41 594 -199 825 -440 276 -287 530 -643 724 -1015 355 -681 455 -1308
365 -2269 -12 -121 -15 -225 -11 -363 5 -179 5 -191 -11 -183 -34 18 -49 48
-77 146 -15 55 -53 172 -85 260 -103 286 -157 465 -225 740 -36 149 -82 323
-101 389 -118 393 -316 767 -604 1138 -78 100 -375 400 -483 487 -257 207
-536 348 -792 398 -131 26 -508 25 -655 -1 -192 -34 -477 -123 -738 -230 -62
-25 -116 -46 -119 -46 -3 0 44 48 104 108 85 82 129 137 195 237 127 194 129
196 443 307 342 122 348 125 561 276 60 42 135 63 259 72 115 9 316 4 425 -11z
m3655 -185 c29 -31 59 -109 82 -208 24 -101 23 -461 -1 -651 -102 -808 -330
-1661 -628 -2350 -188 -435 -472 -901 -711 -1169 -44 -48 -44 -48 -73 -33 -61
34 -61 28 -12 124 84 162 428 979 543 1288 121 325 249 799 305 1123 30 175
56 417 90 817 34 404 58 586 95 725 71 261 224 427 310 334z m-421 -18 c18 -7
42 -25 53 -40 l20 -25 -33 -83 c-37 -92 -44 -97 -114 -78 -96 26 -144 113 -98
180 40 59 102 75 172 46z m-11975 -41 c569 -63 1097 -183 1637 -373 164 -58
424 -164 424 -174 0 -3 -30 -25 -67 -49 -278 -174 -1075 -761 -1208 -890 -39
-38 -55 -47 -73 -43 -24 7 -208 248 -383 504 -57 84 -165 239 -239 344 -242
344 -349 537 -375 680 -8 38 -7 38 21 32 16 -3 134 -17 263 -31z m12746 2 c75
-64 16 -187 -101 -211 l-31 -7 -12 71 c-13 68 -12 72 11 105 22 33 68 64 95
65 7 0 24 -10 38 -23z m-8890 -347 c133 -98 326 -261 439 -370 287 -276 443
-536 563 -940 41 -136 117 -459 110 -466 -2 -2 -53 33 -113 77 -354 263 -747
466 -1059 548 -78 21 -76 18 -45 103 30 86 40 174 40 384 0 255 -10 349 -77
734 l-6 34 29 -18 c16 -11 70 -49 119 -86z m11587 16 c219 -45 279 -54 528
-81 241 -26 401 -64 905 -215 116 -34 229 -71 252 -82 37 -17 90 -73 157 -163
6 -8 -14 -51 -61 -131 -39 -65 -119 -209 -178 -319 -145 -268 -372 -633 -395
-635 -7 0 -61 140 -103 265 -50 147 -68 176 -182 294 -113 118 -130 146 -215
360 -113 284 -224 374 -508 411 -116 15 -204 44 -254 85 -24 18 -93 71 -155
117 -62 46 -112 85 -112 88 -1 9 73 49 91 50 9 0 112 -20 230 -44z m-562 -28
c87 -27 263 -138 389 -248 97 -84 187 -119 376 -145 125 -18 192 -44 255 -101
60 -54 79 -89 155 -275 77 -193 108 -242 209 -339 104 -100 122 -129 176 -287
97 -283 197 -505 300 -666 21 -34 37 -63 36 -65 -2 -1 -41 21 -87 49 -168 105
-505 256 -696 313 -548 163 -1199 119 -1979 -135 -599 -195 -896 -395 -1903
-1284 -55 -49 -49 -38 49 90 203 266 739 1010 996 1385 221 321 522 808 615
992 94 187 297 443 423 532 225 159 512 236 686 184z m-2999 -155 l30 -18 -7
-75 c-3 -41 -8 -78 -11 -82 -8 -15 -93 -8 -147 13 -91 33 -119 96 -69 151 36
40 144 46 204 11z m-3691 -8 c157 -22 266 -56 415 -129 567 -278 1116 -912
1388 -1601 75 -192 95 -258 192 -644 58 -232 109 -410 165 -571 110 -315 151
-442 146 -448 -13 -13 -143 105 -188 170 -318 464 -737 723 -1298 804 -154 22
-452 15 -587 -14 -217 -47 -423 -121 -724 -260 -302 -139 -412 -170 -671 -192
-128 -10 -141 -10 -205 9 -86 26 -115 45 -164 111 -46 62 -61 107 -94 300 -29
165 -54 257 -97 350 -62 135 -61 128 -62 375 -2 267 -7 294 -107 588 -60 176
-61 181 -57 267 5 113 53 216 157 335 108 126 167 170 304 232 391 176 782
299 1037 326 96 10 349 6 450 -8z m4569 -6 c43 -46 35 -122 -18 -173 -28 -27
-130 -72 -132 -58 -4 43 5 153 16 177 27 67 96 94 134 54z m-10415 -152 c391
-202 727 -434 1001 -692 l60 -56 -75 5 c-41 4 -129 10 -195 16 -245 19 -777
33 -1050 27 -541 -12 -872 -57 -1184 -163 -56 -20 -105 -34 -107 -31 -21 20
498 421 956 739 233 162 368 247 394 247 11 1 101 -41 200 -92z m9508 -319
c14 -11 16 -26 10 -101 -8 -98 -23 -120 -89 -133 -104 -20 -160 44 -119 139
32 75 150 132 198 95z m866 -134 c69 -48 -28 -163 -153 -181 l-46 -6 7 44 c12
77 40 115 104 143 45 19 60 20 88 0z m-10138 -374 c322 -11 655 -28 682 -36
89 -26 185 -521 248 -1274 19 -229 11 -582 -14 -608 -3 -2 -61 31 -128 75
-284 184 -632 371 -906 487 -298 125 -743 257 -1037 307 l-71 12 -74 146
c-136 264 -281 525 -341 613 -32 48 -59 92 -59 97 0 12 172 66 306 96 338 76
808 105 1394 85z m968 -70 c229 -33 371 -79 628 -200 358 -169 778 -469 1107
-789 204 -199 274 -304 477 -716 131 -266 163 -347 175 -449 7 -55 7 -59 -11
-51 -102 42 -141 49 -279 50 -164 0 -231 -17 -420 -110 -218 -108 -400 -241
-584 -430 -63 -64 -117 -113 -121 -108 -3 4 -35 44 -71 88 -172 215 -504 524
-799 745 -47 35 -88 66 -92 69 -4 4 -1 38 6 76 37 178 28 444 -30 960 -48 427
-88 649 -143 807 l-28 78 26 0 c14 0 86 -9 159 -20z m-2699 -183 c94 -128 433
-748 417 -764 -3 -3 -40 0 -83 6 -161 23 -357 33 -638 33 -461 -1 -753 -22
-1037 -78 -72 -14 -137 -24 -145 -22 -16 3 27 35 309 231 366 254 678 436
1008 588 69 32 126 58 127 58 1 1 20 -23 42 -52z m14692 -338 c308 -31 552
-106 894 -273 191 -94 302 -163 381 -238 76 -72 90 -134 87 -398 -4 -363 -29
-577 -80 -679 -43 -88 -241 -267 -446 -404 -190 -126 -446 -175 -722 -136
-103 14 -494 111 -777 193 -568 164 -809 200 -1328 200 -352 0 -378 -2 -710
-55 -604 -98 -1012 -273 -1371 -591 -70 -61 -75 -63 -99 -48 -12 8 -11 12 6
32 11 13 49 70 85 128 84 138 311 420 435 541 190 186 715 647 944 830 552
440 854 595 1500 770 418 112 877 162 1201 128z m-14591 -519 c163 -13 370
-41 370 -50 0 -4 -21 -15 -47 -25 -217 -81 -906 -493 -1196 -713 -37 -29 -71
-52 -75 -52 -4 0 -29 31 -57 67 -190 255 -344 394 -609 548 -60 36 -66 42 -61
65 4 14 12 30 18 37 16 16 330 78 494 98 260 32 899 45 1163 25z m566 -80
c479 -98 991 -293 1434 -544 174 -100 410 -247 410 -257 0 -8 -91 -25 -242
-45 -298 -39 -649 -152 -960 -310 -343 -175 -666 -402 -935 -658 -61 -58 -118
-106 -125 -106 -24 0 -119 107 -197 222 -85 125 -125 164 -304 290 -166 117
-269 220 -430 428 l-128 165 28 23 c235 195 1007 658 1246 747 27 10 56 29 65
41 21 29 18 29 138 4z m7539 -313 c402 -75 699 -221 946 -467 112 -111 220
-240 201 -240 -5 0 -47 18 -93 39 -197 93 -370 116 -789 108 -707 -15 -1252
-137 -1623 -365 -77 -48 -76 -47 -91 -26 -8 11 -47 20 -125 30 -165 22 -176
30 -285 211 -63 104 -160 233 -176 233 -6 0 -10 4 -10 9 0 4 39 11 86 15 193
14 346 61 632 193 360 165 628 252 857 277 80 8 392 -3 470 -17z m-5483 -634
c207 -156 329 -263 534 -467 173 -173 334 -357 334 -381 0 -4 -22 -37 -49 -74
-68 -92 -153 -226 -186 -291 -21 -42 -30 -51 -37 -40 -5 8 -36 62 -69 119 -74
125 -165 221 -247 259 -49 22 -76 27 -197 33 -148 7 -151 8 -420 97 -212 70
-275 67 -485 -24 -59 -25 -79 -28 -225 -33 -236 -9 -258 -21 -400 -229 -75
-110 -84 -119 -145 -149 -36 -18 -114 -43 -175 -57 -60 -13 -139 -35 -173 -50
l-64 -25 -68 34 c-66 33 -226 148 -311 223 l-42 38 139 126 c312 285 577 467
943 647 250 123 534 220 761 261 143 26 409 67 440 69 18 1 62 -27 142 -86z
m6084 -53 c162 -12 296 -45 417 -103 98 -46 212 -115 205 -123 -3 -2 -36 3
-74 12 -83 20 -236 22 -319 5 -340 -71 -777 -320 -1255 -715 -241 -199 -716
-615 -798 -698 l-92 -94 -134 131 c-142 138 -151 151 -216 316 -48 121 -101
215 -159 280 l-40 46 59 97 c86 141 117 181 224 284 258 250 635 419 1117 501
332 57 782 83 1065 61z m-3844 -180 c35 -11 90 -36 123 -55 33 -20 90 -50 128
-67 37 -18 66 -37 64 -42 -2 -6 -32 -16 -66 -23 -182 -37 -411 -140 -581 -261
-105 -74 -356 -317 -443 -428 -226 -289 -410 -703 -477 -1075 -129 -716 113
-1648 575 -2220 121 -150 132 -164 115 -154 -316 195 -614 473 -783 730 -225
342 -371 898 -384 1465 -15 643 168 1124 616 1619 224 248 607 488 849 531 67
12 190 3 264 -20z m4403 -101 c68 -16 97 -31 193 -95 61 -42 112 -81 112 -85
0 -17 -92 -193 -157 -302 -67 -112 -421 -592 -572 -777 -184 -225 -447 -513
-776 -850 -213 -218 -322 -341 -435 -491 -215 -285 -251 -407 -205 -679 l7
-44 -23 17 c-87 62 -177 87 -316 87 l-103 0 -79 46 c-53 31 -104 72 -157 127
-192 202 -233 241 -296 284 -38 24 -68 47 -68 51 0 3 19 31 43 61 66 85 119
166 179 276 281 510 273 492 273 650 0 100 -3 116 -29 172 l-28 62 51 59 c65
75 148 150 496 448 610 523 883 719 1202 863 315 143 476 171 688 120z m3565
21 c252 -13 381 -31 416 -59 15 -12 36 -21 48 -21 30 0 317 -97 451 -153 61
-25 169 -64 241 -86 177 -56 389 -133 455 -166 190 -95 456 -374 515 -540 10
-31 19 -91 22 -155 4 -114 1 -133 -73 -380 -41 -138 -49 -258 -31 -490 12
-159 -18 -227 -186 -408 -50 -53 -109 -123 -131 -155 l-42 -59 -6 134 c-34
710 -365 1293 -962 1692 -341 227 -981 463 -1462 538 -264 41 -708 31 -994
-23 -57 -11 -105 -18 -108 -16 -10 10 216 110 354 156 182 62 305 93 493 125
327 57 349 59 765 74 22 1 128 -3 235 -8z m-7420 -195 c255 -101 322 -151 385
-288 60 -129 81 -150 211 -212 179 -87 228 -143 316 -362 47 -117 50 -131 45
-187 -14 -149 -93 -231 -242 -251 -22 -3 -123 -10 -225 -15 -271 -14 -429 -47
-619 -129 -407 -175 -711 -566 -891 -1147 -88 -282 -109 -473 -90 -804 15
-253 19 -550 8 -550 -11 0 -122 140 -190 241 -293 431 -479 1062 -480 1619 -1
720 344 1421 909 1847 179 135 449 251 658 282 72 11 63 13 205 -44z m4278
-51 c15 -4 66 -39 113 -79 47 -40 129 -103 181 -139 107 -74 108 -75 108 -191
-1 -203 -113 -517 -470 -1315 -72 -162 -197 -446 -276 -630 -408 -946 -535
-1114 -1017 -1345 l-97 -47 -128 4 c-109 3 -134 7 -177 28 -76 37 -161 129
-234 255 -35 61 -87 146 -116 190 -83 126 -127 351 -96 495 37 174 225 428
610 825 539 555 746 793 1089 1252 227 305 293 404 385 583 33 63 61 119 64
123 3 5 12 6 20 3 8 -4 27 -9 41 -12z m2392 -123 c423 -64 1045 -285 1370
-486 565 -351 912 -888 984 -1525 19 -166 23 -839 6 -886 -19 -50 -72 -94
-175 -146 -160 -80 -223 -128 -351 -264 -270 -288 -418 -323 -789 -187 -82 30
-179 64 -215 75 -76 24 -89 34 -134 102 -74 112 -118 324 -171 826 -84 779
-204 1120 -546 1551 -208 262 -454 463 -734 599 -261 127 -488 171 -644 124
-92 -27 -71 -3 61 70 160 89 403 147 708 170 136 10 498 -3 630 -23z m-1735
-58 c-15 -37 -29 -71 -32 -75 -5 -10 -53 13 -53 25 0 13 101 129 107 123 3 -3
-7 -35 -22 -73z m-8131 -114 c256 -87 315 -101 462 -109 162 -9 191 -20 265
-97 75 -77 179 -257 179 -309 0 -11 9 -29 19 -41 19 -20 19 -21 -14 -119 -137
-410 -156 -873 -59 -1404 55 -298 131 -547 231 -752 35 -73 60 -128 54 -123
-5 6 -71 93 -147 195 -290 391 -530 635 -1044 1059 -484 400 -695 632 -847
936 -140 277 -131 427 37 619 56 63 77 69 260 76 158 6 168 8 240 40 168 74
220 78 364 29z m8144 -151 c18 -15 40 -28 49 -28 24 0 101 -48 113 -69 41 -78
57 -547 26 -781 -34 -260 -161 -810 -251 -1089 -90 -279 -253 -661 -386 -904
-105 -193 -175 -289 -301 -414 l-113 -111 -88 -27 c-199 -60 -271 -55 -546 39
-220 75 -260 85 -371 94 l-85 7 90 49 c380 206 519 405 895 1279 77 181 181
417 229 525 412 917 534 1252 533 1469 l0 83 87 -47 c47 -25 101 -59 119 -75z
m629 42 c429 -103 858 -431 1165 -890 230 -345 324 -676 398 -1395 39 -384 85
-612 149 -737 l39 -78 -113 0 c-100 0 -132 -5 -269 -40 -288 -74 -407 -51
-596 115 -223 195 -421 523 -505 837 -27 101 -28 93 16 273 99 409 90 771 -27
1125 -103 311 -255 500 -576 719 -27 17 -48 36 -48 41 0 8 64 35 105 43 54 12
187 5 262 -13z m-231 -296 c215 -167 351 -402 418 -729 40 -194 45 -494 11
-675 -39 -205 -255 -962 -365 -1275 -99 -282 -222 -454 -378 -528 -100 -48
-197 -45 -342 7 -180 66 -264 85 -377 85 -57 1 -103 2 -103 4 0 1 37 41 83 87
166 170 343 490 535 971 98 244 152 419 232 744 148 601 184 911 146 1254 -9
79 -16 150 -16 158 0 17 8 11 156 -103z m-9602 -76 c17 -169 131 -405 305
-628 146 -187 320 -356 658 -636 623 -518 767 -673 1258 -1354 257 -357 255
-354 322 -413 32 -28 49 -48 38 -45 -11 4 -58 18 -105 31 -47 13 -112 34 -145
45 -33 12 -127 38 -210 58 -232 57 -418 119 -561 187 l-131 62 5 40 c13 122
-77 225 -174 201 -33 -9 -71 -50 -79 -87 -8 -34 -3 -33 -57 -10 -26 11 -48 29
-55 44 -20 43 -82 105 -117 117 -37 12 -77 1 -111 -30 -20 -17 -26 -16 -280
74 -539 192 -917 373 -1166 561 -247 185 -481 497 -519 693 -6 31 -16 67 -22
78 -21 44 15 162 72 235 17 21 77 74 134 118 117 90 166 143 200 216 13 27 42
88 64 135 77 162 180 236 401 286 122 27 205 55 237 79 29 22 31 20 38 -57z
m5419 -400 c84 -83 138 -143 142 -160 4 -16 11 -28 15 -28 16 0 33 -76 32
-146 -1 -88 -20 -139 -122 -325 -40 -74 -97 -179 -127 -234 -75 -137 -148
-244 -237 -346 -181 -210 -329 -279 -990 -469 -342 -98 -412 -121 -520 -176
-148 -75 -297 -215 -363 -340 -16 -31 -30 -48 -34 -41 -14 25 -20 344 -9 457
47 495 319 1074 627 1335 247 211 519 305 933 325 268 14 333 28 406 92 37 32
94 136 94 171 0 9 4 17 8 17 5 0 70 -60 145 -132z m-6398 -1099 c76 -104 266
-286 383 -369 258 -181 631 -356 1163 -543 l233 -83 18 -49 c10 -28 18 -51 18
-52 0 -2 -21 0 -47 4 -42 6 -56 14 -109 70 -96 99 -178 121 -236 63 -30 -31
-33 -47 -16 -108 5 -21 -88 -54 -103 -36 -19 23 -112 48 -152 40 -42 -8 -82
-38 -102 -76 l-14 -27 -163 -6 c-257 -9 -437 -57 -669 -180 l-96 -50 -69 27
c-154 61 -194 102 -220 227 -13 59 -14 99 -8 194 11 169 8 211 -20 301 -94
297 -92 368 14 624 27 65 51 140 55 173 l7 58 36 -61 c21 -33 64 -97 97 -141z
m6224 -373 c60 -38 169 -147 154 -153 -7 -2 -47 3 -89 11 -106 22 -298 38
-361 30 -29 -3 -53 -4 -53 -1 0 3 24 19 54 35 29 17 87 58 127 90 l74 60 25
-22 c14 -12 45 -35 69 -50z m79 -270 c179 -36 252 -65 335 -131 37 -30 87 -60
110 -67 53 -16 245 -204 297 -293 97 -164 100 -248 32 -750 l-7 -49 -51 64
c-174 223 -355 354 -688 500 -503 221 -1131 326 -1447 242 -247 -66 -449 -229
-575 -465 -29 -55 -32 -58 -40 -36 -4 13 -7 74 -7 134 1 284 167 509 469 635
96 40 577 177 629 179 43 2 275 33 415 56 135 22 366 14 528 -19z m816 -240
c69 -41 150 -132 216 -244 169 -286 234 -363 353 -421 82 -41 149 -52 282 -50
l110 3 159 -129 c212 -172 289 -244 280 -264 -87 -205 -355 -1142 -424 -1481
-12 -57 -23 -106 -25 -108 -11 -11 -217 57 -313 104 -159 77 -212 132 -270
280 -77 196 -199 364 -308 425 -30 17 -56 34 -58 38 -3 4 20 69 50 144 89 222
98 302 59 492 -31 147 -31 236 -4 408 32 197 31 358 -5 462 -34 101 -88 192
-162 275 -100 113 -97 104 -35 97 29 -4 72 -17 95 -31z m-5166 -98 c34 -36 62
-94 62 -131 0 -24 0 -24 -57 -13 -66 13 -91 40 -100 104 -10 76 39 96 95 40z
m-387 -40 c51 -39 64 -64 28 -55 -13 4 -45 7 -70 7 -40 0 -47 4 -58 26 -27 59
34 72 100 22z m733 1 c32 -15 51 -62 50 -122 -1 -59 -11 -70 -57 -62 -59 11
-70 25 -75 93 -4 51 -1 63 17 81 24 24 31 25 65 10z m-1044 -126 c81 -48 70
-103 -26 -123 -75 -16 -102 -8 -120 36 -37 88 54 142 146 87z m875 15 c35 -16
34 -40 -2 -32 -38 9 -43 13 -43 30 0 17 11 18 45 2z m3210 -38 c539 -50 1189
-298 1470 -562 140 -130 284 -327 305 -417 28 -120 7 -235 -84 -452 -38 -92
-57 -174 -76 -334 -34 -283 -163 -498 -404 -670 -136 -97 -361 -186 -471 -187
-164 -2 -396 139 -802 489 -435 374 -686 703 -920 1203 -67 143 -73 164 -47
174 15 6 16 19 11 104 -7 97 -6 99 28 170 106 222 283 379 506 451 122 40 280
50 484 31z m-3583 -45 c244 -34 529 -107 978 -250 314 -100 361 -114 760 -224
249 -68 425 -123 504 -156 l38 -16 -31 -28 c-35 -31 -50 -31 -156 4 -180 58
-595 115 -945 130 -358 15 -744 81 -1030 175 -199 65 -400 184 -457 269 -28
42 -27 90 2 102 34 13 217 10 337 -6z m1780 -205 c112 -110 140 -153 66 -102
-46 31 -118 111 -184 202 -52 70 -65 97 -23 45 18 -22 81 -87 141 -145z m7301
108 c120 -61 429 -316 587 -485 121 -129 345 -417 387 -499 6 -10 21 -100 33
-199 60 -476 -29 -997 -312 -1840 -110 -330 -283 -742 -315 -752 -5 -2 -34 31
-64 74 -226 327 -397 529 -782 921 l-278 284 8 71 c4 40 8 194 7 342 0 295
-11 389 -74 641 -105 416 -245 727 -455 1004 -67 89 -69 84 26 77 66 -4 114
-16 226 -55 241 -86 357 -89 505 -15 128 65 270 226 353 401 l30 64 38 -6 c21
-4 58 -16 80 -28z m-9745 -3 c39 -27 92 -32 149 -16 30 9 34 7 52 -22 11 -18
33 -45 50 -61 39 -37 39 -36 -9 -84 -51 -51 -57 -101 -17 -136 30 -25 125 -17
201 17 l56 26 67 -31 c37 -16 78 -34 91 -39 l24 -9 -26 -31 c-38 -44 -35 -90
8 -137 33 -35 37 -37 98 -36 71 0 128 23 193 76 60 50 106 36 80 -25 -23 -56
-20 -113 10 -142 63 -64 225 3 265 109 9 25 14 28 43 22 93 -17 306 -36 495
-46 305 -15 661 -58 747 -90 41 -15 -174 -24 -490 -19 -176 2 -410 3 -519 2
-778 -10 -1506 -302 -2108 -847 -280 -253 -558 -658 -672 -977 l-33 -93 -16
30 c-28 54 -82 111 -231 245 -220 197 -250 253 -265 482 -8 124 -8 125 -64
239 -86 178 -91 197 -91 323 1 128 19 187 90 296 85 129 204 198 447 259 151
39 200 86 232 224 8 38 28 91 42 119 78 142 381 312 653 366 140 27 146 28
288 30 116 1 125 0 160 -24z m383 -212 c37 -22 36 -29 -3 -42 -109 -35 -150
-19 -87 33 36 31 51 32 90 9z m7166 -149 l228 -78 145 0 c136 0 151 2 244 32
54 18 104 32 110 32 23 -1 308 -411 295 -425 -2 -2 -44 16 -92 40 -201 98
-694 194 -863 168 l-61 -9 -98 88 c-53 48 -137 120 -186 159 -49 39 -89 73
-89 76 0 3 31 3 69 0 49 -4 136 -28 298 -83z m-6726 -45 c38 -12 69 -25 69
-30 0 -13 -90 -56 -132 -64 -31 -6 -41 -3 -62 19 -33 32 -33 39 5 70 37 31 34
31 120 5z m403 -99 c28 -28 -76 -115 -131 -108 -35 4 -40 27 -18 85 l18 46 60
-7 c34 -3 66 -11 71 -16z m1893 -112 c6 -7 30 -58 54 -113 224 -516 504 -900
926 -1267 305 -265 472 -390 633 -470 l75 -37 -50 -1 c-27 0 -129 9 -225 21
-143 16 -222 20 -430 17 -327 -4 -308 -14 -431 217 -75 142 -206 332 -363 530
-296 371 -333 426 -382 568 -32 89 -42 221 -24 298 34 147 171 295 217 237z
m4799 -53 c240 -41 429 -93 539 -148 82 -41 182 -122 204 -166 56 -110 164
-476 201 -684 53 -294 48 -712 -11 -845 l-19 -44 -116 229 c-403 790 -655
1179 -1019 1573 -102 110 -104 100 22 100 61 0 150 -7 199 -15z m-349 -128
c279 -295 508 -615 753 -1052 89 -159 362 -686 358 -690 -2 -2 -34 5 -72 15
-150 42 -669 128 -1021 169 -346 41 -536 71 -541 86 -22 56 398 1555 436 1555
4 0 43 -38 87 -83z m-5430 59 c199 0 359 -4 355 -8 -4 -3 -42 -33 -85 -66
-344 -263 -594 -552 -1002 -1157 -430 -637 -598 -868 -734 -1004 -161 -161
-283 -232 -446 -261 -38 -6 -119 -27 -180 -45 -334 -102 -436 -105 -575 -19
-82 52 -122 73 -250 135 -325 156 -450 299 -420 481 43 272 294 704 585 1007
339 353 861 673 1323 810 319 95 721 149 982 133 46 -2 247 -5 447 -6z m543
-73 c-166 -150 -225 -237 -315 -468 -111 -280 -149 -511 -149 -885 0 -379 31
-582 140 -908 130 -391 288 -643 460 -734 l65 -35 -58 -21 c-86 -31 -135 -67
-265 -190 -160 -151 -324 -262 -387 -262 -11 0 -39 -10 -61 -21 -52 -27 -190
-37 -273 -20 -113 24 -190 73 -334 213 -181 177 -171 173 -448 173 -288 0
-298 5 -354 179 -67 208 -63 407 10 569 22 51 50 114 61 141 10 27 42 74 69
104 97 106 370 489 679 953 349 523 581 798 886 1050 140 116 308 229 342 229
3 0 -27 -30 -68 -67z m93 -40 c-4 -21 -7 -72 -7 -113 3 -196 83 -383 260 -601
311 -387 449 -581 559 -788 69 -129 126 -192 197 -219 91 -34 232 -229 244
-338 7 -60 -16 -108 -112 -230 -35 -46 -91 -133 -125 -196 -75 -140 -139 -227
-227 -309 -122 -115 -281 -176 -427 -164 -241 21 -308 46 -411 159 -192 207
-373 678 -432 1121 -23 173 -22 581 1 735 44 287 148 594 257 757 32 47 207
223 223 223 4 0 4 -17 0 -37z m8127 -428 c213 -369 411 -882 505 -1305 124
-562 136 -876 81 -2155 -11 -237 21 -539 98 -930 51 -258 62 -349 49 -384 -9
-23 -12 -21 -77 55 -247 288 -522 701 -936 1404 -228 389 -317 535 -403 664
-59 88 -59 90 -43 115 171 267 486 1203 595 1773 50 262 64 416 57 633 -3 105
-9 210 -12 235 -7 56 -4 51 86 -105z m-4829 -322 c115 -108 224 -320 297 -580
l20 -73 -79 -102 c-131 -170 -282 -281 -617 -459 -186 -98 -736 -358 -892
-421 -119 -48 -430 -138 -478 -138 -8 0 20 65 74 168 48 92 134 259 192 372
l104 205 127 6 c624 31 1099 427 1164 971 8 69 15 98 25 98 7 0 35 -21 63 -47z
m689 -736 c160 -54 389 -96 790 -142 415 -48 929 -137 1085 -186 55 -18 120
-32 145 -32 51 0 120 31 145 65 16 23 17 22 252 -217 242 -246 395 -415 530
-583 86 -107 283 -379 283 -391 0 -5 -17 -11 -37 -14 -21 -3 -182 -33 -358
-67 -748 -142 -1834 -295 -2271 -319 -238 -13 -336 -1 -465 56 -56 25 -57 26
-103 123 -25 53 -63 151 -84 216 -38 116 -39 121 -32 214 33 401 -20 1006
-116 1334 -8 27 -14 51 -14 53 0 2 39 -17 88 -41 48 -24 121 -55 162 -69z
m-316 -152 c66 -335 95 -715 75 -995 -5 -80 -11 -181 -13 -225 -7 -151 -51
-383 -103 -540 -22 -68 -35 -89 -87 -144 -300 -313 -1215 -751 -2186 -1045
-185 -56 -409 -111 -417 -102 -11 11 63 502 118 781 76 382 200 761 391 1190
l53 120 60 13 c129 29 364 95 440 124 140 54 739 334 928 434 366 194 511 300
639 466 42 54 64 75 69 66 4 -7 19 -71 33 -143z m-2028 -106 c62 -7 118 -15
126 -20 10 -6 -3 -40 -59 -151 -180 -355 -303 -583 -317 -586 -13 -3 -132 65
-163 92 -10 9 -3 23 28 61 55 69 105 161 120 218 21 86 -19 215 -101 324 -22
29 -40 54 -40 57 0 3 28 7 63 9 139 8 237 6 343 -4z m-338 -786 c29 -18 57
-33 62 -33 13 0 17 9 -46 -136 -150 -345 -268 -681 -333 -944 -60 -246 -140
-703 -169 -974 -4 -38 -12 -71 -19 -73 -6 -2 -60 42 -120 98 -59 56 -193 180
-298 274 -380 344 -596 596 -690 804 l-19 44 44 36 c25 20 92 81 149 135 182
172 203 181 434 197 181 12 308 43 421 102 141 73 300 245 388 421 22 44 47
91 55 103 l15 23 37 -22 c20 -12 60 -37 89 -55z m6065 -665 c57 -90 150 -242
207 -338 528 -896 732 -1216 969 -1520 49 -63 86 -116 82 -118 -4 -1 -93 27
-197 63 -479 167 -752 203 -1689 225 -517 12 -686 33 -995 127 -600 181 -1023
484 -1429 1023 -97 129 -231 328 -231 344 0 2 28 -5 62 -15 129 -41 320 -43
678 -8 459 44 1581 215 2160 328 135 27 253 49 262 50 11 1 51 -52 121 -161z
m-7683 -435 c132 -225 298 -413 635 -716 110 -100 246 -225 302 -279 57 -53
120 -106 141 -117 l38 -19 -7 -79 c-38 -392 -37 -905 2 -1348 11 -129 36 -316
46 -342 9 -23 -16 -7 -117 74 -224 180 -520 525 -688 802 -190 314 -466 916
-561 1226 -66 215 -92 503 -67 747 l8 78 96 47 c61 30 100 44 105 38 4 -5 34
-56 67 -112z m3841 -35 c-127 -329 -384 -857 -527 -1083 -202 -319 -322 -440
-1189 -1195 -242 -211 -352 -310 -555 -500 -194 -182 -216 -200 -246 -200 -20
0 -24 5 -24 28 0 16 -9 64 -20 108 -75 302 -98 1188 -44 1696 l6 56 45 7 c204
30 814 224 1228 390 541 216 1160 546 1296 691 28 30 41 31 30 2z"/>
</g>
</svg>
