<svg width="2350" height="2134" viewBox="0 0 2350 2134" fill="none" xmlns="http://www.w3.org/2000/svg">
<path d="M923.3 31.3995C914.4 33.5995 906.9 38.0995 899.5 45.4995C892.3 52.6995 891.3 54.2995 883.9 71.4995C866.3 112.2 818.4 168 755.1 221.8C730.2 242.9 702.2 264.7 687 274.6C570.6 350.6 506.5 461.9 502.3 595C500.8 644.5 510.2 700.5 527.6 745.8L533.2 760.4L530.6 771.9C529.2 778.3 527.5 786.9 526.8 791C525.3 800.1 525.3 835.8 526.7 845C527.3 848.6 527.7 851.6 527.5 851.8C527.2 852.2 449.7 812.5 427 800.3C321.3 743.4 232.8 689.5 178.5 648.7C146.1 624.5 104.2 617.8 76.9 632.7C66 638.6 54.1 654.8 50.5 668.8C44.6 691.1 47.1 710.3 59.7 740C95 823.5 143.3 885 202.3 921.5C207.6 924.8 212 927.7 212 928C212 928.3 208.2 929.8 203.7 931.3C187.9 936.4 169.4 946.7 156.6 957.4C144.6 967.4 132.5 987 129.5 1001.5C127.6 1010.7 127.6 1030.6 129.5 1039C133.8 1057.6 145.6 1076 160.4 1087.1C186.9 1107.2 240.5 1120.8 287.8 1119.6C294.5 1119.4 300 1119.5 300 1119.9C300 1120.2 297 1122.2 293.4 1124.3C281.1 1131.5 264 1146.3 255 1157.5C226.5 1193.1 228.8 1246 260.4 1279.7C279.5 1300.2 309.1 1311.9 358.3 1318.5C393.3 1323.2 451.4 1321.5 491.2 1314.5C504.1 1312.2 504.1 1312.1 496 1320.7C482.2 1335.4 472.4 1351.9 467.4 1368.7C463.8 1380.6 463.6 1399.3 466.9 1411.5C475.5 1443.6 500 1467.7 532.5 1476.2C544.3 1479.2 575.9 1479.5 593.5 1476.6C625.4 1471.5 655.9 1460.2 681.5 1444.1C686.9 1440.7 691.4 1438.1 691.6 1438.3C691.8 1438.4 690.8 1442.8 689.5 1447.9C677.6 1493.6 699.1 1538.9 742.4 1559C757.4 1566.1 774.4 1568.8 791.4 1567C855.2 1560 911 1527.6 947.3 1476.3C951.2 1470.7 954.8 1466.1 955.3 1466C955.7 1466 960.8 1470.2 966.6 1475.2C1022.2 1524.1 1092.7 1555.9 1169.5 1566.9C1208.3 1572.5 1241 1574.4 1285.8 1573.7C1348.6 1572.8 1390.6 1566.7 1442.9 1550.9C1450.2 1548.7 1456.8 1547.1 1457.4 1547.3C1458.1 1547.6 1459.7 1551.8 1461 1556.7C1470.7 1594 1493.1 1663.3 1510.5 1710C1590 1922.8 1688.9 2055.7 1793.5 2090C1817.9 2098 1840.5 2091.3 1853.5 2072.1C1862.4 2058.9 1865.4 2041.8 1865.4 2005.5C1865.3 1967.8 1858.5 1922.2 1846.9 1882.1C1845.3 1876.4 1844.2 1871.5 1844.4 1871.2C1844.7 1871 1848.7 1873.9 1853.4 1877.8C1907.9 1923.8 1976 1960.1 2034 1974.4C2078.5 1985.3 2119.9 1987 2156.3 1979.5C2183.4 1973.9 2201.6 1951.1 2201.4 1923C2201.3 1910 2200.2 1906.5 2187.6 1880.6C2145 1792.5 2077.5 1709.5 1974.9 1619C1929.1 1578.6 1858.5 1526.9 1793.3 1486.2C1748.3 1458.1 1690.6 1425.4 1652.3 1406.2C1646.7 1403.4 1641.9 1400.6 1641.5 1400.1C1641.2 1399.5 1644.3 1392.6 1648.4 1384.8C1656.6 1369.1 1662.5 1355.1 1669.1 1336L1673.4 1323.5L1681.4 1315.5C1696.3 1300.7 1708.2 1281.9 1714.2 1263.7C1716 1258.4 1717.7 1254.1 1718 1254.2C1724.7 1257.5 1748.4 1265.9 1757 1268C1806.3 1280.2 1852.4 1268.9 1881.9 1237.4C1893.7 1224.8 1903.8 1206.4 1908.1 1189.5C1911.4 1176.9 1911.4 1153.5 1908.2 1141.5C1903.9 1125.9 1894.3 1108.6 1883.3 1096.9C1879.8 1093.2 1877 1090 1877 1089.6C1877 1089.3 1881.2 1089 1886.3 1089C1948.4 1088.9 1999.2 1073 2027.6 1044.6C2081.5 990.7 2072 896.8 2008.8 857.7C2005.1 855.4 2002 853.2 2002 852.9C2002 852.6 2004.6 851.6 2007.8 850.6C2010.9 849.6 2022.1 845.4 2032.5 841.3C2101.3 814.4 2149.4 775.7 2176.4 725.6C2190.8 699 2193.7 666.2 2184.3 637C2173.9 605 2147 577.8 2115.3 567.5C2098.5 562 2080 560.7 2058 563.6C2051.3 564.4 2045.7 565 2045.5 564.8C2045.3 564.6 2048.8 558.4 2053.2 551C2098.2 475.6 2132.8 385.1 2148.4 302C2150.3 291.8 2152.5 278.4 2153.1 272.3C2158.1 227.4 2132.8 181.2 2092.5 161.4C2076.8 153.7 2065.3 150.9 2046.4 150.3C2028.9 149.7 2022.1 150.6 2007 155.6C1979.5 164.8 1965 177 1942.6 210C1889.4 288.2 1844.6 344.9 1777 419.6C1747.7 452 1677.1 520.8 1658.3 535.2C1644.4 546 1618.2 568.4 1617.5 570.2C1616.6 572.8 1576.2 605 1545.5 627.6C1496.4 663.8 1446.6 696 1396.5 724C1379.4 733.6 1351 748.3 1350.6 747.9C1350.4 747.7 1352.5 743.7 1355.2 739C1408.4 648.3 1415.6 528.7 1374.1 424.8C1354.4 375.6 1327.2 334.2 1289.5 296.4C1252 258.8 1212.3 232.5 1163.3 213C1151.4 208.3 1148.5 206.7 1148.7 205.3C1148.9 204.3 1149.5 200.3 1150.1 196.5C1151.7 186.6 1150.7 166.4 1148.1 156.7C1141.1 130.4 1121.4 101.7 1106.5 96.0995C1089.9 89.8995 1068.6 99.2995 1062.5 115.7C1054.7 136.7 1039.6 155.1 1018.7 169.1C1009 175.6 1007.4 176.1 1008.4 172.7C1013.4 155.7 1015.1 125.8 1012.1 110.5C1008.9 94.4995 1001.1 76.8995 992 65.4995C981 51.6995 963.2 37.3995 951.5 32.9995C944.1 30.2995 930.8 29.4995 923.3 31.3995ZM945.6 44.4995C961.8 49.2995 985.6 73.4995 993.9 93.6995C999.6 107.6 1000.5 112.9 1000.5 133C1000.5 154.3 998.8 164.2 991.8 183.4C986.3 198.7 986.3 199 989.1 198.3C994.2 197.2 1017 185.5 1026 179.5C1047.6 165.1 1064.3 145.3 1073 123.8C1078.6 110.1 1089.1 104 1101.1 107.6C1107.2 109.4 1111.8 114 1120 126.2C1138.4 153.7 1143 181.4 1133.9 209.5C1130.5 220 1115.9 234.9 1099.3 244.8L1090.6 250H1095.7C1110.2 250 1128.3 241.8 1139 230.3C1142.9 226.2 1146 222.4 1146 221.9C1146 217.2 1193.2 238.9 1218.7 255.4C1300.3 307.8 1356.6 387.5 1378.9 482C1385.9 511.9 1387.5 527 1387.5 565C1387.5 598.9 1386.8 607.3 1381.9 631.6C1367.9 702.4 1331 767 1275.2 818.3C1255.1 836.8 1223.1 861.3 1202.3 874.1C1198.3 876.5 1195 878.7 1195 879.1C1195 879.4 1198.2 880.7 1202.2 881.9C1236.6 893 1258.8 918.6 1256.6 944.7C1254.8 966 1239.6 984.7 1218 992.1C1209.2 995.1 1193.3 995.2 1184.3 992.2C1180.8 991.1 1178 990.4 1178 990.7C1178 991 1181.5 994.7 1185.7 998.9C1223.6 1036.5 1231.5 1085.7 1204.5 1115.8C1175.7 1147.8 1123.4 1146.4 1091.6 1112.9C1086.5 1107.5 1081.9 1101.5 1079.2 1096.4L1074.9 1088.5L1075.7 1096C1077.3 1110.8 1076.7 1142.8 1074.7 1151.3C1071.6 1164.5 1065.1 1176.1 1055.1 1186C1040.3 1200.6 1026.1 1206.9 1006 1207.8C967.3 1209.4 935.5 1183.1 924.5 1140.6C923.3 1135.6 922 1132.2 921.7 1133C921.4 1133.8 919.7 1138.8 918 1144C912 1162 902.2 1179.6 893.3 1188.6C867.6 1214.3 823 1212 797.4 1183.7C780.6 1165.2 778 1134.4 789.6 1092.1C797.1 1065 814.5 1028.2 833.4 999.7L839.5 990.5L866.5 989.9C909.4 989 935.9 983.5 966.2 969.3C977.9 963.8 998 950.6 996.6 949.3C996.4 949 991.5 950.7 985.8 953C958.5 964.3 934.2 970.5 902 974.5C886 976.5 849 977.7 849 976.3C849 975.7 852 972.8 855.8 969.8C874.6 954.5 893 926.3 900.9 900.5C909.9 871.1 910.9 833.3 903.5 799C902.8 795.4 902.3 792.3 902.5 792.1C902.7 791.9 908.7 792.7 915.7 793.8C945.2 798.7 956 799.5 991.5 799.5C1027.5 799.5 1036.3 798.8 1059.4 794.4C1144.3 777.9 1199.2 727 1220.1 645.4C1225.9 622.6 1227.3 609.6 1226.7 585C1225.8 547.8 1218.5 518.8 1201.1 483.5C1158.3 396.4 1067.8 327.5 969.5 307C934.7 299.7 896.8 299 865.2 305.1C817.1 314.4 775.8 336.8 741 372.6C697.8 417.1 674.9 472.3 674.9 532.5C674.8 558.1 677.4 576 684.4 599L687.7 609.9L677.8 613C650 621.7 625.2 635.5 602.6 655C579.6 674.9 556.7 705.5 544 733.3C542.1 737.5 540.2 740.9 539.9 741C538.2 741.1 527.3 705.5 523.4 687.2C511.3 630.4 512.4 565.1 526.6 511.2C551.2 416.9 605.3 344.1 695 284.5C723.3 265.7 769.2 227.9 802 196.3C854.5 145.8 879.7 112.5 900.4 66.0995C908.4 48.1995 927.5 39.0995 945.6 44.4995ZM2056 163C2102.4 168.7 2137.8 206.8 2141.6 255C2142.7 269.4 2138.3 295.8 2127.4 339.9C2107.7 420.2 2068.5 508.3 2021.8 577.8C2019 581.9 2017.1 585.4 2017.3 585.7C2017.6 585.9 2022.7 584.6 2028.7 582.7C2047 576.7 2060.1 574.6 2079 574.6C2097 574.5 2102.5 575.5 2117 581.3C2140.1 590.6 2159.9 610.1 2169.6 633C2179.9 657.5 2180.4 683.2 2171.1 707.4C2159.1 738.6 2128.2 773.8 2092 797.3C2059.4 818.5 2023.5 833.8 1975.8 847C1961.9 850.9 1957.3 853 1962.9 853C1964 853 1968.8 854.1 1973.6 855.5C2003.9 864.2 2027.1 883.9 2040.6 912.4C2047.9 927.8 2049.5 936.2 2049.5 958.5C2049.5 975 2049.2 978.7 2047.2 986.4C2039.8 1015.7 2020 1040.3 1992 1055.3C1958.3 1073.3 1897.6 1080.7 1838.5 1074.1C1834.1 1073.6 1830.3 1073.4 1830.1 1073.6C1829.6 1074.1 1828.8 1073.6 1839.4 1079C1884.5 1101.7 1906.7 1144.5 1895.6 1187.5C1886 1224.9 1855.8 1251.8 1815 1259.1C1796.7 1262.3 1766.1 1259.2 1745.4 1251.9C1738.7 1249.6 1716.1 1239.3 1708.9 1235.3C1708.6 1235.1 1707.8 1238.1 1707.1 1242C1701.7 1275.2 1679.3 1307.6 1652.9 1320.7C1631.2 1331.5 1614.2 1335.4 1590 1335.4C1552.7 1335.2 1518.7 1320.9 1485.2 1291.1C1471.8 1279.2 1475.7 1285 1491.9 1301C1537.8 1346.5 1589.9 1358.7 1645.5 1337C1651.1 1334.8 1655.9 1333 1656.3 1333C1658 1333 1643.2 1368 1635.7 1381.9C1633.5 1385.9 1629.8 1392.4 1627.4 1396.3C1625 1400.2 1623 1403.9 1623 1404.5C1623 1405.1 1626.9 1407.5 1631.8 1409.9C1697.3 1442.1 1798.5 1501.9 1854 1541.3C1957.9 1615.2 2030.7 1681.1 2094.1 1759C2130.4 1803.5 2169.8 1866.7 2184.5 1903.8C2192.4 1923.8 2189.4 1941.7 2176.1 1955.1C2163.5 1967.6 2150.7 1970.5 2107 1970.5C2068.5 1970.5 2051.3 1967.7 2014.4 1955.5C1943.6 1932.2 1871.4 1884.4 1811.3 1820.9C1746.5 1752.6 1692.5 1680.1 1657.9 1615C1652.5 1604.8 1648 1596.9 1648 1597.5C1647.9 1600.5 1664 1637.6 1673.6 1656.5C1709 1726.4 1749.8 1782.7 1806.4 1839.5L1827.3 1860.5L1829.7 1868C1833.2 1878.9 1841.3 1911.1 1844.9 1928.8C1854.4 1975.1 1855.7 2030.3 1848 2055.4C1845.4 2063.8 1836.8 2073.5 1828.2 2077.7C1823.1 2080.2 1821.4 2080.5 1812.5 2080.5C1802.8 2080.5 1802.1 2080.3 1790.5 2075.6C1758.1 2062.5 1731 2044.3 1702.1 2016.5C1619 1936.5 1539.9 1780.5 1481.1 1581C1468.7 1538.6 1469.6 1543.4 1473.4 1541.9C1491.2 1534.9 1512.7 1521.8 1529.4 1507.9C1538.6 1500.2 1557.5 1480.2 1556.5 1479.2C1556.3 1479 1553 1481 1549.3 1483.7C1517.1 1507.5 1472 1529.4 1431 1541.4C1358.3 1562.6 1264 1567.6 1175 1554.9C1037.1 1535.2 931.9 1455.4 877.2 1329C865.2 1301.3 853.9 1264.1 848.1 1233.7C845.1 1218.1 844.5 1219.4 854.8 1218.7C882.4 1216.6 901.6 1203.5 917.9 1175.5L921.7 1168.9L925.6 1175.7C931.3 1185.6 948.1 1202.1 959 1208.4C1011.1 1238.9 1077.2 1208.6 1087.5 1149.5C1088.3 1144.7 1089 1139.1 1089 1137.1C1089 1128.8 1089.4 1128.6 1097.5 1134.5C1106.1 1140.7 1116.6 1145.2 1129.9 1148.7C1144.4 1152.4 1164.4 1151.8 1178 1147.1C1205.8 1137.7 1225.8 1115.7 1231.4 1088.8C1236.1 1065.9 1229.9 1038.5 1214.4 1014.2C1212.5 1011.3 1210.9 1008.5 1210.7 1007.9C1210.6 1007.3 1213.8 1006 1217.8 1005C1237 1000 1253.7 986.3 1262.5 968.5C1277.6 937.8 1266.3 904.5 1233.5 883.3C1229.5 880.6 1225.4 878 1224.3 877.3C1222.7 876.2 1222.7 876 1224 875.1C1233.7 869.1 1259.5 849 1275 835.4C1294.4 818.5 1331.9 777.6 1334.7 770.4C1335 769.7 1337.7 767.9 1340.8 766.4C1438.1 720.8 1545.9 648.8 1648.3 561.1C1660.9 550.3 1673.7 539.8 1676.8 537.7C1685.8 531.6 1707.3 521.2 1718.9 517.3C1746.1 508 1771.6 513.4 1790.4 532.4C1807.6 549.6 1814.1 569 1810.6 592.5C1804.3 635.7 1775.2 670.8 1725.8 695.1C1718.4 698.7 1718.2 699 1720.6 705C1722.4 709.5 1723 709.7 1730.8 707.3C1737.8 705.2 1753.3 705 1761 706.9C1774.6 710.2 1789.9 720.1 1798.3 731.2C1817.4 756.4 1818 782.7 1800.4 817.1C1780.7 855.6 1748.9 877.6 1696 889.4C1680.2 893 1678.2 893.6 1679.1 894.4C1679.3 894.6 1685.1 896 1692 897.5C1707.4 900.8 1713.6 903.3 1724.3 910.3C1760.2 933.7 1773.8 981 1755.5 1018.2C1742.6 1044.3 1716.1 1060 1682 1061.7C1653 1063.1 1629 1055.1 1595 1032.8C1588.7 1028.6 1583.4 1025.6 1583.2 1026C1583 1026.5 1585.8 1031.6 1589.4 1037.4C1600.9 1055.9 1605.6 1067.1 1609 1083.9C1620.9 1142.4 1579.4 1184.6 1515.4 1179C1484.1 1176.3 1459.4 1162 1441.5 1136.4C1433.1 1124.5 1431 1123.1 1426.5 1126.4C1423.1 1128.9 1424.2 1133.3 1430.4 1142.5C1453.2 1176 1490.2 1193.9 1532 1191.6C1572.7 1189.3 1600.6 1172.3 1615.5 1140.7C1620.7 1129.7 1622.2 1123 1622.7 1107.7C1623.3 1091.7 1622 1081.3 1618 1068.7C1616.5 1063.9 1615.5 1060 1615.8 1060C1616.1 1060 1620.2 1061.6 1624.8 1063.6C1652.9 1075.7 1687.1 1077.3 1715.4 1067.9C1738.7 1060.2 1755.9 1045 1767 1022.5C1774.3 1007.5 1775.5 1002.4 1775.5 983.5C1775.5 963.8 1773.7 956 1765 938.5C1756.6 921.4 1744.7 908 1729.7 898.6C1727.1 897 1725.3 895.4 1725.7 895C1726.1 894.6 1730.3 892.8 1735 891C1768.7 878 1796.6 852.9 1812.2 821.5C1827.2 791.4 1829.3 765 1818.4 740.4C1808.3 717.4 1785.7 699.2 1761.9 694.7C1758.6 694.1 1756 693.4 1756 693C1756 692.6 1759.7 689.7 1764.3 686.5C1808.2 655.3 1831.8 602.6 1820.8 560C1809.8 517.4 1765.7 491.9 1723 503.4C1717.8 504.8 1712.4 506.2 1711 506.6C1709.4 507 1717.6 498.2 1734.1 481.9C1815.9 400.6 1890.2 310.5 1954.7 214C1969.3 192.2 1981.3 180.8 1999.5 171.8C2016.5 163.3 2035 160.5 2056 163ZM930 314C1002 319.4 1075.3 353.6 1129.9 407.3C1205.5 481.7 1232.5 573.9 1203.4 658.1C1185.7 709.4 1155.9 743.7 1110.4 765.1C1066.4 785.9 1004.1 792.9 938 784.4C925.7 782.9 902.6 779.2 899.8 778.4C897.4 777.7 896.3 772.8 895 758C888.3 679 843.3 623.4 774.5 609C754.6 604.8 747 604.5 704.1 606.3L699.6 606.5L697.4 599.8C691.5 582.4 687 553.6 687 533.9C687 470.6 715.4 409.5 764.2 367.5C810.6 327.6 867.2 309.3 930 314ZM752.5 618C806.2 624.2 845 650.6 866 695.3C875.1 714.7 881.2 737.8 882.9 759.2L883.8 770.5L879 780.5C863.4 812.7 832.8 839.8 794.6 854.9C778.2 861.5 763.8 865.5 741.1 870C709.2 876.3 686.8 887.7 665.9 908.2C643.4 930.2 630.8 957 624.5 996.3C623.8 1000.7 620.3 1003.5 616.7 1002.6C612.8 1001.6 591.2 972 577.8 949C538.1 881.4 527.6 817.1 546.7 760C563.3 710.6 599.8 665.8 643.2 641.4C677.2 622.3 716.4 613.9 752.5 618ZM134.1 640.6C145.6 643.5 157.6 648.6 163 652.9C173.7 661.4 215.4 690.1 241 706.5C291.1 738.8 382.3 791.5 434.8 818.5C444.2 823.3 445.2 824.9 438.6 825C428.3 825 410.5 833.4 401.5 842.5C370.5 873.5 375.2 916.3 413.9 955.1C431.3 972.5 451.2 984.8 476.9 994.1C489.2 998.6 490.5 999.4 487.1 1000.5C483.5 1001.6 473.5 1008.6 467.4 1014.3C438.6 1040.9 434.6 1081.2 457.5 1113.6C470.8 1132.3 497.2 1144.9 534 1150.2C545.2 1151.7 587.8 1151.8 598.5 1150.3C602.4 1149.7 605.6 1149.3 605.7 1149.4C605.8 1149.5 604.4 1154.3 602.6 1160C595.1 1183.7 593.3 1209.3 597.9 1226.5C606.8 1260.1 633 1287 665.7 1296.5C690.8 1303.8 728.5 1301.4 757 1290.7C762.2 1288.7 766.6 1287.2 766.8 1287.4C766.9 1287.6 766.4 1291.7 765.5 1296.5C761.2 1321.1 765.8 1352.3 776.1 1369.7C781.6 1378.7 793.7 1390.9 802.7 1396.2C830.4 1412.7 861.6 1411.5 888.5 1393C890.9 1391.3 893.3 1390 893.8 1390C894.4 1390 897.6 1394.4 901 1399.7C911.1 1415.5 926.6 1435.2 940.3 1449.7L946.2 1455.9L941.7 1462.7C924.7 1488.8 898.1 1513.8 871.3 1528.9C844.9 1543.7 806.1 1555 781.4 1555C740 1555 704.8 1523.9 698.9 1482.4C696.2 1463.5 702.8 1438.5 718.1 1409.2C721.4 1402.9 723.9 1397.5 723.6 1397.3C723.3 1397 718.5 1400.6 712.8 1405.4C676 1435.9 648.6 1450.8 611.5 1460.5C587.4 1466.7 550.8 1468.5 534.9 1464.2C509.4 1457.3 488.4 1437.8 480.3 1413.5C476.5 1402.2 476.3 1381.3 479.8 1370C484.4 1355.4 494.8 1339.3 508.4 1325.6C519.3 1314.6 527.3 1308.9 548.3 1296.8C557 1291.9 563.9 1287.6 563.7 1287.4C563.5 1287.1 553.2 1289.2 540.9 1291.9C443.6 1313.6 376.7 1314.9 313.5 1296.4C285.1 1288.1 268 1274.9 256.1 1251.9C249.7 1239.8 247.6 1230.8 247.5 1215.5C247.5 1191.4 254.3 1175.8 273 1156.9C289.9 1139.8 308.4 1127.9 334 1117.9C339.2 1115.9 343.4 1114.1 343.4 1113.9C343.3 1113.7 342.9 1111.1 342.5 1108.2C341.7 1102.1 342.9 1102.3 325.2 1104.7C306.7 1107.2 260.9 1107.2 245 1104.7C212.6 1099.6 181.3 1088.3 166.5 1076.3C133.4 1049.4 131 999.1 161.3 970.3C181.6 951.1 209 939.3 241 935.9C247.3 935.3 252.8 934.5 253.2 934.1C253.6 933.7 250.9 932.1 247.2 930.5C195.4 908.3 158 877.4 120.8 826C97.2 793.3 67.5 734.4 61.6 708.3C58.1 692.6 60.1 674.6 67.1 660.8C77.9 639.5 101.4 632.4 134.1 640.6ZM893.3 811C896.5 827.8 896.5 865.7 893.2 880.5C880 940.8 838.3 981.6 779 992.2C752.3 996.9 713.8 993.6 689.2 984.4C675.8 979.3 654.2 967.1 649.1 961.6L646.7 959L649.9 951.9C659.8 929.3 682.3 906.2 705.5 894.7C718.5 888.2 727.2 885.4 744.3 881.9C796.4 871.5 830 856 857.6 829.8C869.3 818.7 876.9 809.1 886.5 793.5L888.4 790.5L889.7 795C890.4 797.5 892 804.7 893.3 811ZM466.3 838.1C472.5 839 477.4 841.1 501.5 853.2C516.9 860.9 529.8 867.5 530.2 867.9C530.6 868.3 532.7 874.8 534.9 882.5C544.3 915.6 563.1 952.5 589.1 989C595.2 997.5 601.6 1006 603.3 1007.9C609.9 1014.8 618.8 1016.7 626.7 1012.9C634 1009.4 634.8 1007.7 639 985.5C640.2 979.4 641.5 974.1 642 973.6C642.5 973.1 646.3 975.2 650.7 978.3C688.7 1005 748.5 1014.3 796.6 1000.9C807.8 997.8 807.9 997.8 812.5 999.5C815 1000.5 817 1001.4 817 1001.6C817 1001.8 814.5 1006.4 811.4 1011.7C779.7 1066.6 765.1 1119.7 771.5 1156.6C776.8 1186.9 797.7 1208.1 831.7 1217.5C831.8 1217.6 833.3 1224.5 835 1233C845.5 1285.1 859.8 1326.1 882.1 1368.4L887.4 1378.3L884.7 1380.4C864.2 1396.7 835.2 1399.7 812.9 1387.8C788 1374.6 774.9 1348 776.3 1313.5C776.9 1296.6 779.2 1288 787.6 1271.2C791.2 1263.8 794 1257.7 793.8 1257.5C793.6 1257.3 787.9 1260.6 781 1264.7C757.1 1279.1 737.2 1285.8 712.7 1287.9C677 1290.9 649.8 1281.8 630 1260.3C606.8 1235 602 1201.6 615.6 1160.2C617.5 1154.3 620.9 1146.2 623.1 1142.2C625.3 1138.1 626.9 1134.6 626.6 1134.3C626.3 1134 621.4 1134.4 615.8 1135.3C564 1143.6 522.3 1140.1 490.3 1124.9C459.5 1110.2 446.7 1073.4 461.6 1042C464.5 1035.9 466.9 1032.7 474.8 1025C488.2 1011.8 500.6 1006 515.1 1006H520.9L521.5 1000.5C521.9 997.4 522.1 994.7 521.8 994.5C521.6 994.3 514.4 992.3 505.9 990.1C450.7 976.1 412.6 947.7 397.5 909.5C394.1 901.1 393 886.5 395 877.9C399.2 859.7 414 843.9 431.3 838.9C438.6 836.8 455.3 836.4 466.3 838.1Z" fill="#333333"/>
<path d="M948 393.999C920.1 397.399 894 412.499 876.5 435.499C854.1 464.899 847.7 507.999 860.1 545.499C883.4 615.899 956.1 653.499 1019.7 627.999C1087.1 600.999 1107.2 510.899 1060.3 445.899C1052.5 434.899 1035.4 418.799 1024.7 412.099C1000.5 397.199 974.1 390.899 948 393.999Z" fill="#333333"/>
<path d="M1477 165.1C1438 171 1407.1 204 1402.2 245C1396.2 294.2 1432.7 347 1501.5 388.7C1513.3 395.9 1541.5 409.9 1551.3 413.5L1559 416.3L1569.8 412C1588.6 404.5 1609.2 393.6 1629 380.5C1679.2 347.5 1712.3 303.5 1715.9 265.2C1717.6 246.3 1714.9 231.4 1706.5 214.5C1696.8 195 1684.5 182.7 1665.5 173.5C1651.3 166.6 1642.1 164.5 1626.5 164.6C1603.1 164.7 1583.8 173.6 1566.4 192.4L1558.9 200.4L1551.2 192.3C1539.1 179.5 1524.6 170.3 1510.5 166.5C1503 164.5 1485.6 163.8 1477 165.1ZM1512.1 180.7C1527.4 186 1542 198.1 1553 214.7C1556 219.3 1558.7 223 1559 223C1559.3 223 1561.7 219.5 1564.4 215.2C1570.9 205.1 1585.6 190.4 1594 185.8C1614.3 174.5 1640.8 174.4 1662 185.5C1699.4 205.2 1714 251.6 1695.5 291.7C1677.5 330.6 1629.8 371.8 1574.6 396C1567.1 399.3 1560 402 1558.9 402C1557.7 402 1552 399.9 1546.1 397.4C1476.8 367.2 1425.3 317.3 1415.3 270.5C1413.3 261.1 1414.1 244.2 1417 234C1423.8 210.1 1442 190 1463.8 182C1480.3 176 1497.1 175.5 1512.1 180.7Z" fill="#333333"/>
<path d="M276 479.6C245.4 487.7 226.5 519.2 233.4 550.4C238.1 571.4 256.2 594.9 282 613.3C295.9 623.2 324.9 637.5 331 637.5C334.9 637.5 338.6 636.1 353.1 628.8C385.3 612.6 408 592.9 420.6 570.3C435.5 543.8 432.2 514.9 412.1 495C390.8 473.9 360.4 472.1 337.8 490.5L331 496L324.8 490.9C317.8 485.4 308.8 480.7 302 479.1C295.6 477.6 282.5 477.9 276 479.6ZM302.6 492.6C311.5 495 320.8 503.1 329.2 515.8C330.8 518.1 330.8 518.1 336.7 510.3C347.1 496.6 357.2 490.9 371 490.8C392 490.6 409.5 503.8 415.5 524.4C417.9 532.5 417.2 547.3 414 555.3C408 571.1 389.4 591.7 369.3 605C358.2 612.4 333.9 625 330.9 625C326.2 625 290.3 604.7 281 596.8C254.5 574.2 242.2 551.9 245.1 531.5C246.9 518.8 251 510.9 260.6 502.1C272.4 491.3 286.5 488.1 302.6 492.6Z" fill="#333333"/>
<path d="M1187.8 1671C1172.8 1673.4 1160.1 1679.9 1149 1691C1140.3 1699.7 1136 1706.6 1131.6 1718.7C1128.6 1727.1 1128.5 1728.2 1128.5 1742.5C1128.6 1757.3 1128.6 1757.6 1132.3 1767.4C1145.6 1803.4 1182.8 1837.4 1233.3 1859.8C1249.4 1867 1248.7 1867 1261.5 1861.5C1316.4 1838 1358.4 1798.6 1368.6 1761C1371.4 1750.8 1371.1 1731.7 1368.1 1722C1359.1 1693.2 1337.4 1674.7 1308.1 1670.9C1288.6 1668.4 1264.3 1677.7 1253 1692.1L1249.7 1696.2L1243.6 1690.2C1228.2 1675.1 1207.4 1667.9 1187.8 1671ZM1210 1684.6C1222.1 1687.3 1234.1 1696.3 1243.9 1710.1C1246.4 1713.7 1248.8 1716.8 1249.2 1717.1C1249.6 1717.3 1251.8 1714.6 1254.1 1711C1273.7 1680.7 1308.7 1674.2 1336.1 1695.7C1349.6 1706.2 1356.9 1720.9 1357.8 1739C1358.3 1751.6 1356.9 1758.5 1350.9 1770.9C1337.7 1798.8 1308.7 1824.3 1267.2 1844.8L1249.9 1853.3L1244.2 1851C1211.4 1837.6 1176.2 1812.3 1159.6 1790.2C1143.3 1768.5 1137.6 1750 1141.5 1730.9C1148.1 1698.1 1178.7 1677.4 1210 1684.6Z" fill="#333333"/>
</svg>
