<svg xmlns="http://www.w3.org/2000/svg" viewBox="0 0 2184 2427" fill="#333" role="img" aria-label="line art">
<g transform="translate(0.000000,2427.000000) scale(0.100000,-0.100000)"
fill="#333" stroke="none">
<path d="M11983 23855 c-839 -106 -1620 -562 -2280 -1331 l-113 -131 -55 -6
c-120 -12 -239 -96 -292 -206 -31 -62 -44 -196 -24 -252 10 -31 7 -38 -108
-218 -65 -102 -178 -291 -250 -420 -246 -436 -437 -720 -696 -1036 -636 -775
-1457 -1419 -2685 -2105 -290 -162 -398 -239 -555 -396 -663 -663 -896 -1798
-535 -2614 21 -47 50 -105 64 -130 30 -53 32 -70 9 -70 -36 0 -251 -60 -343
-95 -662 -254 -1160 -817 -1300 -1472 -31 -142 -38 -401 -16 -553 36 -242 108
-477 279 -911 199 -503 218 -565 273 -884 82 -475 -78 -946 -371 -1093 -229
-115 -528 -40 -712 179 -91 109 -142 224 -162 374 -11 75 -26 95 -71 95 -35 0
-50 -18 -98 -115 -125 -252 -171 -458 -159 -725 23 -513 326 -1006 826 -1341
553 -372 1203 -451 1773 -218 55 23 100 39 102 38 1 -2 0 -139 -3 -304 l-6
-300 -180 -112 c-327 -206 -424 -244 -894 -362 -437 -109 -638 -185 -827 -311
-149 -100 -316 -291 -424 -485 -18 -33 -34 -61 -36 -63 -1 -2 -23 13 -50 33
-212 162 -487 147 -603 -33 -93 -145 -59 -278 128 -512 105 -132 151 -211 171
-297 l12 -53 -57 -117 c-116 -242 -236 -390 -479 -591 -215 -177 -283 -240
-352 -326 -141 -176 -189 -350 -150 -547 l12 -67 -72 -11 c-219 -36 -319 -222
-255 -473 38 -146 177 -458 287 -638 155 -257 316 -416 529 -521 278 -138 510
-131 845 24 l74 35 51 -29 c231 -136 529 -257 841 -342 121 -33 122 -33 162
-83 47 -60 103 -107 187 -156 139 -83 212 -78 444 33 l104 49 171 -16 c123
-12 322 -18 706 -21 l535 -5 150 -147 c647 -632 1475 -981 2514 -1061 406 -31
1076 7 1350 76 343 87 494 315 376 571 -14 31 -24 58 -22 60 2 2 35 -4 73 -13
104 -25 320 -23 454 5 217 45 452 140 735 295 778 426 1042 466 2165 326 377
-47 473 -56 735 -71 225 -13 875 -7 1095 11 394 31 714 71 1138 141 l243 40
95 -61 c183 -119 294 -149 408 -112 l66 22 44 -44 c63 -63 120 -78 199 -51 40
13 49 13 80 0 52 -22 132 -19 184 6 51 25 90 71 137 165 33 65 106 295 106
334 0 9 6 22 13 28 6 6 149 45 317 87 632 158 1027 268 1191 330 599 229 882
631 979 1388 56 444 75 1206 37 1477 -39 278 -94 467 -192 665 -130 261 -290
435 -678 740 l-228 179 8 65 c4 36 8 104 7 151 -4 298 -214 507 -502 499 l-76
-2 -95 144 c-126 190 -178 256 -281 359 -207 208 -411 315 -651 341 l-104 12
-95 82 c-52 45 -112 94 -133 110 -44 32 -41 36 33 60 136 43 301 144 431 264
l74 68 70 -65 c205 -190 531 -421 730 -517 331 -161 680 -193 1059 -99 555
139 1079 589 1424 1226 299 551 455 1296 411 1966 -65 1003 -689 2022 -1861
3042 -65 57 -118 105 -118 107 0 3 34 43 75 89 614 690 694 1636 210 2481
-233 406 -521 737 -1129 1301 -510 471 -727 696 -917 947 -301 398 -499 792
-709 1410 -45 132 -106 302 -136 378 -527 1332 -1450 2127 -2694 2318 -178 28
-691 34 -866 11 -98 -14 -102 -13 -185 12 -101 31 -229 60 -365 82 -140 22
-599 28 -751 9z m677 -131 c142 -18 310 -55 424 -94 85 -28 86 -29 172 -15
235 39 568 38 854 -1 889 -120 1632 -591 2158 -1368 237 -349 408 -708 583
-1225 345 -1017 665 -1500 1509 -2280 472 -436 654 -617 872 -870 359 -414
585 -853 663 -1286 23 -126 31 -410 15 -543 -45 -387 -229 -781 -490 -1054
l-85 -89 -250 183 c-276 203 -495 367 -495 372 0 2 31 68 69 147 262 546 282
952 68 1400 -117 244 -264 435 -756 983 -503 560 -723 843 -954 1228 -256 427
-348 672 -542 1448 -109 436 -151 591 -222 812 l-56 177 22 51 c102 238 -39
499 -286 528 -59 7 -60 8 -123 81 -530 617 -1356 1015 -2050 988 -212 -9 -405
-45 -405 -77 0 -19 21 -18 170 10 287 54 665 19 990 -93 392 -135 785 -380
1093 -681 168 -164 219 -224 195 -232 -166 -57 -263 -170 -279 -327 -4 -37
-10 -67 -13 -66 -3 0 -36 6 -72 12 l-67 12 -73 95 c-307 398 -709 651 -1131
714 -96 15 -118 13 -118 -10 0 -15 8 -17 125 -34 315 -47 642 -224 910 -494
85 -86 235 -263 235 -279 0 -2 -28 -15 -62 -27 -127 -46 -217 -172 -226 -313
-4 -67 -7 -77 -21 -71 -137 57 -287 42 -395 -41 -20 -15 -38 -26 -39 -24 -2 2
-24 33 -49 69 -76 107 -237 260 -275 260 -29 0 -10 -38 35 -72 70 -54 174
-165 219 -235 l40 -62 -31 -63 c-28 -57 -31 -71 -31 -163 0 -89 3 -106 28
-157 59 -120 173 -198 302 -206 l73 -5 47 -121 c207 -530 282 -903 292 -1455
5 -293 -11 -741 -27 -741 -3 0 -32 5 -63 11 -40 7 -74 7 -114 0 -31 -6 -57
-10 -59 -8 -1 1 -12 56 -24 122 -82 460 -261 948 -592 1610 -208 415 -257 557
-265 770 -6 151 -15 175 -68 175 -53 0 -65 -26 -65 -140 0 -240 58 -417 294
-887 549 -1097 719 -1865 560 -2533 -45 -192 -81 -291 -237 -655 -207 -484
-242 -621 -242 -940 1 -233 16 -337 75 -516 110 -333 306 -582 675 -859 257
-192 767 -516 1245 -790 453 -259 851 -511 1075 -680 648 -489 986 -970 1077
-1535 19 -119 16 -417 -5 -550 -35 -215 -102 -440 -202 -672 -47 -111 -72
-145 -57 -80 4 17 7 124 7 237 0 172 -4 223 -23 317 -96 479 -331 883 -761
1313 -355 354 -645 564 -1411 1022 -740 443 -967 594 -1255 837 -691 582
-1071 1334 -1006 1991 32 320 112 560 371 1125 231 503 242 537 243 750 0 146
-17 256 -65 405 -91 283 -205 501 -580 1105 -389 626 -530 908 -608 1208 -103
398 -49 921 132 1276 62 121 64 140 22 167 -41 27 -69 11 -115 -66 -127 -214
-205 -532 -215 -875 -5 -148 -11 -203 -34 -310 -70 -314 -99 -552 -107 -862
-3 -128 -10 -230 -15 -227 -18 11 -152 250 -228 406 -266 549 -341 1126 -215
1645 57 236 164 479 304 689 45 67 81 128 81 137 0 26 -35 60 -63 60 -38 0
-51 -14 -129 -131 -173 -262 -281 -526 -342 -835 -27 -134 -14 -115 -272 -392
-796 -852 -1484 -1279 -2284 -1416 -184 -31 -534 -38 -757 -14 l-166 18 -19
-22 c-23 -30 -23 -63 1 -85 21 -19 175 -45 263 -46 26 0 50 -5 53 -11 15 -23
-138 -241 -282 -402 -295 -332 -689 -606 -1323 -922 -210 -105 -334 -163 -940
-440 -506 -231 -965 -476 -1220 -653 -335 -231 -617 -506 -795 -774 -32 -49
-61 -88 -65 -88 -11 0 26 164 66 298 114 377 292 686 544 945 152 157 246 224
616 435 1253 717 2049 1347 2657 2104 l69 86 87 6 c378 26 482 38 699 82 475
97 911 302 1297 610 220 176 470 436 870 904 474 556 783 816 1150 965 103 42
114 50 97 67 -16 16 -78 -6 -227 -78 -341 -165 -612 -408 -1130 -1014 -296
-347 -600 -661 -780 -804 -526 -420 -1090 -630 -1822 -678 -100 -7 -185 -9
-188 -6 -4 3 27 50 67 105 158 210 327 472 466 717 l87 156 175 4 c182 4 265
16 426 62 l92 26 47 -51 c76 -81 157 -116 270 -116 76 0 99 4 147 27 174 81
259 277 198 458 l-22 65 29 23 c103 87 281 263 526 520 556 583 743 744 1025
886 287 144 549 171 875 89 83 -21 110 -24 119 -15 20 20 -2 31 -128 63 -358
93 -736 20 -1074 -206 -222 -149 -406 -318 -822 -756 -286 -301 -397 -412
-538 -536 l-34 -31 -48 43 c-83 75 -193 113 -289 100 l-46 -7 -5 89 c-4 71
-10 99 -32 143 -31 60 -96 133 -138 156 -16 8 -28 19 -28 24 0 34 408 453 585
601 718 601 1527 865 2335 763z m-2996 -1478 c160 -67 197 -282 68 -398 -221
-199 -529 111 -333 334 62 71 180 100 265 64z m6307 -161 c110 -39 180 -171
150 -282 -49 -181 -286 -237 -409 -97 -164 185 25 461 259 379z m-5844 -283
c275 -141 78 -559 -202 -428 -90 41 -135 114 -135 217 0 175 183 289 337 211z
m-682 -121 c39 -15 79 -21 134 -21 l79 0 5 -87 c3 -49 9 -100 12 -114 6 -25 3
-28 -42 -43 -181 -59 -544 -99 -579 -63 -8 7 43 94 163 284 l84 132 44 -34
c24 -18 69 -43 100 -54z m6022 24 c136 -40 203 -202 137 -333 -80 -162 -310
-173 -411 -21 -40 60 -44 173 -10 238 55 106 166 151 284 116z m741 -235 c63
-192 93 -303 221 -808 193 -756 267 -971 455 -1306 262 -470 497 -782 1067
-1417 326 -362 382 -429 506 -594 379 -505 459 -909 282 -1439 -43 -132 -176
-416 -193 -416 -6 0 -101 72 -211 161 -976 783 -1523 1446 -1748 2119 -116
348 -158 661 -157 1164 2 308 1 311 -20 328 -29 23 -52 23 -81 -1 l-24 -19 0
-374 c0 -304 3 -397 18 -503 112 -807 397 -1352 1067 -2039 432 -443 900 -829
1733 -1431 281 -203 558 -446 872 -766 704 -717 1124 -1426 1259 -2127 40
-208 50 -315 50 -552 0 -523 -97 -1013 -287 -1453 -489 -1128 -1510 -1702
-2369 -1333 -82 36 -260 137 -253 144 2 3 41 -1 86 -7 102 -15 332 -16 424 -1
806 128 1459 939 1626 2020 31 195 34 612 6 790 -68 438 -240 837 -550 1269
-142 198 -283 359 -541 617 -344 343 -603 562 -1387 1172 -360 281 -599 474
-781 634 -824 722 -1269 1415 -1412 2198 -69 381 -76 738 -31 1580 48 914 18
1423 -121 2003 l-36 148 37 73 c28 55 38 90 42 140 l6 67 41 -7 c114 -20 221
3 303 67 27 20 51 33 54 30 4 -3 25 -62 47 -131z m-1279 -142 c18 -6 52 -27
74 -47 161 -145 58 -411 -158 -411 -209 0 -316 248 -172 398 70 74 150 92 256
60z m-2769 -161 c0 -528 216 -1136 592 -1669 91 -129 125 -151 167 -109 18 18
18 34 13 282 -5 268 5 475 33 679 25 179 31 191 55 103 69 -253 232 -568 612
-1179 436 -700 568 -982 609 -1299 26 -198 -1 -316 -142 -629 l-104 -229 -70
-33 c-200 -92 -472 -157 -777 -185 -168 -15 -619 -6 -798 16 -1421 175 -2505
951 -2446 1750 13 173 41 321 139 735 25 102 55 240 67 307 l23 122 66 22
c169 56 446 190 650 316 358 220 739 543 1121 949 96 101 178 184 182 184 4 0
8 -60 8 -133z m3491 -9 c51 -190 107 -499 136 -758 25 -217 25 -1039 0 -1450
-52 -848 -24 -1302 107 -1757 113 -392 337 -815 618 -1164 356 -445 696 -754
1613 -1469 498 -388 660 -519 935 -759 849 -740 1326 -1468 1430 -2182 121
-829 -171 -1763 -725 -2314 -407 -406 -897 -556 -1416 -434 -83 19 -98 27
-187 93 -96 72 -301 246 -334 282 -15 18 -14 23 33 99 28 44 75 126 105 182
30 56 95 166 143 245 l88 143 134 7 c314 15 572 138 810 386 389 404 490 951
287 1542 -130 377 -384 747 -724 1052 -315 283 -597 488 -1344 978 -816 536
-1132 768 -1461 1076 -661 616 -948 1277 -865 1994 28 238 27 234 95 260 258
96 441 405 426 720 -9 181 -120 368 -263 442 l-44 23 6 80 c69 905 -11 1489
-303 2222 l-20 52 50 16 c119 40 218 176 227 313 4 69 6 73 26 67 96 -31 126
-36 182 -31 69 6 150 33 190 65 34 27 31 28 45 -21z m-5661 -1393 c0 -21 -41
-206 -90 -410 -107 -441 -136 -656 -119 -864 14 -159 77 -334 182 -499 l40
-63 -6 -197 c-9 -321 -73 -566 -237 -897 -362 -734 -953 -1283 -1880 -1745
-349 -175 -584 -275 -1295 -553 -1295 -506 -1876 -828 -2384 -1322 -443 -431
-751 -976 -838 -1485 -9 -52 -19 -99 -23 -103 -4 -4 -25 41 -47 100 -23 59
-82 212 -131 338 -199 510 -249 727 -239 1040 6 189 19 263 77 438 142 425
461 800 896 1054 255 148 533 217 1414 347 846 126 1210 222 1645 436 628 308
1127 842 1444 1543 48 107 48 135 -3 159 -43 19 -67 -9 -138 -154 -423 -871
-1032 -1392 -1929 -1652 -281 -81 -533 -130 -1054 -206 -154 -23 -362 -55
-463 -71 -216 -36 -183 -52 -273 130 -77 155 -80 177 -39 306 105 327 322 570
714 799 217 127 495 244 1091 461 723 263 1071 412 1425 613 876 497 1417
1212 1651 2186 23 94 43 177 45 184 2 6 18 12 36 12 57 0 299 39 398 64 116
29 130 30 130 11z m-610 -93 c0 -26 -94 -376 -130 -482 -290 -866 -840 -1487
-1715 -1937 -315 -161 -569 -269 -1045 -443 -723 -265 -903 -336 -1133 -451
-485 -241 -761 -511 -883 -864 -35 -102 -40 -107 -54 -54 -53 193 -74 387 -68
618 5 197 3 189 101 346 187 300 497 603 867 849 268 178 679 398 1130 604
1068 487 1367 640 1710 872 373 254 627 500 833 813 l92 137 147 0 c82 0 148
-4 148 -8z m5827 -1402 c156 -77 244 -260 215 -448 -49 -315 -245 -522 -495
-522 -46 0 -49 2 -44 23 3 12 19 75 36 141 53 209 65 307 66 576 l1 245 35 12
c48 18 113 8 186 -27z m-4983 -595 c202 -198 511 -400 817 -535 l96 -43 14
-101 c15 -110 19 -417 6 -508 -8 -57 -9 -57 -45 -63 -220 -31 -306 -69 -414
-183 -174 -186 -259 -491 -283 -1027 -3 -71 -8 -139 -10 -150 -2 -12 -84 -96
-182 -187 -732 -684 -1288 -1014 -2075 -1229 l-147 -40 -78 15 c-299 59 -600
52 -877 -19 -416 -109 -839 -384 -1159 -753 -500 -579 -790 -1304 -1122 -2807
-26 -115 -54 -222 -63 -237 -9 -14 -57 -72 -107 -129 -479 -546 -1167 -812
-1731 -669 -345 87 -690 439 -824 838 -56 168 -74 356 -41 436 l12 30 34 -79
c129 -297 405 -485 712 -485 396 0 686 342 744 877 23 214 -5 459 -83 731 -46
162 -47 192 -7 387 127 624 499 1201 1073 1661 464 373 1023 662 2076 1074
1090 426 1509 624 1975 935 637 425 1115 991 1359 1607 90 229 139 455 152
701 l7 139 40 -49 c22 -26 81 -88 131 -138z m4796 -507 c0 -7 -7 -51 -15 -98
-22 -120 -31 -451 -16 -575 80 -682 450 -1248 1216 -1860 281 -225 471 -356
1381 -957 1018 -673 1433 -1063 1694 -1593 332 -674 262 -1314 -195 -1770
-228 -229 -507 -355 -780 -355 -81 0 -81 1 -5 152 152 305 258 627 301 923 19
128 17 444 -5 570 -98 586 -448 1088 -1108 1585 -276 209 -505 355 -1108 705
-362 210 -718 430 -1000 618 -570 381 -805 671 -902 1120 -19 87 -22 133 -22
312 -1 313 28 421 248 931 l124 289 89 6 c48 3 91 6 96 7 4 1 7 -4 7 -10z
m-3731 -130 c48 -18 160 -55 251 -83 l165 -51 12 -150 c27 -349 31 -339 -159
-339 -73 0 -186 4 -251 9 -115 8 -119 9 -112 30 23 73 14 534 -11 601 -9 22
10 19 105 -17z m2611 -117 c0 -5 -22 -60 -48 -123 -27 -62 -66 -161 -87 -221
l-38 -107 -76 6 c-155 13 -374 -32 -564 -115 -62 -27 -122 -52 -135 -56 -32
-9 -68 17 -84 62 -16 47 -14 243 4 328 l13 60 150 7 c268 13 561 65 765 137
97 34 100 34 100 22z m-1903 -80 c192 -38 436 -69 613 -77 l142 -7 -6 -36
c-60 -347 12 -547 194 -545 45 1 78 11 169 53 130 59 244 95 355 110 91 13
213 14 220 3 3 -5 -7 -64 -22 -133 -25 -115 -27 -142 -27 -369 0 -262 7 -324
61 -515 167 -595 563 -1123 1212 -1613 l82 -63 0 -132 c0 -161 16 -644 30
-902 85 -1561 385 -2623 884 -3129 116 -118 217 -188 651 -451 337 -205 554
-354 680 -469 39 -36 38 -36 -83 24 -153 75 -227 104 -369 140 -112 29 -143
30 -143 5 0 -15 -1 -15 125 -46 208 -50 429 -155 627 -297 83 -59 105 -95 93
-151 -7 -34 -19 -46 -56 -54 -39 -10 -89 8 -217 78 -224 123 -400 182 -777
260 -324 67 -306 60 -331 133 -25 74 -39 92 -71 92 -69 0 -83 -42 -48 -145 39
-118 88 -204 154 -275 64 -68 75 -89 69 -136 -4 -40 -46 -44 -99 -10 -54 36
-300 245 -382 325 -116 113 -294 404 -326 534 -14 57 -29 83 -177 293 -400
568 -697 1147 -954 1859 -386 1072 -655 2408 -777 3859 -18 218 -23 237 -69
250 -13 4 -31 -1 -49 -16 -28 -21 -28 -22 -21 -110 4 -48 3 -88 -2 -88 -5 0
-33 13 -63 30 -259 140 -588 168 -873 75 -287 -94 -565 -318 -764 -617 l-45
-68 -53 0 -53 0 -50 74 c-144 214 -297 363 -449 440 -46 23 -52 30 -46 49 38
128 82 253 105 303 34 72 35 88 9 114 -69 69 -127 -14 -216 -308 l-32 -107
-49 -7 c-68 -10 -128 -37 -190 -87 -50 -39 -70 -50 -59 -33 2 4 9 97 16 207
33 591 107 869 274 1023 121 112 253 133 671 108 168 -10 236 -1 296 38 73 49
84 118 66 414 -5 72 -6 132 -3 132 3 0 72 -13 153 -29z m945 -1735 c137 -26
249 -73 370 -152 66 -44 66 -44 70 -97 2 -28 3 -54 1 -56 -1 -2 -37 8 -80 22
-131 43 -244 59 -403 59 -368 -2 -717 -138 -1011 -395 l-86 -76 -32 33 -32 33
58 81 c207 289 479 483 763 543 105 22 281 24 382 5z m-2546 -153 c-7 -23 -42
-317 -55 -463 -9 -98 -31 -562 -31 -651 0 -56 -258 -330 -437 -465 -160 -121
-347 -225 -511 -284 l-63 -23 -267 136 c-328 166 -524 251 -752 327 -96 32
-168 61 -160 64 8 3 69 21 135 40 744 215 1333 576 2045 1254 87 83 105 95 96
65z m524 -36 c122 -50 239 -156 378 -342 87 -117 93 -132 64 -159 -18 -16 -21
-14 -55 41 -89 145 -240 253 -417 299 -67 17 -245 23 -287 10 -38 -12 -28 17
27 77 89 98 178 120 290 74z m2195 -92 c92 -16 233 -59 262 -80 13 -9 20 -47
33 -166 10 -85 14 -157 11 -160 -3 -4 -33 -3 -66 2 -413 60 -854 12 -1339
-145 -77 -25 -143 -43 -148 -40 -4 3 -8 17 -8 32 -1 15 -7 44 -14 65 -14 38
-14 38 23 74 330 324 826 491 1246 418z m-2232 -115 c162 -41 302 -141 387
-277 39 -60 42 -70 36 -112 -9 -62 -14 -65 -87 -37 -162 61 -410 91 -613 75
-65 -5 -123 -11 -130 -12 -29 -5 20 280 59 339 30 46 215 59 348 24z m2460
-331 c99 -13 89 -1 107 -138 17 -140 19 -132 -62 -188 -210 -145 -423 -211
-706 -220 -251 -8 -433 22 -631 103 -67 28 -181 88 -210 110 -7 6 22 124 33
133 17 13 246 86 396 125 156 40 318 72 440 85 111 12 521 6 633 -10z m-1668
-23 c89 -58 71 -275 -29 -337 -38 -25 -111 -21 -149 7 -98 72 -101 274 -5 334
40 25 142 23 183 -4z m-730 -51 c113 -17 226 -46 295 -76 l46 -20 10 -66 10
-66 -31 -18 c-42 -26 -187 -78 -270 -97 -145 -32 -442 -15 -485 28 -22 22 -50
138 -57 237 l-6 71 44 6 c24 3 55 7 69 10 65 9 286 4 375 -9z m2539 -334 l8
-73 -83 -85 c-475 -481 -983 -516 -1428 -97 -87 82 -201 216 -201 237 0 7 7
22 15 34 l15 22 113 -59 c343 -179 745 -216 1132 -105 106 30 267 107 345 163
30 22 60 39 65 38 6 -2 14 -35 19 -75z m-2133 22 l23 -37 -86 -80 c-148 -140
-272 -201 -408 -201 -90 0 -131 15 -209 74 -36 27 -133 159 -126 171 2 4 35 1
72 -6 196 -38 488 5 663 97 46 24 45 24 71 -18z m372 -188 c164 -219 434 -414
657 -474 362 -99 705 10 1068 337 l70 62 12 -72 c35 -223 98 -566 147 -803 31
-148 57 -283 57 -298 1 -28 -3 -30 -129 -71 -482 -160 -1074 -515 -1488 -895
-42 -39 -81 -71 -85 -71 -4 0 -27 28 -52 62 -60 83 -201 230 -275 287 -64 50
-237 141 -267 141 -10 0 -18 3 -18 6 0 4 -11 63 -25 132 -33 160 -95 346 -186
553 -39 90 -105 241 -146 334 -58 133 -183 472 -183 498 0 3 25 8 56 12 150
18 313 110 481 268 l65 62 95 -1 94 0 52 -69z m-1238 -40 c49 -72 125 -140
196 -176 45 -22 59 -35 67 -61 6 -18 25 -80 42 -138 36 -119 115 -325 184
-479 25 -57 46 -110 46 -118 0 -15 -190 -724 -196 -732 -2 -2 -83 57 -181 131
-98 73 -213 158 -255 188 -43 29 -78 58 -78 64 0 6 11 64 25 130 63 295 103
754 105 1194 0 28 2 52 3 52 2 0 21 -25 42 -55z m-179 -232 c-9 -244 -23 -448
-41 -600 -18 -143 -63 -395 -73 -405 -4 -4 -54 24 -112 63 -156 104 -344 221
-537 334 -95 55 -174 103 -175 108 -2 4 47 29 109 56 267 116 534 312 738 541
44 50 84 90 88 90 5 0 6 -82 3 -187z m4999 -95 c88 -58 291 -183 450 -278 468
-279 661 -397 815 -500 857 -573 1348 -1179 1492 -1841 33 -155 33 -484 0
-649 -55 -273 -165 -530 -344 -806 -148 -230 -440 -428 -665 -451 -51 -6 -54
-4 -160 64 -59 39 -196 123 -303 188 -296 179 -468 294 -543 364 -37 35 -66
65 -65 66 2 2 52 8 111 14 355 38 613 219 762 533 166 351 149 753 -50 1163
-161 332 -404 624 -943 1134 -370 351 -534 526 -683 731 l-54 75 -3 154 c-3
124 -1 153 10 149 7 -3 85 -53 173 -110z m-7699 96 l59 -6 1 -127 c0 -106 4
-135 23 -183 31 -80 100 -168 166 -214 l56 -38 -48 -49 c-117 -120 -242 -172
-406 -165 -99 3 -108 5 -192 47 -203 100 -325 304 -325 540 0 97 6 105 100
130 211 57 416 81 566 65z m359 -49 c155 -34 402 -117 585 -195 80 -34 147
-64 150 -66 10 -11 -38 -79 -89 -126 -121 -110 -234 -153 -406 -153 -175 0
-282 42 -384 150 -96 101 -142 259 -114 395 l6 33 66 -6 c37 -3 121 -17 186
-32z m-1063 -177 c9 -214 100 -391 256 -500 24 -16 41 -35 39 -41 -1 -5 -42
-33 -88 -62 -282 -170 -547 -142 -765 80 -72 74 -148 181 -141 199 14 36 277
228 432 316 57 33 244 120 256 120 4 0 9 -51 11 -112z m2028 -198 c326 -163
885 -486 898 -519 8 -22 -104 -121 -187 -165 -98 -51 -184 -69 -301 -63 -178
10 -302 68 -435 201 -141 142 -192 270 -182 456 5 94 23 170 39 170 4 0 80
-36 168 -80z m6285 -60 c123 -158 289 -331 565 -592 151 -143 324 -310 383
-371 447 -463 677 -841 743 -1220 24 -138 15 -380 -19 -508 -113 -431 -419
-688 -837 -706 l-125 -5 -53 71 c-74 99 -141 209 -202 331 -68 136 -179 416
-168 424 1 2 33 17 71 34 141 65 226 184 235 331 15 226 -127 552 -377 865
-107 134 -197 258 -221 306 -35 68 -105 1166 -72 1135 5 -5 40 -48 77 -95z
m-6537 -52 c0 -206 86 -391 237 -511 30 -23 54 -46 54 -51 1 -4 -25 -34 -57
-65 -254 -248 -588 -259 -817 -27 -119 119 -166 236 -164 406 1 110 17 186 39
184 8 -1 42 -9 75 -18 76 -21 241 -21 320 -1 90 23 198 80 257 135 29 27 54
49 55 50 0 0 1 -46 1 -102z m-2475 -111 c76 -115 217 -243 311 -282 48 -20 46
-34 -12 -77 -184 -141 -469 -186 -675 -108 -85 33 -84 30 -38 99 94 138 339
421 365 421 7 0 29 -24 49 -53z m1683 -139 c0 -106 4 -133 26 -196 48 -135
134 -249 240 -317 25 -17 54 -36 64 -42 18 -12 16 -15 -21 -49 -58 -52 -165
-113 -259 -147 -113 -42 -290 -50 -393 -19 -195 60 -301 225 -311 489 -4 117
16 273 36 273 4 0 29 -7 55 -15 170 -51 365 -11 512 105 28 22 50 40 50 40 0
0 0 -55 1 -122z m-688 -90 c-17 -69 -14 -273 6 -348 43 -167 134 -291 254
-346 34 -15 62 -32 62 -36 0 -32 -208 -178 -314 -220 -77 -31 -88 -33 -212
-33 l-130 0 -78 38 c-264 131 -353 465 -207 782 l27 60 135 0 c158 1 247 26
378 105 42 25 79 45 82 43 4 -1 2 -22 -3 -45z m3947 -135 c53 -132 96 -269
120 -387 24 -120 23 -146 -10 -146 -23 0 -103 -80 -124 -125 l-21 -45 -81 67
c-45 36 -83 73 -86 81 -3 7 29 140 71 295 42 155 79 292 82 305 10 36 20 26
49 -45z m-1080 -77 c282 -190 785 -565 785 -587 0 -14 -114 -95 -173 -123
-225 -106 -486 -58 -668 124 -136 136 -206 336 -180 517 11 71 46 183 59 183
3 0 83 -51 177 -114z m-3564 -36 c-81 -246 -22 -512 147 -661 45 -39 46 -41
27 -56 -74 -55 -218 -102 -335 -110 -294 -18 -532 167 -610 477 -26 101 -39
305 -21 338 l11 21 53 -24 c90 -42 185 -58 315 -52 143 6 209 23 332 85 52 26
96 47 98 46 2 -1 -6 -30 -17 -64z m3288 -6 c-33 -191 33 -406 172 -558 l49
-54 -64 -59 c-133 -121 -258 -174 -431 -181 -190 -8 -333 46 -460 172 -171
169 -201 378 -87 606 41 84 39 83 128 46 134 -56 301 -74 419 -46 70 18 182
71 235 112 25 20 46 35 48 33 2 -1 -2 -33 -9 -71z m3999 -46 c6 -24 8 -46 4
-49 -4 -3 -50 -23 -102 -44 -443 -179 -864 -448 -1245 -795 -124 -112 -314
-313 -387 -407 -18 -24 -37 -43 -43 -43 -5 0 -23 25 -38 55 -48 90 -159 254
-244 360 -85 105 -305 326 -385 385 -53 39 -55 50 -12 62 43 12 90 1 176 -44
134 -69 256 -187 407 -390 97 -131 97 -131 239 4 407 387 1054 780 1522 924
99 30 96 30 108 -18z m-8128 -127 c0 -182 83 -383 212 -516 90 -92 92 -84 -29
-141 -131 -62 -314 -88 -448 -65 -83 15 -97 24 -85 54 5 12 36 90 69 172 99
251 252 561 272 550 5 -4 9 -28 9 -54z m3230 44 c0 -2 -7 -30 -15 -62 -64
-245 50 -493 290 -628 28 -16 52 -30 54 -32 8 -6 -43 -55 -109 -105 -252 -193
-520 -196 -693 -8 -96 104 -144 232 -154 410 -5 103 15 283 34 300 4 5 40 1
78 -7 137 -29 308 7 435 92 62 41 80 51 80 40z m4941 -87 c20 -79 28 -70 -106
-128 -543 -234 -1147 -616 -1599 -1012 -128 -111 68 114 271 313 298 291 648
543 1016 731 106 54 371 168 386 165 9 -1 21 -28 32 -69z m-5599 -110 c-15
-68 -7 -339 11 -407 32 -112 76 -190 154 -271 40 -41 72 -77 71 -81 -6 -15
-117 -103 -169 -133 -176 -105 -347 -118 -506 -41 -230 113 -319 403 -221 725
l14 45 84 -3 c160 -6 337 47 476 142 94 65 95 65 86 24z m5691 -230 c21 -73
37 -140 37 -150 0 -23 -84 -95 -150 -128 -207 -104 -409 -29 -398 147 l3 48
95 49 c132 69 342 165 361 166 11 0 25 -34 52 -132z m1463 -158 c207 -259 342
-525 374 -734 27 -181 -34 -318 -177 -393 -101 -53 -99 -54 -123 24 -62 200
-125 471 -170 728 -33 190 -80 529 -80 577 0 31 1 30 42 -28 23 -32 83 -111
134 -174z m-7870 143 c-47 -161 -29 -387 41 -516 33 -60 120 -158 169 -187 19
-12 34 -26 34 -31 0 -16 -113 -98 -190 -138 -433 -225 -866 104 -824 627 3 45
10 82 14 82 4 0 33 -9 64 -20 123 -42 274 -33 415 24 66 27 213 120 245 155
23 26 39 27 32 4z m3465 -76 c223 -187 364 -314 599 -540 l135 -129 -40 -34
c-270 -228 -714 -89 -862 268 -38 92 -44 247 -13 338 21 61 78 170 90 170 3 0
44 -33 91 -73z m396 -20 c112 -93 276 -267 366 -385 74 -99 191 -281 185 -288
-2 -1 -87 78 -188 178 -102 99 -252 241 -335 316 -82 74 -156 142 -163 151
-15 18 -9 86 10 108 12 15 6 19 125 -80z m-1278 -5 c99 -61 178 -85 296 -90
132 -5 197 7 295 53 39 19 75 35 79 35 4 0 -1 -26 -12 -57 -26 -75 -28 -234
-4 -310 21 -70 60 -145 105 -207 l36 -49 -73 -68 c-167 -154 -375 -214 -552
-159 -253 78 -395 346 -335 631 19 86 92 249 113 249 3 0 27 -13 52 -28z
m3271 -44 c0 -59 35 -125 86 -161 l43 -30 -24 -46 c-181 -359 -701 -515 -672
-202 7 76 41 171 71 198 54 47 475 295 488 286 5 -2 8 -23 8 -45z m-6664 -171
c1 -244 82 -436 233 -551 28 -21 51 -42 51 -47 0 -16 -100 -88 -164 -119 -339
-161 -721 18 -820 386 -23 85 -30 244 -14 334 15 86 14 86 113 49 141 -52 365
-33 515 44 36 19 70 35 75 35 6 1 10 -48 11 -131z m3219 116 c-44 -105 -60
-286 -36 -393 31 -131 145 -295 240 -344 41 -22 39 -29 -13 -65 -330 -227
-698 -182 -838 104 -44 89 -53 140 -52 290 1 118 5 153 25 220 28 91 17 87
152 65 142 -23 317 15 445 96 75 47 87 52 77 27z m4129 -209 l70 -215 -18 -34
c-33 -60 -114 -142 -168 -169 -197 -98 -407 82 -408 350 0 34 3 76 6 93 l7 31
71 0 c118 0 232 43 316 119 25 22 47 40 50 40 3 1 36 -96 74 -215z m-8111 13
c-10 -234 45 -405 176 -549 l61 -66 -43 -25 c-265 -154 -516 -170 -709 -45
-111 72 -201 187 -243 312 l-19 55 48 153 c26 84 54 167 61 184 l13 32 59 -14
c159 -37 425 1 558 80 22 13 41 25 42 25 1 1 -1 -63 -4 -142z m3264 9 c-16
-41 -30 -152 -30 -241 1 -204 68 -357 204 -462 l60 -47 -61 -61 c-116 -117
-245 -174 -392 -175 -340 -1 -547 306 -484 719 9 57 18 106 21 109 2 3 31 -3
63 -12 89 -25 214 -21 309 9 82 26 204 93 263 144 38 33 55 39 47 17z m3567
-113 c-45 -148 10 -270 129 -289 20 -4 40 -10 43 -15 8 -14 -71 -175 -120
-244 -134 -187 -324 -267 -487 -206 -105 40 -277 210 -252 250 46 74 668 571
695 555 3 -2 0 -25 -8 -51z m719 -44 c12 -140 113 -293 222 -334 25 -10 45
-23 45 -30 0 -6 -17 -39 -37 -73 -109 -179 -252 -272 -418 -272 -199 0 -315
130 -315 354 0 44 4 86 8 92 4 6 30 16 57 23 125 31 283 137 375 254 25 31 48
57 51 57 3 0 9 -32 12 -71z m-5030 -91 c-14 -96 -8 -297 11 -368 26 -96 72
-182 133 -250 l55 -60 -24 -21 c-313 -273 -719 -154 -825 241 -19 73 -24 313
-6 331 6 6 31 4 74 -6 80 -19 145 -19 234 0 86 18 235 90 295 144 25 22 49 40
53 41 4 0 4 -24 0 -52z m5746 -210 c33 -86 87 -222 121 -302 34 -81 60 -150
57 -153 -13 -12 -141 -15 -199 -3 -202 39 -340 173 -373 361 l-7 36 47 6 c95
14 192 80 260 177 16 22 29 39 31 37 2 -1 30 -73 63 -159z m-3226 43 c69 -52
159 -96 238 -116 95 -25 244 -17 327 17 34 14 62 22 62 18 0 -4 -13 -33 -30
-66 -47 -95 -63 -174 -57 -284 6 -116 31 -191 94 -283 54 -80 56 -75 -62 -113
-224 -73 -435 -24 -588 135 -159 164 -201 401 -110 616 20 46 61 115 69 115 2
0 28 -18 57 -39z m895 -116 c75 -78 128 -125 140 -125 13 0 34 -19 55 -47 20
-27 52 -64 71 -82 20 -19 36 -44 36 -54 0 -65 100 -286 149 -331 31 -29 26
-42 -31 -81 -145 -98 -340 -99 -490 -3 -70 44 -162 148 -196 220 -71 150 -68
298 8 453 30 62 114 175 129 175 5 0 63 -56 129 -125z m-6700 53 c17 -35 52
-89 77 -121 39 -49 74 -79 190 -160 19 -14 19 -15 -10 -53 -46 -62 -148 -156
-208 -192 -109 -66 -265 -106 -253 -64 2 9 28 109 56 222 53 214 111 430 115
430 1 0 16 -28 33 -62z m2606 -284 c37 -116 100 -208 191 -281 l40 -32 -45
-46 c-231 -238 -555 -244 -780 -16 -113 114 -170 248 -170 402 0 62 15 167 25
177 2 3 37 -6 77 -19 178 -57 394 -14 573 115 l50 36 6 -127 c5 -97 13 -147
33 -209z m3021 259 c-36 -86 -46 -267 -20 -368 35 -132 112 -252 212 -328 l56
-41 -46 -41 c-100 -88 -260 -165 -380 -185 -221 -35 -452 125 -513 355 -30
110 -10 280 48 417 41 98 45 101 103 82 144 -45 352 -3 495 100 42 30 55 32
45 9z m2149 -119 c16 -118 109 -230 228 -273 27 -10 27 -10 13 -52 -24 -66
-72 -144 -128 -206 -221 -242 -559 -213 -743 64 -36 54 -98 206 -88 216 3 3
28 -6 54 -19 198 -99 444 0 597 242 25 41 50 74 53 74 4 0 10 -21 14 -46z
m-5972 -87 c-6 -204 71 -385 214 -502 24 -20 44 -40 44 -45 0 -14 -113 -88
-183 -121 -379 -177 -745 -8 -823 380 -17 89 -16 303 2 321 5 5 47 -6 99 -27
81 -33 101 -37 205 -41 158 -6 274 28 405 117 17 12 32 21 35 21 3 0 4 -46 2
-103z m6816 46 c37 -101 110 -177 246 -258 15 -9 15 -15 -7 -80 -80 -232 -219
-409 -367 -467 -257 -100 -508 142 -450 434 18 93 34 118 74 118 160 0 356
115 441 259 17 28 33 51 36 51 4 0 16 -26 27 -57z m-7614 -70 c-3 -32 -7 -69
-9 -83 -7 -49 16 -211 40 -281 41 -123 139 -255 226 -306 16 -10 28 -22 26
-28 -7 -21 -175 -126 -252 -157 -76 -31 -86 -33 -210 -33 -130 0 -130 0 -208
37 -142 68 -247 190 -303 353 -24 69 -28 96 -28 195 -1 108 21 231 44 245 3 2
29 -3 56 -11 32 -10 88 -16 159 -16 133 0 246 29 370 97 44 24 83 44 87 44 4
1 4 -25 2 -56z m3910 -18 c-75 -235 -39 -442 101 -593 30 -33 55 -64 55 -70 0
-23 -156 -153 -229 -191 -96 -49 -167 -65 -268 -59 -283 16 -486 318 -414 618
16 66 81 202 119 248 l27 33 45 -17 c128 -46 315 -23 485 60 50 25 93 45 96
45 4 1 -4 -33 -17 -74z m-4672 -249 c-8 -202 59 -377 194 -511 l74 -73 -35
-31 c-72 -63 -220 -122 -356 -142 -161 -23 -415 3 -461 49 -7 7 35 217 94 466
l23 99 83 18 c130 28 267 104 356 198 17 17 30 31 31 31 0 0 -1 -47 -3 -104z
m3886 3 c-34 -109 -32 -266 4 -366 28 -80 100 -187 150 -227 l32 -25 -23 -25
c-87 -93 -295 -140 -446 -101 -174 46 -315 208 -347 400 -18 109 19 248 86
317 26 27 26 27 68 11 112 -42 317 -14 438 60 30 18 56 32 58 31 2 -1 -7 -35
-20 -75z m4992 36 l115 0 94 -191 c104 -213 110 -237 111 -447 0 -127 5 -122
-120 -122 -72 0 -93 4 -135 27 -123 64 -228 234 -265 428 -12 64 -15 229 -5
284 l7 37 42 -8 c22 -4 93 -8 156 -8z m-6163 -160 c64 -17 187 -19 248 -5 22
5 41 8 42 6 5 -5 -337 -296 -347 -296 -6 0 -10 6 -10 13 -1 6 -5 44 -10 82
-10 74 -3 215 11 215 4 0 34 -7 66 -15z m504 -52 c-34 -120 8 -304 95 -420 13
-17 24 -34 24 -37 0 -14 -134 -4 -193 14 -124 38 -287 178 -255 218 27 33 333
281 336 273 2 -6 -1 -27 -7 -48z m4529 18 c0 -66 37 -165 87 -232 l46 -63 -28
-50 c-158 -286 -445 -407 -691 -290 -162 76 -244 264 -204 467 16 81 16 81 54
52 88 -67 240 -106 349 -87 132 22 264 98 336 196 42 56 51 57 51 7z m879 -62
c3 -97 74 -292 139 -376 41 -54 40 -59 -8 -155 -52 -104 -94 -161 -177 -238
-297 -278 -703 -110 -703 292 0 52 27 198 38 210 4 4 31 -4 60 -18 210 -101
462 30 608 316 26 52 28 53 35 30 4 -14 7 -41 8 -61z m-6020 -199 l10 -44 -82
-75 c-45 -41 -146 -138 -224 -214 l-141 -140 -30 21 c-102 73 -204 226 -237
357 -16 62 -24 199 -13 210 4 4 33 -3 65 -15 72 -28 222 -38 306 -20 80 16
201 79 267 138 l55 50 7 -112 c4 -61 11 -131 17 -156z m3724 146 c153 -117
372 -132 535 -39 24 14 45 23 47 21 2 -2 0 -35 -6 -73 -19 -139 23 -281 115
-382 l48 -53 -22 -29 c-35 -50 -120 -118 -187 -151 -335 -165 -713 61 -691
414 6 88 39 196 82 271 31 52 36 53 79 21z m-593 -18 c80 -33 316 -33 404 0
33 12 61 20 63 18 2 -2 -8 -30 -22 -61 -94 -214 -65 -458 70 -585 34 -32 33
-34 -32 -63 -133 -59 -289 -64 -398 -12 -123 59 -223 194 -247 333 -18 106 20
266 88 370 17 27 8 26 74 0z m-3874 -242 c33 -130 122 -272 214 -343 27 -21
49 -42 50 -48 1 -21 -116 -117 -183 -150 -398 -196 -827 85 -827 541 0 69 2
75 18 69 47 -19 182 -36 242 -30 135 13 290 69 405 148 l50 34 8 -80 c4 -44
14 -107 23 -141z m3693 113 c-61 -180 -22 -373 102 -504 27 -29 49 -57 49 -64
0 -21 -118 -127 -177 -159 -149 -79 -302 -81 -461 -5 -198 93 -302 305 -259
525 17 84 55 192 66 185 136 -74 237 -91 376 -62 71 15 221 82 285 128 19 14
36 24 38 22 2 -1 -7 -31 -19 -66z m-9025 -19 c30 -228 194 -536 391 -735 250
-253 515 -355 889 -342 484 17 955 250 1343 662 59 63 109 113 110 111 2 -2
-12 -84 -31 -182 -36 -190 -86 -501 -111 -699 -13 -109 -45 -415 -45 -437 0
-30 -318 -151 -485 -185 -140 -28 -492 -25 -635 5 -735 159 -1309 700 -1452
1367 -23 109 -14 485 11 485 5 0 11 -23 15 -50z m4561 -269 c39 -164 157 -326
287 -392 l39 -20 -18 -30 c-10 -17 -49 -60 -87 -95 -236 -219 -599 -221 -816
-4 -124 124 -181 276 -184 492 0 69 2 130 6 134 4 3 29 -3 55 -14 186 -80 417
-38 628 113 l60 43 8 -80 c4 -45 14 -110 22 -147z m1719 122 c78 -106 235
-290 355 -415 61 -65 111 -121 111 -126 0 -5 -78 -12 -172 -16 -381 -15 -868
-80 -1095 -145 -18 -5 -33 -6 -33 -2 0 35 745 773 778 771 4 -1 29 -30 56 -67z
m1957 -23 c-38 -178 17 -362 147 -489 l66 -65 -62 -56 c-243 -220 -524 -238
-717 -45 -136 136 -191 364 -130 540 26 77 32 80 96 51 67 -31 178 -49 244
-41 105 13 242 73 320 139 46 39 51 35 36 -34z m-1727 -15 c61 -36 189 -67
261 -63 l60 3 2 -83 c3 -97 24 -196 58 -271 14 -29 25 -56 25 -59 0 -19 -335
338 -429 457 -38 48 -35 50 23 16z m4796 -83 c0 -169 82 -337 194 -397 46 -25
45 -36 -4 -112 -246 -376 -782 -354 -916 37 -22 65 -25 238 -5 308 6 23 13 42
14 42 2 0 30 -10 62 -22 192 -69 409 -14 565 143 41 41 78 76 83 77 4 1 7 -33
7 -76z m1556 -19 c78 -132 201 -318 321 -488 120 -169 126 -179 158 -280 39
-119 157 -322 272 -467 57 -72 439 -399 503 -431 61 -30 157 -31 196 -1 51 38
68 70 72 139 5 74 -14 123 -74 193 -19 23 -30 42 -24 42 29 0 377 -75 475
-102 143 -40 318 -111 447 -182 127 -70 177 -88 249 -88 166 0 252 154 179
319 -11 26 -19 47 -17 49 8 8 131 -32 203 -66 209 -100 409 -300 591 -590 l60
-95 -62 -60 c-93 -90 -106 -132 -115 -370 -9 -214 -18 -259 -78 -351 -86 -130
-200 -221 -542 -429 -348 -212 -495 -327 -582 -456 -27 -41 -42 -52 -83 -64
-71 -22 -406 -110 -495 -131 l-75 -17 -75 27 c-185 67 -350 36 -511 -97 -61
-51 -71 -55 -155 -71 -49 -9 -338 -66 -643 -126 -1107 -220 -1540 -277 -2177
-287 -449 -7 -731 12 -1091 72 -161 27 -405 80 -445 96 -26 11 -202 198 -328
349 -104 125 -220 283 -394 540 -91 135 -203 299 -249 365 -428 623 -1035
1286 -1542 1684 -456 358 -969 595 -1378 637 -38 4 -64 11 -60 15 13 13 287
75 458 104 239 41 511 65 788 72 l258 6 82 -79 c488 -471 1266 -1038 1765
-1288 298 -149 594 -242 952 -298 210 -32 726 -33 930 -1 914 144 1601 598
1945 1283 139 276 225 639 225 946 0 41 2 74 4 74 2 0 30 -44 62 -97z m-9102
-238 c30 -126 88 -229 182 -321 l82 -82 -52 -35 c-385 -256 -852 -152 -1027
228 -42 92 -59 169 -66 293 -7 125 -9 122 64 97 206 -72 609 -12 763 113 l25
20 6 -121 c4 -67 14 -153 23 -192z m8732 196 c42 -8 77 -8 113 -1 30 5 56 10
59 10 24 0 -67 -523 -97 -553 -11 -11 -93 57 -130 108 -42 58 -67 116 -86 198
-15 67 -37 286 -29 298 2 4 28 -6 56 -21 29 -16 80 -33 114 -39z m-5541 24
c150 -75 344 -77 487 -4 52 27 58 25 47 -13 -15 -51 -11 -206 6 -273 27 -100
74 -184 148 -259 37 -38 67 -70 67 -71 0 -12 -141 -38 -205 -39 -288 -2 -548
215 -610 509 -13 61 -21 185 -12 185 2 0 34 -16 72 -35z m5344 -189 c23 -173
85 -299 192 -385 29 -24 55 -50 57 -57 8 -34 -65 -151 -143 -230 -141 -143
-312 -195 -488 -149 -226 59 -357 239 -344 474 6 123 10 132 50 123 69 -15
219 -6 279 17 126 49 250 163 336 309 l37 63 6 -38 c4 -21 12 -78 18 -127z
m-1777 -59 c-7 -165 34 -283 138 -391 33 -35 60 -66 60 -70 0 -4 -18 -33 -39
-65 -167 -245 -445 -325 -693 -200 -246 124 -336 408 -213 677 l24 52 59 -30
c196 -100 448 -68 609 76 27 24 50 43 53 44 3 0 4 -42 2 -93z m-7665 -39 c38
-185 143 -345 291 -443 51 -33 50 -32 9 -87 -76 -99 -316 -254 -425 -275 l-34
-6 7 59 c27 242 123 840 132 830 3 -2 11 -37 20 -78z m6453 -14 c92 -39 230
-40 340 -2 41 15 76 25 78 24 1 -2 -7 -28 -18 -60 -72 -212 -34 -405 113 -573
37 -42 32 -49 -61 -83 -271 -102 -576 117 -617 440 -13 109 48 305 89 286 6
-3 40 -17 76 -32z m-4329 -110 c76 -27 231 -30 328 -5 47 11 86 20 87 18 2 -1
-50 -65 -116 -140 -65 -76 -149 -178 -186 -227 -77 -101 -78 -101 -125 -8 -43
85 -62 178 -56 268 5 67 14 110 22 110 1 0 22 -7 46 -16z m4122 -66 c-10 -163
52 -315 179 -441 43 -43 76 -82 72 -88 -3 -6 -40 -33 -81 -59 -232 -152 -464
-139 -638 35 -133 133 -197 360 -152 535 14 51 16 52 102 19 49 -19 80 -23
175 -23 131 -1 196 15 283 70 29 17 55 32 58 33 4 1 4 -36 2 -81z m-4231 -105
c6 -99 28 -165 84 -256 l36 -58 -41 -57 c-22 -31 -78 -114 -123 -184 -90 -137
-96 -142 -193 -159 -210 -36 -390 103 -475 366 -27 85 -65 263 -58 270 2 2 37
-8 78 -22 198 -68 461 -11 617 133 32 29 61 53 64 54 3 0 9 -39 11 -87z m3590
-254 c45 -121 119 -218 228 -302 l35 -26 -40 -35 c-230 -199 -533 -195 -741 9
-118 116 -174 252 -174 420 0 114 3 119 60 98 157 -56 381 -7 540 120 l55 44
6 -131 c5 -105 11 -144 31 -197z m3088 111 c11 -36 33 -86 50 -111 30 -47 120
-137 154 -156 51 -28 -139 -261 -275 -336 -259 -144 -563 -77 -677 149 -44 88
-55 153 -50 295 7 162 7 163 63 139 207 -89 471 -28 640 146 l60 62 8 -61 c5
-34 17 -91 27 -127z m-4085 23 c84 -5 134 2 241 33 21 6 22 3 21 -98 0 -121
17 -198 68 -299 19 -39 35 -72 35 -75 0 -13 -434 338 -550 444 l-55 51 75 -25
c48 -16 108 -27 165 -31z m-3405 17 c0 -39 31 -175 61 -265 38 -115 92 -206
165 -278 l58 -57 -40 -41 c-191 -196 -537 -232 -770 -81 -147 96 -239 236
-278 425 -14 68 -22 197 -12 197 2 0 21 -7 41 -16 195 -81 479 -44 690 91 80
51 85 52 85 25z m1555 -104 c572 -119 1147 -489 1805 -1162 414 -423 696 -777
1105 -1384 299 -444 419 -601 657 -861 125 -135 125 -136 142 -210 35 -152 88
-431 83 -435 -9 -9 -279 133 -453 237 -225 136 -359 226 -839 569 -629 449
-902 624 -1235 791 -495 248 -906 353 -1385 353 -524 0 -940 -140 -1304 -438
-19 -15 -10 77 30 314 135 807 470 1539 1018 2228 l26 33 115 -6 c63 -2 169
-16 235 -29z m5105 -306 c22 -80 80 -178 137 -230 62 -57 62 -57 -16 -115
-208 -152 -451 -161 -656 -24 -135 90 -231 235 -257 386 -6 40 -10 75 -7 78 3
3 35 -8 70 -24 220 -99 466 -53 638 119 l66 66 6 -106 c4 -58 12 -125 19 -150z
m-7520 198 c0 -119 71 -305 155 -410 52 -65 159 -149 222 -175 55 -23 54 -36
-7 -95 -203 -195 -573 -197 -767 -3 -105 105 -135 204 -115 374 l7 54 65 22
c136 46 289 138 375 225 27 27 53 50 57 50 4 0 8 -19 8 -42z m9210 -44 c0 -16
-135 -209 -202 -289 -88 -105 -232 -245 -251 -245 -17 0 -91 155 -112 235 -9
33 -19 95 -22 138 l-6 77 44 -16 c25 -10 90 -19 152 -21 98 -5 116 -3 190 21
45 15 107 44 137 66 55 38 70 45 70 34z m-2528 -120 c23 -209 187 -421 386
-499 23 -10 42 -21 42 -26 0 -14 -100 -84 -166 -117 -164 -82 -335 -88 -480
-17 -175 85 -262 279 -252 562 2 67 6 125 9 128 3 3 26 -2 50 -11 103 -37 272
-25 354 25 43 27 49 22 57 -45z m-488 -377 c21 -77 60 -152 107 -208 l38 -46
-34 -41 c-141 -163 -401 -200 -585 -82 -181 116 -255 332 -185 546 15 46 32
84 39 84 6 -1 38 -7 71 -15 149 -36 319 3 470 108 l50 34 6 -161 c4 -100 12
-183 23 -219z m2391 271 c11 -75 50 -191 95 -276 l38 -73 -57 -43 c-185 -142
-572 -346 -658 -346 -66 0 -193 181 -223 320 -16 75 -10 176 10 171 8 -2 37
-10 65 -17 66 -19 217 -18 290 1 141 37 291 139 375 254 24 34 48 61 51 61 4
0 10 -24 14 -52z m-3107 -135 c-33 -114 -5 -290 62 -397 38 -60 38 -60 -12
-35 -116 59 -574 347 -565 355 1 2 34 -1 71 -7 124 -20 272 14 391 89 63 40
66 40 53 -5z m-4216 -29 c47 -12 86 -15 151 -10 l89 6 -20 -33 c-44 -72 -112
-198 -162 -297 -49 -98 -53 -103 -67 -85 -27 36 -62 119 -74 175 -15 74 -4
260 16 260 2 0 32 -7 67 -16z m-130 -161 c5 -133 26 -202 83 -278 l34 -43 -46
-109 c-25 -59 -55 -116 -66 -127 -96 -82 -234 -96 -357 -34 -168 83 -287 264
-305 464 -8 92 -3 98 70 85 182 -34 411 21 535 128 19 17 38 30 41 31 4 0 9
-53 11 -117z m6593 -20 c16 -147 75 -280 163 -367 l54 -55 -98 -31 c-55 -17
-156 -42 -227 -57 l-127 -26 -62 29 c-119 56 -222 195 -253 341 -8 38 -15 71
-15 75 0 4 40 5 88 2 143 -11 303 37 417 124 22 17 43 31 46 31 4 1 10 -29 14
-66z m-8192 -54 c50 -66 121 -120 201 -155 36 -15 66 -32 66 -36 0 -18 -201
-215 -265 -260 -68 -48 -69 -49 -78 -26 -9 24 -1 465 10 528 5 31 6 33 17 16
6 -10 28 -41 49 -67z m901 -86 c20 -178 144 -371 291 -454 30 -17 55 -37 55
-43 0 -21 -53 -88 -113 -143 -335 -305 -806 -46 -807 445 l0 82 108 0 c169 0
309 46 407 134 22 19 43 35 46 36 4 0 9 -26 13 -57z m6700 -48 c17 -108 160
-316 235 -340 33 -10 25 -22 -21 -28 -139 -20 -389 -28 -541 -18 -150 10 -164
13 -200 38 -60 42 -142 137 -181 213 -51 96 -49 107 14 75 183 -93 444 -59
635 83 48 35 51 34 59 -23z m-751 -145 c24 -48 62 -104 99 -144 l60 -66 -34 0
c-81 1 -503 103 -493 120 3 4 24 11 49 14 61 9 173 66 226 114 25 23 47 41 50
41 3 0 22 -35 43 -79z m-6564 -77 c21 -173 77 -296 181 -400 50 -49 173 -123
206 -123 72 0 -78 -141 -231 -218 -107 -53 -199 -76 -310 -77 -114 0 -151 8
-159 33 -10 34 -35 300 -42 442 l-6 145 83 55 c47 30 124 95 174 146 50 50 91
91 92 90 0 0 6 -42 12 -93z m13744 -210 c37 -42 70 -127 75 -194 19 -276 -253
-622 -857 -1089 -470 -363 -602 -653 -491 -1084 20 -77 74 -224 179 -483 99
-245 116 -318 116 -503 -1 -143 -3 -162 -29 -240 -62 -187 -157 -339 -374
-602 -244 -295 -347 -487 -403 -751 -25 -113 -30 -358 -11 -452 6 -27 9 -52 7
-53 -2 -2 -34 29 -72 69 -37 40 -118 127 -180 191 -133 141 -164 195 -171 302
-13 200 86 370 395 681 214 216 283 308 382 506 98 196 116 264 115 424 -2
188 -33 302 -179 649 -138 330 -175 463 -175 624 0 308 139 475 650 782 437
262 587 403 661 620 18 54 23 97 28 260 8 218 18 254 85 305 68 51 216 74 249
38z m-12443 3 c0 -3 -15 -49 -34 -103 -34 -95 -74 -225 -96 -310 -6 -24 -15
-43 -20 -43 -16 0 -80 138 -100 214 -10 39 -19 102 -21 140 l-4 69 80 -1 c58
-1 93 4 125 17 45 19 70 25 70 17z m12624 -77 c107 -93 143 -298 85 -484 -69
-224 -195 -365 -589 -657 -216 -159 -330 -257 -414 -355 -184 -213 -256 -414
-242 -678 10 -200 46 -340 182 -703 147 -390 195 -624 174 -854 -26 -280 -154
-471 -445 -663 -221 -146 -344 -318 -407 -573 -19 -75 -21 -109 -19 -247 9
-409 9 -415 -21 -477 -63 -134 -156 -110 -164 43 -2 38 -14 105 -28 148 -135
429 -34 869 291 1267 32 39 95 117 141 172 265 325 371 591 342 866 -14 136
-52 270 -136 476 -103 253 -160 412 -178 503 -21 98 -21 275 -1 352 50 193
202 394 435 575 415 322 595 491 754 703 168 225 221 443 146 600 -11 23 -20
45 -20 49 0 13 75 -28 114 -63z m-12920 -160 c18 -83 58 -174 106 -243 l30
-44 -37 -186 -37 -186 -51 0 c-230 1 -473 186 -530 405 -8 33 -15 81 -15 107
l0 48 61 0 c139 0 264 56 373 166 l71 72 6 -31 c4 -18 14 -66 23 -108z m-1487
70 c34 -623 178 -1223 414 -1727 l49 -105 -74 -91 c-337 -417 -487 -940 -455
-1589 36 -708 307 -1446 750 -2045 38 -50 69 -94 69 -97 0 -17 -1083 2 -1137
20 -8 3 7 31 40 78 102 142 137 260 144 493 10 302 -19 459 -160 879 -112 331
-122 379 -121 580 1 150 3 169 37 295 19 75 60 201 90 280 30 80 82 218 116
307 167 442 192 763 80 1035 -59 143 -157 249 -289 312 -91 43 -228 45 -305 4
-121 -63 -190 -185 -199 -353 -6 -104 10 -189 64 -364 84 -267 95 -340 65
-450 -32 -123 -96 -215 -295 -426 -209 -223 -282 -331 -320 -481 -24 -95 -27
-245 -5 -328 9 -33 14 -61 11 -63 -6 -6 -281 181 -358 244 -137 112 -268 271
-317 387 -80 185 -73 333 30 673 77 254 90 315 96 459 12 279 -71 548 -237
769 l-59 79 41 76 c147 272 322 444 566 561 121 58 305 117 591 189 509 128
639 180 956 384 55 35 105 63 110 62 6 -1 11 -22 12 -47z m919 -297 c26 -162
155 -327 323 -410 46 -23 92 -42 102 -42 31 0 30 -16 -7 -88 -161 -314 -531
-400 -770 -180 -109 100 -204 328 -204 487 l0 39 53 7 c153 21 353 120 451
224 17 17 32 31 36 31 3 0 10 -31 16 -68z m-640 -192 c32 0 33 -2 39 -47 44
-363 204 -584 463 -639 37 -7 78 -14 91 -14 28 0 25 -10 -26 -88 -90 -135
-233 -236 -336 -237 l-49 0 -40 100 c-81 206 -155 469 -208 734 -39 198 -39
205 1 197 17 -3 46 -6 65 -6z m14521 -212 c221 -173 415 -357 501 -473 153
-208 259 -510 304 -865 31 -247 10 -1014 -38 -1394 -72 -566 -244 -913 -558
-1125 -206 -139 -401 -212 -971 -360 -638 -167 -786 -204 -792 -197 -14 13 56
134 113 196 136 147 271 204 642 275 305 59 402 96 529 207 303 266 401 666
260 1069 -100 289 -286 469 -494 478 -201 8 -335 -107 -350 -303 -8 -99 6
-167 75 -366 49 -146 56 -174 56 -245 1 -194 -118 -287 -449 -350 -112 -21
-111 -22 -62 48 134 187 186 397 166 664 -15 198 -72 409 -213 788 -107 288
-146 452 -146 619 1 327 142 534 595 871 345 256 477 384 567 547 24 42 46 78
50 78 4 0 101 -73 215 -162z m-11527 -38 c341 -43 644 -141 1020 -331 339
-171 592 -333 1210 -775 561 -401 777 -542 1106 -722 291 -160 659 -303 954
-371 221 -51 277 -56 645 -57 371 -1 429 -5 513 -36 50 -19 112 -61 112 -78 0
-15 -208 -110 -325 -149 -530 -172 -1144 -121 -1780 149 -368 156 -679 340
-1340 790 -594 404 -795 529 -1110 691 -682 350 -1288 461 -1875 343 -251 -50
-527 -168 -704 -299 -48 -37 -91 -64 -94 -61 -3 3 -1 94 5 201 l9 195 50 51
c65 67 234 194 325 245 234 130 460 193 814 228 66 7 374 -3 465 -14z m-1734
-67 c-12 -79 -36 -293 -46 -417 -11 -141 -16 -154 -80 -186 -86 -43 -168 -30
-266 44 -56 42 -164 163 -164 183 0 5 22 15 49 22 64 16 153 70 215 129 55 53
139 175 156 227 l12 35 65 0 65 0 -6 -37z m-4153 -327 c79 -33 128 -68 208
-149 182 -185 286 -430 296 -702 6 -157 -7 -237 -77 -469 -81 -269 -92 -320
-98 -456 -9 -247 72 -440 273 -649 113 -117 168 -161 405 -321 477 -324 707
-544 837 -805 155 -309 169 -665 38 -925 -66 -131 -157 -179 -252 -133 -41 19
-41 20 10 143 201 480 104 892 -301 1271 -82 77 -263 223 -504 408 -424 325
-589 515 -670 771 -39 127 -33 348 21 710 70 463 60 642 -44 855 -68 139 -195
285 -348 400 -44 33 -43 44 4 61 56 20 137 16 202 -10z m-208 -107 c75 -59
212 -200 252 -259 98 -145 134 -263 140 -465 5 -157 0 -211 -53 -555 -39 -246
-41 -537 -6 -650 88 -281 238 -443 834 -903 333 -257 465 -385 590 -574 162
-242 193 -531 89 -834 -74 -217 -102 -234 -81 -49 20 176 1 367 -60 582 -106
380 -231 527 -820 964 -423 315 -604 498 -715 728 -106 219 -107 365 -4 777
119 481 98 619 -144 923 -113 142 -141 196 -142 266 0 60 26 116 48 104 7 -4
39 -29 72 -55z m3828 -49 c95 -116 215 -190 310 -190 l30 0 -5 -77 c-24 -380
-528 -481 -689 -138 -16 33 -32 81 -35 106 l-6 46 58 33 c73 41 167 134 223
223 24 37 47 67 50 67 4 0 33 -32 64 -70z m2137 -11 c450 -56 922 -236 1455
-554 137 -82 271 -170 1045 -689 897 -602 1479 -834 2142 -853 373 -11 685 50
961 188 55 27 103 47 108 43 30 -18 -3 -122 -68 -213 -95 -133 -486 -504 -651
-618 -124 -85 -638 -118 -1003 -63 -501 75 -931 238 -1874 713 -844 425 -1077
538 -1405 679 -726 314 -1388 508 -2057 605 l-193 28 0 158 0 158 31 27 c272
233 651 373 1094 406 73 5 327 -4 415 -15z m-1667 -451 c-2 -177 -7 -326 -11
-330 -19 -19 -149 39 -240 107 -67 51 -75 66 -38 83 108 49 196 204 196 347
l0 71 43 21 c23 12 44 22 47 22 3 1 4 -144 3 -321z m-1968 254 c179 -85 286
-319 272 -597 -10 -207 -52 -364 -197 -735 -138 -353 -183 -519 -196 -728 -13
-193 19 -347 156 -752 97 -289 114 -362 130 -562 22 -260 -15 -455 -111 -595
-33 -47 -127 -143 -141 -143 -4 0 2 25 12 56 33 96 50 211 50 343 0 331 -122
642 -348 893 -49 53 -77 94 -92 135 -85 225 -78 506 21 758 60 156 111 238
330 535 38 52 92 140 119 195 115 236 113 417 -8 721 -67 168 -97 285 -117
452 l-6 52 33 0 c18 0 60 -13 93 -28z m-156 -79 c16 -133 42 -227 112 -416 70
-185 89 -262 89 -365 0 -159 -68 -335 -200 -512 -267 -361 -349 -520 -396
-768 -21 -110 -15 -366 11 -456 9 -32 14 -60 12 -62 -2 -2 -38 28 -80 66 -95
88 -162 188 -200 298 -27 80 -29 94 -25 197 8 179 60 279 254 488 251 270 315
357 360 486 53 152 43 268 -43 535 -30 93 -59 205 -66 248 -21 144 21 280 102
335 53 36 57 32 70 -74z m13131 60 c0 -5 -12 -44 -27 -88 -25 -74 -27 -92 -27
-240 1 -195 18 -268 126 -535 151 -373 168 -418 191 -510 27 -104 39 -180 29
-180 -4 0 -17 17 -29 38 -38 66 -132 160 -299 298 -189 156 -242 212 -290 309
-39 79 -41 97 -36 370 4 189 -18 254 -121 362 -23 24 -39 44 -36 46 2 2 65 18
139 36 74 17 187 47 250 66 131 38 130 38 130 28z m-11906 -90 c27 -207 226
-358 448 -339 l79 7 -7 -53 c-12 -98 -78 -268 -104 -268 -4 0 -34 19 -66 43
-77 56 -178 167 -243 264 -67 100 -195 358 -187 378 3 9 18 15 39 15 33 0 35
-1 41 -47z m11187 -93 c119 -37 208 -129 228 -235 5 -27 7 -129 4 -225 -10
-315 35 -396 383 -686 242 -201 311 -297 322 -443 13 -192 -84 -361 -381 -661
-243 -246 -334 -368 -399 -541 -29 -76 -32 -95 -32 -199 -1 -192 32 -251 289
-520 181 -188 238 -266 233 -320 -4 -47 -24 -44 -153 20 -211 105 -404 291
-480 464 -93 210 -99 487 -15 704 40 104 96 193 232 367 235 302 297 459 259
657 -38 191 -126 325 -400 604 -298 302 -374 431 -375 634 -1 179 56 314 158
375 50 30 48 30 127 5z m-226 -31 c-93 -111 -129 -321 -85 -494 38 -149 120
-264 370 -520 192 -196 270 -292 323 -400 121 -242 92 -437 -100 -690 -203
-266 -236 -312 -267 -369 -148 -267 -158 -619 -24 -892 88 -181 330 -398 534
-478 60 -23 66 -33 28 -42 -73 -18 -233 60 -416 205 -583 458 -720 677 -614
981 55 159 146 282 386 520 102 102 203 212 225 245 132 202 122 418 -30 615
-44 57 -132 144 -317 313 -165 151 -248 276 -289 435 -47 186 -8 355 115 490
78 84 228 160 161 81z m-356 -137 c-96 -192 -91 -408 15 -627 60 -124 117
-196 270 -338 324 -301 383 -380 393 -524 10 -143 -39 -222 -300 -485 -309
-310 -415 -489 -433 -728 -19 -250 111 -456 489 -774 64 -55 114 -103 110
-107 -17 -15 -633 -102 -943 -133 -330 -33 -418 -38 -812 -43 -545 -7 -712 3
-1388 87 -417 51 -466 55 -760 55 -373 0 -571 -32 -830 -133 -55 -22 -100 -36
-100 -31 0 5 11 35 24 67 37 90 72 208 99 338 22 104 35 195 65 447 l7 59 85
35 c571 235 1106 600 1542 1052 217 225 271 313 271 451 1 162 -106 270 -313
316 -61 13 -145 16 -450 18 -362 2 -380 3 -510 29 -245 48 -514 132 -721 225
l-64 29 -53 263 c-29 145 -51 265 -49 267 2 2 51 -8 108 -22 572 -136 1243
-174 1964 -110 442 40 854 107 1695 275 327 65 602 119 611 119 13 1 9 -15
-22 -77z m-10615 -143 l35 -52 -21 -51 c-356 -888 -364 -2035 -21 -2964 19
-51 33 -96 30 -98 -8 -8 -143 245 -203 378 -220 489 -326 957 -328 1438 -1
459 85 810 282 1146 38 65 177 254 187 254 2 0 20 -23 39 -51z m664 -22 c43
-29 111 -64 150 -77 79 -27 82 -32 53 -95 -33 -73 -124 -125 -221 -125 -39 0
-150 26 -163 39 -4 4 8 41 28 82 19 40 42 108 52 151 9 43 18 78 19 78 2 0 38
-24 82 -53z m632 -84 c535 -80 1114 -243 1700 -478 367 -147 593 -253 1380
-646 426 -213 849 -421 940 -462 672 -303 1157 -429 1650 -428 162 0 383 19
443 37 36 11 14 -13 -54 -60 -127 -87 -350 -216 -524 -302 l-170 -85 -135 -14
c-625 -67 -1305 -34 -1940 95 -1383 280 -2570 986 -3535 2103 l-68 78 22 72
c11 40 21 81 21 93 0 41 -16 41 270 -3z m-1136 -101 c5 -8 9 -182 10 -386 2
-412 12 -513 81 -845 250 -1192 995 -2371 2038 -3224 81 -66 145 -122 143
-124 -6 -7 -243 47 -388 88 -461 130 -902 356 -1263 645 -244 196 -540 524
-614 679 -165 347 -292 789 -352 1230 -29 213 -37 695 -15 925 35 371 140 828
247 1078 l19 44 43 -47 c23 -26 46 -55 51 -63z m119 -101 c29 -21 73 -50 99
-65 42 -25 49 -33 63 -84 68 -250 215 -650 334 -912 677 -1485 1972 -2728
3451 -3315 80 -32 149 -61 154 -65 24 -22 -176 -62 -484 -97 -247 -28 -882
-25 -1127 5 -101 12 -195 27 -209 32 -78 30 -459 354 -699 594 -898 899 -1476
2013 -1626 3131 -30 223 -39 815 -13 815 3 0 28 -17 57 -39z m788 -123 c57
-67 194 -212 304 -323 1112 -1115 2481 -1740 4060 -1854 266 -19 838 -11 1020
14 68 10 29 -12 -121 -66 -824 -301 -1747 -350 -2579 -137 -1119 285 -2132
1031 -2733 2014 -109 179 -208 367 -195 371 26 9 104 67 114 84 5 10 13 19 17
19 5 0 55 -55 113 -122z m-4430 -66 c-110 -450 -74 -704 142 -995 137 -184
297 -329 700 -630 253 -189 311 -239 258 -222 -52 16 -187 23 -268 14 -121
-13 -199 -38 -404 -130 -224 -99 -307 -123 -410 -117 -102 6 -169 39 -243 119
-52 56 -112 149 -148 229 -156 343 -235 457 -372 537 -62 36 -85 94 -93 229
-13 217 73 348 424 641 201 168 310 276 384 378 29 41 54 73 56 71 2 -2 -10
-57 -26 -124z m3965 56 c89 -11 91 -12 102 -42 25 -66 189 -349 297 -511 367
-550 841 -1008 1422 -1373 171 -107 539 -295 728 -370 l130 -52 131 -158 c72
-86 281 -341 464 -567 184 -225 390 -477 459 -558 163 -192 197 -238 234 -316
55 -116 36 -217 -55 -296 -53 -45 -60 -44 -223 20 -1611 637 -2934 1958 -3591
3584 -61 149 -159 433 -194 556 -12 43 -25 86 -28 94 -4 11 -1 13 14 7 10 -4
60 -13 110 -18z m13224 -591 c123 -58 248 -246 304 -457 27 -100 33 -299 11
-396 -58 -263 -244 -486 -470 -564 -30 -10 -150 -37 -265 -60 -392 -76 -535
-135 -684 -285 -116 -116 -159 -205 -220 -456 -57 -238 -95 -337 -150 -395
-43 -44 -59 -51 -85 -35 -11 7 -9 20 10 72 26 68 25 63 19 514 -2 116 1 154
19 219 43 163 132 306 251 406 119 99 207 124 465 135 325 13 451 36 580 103
216 114 351 396 315 660 -24 179 -93 321 -232 483 -32 37 -58 70 -58 73 0 23
131 11 190 -17z m-94 -174 c208 -288 204 -651 -9 -879 -131 -140 -263 -186
-574 -198 l-138 -6 107 24 c228 52 309 86 398 172 65 62 103 132 120 221 18
89 1 183 -66 382 -79 232 -83 343 -17 421 l26 31 54 -53 c30 -29 75 -81 99
-115z m-17936 -586 c41 -15 72 -37 122 -88 67 -68 91 -110 242 -431 149 -315
379 -447 661 -379 82 20 125 37 350 136 174 76 254 96 385 96 125 0 194 -16
307 -71 91 -45 190 -132 242 -215 38 -59 92 -223 120 -361 20 -95 40 -315 28
-304 -3 3 -20 49 -38 104 -115 349 -417 583 -725 563 -61 -5 -120 -19 -232
-56 -411 -137 -729 -141 -1001 -11 -305 146 -522 449 -632 880 -38 150 -38
158 4 163 47 6 105 -3 167 -26z m-226 -99 c97 -451 346 -807 670 -959 293
-137 612 -130 1066 22 112 37 135 42 220 42 281 0 540 -212 649 -532 24 -69
54 -202 47 -208 -6 -7 -39 46 -101 162 -122 231 -181 301 -308 361 -198 94
-391 82 -659 -41 -248 -114 -353 -156 -432 -175 -325 -78 -669 95 -912 461
-105 158 -284 532 -320 671 -22 87 -16 191 14 241 35 55 46 47 66 -45z m10882
-1055 c-30 -258 -87 -488 -164 -656 -35 -78 -36 -79 -106 -114 -39 -20 -172
-90 -296 -156 -262 -140 -373 -191 -525 -240 -262 -85 -492 -95 -682 -32 -40
14 -88 25 -106 25 -37 1 -20 -18 -431 485 -149 182 -348 426 -444 543 -96 117
-172 215 -170 217 1 2 59 -12 128 -31 839 -232 1762 -199 2634 94 l171 57 3
-28 c2 -15 -4 -89 -12 -164z m-8745 -152 c82 -31 144 -74 183 -128 43 -59 128
-212 124 -223 -3 -9 -278 79 -403 129 -129 52 -356 164 -352 174 4 14 84 43
164 61 88 20 210 14 284 -13z"/>
<path d="M10997 20090 c-75 -24 -137 -65 -137 -91 0 -14 46 -11 59 5 42 51
209 80 303 52 71 -20 78 -20 78 4 0 46 -192 66 -303 30z"/>
<path d="M10862 19618 c-28 -28 3 -129 43 -144 20 -8 19 -27 -4 -48 -36 -33
-99 23 -113 99 -7 40 -33 23 -32 -22 1 -50 37 -104 84 -123 22 -9 29 -17 25
-29 -44 -112 -45 -260 -3 -352 110 -239 380 -37 381 286 2 204 -117 314 -250
233 -21 -12 -40 -17 -54 -13 -23 8 -52 66 -43 88 7 20 -19 40 -34 25z"/>
<path d="M13344 18985 c-220 -132 -218 -625 3 -625 104 0 221 151 239 309 10
90 11 91 53 91 63 0 144 72 128 114 -8 20 -31 12 -46 -18 -25 -45 -131 -80
-131 -42 0 8 -3 21 -6 29 -4 11 5 19 30 27 46 15 88 65 84 98 -5 38 -25 38
-42 -2 -26 -62 -84 -75 -113 -25 -41 69 -125 88 -199 44z"/>
<path d="M11815 18791 c-62 -28 -115 -104 -115 -166 0 -86 96 -184 180 -185
61 0 62 46 1 48 -71 2 -131 64 -131 135 0 86 57 137 153 137 44 0 57 3 57 15
0 36 -83 45 -145 16z"/>
<path d="M10395 18700 c-282 -61 -370 -284 -184 -470 56 -56 181 -122 279
-146 90 -23 263 -15 340 15 324 124 226 482 -160 586 -68 19 -221 27 -275 15z
m252 -56 c186 -41 333 -176 333 -304 0 -208 -329 -298 -607 -166 -261 124
-289 369 -53 457 102 38 197 42 327 13z"/>
<path d="M13485 18166 c-172 -45 -264 -146 -252 -275 27 -304 580 -471 832
-250 131 116 90 314 -92 435 -128 85 -352 126 -488 90z m323 -62 c172 -57 292
-177 292 -290 -1 -213 -345 -303 -623 -162 -145 73 -230 204 -197 304 52 156
297 226 528 148z"/>
<path d="M11713 18033 c-21 -8 -15 -28 25 -87 160 -238 494 -249 690 -23 32
37 43 77 20 77 -6 0 -35 -27 -64 -59 -114 -125 -256 -168 -405 -121 -94 29
-157 81 -239 197 -8 11 -21 19 -27 16z"/>
<path d="M11830 12139 c0 -6 11 -24 25 -41 19 -23 25 -41 25 -79 0 -42 3 -49
19 -49 42 0 38 99 -6 150 -24 29 -63 41 -63 19z"/>
</g>
</svg>
