<svg xmlns="http://www.w3.org/2000/svg" viewBox="0 0 2132 2396" fill="#333" role="img" aria-label="line art">
<g transform="translate(0.000000,2396.000000) scale(0.100000,-0.100000)"
fill="#333" stroke="none">
<path d="M9805 23549 c-2300 -101 -4018 -1338 -4862 -3499 -217 -557 -400
-1270 -493 -1919 -16 -118 -32 -216 -34 -218 -2 -2 -11 18 -21 44 -9 27 -39
90 -66 142 -251 483 -665 642 -958 367 -120 -113 -195 -268 -246 -511 -6 -28
-9 -24 -57 65 -420 790 -752 1223 -1146 1492 -519 353 -970 225 -1107 -316
-92 -362 -16 -891 208 -1461 75 -189 172 -401 250 -543 l64 -117 -86 -8 c-387
-34 -634 -190 -777 -490 -80 -170 -91 -430 -27 -632 120 -377 459 -731 900
-941 34 -16 62 -32 62 -35 1 -3 -21 -20 -47 -37 -354 -229 -254 -753 237
-1242 133 -133 257 -231 406 -323 50 -31 89 -61 87 -68 -2 -7 -21 -72 -42
-144 -59 -204 -74 -303 -74 -515 -1 -246 22 -364 99 -520 49 -98 122 -145 316
-204 163 -49 440 -92 721 -112 l97 -7 47 -61 c165 -213 397 -417 653 -573 10
-7 -12 -14 -121 -42 -198 -51 -409 -156 -589 -291 -109 -82 -326 -301 -409
-412 -36 -48 -69 -86 -75 -85 -26 9 -433 688 -890 1487 -153 267 -318 553
-368 635 -302 503 -481 695 -648 695 -156 0 -238 -147 -303 -544 -57 -342 -75
-616 -83 -1216 -9 -758 21 -1364 93 -1870 51 -358 161 -578 332 -662 60 -30
72 -32 156 -31 59 1 124 10 186 26 52 14 97 23 98 22 2 -2 -4 -39 -13 -82 -23
-109 -31 -322 -15 -435 56 -415 348 -703 743 -736 l82 -7 18 -70 c36 -141 117
-271 234 -380 l54 -50 -223 3 c-310 5 -453 -23 -542 -106 -144 -136 -46 -439
238 -730 466 -480 1221 -793 2056 -855 l165 -12 -225 -112 c-461 -229 -652
-404 -653 -596 0 -77 20 -119 100 -215 277 -329 673 -477 1260 -471 l222 3 58
-55 c67 -64 178 -149 313 -240 l95 -64 -210 -7 c-785 -25 -1297 -233 -1415
-574 -63 -182 -21 -382 106 -510 127 -127 309 -195 602 -225 149 -16 555 -5
772 20 96 11 176 18 178 16 2 -2 -61 -102 -141 -222 -284 -428 -455 -738 -550
-993 -95 -255 -106 -436 -37 -576 36 -73 72 -107 155 -144 335 -152 832 38
1308 499 157 152 281 299 407 482 l49 71 39 -83 c169 -366 568 -751 887 -856
110 -36 253 -38 338 -4 139 55 284 256 345 481 36 133 45 219 39 392 -6 185
-27 298 -86 476 -22 67 -32 112 -26 112 6 0 54 -18 106 -40 510 -219 892 -254
1014 -94 107 140 68 413 -100 699 -228 388 -712 774 -1280 1021 -60 26 -114
51 -118 55 -5 4 7 24 25 45 19 22 146 164 282 317 136 154 252 290 257 304 10
28 -4 193 -23 271 -21 84 -92 132 -149 101 -60 -32 -400 -288 -539 -405 -108
-92 -125 -110 -194 -216 -31 -47 -75 -107 -98 -133 l-43 -47 -65 37 c-36 20
-114 61 -173 91 -93 47 -124 74 -85 74 23 0 202 91 285 146 211 136 405 347
550 597 54 92 25 95 273 -27 543 -268 1008 -469 1212 -526 85 -24 168 -26 207
-5 74 38 124 293 86 438 -27 105 -47 119 -295 212 -69 26 -129 51 -133 55 -4
4 18 17 50 28 73 27 173 86 228 135 53 46 53 46 60 0 24 -142 81 -350 144
-519 23 -61 41 -118 41 -127 0 -8 -23 -66 -51 -129 -276 -609 -349 -1253 -194
-1714 45 -136 79 -202 191 -369 115 -173 171 -286 218 -436 55 -176 86 -202
215 -178 73 13 173 10 426 -12 268 -22 866 -2 1060 37 479 96 949 464 1285
1008 l54 88 41 -6 c22 -3 85 -12 140 -21 280 -42 559 2 730 117 144 96 261
265 303 436 9 39 20 72 23 72 4 0 31 -33 61 -72 415 -552 1119 -787 1933 -648
66 11 220 45 344 75 244 58 319 71 481 80 197 12 265 32 327 97 42 43 64 96
123 288 26 87 60 185 75 217 109 232 148 326 189 451 105 320 122 640 52 953
l-23 102 38 76 c105 210 124 444 54 684 -36 127 -39 117 35 142 270 92 471
262 528 445 24 76 23 289 -2 380 -37 141 -90 262 -177 406 -27 45 -49 86 -49
90 1 5 38 34 83 64 287 193 563 432 709 615 259 325 268 590 28 834 -148 152
-335 217 -600 209 -98 -2 -120 0 -120 11 0 8 31 141 69 295 257 1037 441 1927
627 3023 l47 283 106 41 c708 276 1170 587 1171 789 0 87 -79 185 -203 251
-138 73 -468 167 -807 229 -96 17 -176 33 -178 35 -2 1 61 47 140 101 920 630
1556 1193 1782 1579 127 217 122 429 -12 532 -296 225 -1114 -100 -2557 -1015
-137 -88 -251 -158 -253 -157 -2 2 54 85 123 186 241 350 441 706 493 874 79
262 43 427 -110 496 -269 120 -731 -207 -1364 -967 -200 -241 -473 -636 -635
-918 l-74 -129 -8 34 c-75 295 -190 490 -335 567 -129 69 -234 63 -300 -16
-187 -224 -363 -664 -431 -1074 -72 -435 -29 -936 114 -1320 19 -51 35 -94 35
-95 0 -1 -34 -18 -75 -37 -86 -40 -231 -133 -350 -225 -43 -33 -82 -61 -86
-61 -14 0 -83 461 -118 795 -59 551 -83 959 -85 1439 l-1 329 155 67 c285 123
315 137 555 258 836 422 1631 950 2447 1627 88 73 104 82 180 103 244 67 412
224 509 477 166 429 98 1017 -188 1630 -479 1027 -1516 2053 -2968 2937 -1950
1187 -3898 1766 -5680 1687z m945 -154 c971 -88 1988 -358 3000 -795 172 -74
430 -197 430 -203 0 -3 -20 -39 -44 -79 -384 -651 -145 -1484 554 -1933 543
-349 1316 -424 1950 -190 138 50 307 135 410 204 l75 51 165 -168 c772 -781
1241 -1631 1300 -2357 24 -288 -37 -561 -164 -739 -224 -314 -565 -355 -2991
-356 -1577 -1 -2268 -27 -3250 -126 -930 -93 -1780 -261 -2480 -491 -285 -93
-486 -173 -870 -343 -754 -335 -1470 -552 -2080 -632 -231 -30 -715 -33 -900
-5 -663 99 -1118 434 -1289 947 -99 298 -110 601 -45 1285 32 340 87 780 105
834 3 9 44 -26 117 -100 363 -367 825 -598 1356 -676 160 -23 484 -23 646 1
771 113 1420 585 1761 1281 313 641 315 1387 3 2014 -354 712 -1035 1193
-1829 1291 -46 5 -106 10 -132 10 -27 0 -48 4 -48 9 0 13 217 194 355 296 768
572 1754 917 2810 985 211 13 878 4 1085 -15z m3925 -1243 c729 -385 1459
-857 1940 -1257 130 -107 286 -240 349 -298 l59 -53 -90 -57 c-564 -356 -1351
-395 -1969 -97 -825 398 -1115 1216 -677 1913 l23 37 83 -41 c45 -23 172 -89
282 -147z m-7913 -192 c695 -102 1314 -557 1625 -1198 150 -309 218 -611 217
-967 -1 -347 -63 -620 -214 -930 -315 -649 -931 -1094 -1675 -1211 -149 -23
-469 -23 -615 0 -515 82 -940 303 -1286 669 -56 59 -113 124 -127 145 l-26 37
28 145 c260 1314 776 2396 1536 3214 l119 129 141 -7 c77 -3 202 -15 277 -26z
m-5256 -2390 c494 -126 998 -703 1506 -1725 55 -110 101 -201 103 -203 2 -2
28 1 57 7 l54 12 12 152 c18 236 62 379 152 498 82 109 176 159 300 159 267 0
513 -273 640 -710 12 -41 28 -98 36 -125 14 -44 14 -72 0 -240 -44 -557 -43
-793 4 -1037 52 -269 194 -552 370 -741 69 -74 71 -77 48 -86 -337 -130 -725
-312 -997 -466 -73 -42 -135 -75 -137 -73 -1 2 -39 89 -83 193 -325 774 -647
1395 -992 1913 -112 167 -298 422 -309 422 -14 0 -90 -63 -90 -75 0 -7 17 -34
39 -61 398 -504 826 -1283 1230 -2239 94 -222 95 -225 85 -234 -5 -4 -52 -36
-104 -71 -433 -290 -811 -650 -1049 -1000 -71 -105 -172 -278 -205 -355 l-26
-57 -37 23 c-210 126 -346 233 -500 392 -234 244 -350 477 -341 685 7 162 69
253 222 327 51 25 97 45 103 45 14 0 23 34 23 86 l0 42 -62 22 c-244 90 -513
262 -688 440 -154 157 -262 334 -312 516 -34 123 -31 349 5 459 107 321 391
493 782 471 l110 -6 28 46 28 46 -75 137 c-497 906 -664 1765 -429 2203 39 72
132 170 182 190 102 42 200 48 317 18z m16264 -2824 c0 -2 -69 -58 -152 -124
-84 -66 -178 -140 -208 -164 -30 -23 -100 -76 -155 -116 l-100 -74 -75 7
c-455 40 -920 177 -1300 380 l-55 30 650 6 c358 3 713 9 790 13 192 10 559 37
564 42 6 5 41 5 41 0z m-2241 -98 c173 -109 507 -261 741 -338 197 -64 593
-150 693 -150 l32 0 -25 -24 c-14 -13 -126 -92 -250 -176 l-225 -152 -70 7
c-341 31 -795 280 -1324 726 -68 57 -132 110 -142 118 -11 7 -19 17 -19 22 0
5 118 9 261 9 l262 0 66 -42z m-832 -105 c-36 -745 -47 -1137 -47 -1623 0
-1343 102 -2374 329 -3310 22 -91 46 -186 54 -212 8 -27 13 -48 10 -48 -3 0
-42 34 -86 76 -411 382 -864 614 -1370 701 -160 28 -559 25 -728 -5 -558 -100
-1099 -385 -1569 -826 -713 -670 -922 -1420 -569 -2042 171 -299 520 -619 894
-819 135 -73 140 -44 -42 -229 -764 -774 -1136 -1311 -1160 -1676 l-6 -85
-196 -48 c-108 -26 -229 -61 -270 -78 -41 -16 -75 -28 -77 -26 -2 2 12 48 32
103 138 386 203 737 211 1146 11 509 -65 899 -274 1403 -194 469 -330 818
-409 1047 l-22 67 53 243 c105 481 157 847 159 1129 l1 187 385 -6 c728 -9
1156 48 1555 207 464 185 813 634 937 1206 34 151 33 514 0 663 -119 532 -456
978 -1016 1346 -471 310 -970 512 -1764 716 l-43 11 7 142 c3 78 9 145 13 148
26 25 584 180 911 253 1018 228 2436 366 3844 374 l259 2 -6 -137z m428 -199
c291 -232 507 -374 759 -501 119 -60 338 -143 378 -143 9 0 19 -4 22 -9 10
-15 -458 -287 -719 -419 -93 -47 -77 -54 -187 78 -187 223 -372 547 -507 889
-37 93 -41 112 -41 191 0 48 3 101 6 118 l6 31 92 -78 c50 -42 136 -113 191
-157z m3316 -24 c82 -23 108 -86 84 -204 -54 -261 -294 -680 -721 -1259 -85
-114 -154 -214 -154 -220 0 -7 19 -32 43 -55 l43 -42 99 67 c1311 877 2372
1414 2751 1391 216 -14 264 -190 117 -438 -173 -293 -682 -752 -1403 -1265
-69 -49 -147 -105 -175 -125 -27 -20 -141 -99 -253 -174 -153 -104 -202 -142
-198 -154 3 -10 10 -38 16 -63 l12 -46 171 -27 c621 -98 1087 -253 1087 -362
0 -31 -77 -123 -163 -191 -135 -110 -293 -204 -522 -311 -199 -92 -423 -184
-434 -178 -3 3 1 71 11 153 22 197 23 431 2 503 -33 111 -104 145 -193 93
-322 -187 -1018 -900 -1528 -1566 -43 -55 -43 -55 -110 -63 -159 -17 -400 15
-588 77 -183 61 -438 201 -646 355 -76 57 -92 64 -132 64 l-45 0 -257 -265
c-142 -146 -261 -263 -265 -260 -11 7 -64 261 -57 277 7 20 174 153 278 224
94 63 172 104 254 135 46 17 59 28 76 61 24 47 24 46 -31 198 -103 286 -144
527 -144 850 0 231 9 321 55 555 55 274 251 742 362 863 30 32 91 30 148 -6
148 -94 259 -352 288 -670 4 -51 12 -96 15 -100 4 -4 35 -7 68 -7 l60 0 23 61
c177 469 853 1392 1330 1814 281 250 483 350 626 310z m-3534 -470 c126 -248
258 -451 411 -629 l43 -50 -88 -44 c-90 -46 -292 -137 -417 -189 l-69 -28 7
482 c5 424 13 645 22 636 1 -2 42 -82 91 -178z m-5369 50 c-3 -55 -7 -102 -9
-104 -5 -5 -318 60 -325 67 -5 5 305 133 330 136 5 1 7 -44 4 -99z m-483 -155
c1791 -304 2943 -977 3250 -1897 62 -189 79 -290 79 -498 1 -314 -75 -589
-231 -838 -226 -361 -483 -543 -928 -657 -477 -122 -1157 -145 -1970 -64 -561
55 -1395 183 -1423 217 -25 31 -8 144 53 342 83 273 84 364 2 424 -40 30 -141
34 -198 9 -75 -33 -159 -114 -294 -279 -71 -88 -166 -195 -210 -240 -77 -78
-83 -81 -160 -102 -281 -75 -1039 -163 -1780 -207 -1551 -91 -2758 -29 -2985
154 -52 41 -77 84 -109 185 -129 404 -5 946 334 1451 441 659 1210 1206 2293
1634 l152 60 83 -55 c233 -157 535 -260 897 -306 155 -19 588 -16 770 6 445
53 880 154 1350 313 265 89 613 225 828 323 102 46 84 44 197 25z m9681 -2502
c45 -361 -322 -2373 -738 -4048 -49 -198 -87 -369 -84 -381 3 -12 21 -35 40
-52 32 -28 37 -29 83 -20 84 17 329 14 402 -5 148 -40 272 -139 346 -277 39
-72 40 -78 40 -170 0 -86 -3 -101 -32 -162 -107 -226 -396 -502 -843 -803
-111 -75 -115 -79 -128 -126 -13 -49 -13 -49 26 -107 162 -243 233 -428 233
-614 1 -165 -48 -267 -177 -365 -74 -57 -231 -129 -346 -159 -64 -17 -67 -20
-88 -64 l-22 -47 32 -99 c74 -232 80 -433 17 -583 l-15 -35 -71 143 c-79 160
-180 317 -303 469 l-82 103 -2 142 c-2 239 -69 412 -223 579 -67 72 -211 175
-287 204 -24 9 -44 23 -44 31 0 8 18 81 39 162 22 80 65 243 96 361 31 118 74
278 95 355 21 77 71 257 110 400 328 1189 702 2358 1042 3260 73 193 268 686
320 810 128 303 275 641 301 692 10 18 17 38 17 45 0 12 -88 56 -93 47 -19
-30 -203 -451 -322 -734 -365 -874 -831 -2214 -1120 -3220 -13 -44 -59 -204
-103 -355 -140 -484 -282 -1002 -447 -1636 -44 -168 -44 -168 -77 -155 -13 5
-71 17 -129 26 -57 10 -105 19 -107 20 -3 2 -102 540 -153 825 -16 91 -31 177
-34 191 -5 23 -1 28 42 44 169 63 343 180 428 286 240 301 289 524 184 849
-34 105 -139 312 -259 510 l-111 184 32 111 c248 856 933 1918 1834 2844 160
163 372 362 485 454 69 55 171 127 181 127 4 0 11 -26 15 -57z m-17858 -242
c51 -26 145 -128 224 -242 135 -194 232 -356 688 -1154 277 -486 505 -870 727
-1225 57 -91 103 -172 103 -180 0 -8 -22 -50 -49 -92 -438 -683 -422 -1204 44
-1433 237 -116 621 -154 1019 -100 65 9 121 14 123 11 5 -5 -44 -342 -70 -484
l-12 -63 -55 -19 c-146 -49 -191 -212 -106 -383 19 -40 45 -88 57 -107 19 -30
21 -44 15 -93 -4 -31 -11 -57 -16 -57 -15 0 -215 161 -346 280 -707 641 -1420
1761 -1894 2976 -194 496 -324 964 -356 1277 l-6 67 -55 0 -54 0 6 -62 c71
-697 532 -1873 1118 -2853 456 -763 1041 -1446 1520 -1774 27 -18 50 -38 53
-45 5 -12 -22 -305 -28 -311 -2 -2 -57 8 -123 21 -66 14 -249 46 -406 73 -310
53 -314 54 -458 149 -190 125 -284 259 -313 449 -11 68 -15 77 -49 104 -35 27
-42 29 -126 29 -279 0 -513 152 -613 399 -49 121 -63 214 -57 380 5 143 11
175 72 396 4 14 -6 34 -33 65 l-39 45 -150 -38 c-256 -64 -317 -61 -400 22
-149 149 -223 565 -264 1490 -16 357 -6 1345 15 1611 37 449 73 661 138 797
42 90 85 110 156 74z m6932 -346 c16 -20 10 -51 -51 -248 -70 -227 -85 -312
-71 -389 12 -63 38 -111 76 -139 30 -23 1037 -189 1145 -189 12 0 13 -8 42
-245 51 -424 131 -814 245 -1185 31 -102 56 -196 56 -210 0 -13 6 -29 13 -35
7 -5 23 -41 35 -80 43 -134 180 -494 281 -736 169 -410 218 -535 255 -657 204
-672 187 -1352 -53 -2052 -91 -266 -116 -317 -192 -395 -165 -168 -243 -363
-254 -634 -5 -101 -5 -104 -40 -146 -82 -98 -236 -188 -374 -219 -118 -26
-150 -22 -368 48 -307 98 -464 145 -650 192 l-170 42 -7 89 c-68 823 -589
1833 -1066 2065 -166 81 -330 20 -411 -152 -24 -51 -26 -64 -25 -185 2 -130
19 -222 78 -407 8 -27 13 -48 10 -48 -2 0 -75 46 -162 101 -86 56 -240 153
-342 216 -102 63 -201 126 -222 139 -95 61 -149 403 -128 819 21 419 66 792
200 1640 106 678 131 840 164 1100 62 474 86 747 86 986 l0 126 123 12 c542
54 1005 132 1134 193 59 28 176 145 303 303 205 256 297 332 340 280z m7911
-548 c373 -283 823 -456 1187 -457 39 0 72 -2 72 -4 0 -3 -60 -94 -133 -203
-334 -497 -612 -1045 -727 -1433 -13 -41 -25 -79 -27 -83 -3 -5 -146 202 -318
460 -173 257 -356 522 -407 588 -51 66 -99 133 -106 149 -19 42 -132 436 -132
458 0 21 516 558 536 558 6 0 31 -15 55 -33z m-2127 -112 c625 -117 1126 -443
1632 -1060 117 -142 710 -1024 928 -1380 282 -459 361 -704 297 -925 -47 -166
-198 -371 -339 -463 -217 -141 -540 -233 -997 -283 -243 -27 -813 -25 -1109 4
-833 82 -1546 272 -2140 570 -887 443 -1297 1040 -1157 1681 116 532 543 1048
1219 1474 344 217 687 341 1107 401 76 11 473 -2 559 -19z m-7827 -367 c-3
-123 -15 -311 -27 -418 -26 -248 -59 -516 -69 -554 l-7 -29 -32 29 c-27 24
-36 42 -48 104 -39 186 -159 496 -325 839 -55 112 -97 206 -95 209 3 2 94 10
203 18 109 7 216 15 238 17 22 2 69 4 104 5 l64 2 -6 -222z m-629 -75 c66
-137 148 -315 181 -397 58 -141 125 -345 117 -353 -2 -2 -30 13 -62 33 -101
65 -354 181 -495 228 -214 71 -471 116 -667 116 -70 0 -80 3 -156 45 -117 66
-167 99 -296 194 -112 82 -370 330 -370 354 0 9 122 11 517 9 285 -1 604 2
708 6 105 5 238 10 296 10 l105 2 122 -247z m4157 97 c83 -7 155 -14 162 -15
30 -9 29 -279 -2 -540 -33 -277 -124 -769 -139 -754 -20 20 -135 510 -176 744
-26 155 -70 493 -70 546 l0 42 38 -6 c20 -3 105 -11 187 -17z m-4908 -627 c-4
-10 -19 -52 -34 -93 -39 -106 -41 -306 -4 -419 102 -310 459 -497 773 -405
189 56 357 217 431 415 3 10 17 2 47 -28 l43 -41 -42 -279 c-46 -312 -76 -491
-82 -497 -2 -3 -40 13 -84 34 -195 95 -413 93 -614 -7 -288 -143 -428 -486
-322 -788 11 -30 16 -55 12 -55 -3 0 -137 -23 -295 -50 -611 -106 -736 -122
-976 -122 -345 0 -563 65 -713 213 -147 147 -180 346 -100 612 27 91 38 101
69 65 65 -73 264 -166 414 -194 487 -88 950 244 950 681 0 190 -74 341 -236
486 -63 56 -207 138 -281 160 -24 7 -43 15 -43 19 0 11 154 108 248 155 215
106 420 153 681 154 151 1 163 0 158 -16z m239 -24 c232 -50 519 -172 728
-310 126 -83 123 -75 59 -211 -81 -174 -271 -289 -473 -287 -355 2 -611 372
-486 702 23 62 60 127 72 127 2 0 47 -9 100 -21z m-1290 -399 c171 -57 329
-203 387 -357 18 -48 22 -80 22 -183 0 -150 -18 -208 -96 -312 -237 -317 -786
-362 -1081 -88 l-63 59 40 77 c131 255 445 680 594 805 42 35 89 35 197 -1z
m1950 -944 c52 -14 149 -62 193 -95 l24 -18 -33 -219 c-17 -121 -34 -238 -37
-262 -7 -52 -14 -56 -123 -71 -102 -15 -627 -100 -655 -107 -16 -4 -25 3 -39
33 -73 150 -60 348 33 489 141 216 393 315 637 250z m114 -811 c0 -8 -9 -92
-20 -187 -70 -614 -78 -1001 -25 -1258 8 -36 12 -66 11 -67 -2 -2 -43 20 -92
49 -622 362 -1124 595 -1381 639 -49 8 -73 17 -73 26 0 15 77 503 86 546 3 15
9 27 12 27 4 0 99 16 212 35 267 46 1136 192 1175 198 68 9 95 7 95 -8z m6538
-574 c159 -79 510 -205 796 -286 439 -123 954 -207 1491 -243 l110 -7 47 -125
c164 -428 258 -777 258 -961 0 -118 -10 -148 -58 -175 -20 -12 -72 -47 -115
-78 -43 -31 -83 -56 -88 -56 -6 0 -42 27 -81 59 -39 33 -113 82 -165 108 -94
47 -96 48 -192 48 -116 0 -164 -20 -245 -99 -96 -94 -135 -222 -106 -347 16
-70 78 -201 124 -261 20 -26 36 -52 36 -58 0 -7 -34 -49 -76 -93 -42 -45 -105
-126 -142 -180 -36 -53 -69 -94 -72 -90 -4 5 -35 51 -70 103 -71 107 -123 173
-189 242 -42 44 -44 49 -29 65 41 45 179 290 208 369 44 117 48 234 12 302
-72 136 -230 233 -377 233 -182 0 -398 -145 -596 -399 l-26 -34 -91 31 c-428
147 -999 206 -1513 155 -90 -9 -182 -17 -204 -18 l-40 -1 3 55 c13 257 284
684 772 1215 122 133 542 555 552 555 5 0 34 -13 66 -29z m-8016 -370 c201
-52 574 -222 984 -447 357 -195 881 -514 1363 -828 141 -92 146 -93 195 -50
33 29 36 12 -38 229 -101 294 -114 503 -39 587 27 31 93 58 143 58 238 1 621
-483 865 -1090 120 -300 215 -715 215 -943 0 -60 4 -78 24 -108 23 -34 32 -38
123 -58 193 -43 877 -246 948 -281 11 -5 52 -19 90 -31 81 -24 457 -164 498
-186 44 -22 61 -73 54 -168 -6 -82 -30 -169 -52 -193 -42 -46 -717 234 -1457
604 -162 81 -179 77 -260 -69 -202 -365 -508 -633 -842 -736 -91 -28 -100 -27
-200 18 -365 169 -809 313 -1144 372 -232 42 -486 28 -604 -32 -144 -73 -190
-216 -117 -361 11 -21 19 -39 19 -42 0 -11 -211 -16 -328 -7 -410 32 -687 142
-897 355 -184 187 -191 252 -38 397 145 138 450 308 833 464 91 37 167 69 168
70 2 2 -2 29 -8 61 l-12 57 -111 -7 c-246 -15 -626 21 -945 90 -738 158 -1401
571 -1618 1009 -43 86 -48 104 -52 180 -6 117 18 143 161 170 406 75 1258 -54
2716 -412 211 -52 389 -92 396 -90 11 5 50 95 44 102 -2 2 -49 30 -104 63
-863 514 -1317 907 -1315 1139 1 49 36 112 72 129 43 19 166 13 270 -15z
m11848 -35 c0 -3 25 -141 56 -308 82 -450 122 -673 121 -674 -1 -1 -71 -7
-156 -13 -175 -14 -257 -27 -455 -77 -140 -35 -381 -121 -488 -175 -32 -16
-60 -29 -63 -29 -3 0 -5 24 -5 54 0 182 -111 603 -261 989 l-37 97 101 0 c347
0 827 52 1067 115 87 23 120 28 120 21z m-11942 -612 c148 -133 312 -258 550
-419 112 -75 202 -139 200 -140 -2 -2 -55 9 -118 25 -112 28 -558 132 -712
165 -91 20 -85 0 -63 205 8 74 18 163 21 198 4 34 9 62 11 62 2 0 52 -43 111
-96z m12308 -515 c631 -88 907 -583 669 -1200 -203 -526 -694 -1054 -1300
-1396 -431 -244 -995 -402 -1395 -391 l-105 3 -2 50 c-19 387 -168 897 -398
1354 -53 107 -56 115 -44 144 34 82 228 338 281 371 14 9 25 3 60 -30 90 -83
82 -81 120 -39 56 64 59 56 -70 183 -66 64 -137 143 -157 175 -101 161 -99
307 6 402 50 45 77 55 142 55 115 -1 213 -63 400 -252 l137 -140 50 42 c57 48
59 39 -18 122 -19 20 -31 41 -28 46 14 24 256 176 376 237 279 141 511 212
880 268 57 9 324 6 396 -4z m-3008 -165 c169 -84 197 -188 103 -381 -38 -78
-150 -255 -169 -267 -5 -3 -38 17 -73 46 -96 77 -224 159 -349 222 -61 32
-110 61 -108 66 7 20 143 170 191 211 167 143 272 170 405 103z m-1663 -204
c816 -61 1437 -369 1794 -889 397 -580 647 -1374 602 -1911 -13 -152 -30 -220
-80 -325 -141 -296 -419 -400 -876 -329 -55 9 -105 20 -111 25 -6 5 -14 53
-17 108 -62 940 -687 1615 -1674 1806 -523 102 -1113 27 -1411 -177 -24 -17
-48 -26 -52 -22 -5 5 -31 77 -59 159 -200 604 -144 1012 173 1248 150 111 317
171 691 247 293 59 700 83 1020 60z m5631 -842 c192 -267 317 -558 361 -843
22 -149 13 -424 -20 -565 -38 -158 -83 -290 -149 -434 -115 -252 -137 -305
-189 -467 -42 -129 -59 -171 -84 -195 -35 -36 -43 -38 -296 -55 -162 -11 -170
-11 -302 15 -360 70 -586 179 -745 360 -30 34 -57 67 -62 75 -7 11 -14 10 -43
-8 -76 -47 -73 -57 57 -187 137 -135 324 -240 541 -299 169 -47 144 -57 -70
-29 -516 67 -903 225 -1238 504 -99 83 -259 248 -252 260 3 4 32 13 66 19 279
55 728 244 1022 428 599 378 1102 968 1264 1482 l26 84 28 -33 c15 -18 54 -69
85 -112z m-6091 -777 c975 -167 1559 -780 1635 -1716 l9 -120 -31 -55 c-80
-142 -228 -345 -352 -483 -255 -285 -581 -479 -911 -542 -190 -37 -717 -46
-1046 -19 -179 15 -340 14 -415 -1 l-30 -7 -28 94 c-40 134 -122 299 -218 440
-199 292 -256 464 -265 804 -7 261 19 466 94 727 78 276 230 619 299 675 120
99 383 190 644 222 127 15 478 4 615 -19z m-2951 -228 c2 -10 8 -47 11 -83 l7
-65 -173 -195 c-96 -107 -233 -262 -306 -344 -141 -158 -144 -165 -120 -235
11 -30 21 -37 112 -73 263 -103 554 -262 779 -426 138 -100 363 -317 453 -437
229 -305 311 -603 195 -708 -114 -103 -479 -23 -996 217 -54 25 -106 46 -114
46 -19 0 -92 -68 -92 -86 0 -6 13 -41 30 -76 130 -289 186 -615 146 -857 -21
-126 -42 -187 -102 -300 -85 -162 -163 -226 -287 -237 -264 -24 -674 291 -901
693 -52 93 -116 258 -116 301 0 29 -20 41 -81 48 l-54 6 -70 -113 c-315 -512
-803 -936 -1195 -1040 -168 -45 -378 -25 -465 43 -124 97 -80 368 125 778 132
264 397 690 623 1003 l41 57 -17 33 c-10 17 -25 42 -35 53 l-17 22 -140 -18
c-877 -113 -1392 -42 -1527 212 -34 63 -34 249 0 322 118 258 479 407 1096
456 216 17 582 9 656 -15 11 -4 23 10 43 50 15 31 27 60 27 65 0 5 -33 28 -72
51 -287 165 -485 306 -621 442 -153 153 -170 233 -63 304 67 46 104 54 246 60
294 12 744 -107 1295 -342 113 -48 401 -189 566 -276 238 -126 246 -127 331
-36 33 34 93 112 133 173 83 124 155 191 398 372 266 197 243 183 251 155z
m6416 -891 c0 -14 133 -157 230 -247 290 -269 641 -453 1040 -546 69 -16 130
-29 135 -30 6 -1 -6 -5 -25 -10 -60 -17 -457 -23 -566 -10 -531 65 -943 316
-1214 738 l-50 78 142 7 c79 4 170 12 203 17 81 12 105 13 105 3z"/>
<path d="M12440 20369 c-1123 -62 -1989 -807 -1910 -1642 60 -634 641 -1178
1465 -1372 161 -38 317 -57 525 -62 444 -12 825 66 1196 247 776 377 1124
1075 863 1728 -236 592 -984 1052 -1779 1097 -58 3 -132 7 -165 9 -33 2 -121
0 -195 -5z m500 -154 c1074 -137 1770 -895 1544 -1682 -173 -605 -881 -1055
-1734 -1102 -1208 -66 -2188 653 -2081 1525 102 827 1141 1402 2271 1259z"/>
<path d="M17434 15037 c-69 -122 -173 -350 -276 -612 -106 -265 -338 -894
-338 -914 0 -6 -75 -71 -167 -144 -154 -123 -259 -212 -421 -355 -33 -29 -63
-49 -66 -44 -9 15 -94 365 -115 472 -20 109 -46 322 -57 473 l-6 87 -58 0
c-32 0 -61 -3 -63 -7 -9 -14 12 -264 34 -413 26 -183 48 -286 111 -527 l51
-193 -115 -122 c-122 -131 -218 -244 -218 -257 0 -4 21 -23 47 -41 l46 -33 31
35 c176 198 255 283 338 359 l97 90 58 -15 c96 -24 260 -55 393 -73 137 -19
703 -26 833 -10 l67 9 0 51 c0 78 1 77 -130 65 -284 -25 -759 2 -1018 56 -40
9 -76 16 -79 16 -27 0 357 315 619 508 l57 42 283 -15 c371 -19 770 -34 988
-36 l175 -3 3 61 3 61 -163 6 c-90 3 -302 10 -473 16 -298 10 -636 28 -642 34
-3 3 36 31 257 184 341 237 808 544 1243 816 31 20 57 38 57 41 0 2 -14 27
-31 55 -29 48 -33 50 -53 37 -11 -8 -86 -54 -166 -104 -494 -307 -1275 -833
-1523 -1026 -21 -16 -40 -28 -42 -25 -2 2 11 47 30 98 20 52 49 133 66 180
159 431 293 757 401 969 42 84 75 157 73 161 -5 8 -90 60 -97 60 -2 0 -21 -33
-44 -73z"/>
<path d="M5298 6795 c-21 -20 -38 -37 -38 -40 0 -9 280 -318 492 -542 120
-128 213 -233 206 -233 -7 0 -42 10 -78 21 -404 127 -1082 223 -1383 195 l-78
-8 3 -54 3 -54 245 -4 c248 -4 408 -19 619 -57 147 -26 432 -92 541 -125 47
-14 93 -27 103 -30 20 -6 23 -24 3 -24 -13 0 -279 -80 -381 -115 -354 -121
-714 -317 -887 -483 -46 -43 -46 -43 -7 -87 38 -43 47 -43 85 -4 198 210 729
455 1290 594 l151 37 114 -40 c107 -38 321 -119 417 -158 23 -9 42 -20 42 -24
0 -17 -366 -244 -587 -364 -312 -169 -635 -297 -900 -356 -105 -23 -102 -20
-90 -80 11 -57 11 -57 114 -36 393 84 931 336 1461 688 74 48 140 88 147 88
16 0 256 -107 469 -209 82 -39 150 -71 152 -71 4 0 44 91 44 100 0 4 -88 49
-195 101 l-195 93 0 162 c0 329 -49 584 -151 787 l-29 57 -50 -25 c-28 -14
-50 -28 -50 -32 0 -3 14 -36 31 -72 89 -188 137 -453 139 -766 0 -59 -8 -59
-131 -6 -162 69 -473 191 -607 237 l-114 39 -192 200 c-215 224 -384 406 -560
603 -65 72 -122 132 -125 132 -3 0 -23 -16 -43 -35z"/>
<path d="M16345 6219 c-16 -10 -34 -20 -38 -22 -4 -1 4 -29 19 -61 66 -144
-22 -246 -212 -246 l-72 0 -4 -46 c-4 -59 12 -69 101 -61 129 11 233 72 285
167 36 66 35 166 -3 243 -25 52 -32 54 -76 26z"/>
<path d="M15387 5683 c-40 -11 -47 -17 -41 -31 4 -9 9 -46 11 -82 6 -82 -18
-123 -92 -160 -74 -37 -236 -36 -348 3 -42 15 -81 27 -86 27 -9 0 -41 -71 -41
-89 0 -25 203 -71 309 -71 276 1 416 143 360 366 -14 55 -14 55 -72 37z"/>
<path d="M16137 5304 c-4 -4 -7 -40 -7 -79 0 -225 -150 -343 -356 -280 -66 20
-73 19 -84 -10 -27 -70 -27 -70 42 -90 195 -57 369 9 456 173 36 67 55 155 50
232 l-3 55 -45 3 c-25 2 -49 0 -53 -4z"/>
<path d="M14954 4511 c-2 -2 -4 -26 -4 -53 0 -174 -135 -234 -356 -160 -49 17
-92 28 -96 26 -3 -2 -13 -24 -21 -49 l-16 -45 36 -15 c119 -50 295 -64 389
-32 99 34 162 127 171 253 l6 72 -52 3 c-29 2 -55 2 -57 0z"/>
<path d="M10803 5864 c-12 -31 5 -142 30 -197 55 -121 146 -181 273 -181 75 0
161 32 198 73 17 19 17 21 -9 55 -33 43 -38 44 -94 6 -130 -88 -291 16 -291
189 0 52 -2 59 -22 65 -41 11 -78 6 -85 -10z"/>
<path d="M12070 5691 c-34 -6 -34 -6 -31 -56 6 -100 48 -191 120 -258 111
-104 263 -130 438 -76 68 21 72 28 49 84 -17 41 -13 40 -95 15 -35 -11 -91
-21 -125 -21 -166 -3 -256 85 -281 274 -7 50 -6 50 -75 38z"/>
<path d="M10153 5378 c9 -124 56 -198 149 -238 103 -44 256 -10 362 82 l38 33
-34 39 -34 39 -55 -41 c-72 -54 -117 -72 -183 -72 -89 0 -136 62 -136 183 l0
47 -56 0 -57 0 6 -72z"/>
<path d="M12396 4674 c-10 -25 -7 -166 4 -224 21 -112 86 -211 164 -253 75
-40 238 -21 313 36 11 8 -11 71 -33 95 -1 2 -33 -8 -70 -23 -116 -46 -192 -26
-244 66 -23 40 -25 57 -28 182 l-4 137 -48 0 c-34 0 -50 -4 -54 -16z"/>
<path d="M7175 3613 c-60 -53 -193 -171 -294 -262 -101 -91 -196 -176 -210
-188 -23 -18 -48 -23 -181 -32 -144 -11 -716 -72 -994 -106 -66 -8 -127 -15
-134 -15 -11 0 -13 -12 -7 -57 4 -32 8 -59 10 -61 1 -2 74 6 161 17 227 29
897 101 939 101 44 0 44 -11 3 -45 -55 -45 -305 -315 -373 -401 -62 -79 -165
-232 -165 -246 0 -3 21 -18 47 -33 56 -31 46 -37 125 87 70 110 193 252 394
457 l181 184 85 -164 c47 -90 184 -361 304 -601 120 -241 225 -438 232 -438
19 0 92 39 92 50 0 9 -582 1168 -607 1208 -14 23 -12 26 59 91 93 86 317 283
436 385 50 43 92 84 92 90 0 15 -62 76 -75 75 -6 0 -59 -43 -120 -96z"/>
</g>
</svg>
