<svg xmlns="http://www.w3.org/2000/svg" viewBox="0 0 2350 3100" fill="#333" role="img" aria-label="line art">
<g transform="translate(0.000000,3100.000000) scale(0.100000,-0.100000)"
fill="#333" stroke="none">
<path d="M15400 30939 c-1192 -431 -2136 -834 -3180 -1360 -3491 -1756 -6518
-4238 -9086 -7449 -1060 -1325 -2046 -2784 -2947 -4362 l-187 -326 0 -249 0
-248 46 85 c1212 2238 2727 4406 4338 6210 355 397 1093 1175 1247 1315 24 21
116 109 204 195 1398 1358 3044 2627 4719 3638 1700 1025 3431 1823 5411 2493
l350 118 -375 0 -375 0 -165 -60z"/>
<path d="M0 30693 l0 -119 193 -1 c207 0 332 -11 497 -44 462 -91 959 -341
1248 -628 246 -245 391 -529 412 -810 11 -145 24 -182 70 -206 41 -21 79 -19
144 10 131 58 405 81 577 50 436 -81 894 -385 1074 -714 56 -102 73 -107 325
-82 256 25 681 -20 976 -103 247 -69 528 -194 714 -316 383 -253 561 -544 460
-755 -65 -136 -299 -309 -580 -428 -586 -248 -1467 -377 -2610 -382 -321 -1
-472 -5 -486 -13 -39 -21 -51 -53 -56 -152 -3 -72 -11 -110 -30 -158 -122
-297 -393 -481 -848 -577 -321 -68 -806 -33 -1064 77 -109 47 -138 47 -232 -1
-133 -67 -344 -124 -648 -175 l-131 -22 -3 -118 -3 -117 48 6 c281 38 616 117
775 184 l77 32 123 -39 c146 -48 309 -77 521 -93 417 -32 903 78 1206 274 200
130 379 373 428 585 l17 72 316 0 c1285 1 2336 186 2925 516 406 228 578 500
501 794 -138 531 -947 1023 -1846 1125 -173 20 -502 29 -603 18 l-79 -9 -31
45 c-249 368 -733 674 -1197 756 -153 27 -422 17 -576 -21 -18 -5 -21 2 -32
72 -28 176 -131 412 -257 589 -212 296 -466 502 -861 695 -414 204 -747 285
-1221 297 l-233 6 0 -120z"/>
<path d="M23420 30344 c-41 -8 -129 -24 -195 -35 -660 -114 -1574 -295 -2195
-434 -380 -85 -414 -93 -670 -154 -1219 -290 -2381 -620 -3550 -1010 -4574
-1527 -8423 -3759 -11570 -6710 -224 -210 -1029 -1015 -1231 -1231 -1483
-1586 -2781 -3342 -3880 -5248 l-129 -224 2 -240 3 -241 54 99 c1550 2818
3575 5359 5936 7449 2535 2245 5518 4049 8945 5410 468 187 999 386 1345 505
61 21 223 77 360 125 1213 419 2734 849 4161 1175 820 188 1841 391 2587 516
l107 18 0 123 c0 68 -1 122 -2 122 -2 -1 -37 -8 -78 -15z"/>
<path d="M23220 27309 c-3338 -617 -6114 -1394 -8780 -2459 -6347 -2535
-11089 -6434 -14252 -11719 l-188 -315 0 -240 0 -241 46 80 c167 290 328 564
462 785 1550 2547 3494 4780 5818 6681 3481 2848 7841 4966 13049 6336 392
103 1110 281 1340 332 50 11 180 40 290 66 110 25 263 59 340 76 77 16 160 34
184 40 242 56 1208 247 1756 347 l210 38 3 122 c1 67 -1 122 -5 121 -4 -1
-127 -23 -273 -50z"/>
<path d="M23380 23599 c-1644 -192 -3371 -482 -4850 -814 -113 -25 -245 -55
-295 -66 -173 -39 -672 -161 -945 -231 -151 -39 -286 -73 -300 -75 -14 -2 -97
9 -185 26 -873 163 -1992 159 -2900 -11 -948 -177 -1803 -501 -2625 -996 -868
-523 -1675 -1288 -2228 -2113 l-71 -107 -128 -73 c-70 -40 -250 -145 -398
-234 -2800 -1672 -5176 -3744 -7156 -6240 -123 -156 -169 -214 -360 -465 -216
-282 -573 -782 -801 -1119 l-138 -205 0 -328 0 -328 73 0 c214 -1 551 -38 758
-85 831 -187 1676 -870 2016 -1630 113 -252 228 -669 262 -948 18 -150 39
-163 271 -159 459 9 944 -125 1300 -358 372 -244 594 -512 685 -825 44 -153
74 -176 202 -157 277 41 736 50 993 18 915 -111 1873 -544 2212 -1000 281
-378 225 -809 -157 -1191 -225 -226 -556 -413 -885 -499 -356 -94 -1334 -205
-1989 -225 -249 -8 -277 -14 -306 -71 -21 -41 -19 -75 11 -160 l25 -73 -17
-71 c-23 -96 -54 -155 -112 -213 -165 -165 -445 -269 -892 -332 -572 -80 -999
-64 -1416 54 -150 43 -339 109 -598 210 -254 99 -256 99 -346 45 -120 -72
-486 -184 -751 -229 -405 -69 -838 -97 -1191 -78 l-148 8 0 -114 0 -114 38 -7
c86 -14 463 -18 627 -7 355 25 649 64 890 117 175 39 494 139 592 186 l61 29
249 -94 c582 -222 819 -274 1290 -284 525 -11 1115 80 1412 218 l84 39 40 -27
c219 -152 411 -410 559 -754 84 -195 97 -215 148 -230 55 -17 106 10 140 73
36 66 54 83 145 137 101 61 186 94 317 126 324 76 602 52 808 -72 86 -52 123
-47 202 24 68 61 205 132 338 176 373 123 866 -6 1182 -311 193 -186 279 -365
264 -548 -6 -82 -45 -213 -87 -296 -39 -77 -39 -136 -1 -179 25 -28 35 -32
114 -40 47 -5 108 -16 134 -25 129 -44 320 -150 431 -240 l41 -34 173 0 173 0
-49 51 c-174 179 -490 380 -698 445 -31 10 -57 22 -57 28 0 6 12 47 26 91 38
116 45 299 16 412 -88 347 -443 693 -860 837 -213 74 -475 103 -677 77 -157
-21 -434 -127 -548 -211 l-37 -27 -84 34 c-144 57 -225 74 -396 80 -311 11
-617 -59 -832 -189 -40 -24 -84 -51 -97 -59 -21 -12 -24 -12 -29 1 -3 8 -33
71 -68 139 -119 232 -273 439 -416 561 -40 34 -79 68 -86 75 -11 10 -3 22 41
68 106 108 172 261 185 427 l7 85 90 2 c514 14 1610 137 1944 219 620 152
1162 564 1363 1036 112 265 108 559 -13 817 -203 434 -740 813 -1539 1089
-585 201 -1183 278 -1769 228 -106 -10 -194 -16 -196 -14 -1 2 -10 28 -20 58
-149 466 -698 940 -1316 1139 -267 85 -654 149 -848 139 l-65 -3 -27 140 c-90
468 -234 859 -425 1156 l-44 69 27 11 c98 38 420 91 663 109 495 37 855 -21
1169 -186 304 -160 464 -341 611 -689 70 -167 114 -193 238 -141 104 43 204
60 362 60 275 0 528 -66 709 -185 135 -89 169 -90 256 -8 99 93 340 216 540
274 437 126 925 -27 1291 -406 188 -195 241 -341 231 -637 l-5 -174 33 -37
c44 -47 100 -50 162 -9 58 38 148 66 272 85 230 35 555 -29 772 -151 l46 -26
7 -88 c3 -48 15 -279 27 -514 l21 -428 -41 -42 c-80 -81 -77 -72 -196 -605
-117 -523 -116 -578 10 -712 l63 -66 -14 -150 c-7 -83 -32 -355 -54 -605 -22
-250 -52 -585 -67 -745 -17 -189 -27 -356 -27 -480 -1 -188 -1 -191 26 -241
56 -107 150 -162 595 -353 959 -410 1987 -665 3073 -761 316 -27 570 -40 820
-40 l215 0 60 29 c81 38 145 97 182 168 29 52 148 371 564 1508 168 459 162
445 192 445 85 0 207 90 256 189 16 31 42 120 60 201 18 80 37 162 42 183 l10
37 67 0 c37 0 106 -9 153 -20 92 -20 527 -179 718 -262 94 -41 120 -49 149
-43 47 9 84 50 105 116 52 167 247 366 530 542 191 118 469 230 640 257 123
20 314 9 408 -24 90 -31 114 -32 156 -6 49 30 55 51 58 199 2 114 6 150 29
226 97 324 340 607 639 745 243 111 529 164 764 140 258 -26 461 -107 740
-296 50 -34 105 -65 122 -69 49 -10 109 24 151 87 94 141 201 250 415 428 142
118 116 110 342 110 284 0 507 25 777 85 l109 24 72 -34 c57 -28 274 -95 308
-95 4 0 7 54 7 119 l0 119 -52 12 c-84 20 -159 50 -213 87 -53 36 -99 42 -165
23 -67 -20 -326 -69 -450 -87 -175 -24 -556 -24 -695 0 -405 71 -807 216
-1009 366 -80 59 -119 65 -227 32 -35 -11 -149 -44 -254 -75 -104 -30 -230
-67 -280 -81 -316 -92 -612 -126 -1082 -126 -476 1 -753 48 -1053 181 -174 78
-427 238 -416 265 2 6 78 112 168 236 641 875 1374 1881 1436 1969 l74 105
171 93 c822 449 1490 987 2088 1682 494 576 885 1225 1169 1939 33 83 34 84
88 108 135 59 487 165 627 188 80 13 75 4 75 134 l0 118 -122 -23 c-128 -25
-323 -76 -447 -119 -41 -14 -76 -24 -77 -22 -1 1 13 54 32 117 195 643 284
1260 284 1970 0 1008 -196 1911 -611 2828 -359 793 -819 1459 -1467 2123 -85
88 -153 161 -151 163 6 5 208 33 449 61 656 76 1304 137 1820 170 135 9 255
18 268 21 21 4 22 8 22 119 l0 115 -54 0 c-63 0 -609 -41 -941 -70 -556 -50
-1181 -119 -1670 -185 -60 -8 -118 -15 -127 -15 -10 0 -50 28 -90 63 -564 488
-1306 949 -2007 1247 -315 134 -756 291 -1003 356 -60 16 -108 32 -108 35 0 6
83 27 510 129 794 190 1570 350 2565 529 138 25 865 145 1005 166 636 95 964
140 1738 236 l182 23 0 118 c0 135 15 122 -120 107z m-8270 -1374 c0 -2 -54
-32 -120 -65 -392 -200 -962 -646 -1333 -1045 -1058 -1134 -1849 -2675 -2301
-4481 -530 -2120 -460 -4350 188 -5994 157 -396 472 -965 681 -1226 30 -38 55
-73 55 -77 0 -20 -519 266 -777 429 -772 486 -1496 1168 -2015 1896 -517 726
-857 1453 -1072 2292 -256 992 -266 2054 -30 3046 93 391 189 680 349 1056
412 963 1051 1813 1880 2500 1031 854 2312 1413 3685 1608 282 40 810 80 810
61z m806 -5 c578 -46 996 -117 1539 -261 266 -71 723 -225 774 -261 10 -7 51
-51 91 -98 41 -47 130 -150 200 -230 323 -371 488 -619 672 -1013 448 -959
678 -2116 678 -3412 0 -2163 -656 -4432 -1765 -6110 -490 -742 -984 -1278
-1585 -1721 -192 -142 -439 -298 -545 -344 -22 -10 -125 -59 -230 -110 -104
-51 -199 -96 -210 -100 -67 -25 -843 47 -1198 111 -498 90 -1122 262 -1451
401 -87 36 -79 28 -379 383 -219 258 -374 506 -577 920 -642 1311 -847 3199
-554 5115 279 1833 964 3543 1933 4834 468 623 943 1077 1536 1468 170 112
370 217 596 311 84 36 183 79 219 96 73 35 76 35 256 21z m3033 -842 c1274
-663 2256 -1577 2968 -2763 461 -767 788 -1719 887 -2585 51 -440 59 -979 22
-1365 -168 -1726 -997 -3280 -2356 -4415 -977 -816 -2135 -1345 -3465 -1584
-238 -43 -707 -96 -840 -96 l-40 1 83 47 c190 107 514 336 727 511 916 757
1740 1960 2304 3364 486 1211 754 2387 853 3742 18 243 18 1168 0 1405 -80
1062 -284 1938 -637 2725 -174 390 -330 649 -559 933 -136 169 -139 172 -130
172 4 0 86 -41 183 -92z m-10323 -2780 c-387 -769 -630 -1595 -697 -2358 -6
-74 -13 -140 -14 -146 -2 -6 -122 -86 -267 -177 -1801 -1134 -3429 -2393
-5078 -3927 -322 -299 -1075 -1043 -1419 -1400 -119 -124 -224 -226 -233 -228
-9 -2 -59 6 -110 16 -192 41 -486 72 -684 72 -79 0 -104 3 -104 13 0 14 363
558 555 832 1993 2840 4480 5199 7450 7067 234 147 677 417 686 418 4 0 -35
-82 -85 -182z m-733 -2975 c-13 -372 48 -1028 132 -1434 189 -904 530 -1720
1040 -2489 256 -387 478 -663 828 -1033 l140 -149 18 -341 c10 -188 30 -567
44 -842 14 -275 43 -849 65 -1275 39 -748 44 -890 36 -890 -2 0 -35 12 -72 26
-100 38 -210 70 -311 90 -130 27 -415 26 -539 -2 l-91 -21 -6 81 c-18 256
-110 456 -302 655 -370 384 -850 571 -1321 511 -225 -28 -505 -135 -724 -277
-73 -48 -87 -54 -103 -43 -123 76 -285 137 -476 177 -166 35 -475 40 -606 9
-129 -30 -119 -35 -170 78 -215 475 -699 803 -1316 891 -367 53 -1061 -9
-1404 -124 l-60 -21 -55 63 c-323 369 -696 658 -1123 872 -92 46 -203 96 -247
112 -44 15 -80 31 -80 34 0 8 726 754 836 859 44 42 169 163 279 270 1362
1319 2854 2540 4415 3612 418 287 1142 758 1167 758 9 0 10 -39 6 -157z m2705
-5606 c881 -717 1967 -1262 3055 -1533 59 -14 107 -30 107 -35 0 -14 -12 -74
-501 -2413 -76 -368 -141 -671 -142 -673 -5 -5 -681 148 -688 155 -3 4 -11 62
-18 129 -40 401 -232 780 -549 1085 -340 326 -748 424 -1166 279 -33 -12 -63
-21 -67 -21 -10 0 -14 71 -44 670 -14 278 -34 678 -45 890 -31 589 -80 1555
-80 1563 0 14 14 5 138 -96z m7922 -1284 c0 -3 -22 -36 -48 -72 -27 -36 -293
-401 -592 -811 -298 -410 -547 -749 -551 -754 -5 -6 -24 24 -45 69 -39 85 -44
126 -30 250 6 61 5 74 -13 102 -36 57 -53 62 -297 88 -333 36 -770 111 -1049
181 -254 64 -479 158 -644 268 -95 64 -241 189 -231 199 3 3 52 1 110 -3 209
-18 662 -23 909 -11 660 32 1142 106 1776 272 140 37 641 200 675 220 18 10
30 11 30 2z m-4190 -392 c63 -11 171 -28 240 -36 68 -9 125 -17 126 -18 0 -1
23 -33 50 -72 211 -299 584 -526 1069 -649 269 -68 734 -152 1000 -181 214
-23 195 -15 195 -83 0 -96 40 -213 116 -344 l46 -77 -448 -613 c-246 -337
-587 -805 -758 -1040 -202 -277 -317 -427 -329 -428 -16 0 -263 55 -1342 296
-209 47 -467 105 -573 128 -106 24 -194 45 -197 47 -2 3 113 565 256 1249 142
685 286 1378 320 1540 34 162 64 299 66 303 3 5 15 6 27 3 11 -3 73 -14 136
-25z m-3100 -1516 c197 -41 355 -138 529 -321 232 -245 392 -574 417 -858 l7
-79 -29 7 c-16 4 -117 27 -224 51 -264 59 -923 207 -1095 245 -77 18 -145 36
-151 41 -6 5 -16 109 -23 266 -7 142 -16 321 -20 398 -9 161 -10 158 78 195
160 66 358 87 511 55z m6306 -315 c205 -157 537 -304 823 -364 271 -58 647
-78 1026 -57 395 23 584 57 1058 196 l329 96 51 -34 c167 -110 520 -252 787
-317 52 -13 97 -24 99 -26 2 -2 -9 -14 -25 -26 -107 -84 -281 -260 -356 -360
-12 -16 -21 -12 -113 43 -297 179 -522 254 -805 266 -360 16 -766 -100 -1042
-297 -293 -209 -520 -573 -571 -914 l-11 -78 -54 6 c-246 29 -424 5 -681 -90
-375 -141 -791 -437 -941 -671 -81 -128 -65 -118 -140 -87 -169 69 -545 205
-621 224 -46 12 -122 25 -169 28 -98 8 -92 -6 -58 137 15 62 22 123 22 195 1
112 -10 147 -71 228 l-24 32 144 198 c79 108 384 526 677 927 635 870 579 795
591 795 5 0 39 -23 75 -50z m-6904 -904 c62 -13 347 -77 633 -141 286 -64 691
-154 900 -201 457 -102 908 -203 1420 -318 209 -47 574 -128 810 -181 237 -53
579 -129 760 -170 678 -152 646 -143 677 -172 10 -9 18 -27 18 -40 0 -21 -156
-732 -181 -825 -19 -73 -44 -74 -339 -7 -124 27 -477 106 -785 175 -774 173
-1251 280 -1650 369 -187 42 -378 85 -425 95 -47 10 -175 39 -285 64 -174 39
-919 205 -1634 365 -267 60 -295 72 -299 127 -2 22 18 132 43 244 25 113 64
286 86 385 63 285 51 274 251 231z m178 -1553 c139 -191 253 -354 254 -361 1
-8 -33 -33 -74 -56 -173 -98 -647 -356 -654 -356 -4 0 -5 28 -2 63 4 34 25
267 47 517 43 485 46 500 100 527 64 33 57 39 329 -334z m501 177 c272 -60
503 -114 513 -118 16 -7 -4 -22 -115 -82 -73 -41 -210 -116 -303 -167 -93 -51
-173 -93 -177 -93 -9 0 -80 95 -277 367 -134 186 -146 203 -139 203 2 0 226
-49 498 -110z m885 -214 c40 -46 444 -604 444 -614 0 -10 -799 -452 -816 -452
-10 0 -494 663 -494 677 0 5 19 19 43 31 23 11 193 105 377 207 322 178 337
185 380 180 31 -3 52 -12 66 -29z m721 -145 c222 -50 406 -91 410 -91 17 0
-27 -26 -271 -160 -142 -78 -262 -138 -266 -133 -7 7 -271 370 -329 452 l-25
34 40 -6 c21 -3 220 -46 441 -96z m750 -170 c14 -7 527 -711 522 -716 -2 -1
-168 -93 -369 -203 -342 -188 -366 -200 -381 -184 -32 33 -532 727 -533 740
-1 6 150 95 334 197 314 173 337 184 375 179 22 -4 45 -9 52 -13z m773 -171
c272 -61 502 -113 509 -116 12 -4 -592 -345 -609 -344 -6 1 -403 546 -408 561
-5 14 -22 17 508 -101z m-3012 -326 c134 -185 240 -340 235 -344 -12 -12 -722
-400 -731 -400 -8 1 -486 658 -490 674 -1 7 116 76 260 156 145 79 306 167
358 197 52 29 102 53 110 53 8 -1 125 -152 258 -336z m3840 121 c56 -47 58
-41 -137 -570 -99 -268 -184 -492 -189 -497 -5 -5 -119 143 -256 332 -136 188
-246 343 -244 345 22 20 759 415 775 415 12 0 35 -11 51 -25z m-2241 -446
c150 -206 273 -376 273 -379 -1 -8 -800 -442 -817 -444 -18 -1 -566 745 -555
756 17 16 808 447 817 444 6 -1 133 -171 282 -377z m-2481 -175 c126 -173 229
-319 229 -325 0 -18 -237 -141 -261 -135 -51 13 -215 100 -234 123 -26 33 -26
85 0 358 11 116 20 229 20 253 0 23 4 42 9 42 4 0 111 -142 237 -316z m3989
-185 c132 -182 240 -337 240 -346 0 -18 -724 -418 -735 -406 -33 38 -490 676
-487 679 7 8 732 404 737 403 3 0 113 -149 245 -330z m-2479 -179 c150 -206
272 -375 271 -376 -16 -12 -410 -224 -417 -224 -36 0 -575 171 -592 188 -39
39 -284 389 -278 396 19 20 716 396 729 394 8 -2 137 -172 287 -378z m1535
-235 c348 -478 311 -421 286 -438 -12 -7 -110 -61 -217 -119 l-195 -105 -115
13 c-184 22 -463 64 -487 74 -19 8 -283 359 -283 377 0 11 802 452 817 450 7
-1 94 -114 194 -252z m-2631 32 c39 -55 69 -101 67 -104 -6 -6 -297 110 -297
119 0 8 142 88 152 85 3 -1 39 -46 78 -100z m3863 -219 c-19 -51 -62 -167 -95
-258 -33 -91 -66 -176 -73 -190 -35 -67 -98 -90 -251 -90 l-83 0 -83 115 c-46
64 -83 120 -83 126 0 9 679 388 696 389 4 0 -9 -42 -28 -92z m-2309 -207 c47
-66 86 -122 86 -126 0 -9 -58 1 -259 46 -165 37 -190 44 -180 53 4 3 262 146
265 146 1 0 41 -54 88 -119z m1540 -242 c26 -39 46 -72 44 -75 -3 -2 -60 1
-129 6 -68 5 -139 10 -156 10 -18 0 -33 3 -33 8 0 8 200 122 215 121 6 0 32
-31 59 -70z"/>
<path d="M23329 4945 c-402 -63 -855 -256 -1229 -525 -370 -265 -620 -614
-788 -1101 -95 -276 -131 -483 -138 -814 -4 -167 -9 -229 -17 -228 -7 1 -50
14 -97 28 -209 64 -394 88 -670 87 -763 -1 -1298 -275 -1600 -817 -39 -70
-111 -258 -141 -365 -12 -41 -24 -78 -28 -82 -3 -4 -32 -1 -64 8 -232 60 -610
93 -857 74 -850 -65 -1498 -464 -1829 -1127 l-41 -83 129 0 129 0 35 62 c250
444 709 760 1268 872 371 75 812 58 1181 -44 208 -58 247 -36 278 154 24 149
125 400 209 525 259 381 673 572 1273 588 373 10 683 -49 880 -168 73 -44 104
-47 156 -13 48 31 52 62 42 299 -17 397 17 661 125 975 142 414 372 741 675
962 382 278 838 468 1233 513 l57 6 0 115 0 114 -42 -1 c-24 -1 -82 -7 -129
-14z"/>
</g>
</svg>
