<svg xmlns="http://www.w3.org/2000/svg" viewBox="0 0 1774 2399" fill="#333" role="img" aria-label="line art">
<g transform="translate(0.000000,2399.000000) scale(0.100000,-0.100000)"
fill="#333" stroke="none">
<path d="M3923 23570 c-60 -36 -65 -53 -85 -293 -10 -121 -21 -224 -26 -229
-4 -4 -93 -39 -197 -78 -105 -39 -200 -78 -213 -86 -60 -39 -79 -126 -39 -184
19 -29 53 -47 222 -121 110 -49 205 -96 211 -106 7 -10 20 -110 29 -223 9
-112 21 -212 26 -221 32 -60 119 -87 183 -57 14 6 93 96 176 200 83 103 156
188 164 188 8 0 107 -22 221 -50 239 -58 290 -62 334 -25 36 31 55 84 46 126
-4 18 -58 110 -121 206 -63 96 -114 179 -114 185 0 5 48 100 106 209 114 214
120 234 79 296 -20 30 -73 63 -102 63 -13 0 -116 -29 -230 -64 -140 -44 -212
-62 -223 -56 -9 5 -79 77 -156 160 -76 84 -151 158 -166 166 -38 20 -87 17
-125 -6z m206 -225 c175 -191 191 -205 245 -205 25 0 127 26 240 61 190 59
226 65 226 37 0 -8 -46 -99 -102 -203 -137 -253 -138 -227 15 -458 116 -177
129 -203 104 -213 -7 -2 -116 21 -242 51 -239 59 -279 62 -318 28 -11 -10 -83
-97 -160 -193 -77 -96 -146 -179 -155 -184 -30 -18 -39 18 -56 229 -20 238
-27 259 -99 293 -23 10 -118 52 -210 92 -224 97 -225 91 42 192 112 42 214 87
227 99 34 32 42 69 59 293 9 110 18 203 21 208 15 24 51 -4 163 -127z"/>
<path d="M8480 22911 c-92 -28 -349 -234 -592 -473 l-127 -126 -68 -6 c-37 -4
-153 -20 -258 -36 -2571 -394 -4747 -2110 -5741 -4528 -241 -584 -407 -1216
-489 -1858 -45 -359 -50 -447 -50 -949 0 -502 5 -582 51 -950 354 -2810 2318
-5193 5019 -6091 289 -96 484 -148 854 -230 28 -6 29 15 -19 -384 -16 -135
-43 -366 -60 -515 -39 -343 -57 -486 -62 -490 -1 -1 -39 4 -83 11 -525 89
-1010 -80 -1287 -450 -153 -206 -268 -548 -268 -801 0 -30 -2 -55 -4 -55 -2 0
-36 13 -74 30 -219 93 -460 78 -652 -41 l-35 -22 -80 53 c-435 284 -959 317
-1444 89 -286 -135 -502 -342 -633 -609 -83 -167 -148 -433 -148 -600 0 -44
-4 -82 -10 -85 -5 -3 -28 4 -51 16 -135 69 -386 92 -540 51 -242 -65 -452
-254 -515 -462 -19 -63 -28 -70 -94 -70 -56 0 -197 -38 -265 -70 -216 -103
-327 -363 -234 -549 118 -236 604 -491 1374 -721 94 -28 176 -53 182 -55 8 -3
0 -18 -22 -42 -92 -100 -81 -241 26 -337 71 -65 183 -103 338 -114 l86 -7 6
-95 c12 -170 71 -280 211 -393 196 -157 539 -241 983 -242 312 0 453 27 731
141 5 3 31 -22 57 -56 113 -145 305 -237 543 -260 244 -23 469 40 643 181 l63
50 71 -68 c213 -205 502 -304 847 -290 434 17 754 139 931 355 l35 43 74 -45
c199 -123 484 -193 821 -203 377 -11 669 56 932 214 32 20 62 31 66 27 4 -5
20 -26 35 -47 209 -286 931 -436 1378 -287 160 54 280 125 399 237 l69 65 47
-42 c304 -267 865 -258 1144 19 42 42 81 85 87 95 9 19 13 18 93 -16 304 -128
749 -152 1185 -63 431 89 673 312 674 623 l0 62 59 0 c136 0 296 51 373 119
99 87 107 244 17 337 -36 37 -39 35 81 69 323 91 763 255 985 368 452 230 587
443 454 715 -76 156 -252 260 -474 280 l-79 7 -27 73 c-93 252 -327 433 -609
472 -145 20 -285 -5 -481 -84 -14 -6 -17 7 -22 96 -39 625 -386 1081 -970
1272 -174 58 -259 71 -462 71 -152 0 -196 -4 -284 -23 -194 -44 -359 -113
-518 -218 l-82 -54 -63 35 c-188 103 -383 120 -580 50 -40 -14 -80 -28 -89
-31 -14 -5 -18 12 -28 113 -65 642 -425 1064 -1007 1180 -116 23 -421 23 -539
1 -44 -9 -83 -13 -86 -9 -4 3 -28 193 -53 421 -26 228 -60 536 -78 683 -17
147 -28 270 -25 273 3 3 72 21 154 39 2757 622 4925 2755 5588 5498 87 363
155 789 187 1182 17 211 17 908 0 1120 -106 1307 -516 2494 -1235 3570 -529
791 -1250 1511 -2047 2042 -970 647 -2097 1065 -3226 1196 l-120 14 -115 114
c-220 217 -489 436 -577 469 -53 20 -126 25 -172 11z m158 -120 c54 -28 279
-212 413 -337 627 -588 939 -1182 939 -1788 0 -137 -1 -148 -17 -141 -157 59
-537 133 -888 171 -201 22 -811 25 -1010 6 -352 -35 -776 -115 -937 -177 -17
-7 -18 4 -18 139 0 589 278 1142 866 1718 177 174 414 373 491 413 39 21 116
19 161 -4z m1142 -641 c1725 -290 3278 -1181 4405 -2527 1999 -2387 2261
-5799 649 -8464 -437 -724 -1021 -1392 -1684 -1925 -463 -373 -1046 -732
-1555 -959 -363 -162 -648 -267 -1007 -370 -240 -69 -547 -140 -558 -129 -4 5
-22 135 -39 289 -17 154 -58 521 -91 815 -33 294 -74 652 -90 795 -16 143 -41
361 -55 485 -58 506 -76 683 -72 694 3 7 33 20 68 30 104 29 203 83 258 141
82 86 92 178 32 299 l-31 64 22 44 c37 69 33 174 -10 260 -29 59 -33 75 -30
135 l3 68 1007 5 1006 5 43 30 c27 19 54 50 71 85 l29 54 -3 650 -3 651 -27
80 c-69 202 -167 285 -498 423 -52 22 -133 60 -180 84 l-85 43 -5 2085 -5
2085 -23 62 c-12 35 -74 183 -138 330 -64 148 -163 376 -220 508 -112 260
-141 302 -223 325 -129 36 -226 -24 -292 -180 -151 -355 -332 -767 -340 -775
-5 -5 -9 424 -9 1140 0 715 -4 1192 -10 1260 -39 410 -227 834 -554 1245 -42
52 -76 98 -76 101 0 8 118 -7 320 -41z m-2154 8 c-342 -426 -514 -773 -593
-1193 -15 -80 -18 -221 -23 -1315 l-5 -1225 -76 175 c-42 96 -128 294 -190
440 -94 218 -121 272 -154 305 -92 93 -249 81 -326 -25 -20 -26 -447 -1009
-477 -1095 -16 -46 -17 -196 -22 -2140 l-5 -2090 -100 -52 c-55 -28 -154 -73
-220 -100 -239 -96 -350 -198 -411 -377 -41 -118 -45 -213 -42 -826 3 -634 0
-602 67 -673 61 -66 -16 -61 1091 -67 l1005 -5 3 -67 c3 -58 -1 -73 -27 -120
-54 -96 -59 -204 -13 -282 l21 -35 -32 -62 c-59 -114 -47 -238 30 -311 51 -48
147 -98 248 -130 55 -17 101 -31 102 -33 2 -1 -6 -71 -17 -156 -10 -85 -30
-253 -44 -374 -68 -588 -118 -1015 -136 -1165 -11 -91 -36 -302 -55 -470 -19
-168 -46 -397 -60 -510 -13 -113 -29 -250 -35 -305 -7 -55 -14 -102 -16 -104
-12 -12 -426 91 -686 170 -2729 832 -4735 3194 -5113 6021 -75 563 -82 1238
-19 1791 218 1909 1153 3623 2644 4848 826 679 1831 1181 2875 1438 265 65
707 148 804 150 l34 1 -27 -32z m1385 -1493 c321 -26 680 -89 899 -159 l75
-24 3 -311 c1 -171 -1 -311 -5 -311 -5 0 -37 9 -73 21 -563 177 -1485 225
-2195 113 -180 -28 -382 -72 -501 -109 -43 -14 -82 -25 -87 -25 -4 0 -6 140
-5 311 l3 311 75 24 c120 38 362 91 540 118 142 21 224 30 465 49 129 11 634
5 806 -8z m-96 -655 c384 -27 720 -83 993 -166 l82 -25 0 -2431 0 -2431 -26
24 c-91 84 -282 346 -349 479 -117 232 -122 265 -130 805 -10 778 -40 1195
-115 1640 -122 723 -376 1205 -708 1341 -70 29 -106 30 -176 4 -312 -117 -566
-558 -695 -1205 -89 -449 -128 -934 -140 -1745 l-8 -515 -27 -90 c-68 -225
-226 -482 -439 -710 l-56 -60 -1 2447 0 2447 83 25 c457 139 1145 206 1712
166z m-2411 -732 c16 -15 59 -101 116 -233 50 -115 156 -362 237 -548 80 -186
143 -341 139 -344 -12 -13 -226 -32 -426 -39 -233 -8 -665 18 -689 41 -9 9 22
92 103 280 46 105 143 330 216 500 84 194 144 320 161 338 36 36 105 38 143 5z
m4238 2 c17 -13 56 -89 116 -227 346 -797 383 -886 371 -898 -9 -9 -145 -24
-319 -36 -289 -19 -800 7 -800 41 0 5 40 101 88 212 49 112 155 357 237 546
103 240 155 349 173 362 33 27 101 27 134 0z m-2078 -152 c175 -94 352 -352
465 -681 72 -209 152 -585 177 -832 8 -76 20 -72 -142 -51 -303 40 -876 46
-1179 11 -176 -20 -165 -21 -159 18 76 555 163 878 306 1147 122 229 318 418
437 420 19 0 59 -14 95 -32z m-2549 -1038 c218 -19 615 -11 843 16 l52 6 0
-75 0 -74 -37 -6 c-193 -31 -815 -33 -1018 -5 l-90 13 -3 49 c-6 94 -1 100 76
92 37 -4 117 -11 177 -16z m4220 -1 c166 -14 630 -7 789 11 127 15 127 15 124
-75 l-3 -60 -90 -13 c-203 -28 -825 -26 -1017 5 l-38 6 0 75 0 75 48 -6 c26
-4 110 -12 187 -18z m-4305 -180 c52 -5 199 -12 325 -16 208 -5 317 0 583 23
l72 7 0 -696 c0 -654 -1 -696 -17 -701 -134 -39 -815 -39 -1090 0 l-43 6 0
692 c0 381 3 696 7 699 4 4 20 5 37 2 17 -3 74 -10 126 -16z m5215 -679 l0
-694 -27 -7 c-150 -40 -965 -42 -1100 -3 -17 5 -18 47 -18 701 l0 696 68 -6
c344 -32 708 -33 952 -3 58 7 110 12 115 11 7 -1 10 -241 10 -695z m-2250 315
c193 -17 306 -32 317 -43 12 -13 55 -478 45 -489 -3 -2 -72 2 -154 11 -468 48
-1101 43 -1392 -11 l-34 -6 7 119 c10 154 32 384 39 390 8 8 258 34 417 43
193 11 533 4 755 -14z m155 -549 c221 -25 207 -21 215 -69 10 -64 18 -3048 8
-3058 -5 -5 -36 2 -70 16 -321 130 -844 156 -1248 63 -49 -11 -134 -36 -188
-55 -54 -19 -100 -33 -102 -32 -9 10 -14 2105 -6 2564 9 459 12 531 26 541 15
11 132 27 330 44 149 14 881 3 1035 -14z m-3040 -527 c201 -18 627 -10 848 17
l52 6 0 -621 c0 -341 -3 -621 -7 -621 -5 0 -73 -7 -153 -15 -199 -22 -608 -21
-816 0 -87 9 -162 19 -166 21 -5 3 -8 282 -8 621 l0 616 78 -8 c42 -4 120 -11
172 -16z m4195 1 c128 -12 581 -12 705 0 52 5 128 12 168 16 l72 7 -2 -619 -3
-619 -55 -7 c-273 -34 -682 -40 -930 -13 -80 8 -148 15 -152 15 -5 0 -8 280
-8 621 l0 621 53 -6 c28 -4 97 -11 152 -16z m-688 -1224 c272 -423 842 -892
1498 -1236 66 -35 127 -69 135 -75 18 -14 320 -154 400 -185 224 -87 328 -187
376 -360 17 -58 18 -113 19 -540 l0 -475 -137 -3 -137 -3 -3 448 c-3 405 -5
452 -21 488 -50 111 -102 153 -270 219 -682 266 -1278 663 -1801 1197 l-186
190 0 277 0 277 41 -74 c22 -41 60 -106 86 -145z m-1967 -60 l0 -265 -93 -103
c-497 -549 -1193 -1021 -1929 -1307 -126 -50 -184 -95 -225 -179 l-28 -57 -3
-452 -3 -453 -139 0 -140 0 0 463 c0 497 4 545 53 650 54 117 134 179 346 267
419 176 999 512 1333 773 358 280 639 590 780 863 18 35 36 64 41 64 4 0 7
-119 7 -264z m-1635 14 c253 -26 611 -23 928 7 l67 6 0 -197 0 -196 -40 -36
c-158 -143 -405 -326 -630 -467 -138 -86 -458 -267 -472 -267 -9 0 -11 1154
-2 1163 4 4 16 5 28 2 12 -3 66 -9 121 -15z m5233 -558 c1 -392 -1 -572 -8
-572 -15 0 -92 40 -243 127 -309 177 -598 380 -824 581 l-73 64 0 185 0 186
73 -7 c350 -34 753 -32 996 3 31 5 61 8 66 6 6 -1 11 -202 13 -573z m-3661
-841 c-201 -210 -338 -476 -403 -785 -23 -107 -26 -152 -31 -383 l-6 -263
-868 0 -869 0 0 438 c0 502 0 503 79 582 39 39 69 55 206 109 660 261 1250
651 1760 1165 l190 191 3 -494 2 -494 -63 -66z m1979 977 c502 -536 1138 -977
1802 -1249 81 -33 165 -68 187 -77 64 -27 131 -96 155 -158 19 -52 20 -77 20
-489 l0 -435 -870 0 -870 0 0 143 c0 474 -74 769 -268 1067 -56 87 -156 212
-211 264 l-31 30 0 180 c0 199 12 796 16 796 1 0 33 -33 70 -72z m-646 -832
c122 -19 261 -55 375 -97 83 -30 96 -39 165 -109 190 -194 324 -451 391 -755
21 -95 22 -127 26 -664 4 -542 4 -563 -14 -558 -10 3 -66 24 -124 46 -642 243
-1752 237 -2376 -13 -50 -20 -94 -36 -97 -36 -4 0 -5 260 -3 578 l3 577 28
114 c31 126 76 252 129 357 84 166 256 383 338 424 109 56 338 120 499 139 47
6 101 13 120 15 76 9 449 -3 540 -18z m-1770 -1781 l0 -165 -980 0 c-1083 0
-1020 -4 -1060 63 -17 27 -20 51 -20 150 l0 117 1030 0 1030 0 0 -165z m4895
40 c0 -99 -3 -125 -18 -147 -42 -61 9 -58 -1061 -58 l-976 0 0 165 0 165 1028
-2 1027 -3 0 -120z m-3091 -270 c369 -35 661 -102 871 -199 66 -30 76 -39 98
-83 43 -84 40 -148 -8 -202 l-35 -39 -83 35 c-621 263 -1809 266 -2437 7 -110
-45 -107 -45 -142 -2 -41 50 -47 108 -18 175 29 68 49 85 152 127 226 93 538
158 913 189 123 11 548 5 689 -8z m101 -349 c369 -46 749 -150 833 -228 82
-77 105 -191 51 -253 -37 -42 -41 -42 -82 -11 -311 233 -2257 231 -2586 -3
-39 -28 -46 -27 -76 13 -40 52 -43 96 -11 158 45 90 71 112 181 156 232 92
500 149 855 182 150 13 684 5 835 -14z m-15 -366 c206 -15 473 -49 487 -63 6
-7 25 -137 43 -297 17 -157 40 -359 50 -450 11 -91 74 -646 140 -1235 66 -588
131 -1167 145 -1285 13 -118 61 -539 105 -935 45 -396 108 -911 140 -1145 33
-234 75 -540 94 -680 152 -1099 197 -1418 206 -1437 7 -17 18 -23 40 -23 65 0
65 3 4 435 -66 472 -152 1089 -200 1435 -19 140 -46 335 -60 434 -14 100 -22
182 -17 187 17 17 209 39 338 39 549 0 952 -287 1110 -790 36 -117 65 -294 65
-403 l0 -90 -23 21 c-12 11 -49 33 -82 49 -56 26 -69 28 -180 27 -235 -1 -384
-81 -460 -246 -25 -54 -39 -167 -23 -183 14 -14 28 8 28 44 0 184 157 324 394
350 148 17 244 -14 333 -105 58 -61 70 -64 111 -29 17 14 59 38 94 55 210 98
433 76 625 -62 l42 -31 29 19 c17 11 63 42 104 70 404 281 901 315 1363 94
459 -220 708 -628 719 -1182 4 -188 10 -194 136 -129 140 72 227 95 375 95
149 1 218 -18 344 -93 139 -82 260 -245 277 -371 9 -68 23 -76 132 -84 288
-19 455 -145 470 -355 6 -87 -23 -145 -114 -231 -197 -184 -737 -420 -1340
-584 -209 -58 -219 -62 -219 -103 0 -27 8 -36 65 -74 108 -73 136 -145 83
-218 -47 -65 -232 -121 -398 -121 -89 0 -112 -17 -100 -77 55 -291 -153 -513
-565 -601 -431 -93 -923 -60 -1190 79 -105 54 -124 53 -155 -15 -53 -113 -209
-224 -372 -267 -285 -74 -576 -3 -763 186 -73 74 -92 74 -153 -4 -209 -269
-609 -386 -1067 -311 -343 56 -559 174 -660 359 -34 62 -59 64 -130 10 -73
-55 -253 -142 -362 -173 -487 -140 -1095 -68 -1416 168 -87 65 -104 62 -145
-20 -30 -59 -132 -158 -209 -202 -198 -113 -572 -186 -831 -162 -284 27 -487
123 -657 308 -42 46 -83 82 -94 82 -10 0 -52 -32 -93 -70 -83 -78 -209 -147
-323 -177 -90 -25 -296 -24 -405 0 -176 40 -332 148 -396 272 -33 66 -49 67
-162 11 -190 -94 -415 -132 -732 -123 -427 12 -713 93 -881 249 -107 101 -161
245 -138 372 17 94 11 100 -127 108 -248 14 -374 74 -386 182 -7 60 20 101
105 156 35 23 66 49 69 57 11 29 -15 62 -59 73 -852 217 -1498 522 -1606 758
-23 52 -24 58 -13 125 32 191 175 301 427 329 281 32 554 -76 728 -289 57 -69
72 -74 106 -38 79 84 269 184 399 210 285 58 571 -110 665 -391 23 -66 38 -86
51 -65 9 15 -39 144 -77 208 -78 130 -239 246 -390 282 -68 16 -220 14 -292
-5 -87 -22 -228 -93 -314 -158 -40 -31 -76 -56 -79 -56 -3 0 -34 31 -70 70
-74 80 -213 177 -300 210 -70 26 -198 60 -228 60 -33 0 -34 6 -19 72 34 145
153 289 299 364 134 69 174 79 315 79 146 -1 218 -18 368 -92 80 -39 97 -44
118 -35 23 11 24 15 24 124 1 570 254 996 721 1217 219 104 390 144 609 144
300 0 567 -92 819 -282 30 -23 58 -41 62 -41 4 0 29 19 56 42 63 54 135 86
236 105 145 26 291 -5 440 -92 75 -44 79 -45 120 -34 53 14 155 5 230 -20 111
-39 193 -119 242 -238 27 -67 30 -68 125 -27 52 22 84 29 160 32 113 5 180
-16 260 -79 53 -42 70 -48 70 -24 0 22 -92 91 -157 116 -83 33 -233 33 -318 0
-33 -12 -67 -25 -76 -28 -11 -3 -24 13 -47 60 -79 160 -221 247 -404 247 l-67
0 -7 36 c-16 84 20 354 67 501 163 510 557 793 1106 793 126 0 330 -22 344
-38 4 -4 -6 -97 -21 -207 -25 -171 -77 -546 -251 -1805 -16 -118 -36 -259 -44
-313 -19 -123 -19 -142 1 -161 19 -20 58 -21 74 -2 6 8 27 124 46 258 295
2112 311 2238 419 3163 36 308 74 634 85 725 11 91 36 300 55 465 35 305 101
870 200 1720 31 259 71 605 90 770 44 381 45 384 55 390 13 8 314 44 445 54
173 12 795 13 965 1z m-1535 -137 c-10 -91 -16 -113 -29 -113 -17 0 -147 45
-177 60 l-23 13 27 23 c24 21 161 72 195 74 10 0 12 -13 7 -57z m2237 26 c34
-11 75 -30 91 -41 28 -20 28 -22 12 -34 -27 -20 -168 -65 -177 -56 -4 4 -10
40 -14 80 -8 84 -9 84 88 51z"/>
<path d="M12985 19993 c-143 -32 -215 -129 -215 -291 0 -470 641 -972 932
-732 199 164 66 602 -261 862 -151 121 -340 187 -456 161z m176 -49 c351 -103
669 -558 585 -838 -60 -199 -302 -215 -561 -35 -271 187 -442 543 -362 751 21
53 83 113 132 127 49 15 147 12 206 -5z"/>
<path d="M12840 18537 c-73 -48 -100 -152 -75 -281 67 -354 417 -466 433 -140
14 264 -207 523 -358 421z m157 -46 c156 -113 225 -397 122 -501 -137 -137
-383 199 -318 434 26 95 115 125 196 67z"/>
<path d="M13950 18227 c-386 -89 -476 -719 -185 -1296 138 -276 360 -492 560
-546 93 -26 214 -18 288 19 267 130 349 586 191 1056 -165 489 -552 836 -854
767z m211 -50 c101 -35 175 -84 279 -187 467 -462 555 -1354 153 -1555 -51
-26 -68 -29 -148 -29 -145 1 -262 60 -410 208 -179 179 -307 423 -376 716 -31
128 -33 409 -6 510 79 285 277 416 508 337z"/>
<path d="M14795 15980 c-222 -50 -222 -472 0 -717 253 -279 514 -30 385 367
-72 218 -251 381 -385 350z m116 -54 c195 -92 329 -459 236 -648 -48 -97 -123
-122 -221 -74 -173 85 -303 387 -252 585 36 140 124 191 237 137z"/>
<path d="M13716 11146 c-166 -70 -302 -226 -324 -372 -21 -135 40 -214 165
-214 206 0 438 231 438 437 0 77 -13 106 -68 147 -43 32 -137 33 -211 2z m191
-32 c150 -93 -20 -420 -263 -505 -166 -59 -263 40 -205 207 74 208 340 378
468 298z"/>
<path d="M12825 10293 c-409 -51 -793 -599 -605 -864 76 -105 264 -118 442
-28 409 205 613 725 338 860 -55 27 -118 39 -175 32z m118 -44 c21 -5 54 -24
74 -42 193 -170 -22 -606 -385 -781 -240 -114 -422 -39 -422 175 1 331 449
727 733 648z"/>
<path d="M5025 20410 c-298 -63 -550 -373 -453 -560 36 -69 90 -95 198 -94
307 3 637 376 507 573 -45 68 -151 102 -252 81z m165 -52 c238 -122 -100 -568
-430 -568 -153 1 -216 114 -146 262 106 224 414 388 576 306z"/>
<path d="M4130 19185 c-608 -122 -1225 -861 -1397 -1672 -37 -176 -40 -468 -5
-605 59 -238 174 -399 344 -483 624 -307 1603 553 1823 1600 33 156 45 411 26
547 -65 448 -384 695 -791 613z m315 -41 c450 -113 584 -764 305 -1477 -192
-493 -558 -930 -957 -1145 -150 -80 -263 -114 -403 -120 -139 -5 -205 7 -300
54 -320 161 -435 626 -291 1179 177 677 698 1307 1227 1484 154 52 281 59 419
25z"/>
<path d="M2700 15701 c-235 -48 -435 -407 -417 -746 9 -161 58 -277 145 -339
64 -45 168 -50 248 -11 300 147 452 741 256 1000 -56 74 -149 112 -232 96z
m101 -41 c112 -31 184 -186 182 -390 -4 -335 -213 -655 -428 -655 -298 1 -324
616 -39 925 101 109 190 146 285 120z"/>
<path d="M4453 10775 c-174 -38 -307 -173 -330 -335 -35 -241 81 -510 332
-769 463 -478 1148 -627 1395 -305 64 84 85 154 84 279 -8 590 -885 1259
-1481 1130z m294 -30 c590 -96 1175 -675 1151 -1140 -20 -372 -443 -487 -937
-254 -315 149 -611 431 -736 702 -206 446 38 770 522 692z"/>
<path d="M8462 18501 c-71 -34 -110 -70 -142 -134 -109 -218 90 -461 323 -393
248 72 276 402 44 523 -51 26 -172 28 -225 4z m174 -26 c257 -76 216 -456 -50
-473 -224 -14 -346 243 -192 406 68 73 148 95 242 67z"/>
<path d="M8026 11091 c-5 -8 -25 -240 -81 -981 -14 -179 -52 -674 -85 -1100
-33 -426 -72 -923 -85 -1105 -14 -181 -50 -640 -79 -1020 -32 -411 -50 -694
-45 -700 21 -22 29 27 53 350 14 187 30 394 36 460 6 66 17 212 25 325 9 113
34 435 55 715 22 281 49 629 60 775 20 258 58 748 120 1550 51 647 56 718 52
729 -4 13 -19 14 -26 2z"/>
<path d="M8436 10988 c-4 -62 -15 -430 -26 -818 -11 -388 -27 -914 -35 -1170
-19 -583 -19 -570 -1 -570 18 0 23 66 31 375 3 127 10 361 15 520 16 465 50
1655 50 1718 0 42 -4 57 -14 57 -10 0 -15 -27 -20 -112z"/>
<path d="M9057 11093 c-2 -5 9 -204 24 -443 60 -945 80 -1256 114 -1785 19
-302 40 -629 46 -725 11 -170 18 -205 39 -184 6 6 7 54 0 139 -5 72 -19 281
-30 465 -11 184 -27 432 -35 550 -8 118 -22 330 -30 470 -8 140 -20 318 -25
395 -6 77 -24 358 -40 624 -17 266 -33 488 -36 493 -6 10 -21 11 -27 1z"/>
<path d="M9297 7304 c-4 -4 -4 -32 -1 -63 2 -31 18 -245 35 -476 35 -502 81
-1138 109 -1510 11 -148 29 -396 40 -550 51 -729 71 -970 80 -979 23 -23 26
18 14 184 -13 176 -48 649 -104 1420 -16 228 -43 600 -60 825 -16 226 -41 572
-55 770 -14 198 -28 366 -30 373 -5 13 -18 16 -28 6z"/>
<path d="M12578 3964 c-184 -44 -355 -215 -418 -419 -18 -58 -19 -58 -87 -15
-380 242 -916 -30 -1008 -511 -28 -149 -13 -395 24 -386 9 2 15 7 14 13 -54
303 9 546 187 725 247 248 556 285 808 97 29 -21 56 -37 61 -34 5 3 14 27 20
53 19 77 87 207 142 274 83 99 206 166 342 184 31 4 47 11 47 21 0 18 -54 17
-132 -2z"/>
<path d="M7127 3504 c-290 -52 -547 -256 -696 -552 l-32 -63 -68 70 c-198 205
-508 218 -738 31 l-61 -49 -22 52 c-124 291 -380 435 -706 398 -220 -26 -393
-114 -544 -278 -65 -71 -150 -204 -150 -235 0 -31 26 -20 44 19 51 107 161
237 261 309 233 165 570 203 788 87 114 -61 235 -209 287 -350 12 -35 27 -63
33 -63 5 0 40 29 77 64 74 70 145 108 242 131 80 19 111 19 205 -1 135 -28
238 -94 307 -199 21 -30 41 -55 45 -55 5 0 31 46 59 103 87 173 205 315 341
406 257 174 595 205 815 76 131 -77 250 -234 302 -397 20 -67 26 -68 97 -29
170 96 344 110 482 41 153 -77 258 -205 289 -352 9 -39 24 -35 76 18 143 145
340 184 516 100 86 -41 94 -42 94 -21 0 23 -135 84 -215 97 -127 21 -254 -16
-376 -109 l-65 -51 -17 48 c-56 157 -228 305 -398 341 -109 23 -251 -1 -378
-65 -29 -15 -57 -24 -60 -19 -4 4 -20 39 -36 77 -137 332 -431 486 -798 420z"/>
<path d="M13371 22577 c-6 -8 -15 -37 -21 -65 -16 -85 -49 -210 -71 -265 -43
-109 -87 -141 -264 -192 -106 -30 -134 -51 -119 -92 7 -21 20 -31 54 -41 235
-68 267 -86 309 -170 28 -57 70 -197 91 -303 13 -69 39 -97 77 -83 34 12 35
16 73 174 34 145 73 242 111 277 34 31 100 58 209 88 101 26 112 34 108 80 -4
35 -21 45 -134 75 -195 52 -230 94 -294 355 -21 85 -41 159 -45 165 -9 15 -71
12 -84 -3z m64 -39 c74 -336 110 -415 209 -462 30 -14 96 -38 148 -52 141 -40
142 -50 7 -88 -111 -30 -177 -60 -216 -98 -44 -42 -89 -154 -123 -305 -15 -68
-30 -127 -33 -130 -11 -10 -37 6 -37 24 -1 46 -63 264 -94 329 -25 54 -46 81
-77 103 -38 28 -172 78 -257 96 -61 13 -36 36 71 67 226 65 262 107 329 388
17 69 32 131 34 138 6 20 33 13 39 -10z"/>
<path d="M2290 21320 c-11 -11 -22 -32 -26 -47 -35 -154 -71 -252 -107 -291
-25 -28 -96 -62 -178 -86 -61 -17 -74 -27 -84 -67 -10 -41 27 -71 130 -104
138 -45 174 -93 225 -305 22 -90 44 -120 85 -120 43 0 64 30 90 135 54 207 87
247 250 300 83 27 105 43 105 81 0 37 -40 69 -115 92 -150 47 -190 96 -241
300 -26 103 -46 132 -90 132 -13 0 -33 -9 -44 -20z m106 -142 c61 -212 94
-253 249 -302 126 -40 129 -72 10 -110 -176 -57 -203 -93 -277 -371 -12 -45
-16 -50 -42 -50 -27 0 -29 3 -52 91 -60 232 -92 272 -274 333 -66 23 -75 29
-75 51 0 21 9 27 90 55 109 36 136 53 175 107 28 38 78 174 95 258 9 45 23 62
48 58 15 -2 26 -26 53 -120z"/>
<path d="M14655 21176 c-104 -48 -160 -145 -153 -263 9 -157 116 -257 273
-257 207 2 333 210 241 398 -63 128 -229 184 -361 122z m187 -18 c22 -6 62
-31 88 -55 193 -173 9 -481 -238 -399 -69 23 -135 96 -152 166 -44 182 124
342 302 288z"/>
<path d="M1150 19408 c-48 -14 -109 -61 -142 -110 -148 -220 75 -501 324 -408
190 71 238 313 91 457 -68 65 -174 89 -273 61z m140 -28 c189 -52 246 -282
103 -411 -144 -130 -379 -37 -391 155 -5 79 10 127 56 178 65 72 151 101 232
78z"/>
<path d="M16724 18854 c-21 -10 -53 -52 -113 -149 -96 -155 -68 -143 -265
-120 -163 20 -200 8 -226 -71 -16 -46 2 -79 109 -208 50 -61 91 -113 91 -116
0 -3 -25 -67 -55 -143 -65 -163 -68 -186 -21 -233 50 -50 75 -46 258 37 l156
71 131 -111 c139 -120 172 -135 230 -111 64 26 71 70 47 275 -8 61 -12 113
-10 116 2 3 56 42 121 86 65 45 126 90 136 101 45 49 25 142 -36 167 -18 7
-93 23 -167 35 -74 13 -139 27 -144 31 -5 4 -28 73 -51 153 -44 153 -52 169
-96 192 -35 18 -56 17 -95 -2z m121 -327 c33 -111 41 -117 223 -147 75 -12
143 -25 150 -29 9 -5 -28 -36 -107 -89 -66 -45 -129 -94 -140 -109 -27 -34
-27 -97 4 -315 3 -21 2 -38 -2 -38 -5 0 -66 49 -138 110 -85 73 -140 112 -161
116 -26 5 -62 -8 -189 -66 -86 -39 -159 -69 -162 -67 -2 3 21 67 52 143 69
169 69 178 -12 276 -106 127 -136 168 -130 174 3 4 69 -1 147 -11 77 -9 153
-14 169 -10 38 8 65 40 151 180 l74 120 23 -75 c12 -41 34 -115 48 -163z"/>
<path d="M791 12131 c-11 -11 -25 -45 -31 -76 -18 -85 -57 -195 -85 -237 -28
-42 -67 -65 -170 -98 -86 -28 -105 -43 -105 -86 0 -33 36 -74 67 -74 7 0 50
-14 94 -31 65 -25 86 -39 109 -70 27 -38 82 -195 96 -271 7 -45 32 -69 74 -70
44 -1 57 16 84 118 34 124 63 199 92 234 23 27 161 90 197 90 31 0 67 41 67
74 0 44 -19 58 -117 90 -45 15 -97 37 -115 49 -44 29 -91 126 -120 247 -13 52
-31 103 -40 112 -24 24 -73 23 -97 -1z m66 -19 c7 -4 24 -52 37 -106 28 -109
66 -199 99 -234 29 -32 101 -67 177 -89 106 -29 100 -66 -15 -103 -167 -54
-212 -110 -264 -330 -23 -93 -26 -100 -52 -100 -23 0 -31 17 -60 130 -30 117
-72 204 -115 237 -20 15 -77 41 -127 59 -135 46 -141 75 -22 109 167 47 214
104 269 322 27 104 42 125 73 105z"/>
<path d="M16019 11191 c-113 -37 -199 -151 -199 -266 0 -97 64 -200 154 -248
66 -35 184 -31 255 8 90 50 139 134 139 240 0 152 -106 264 -257 271 -36 2
-78 0 -92 -5z m181 -51 c155 -78 181 -276 51 -393 -152 -137 -391 -28 -391
178 0 178 183 293 340 215z"/>
<path d="M913 10410 c-38 -23 -48 -56 -57 -185 -12 -161 -17 -186 -40 -196
-12 -4 -81 -31 -154 -60 -144 -55 -162 -71 -162 -143 0 -56 38 -87 188 -152
73 -31 135 -60 137 -64 2 -4 9 -69 16 -146 13 -161 27 -200 77 -221 75 -31 99
-14 242 167 46 58 88 106 94 108 7 1 77 -13 156 -33 166 -40 207 -43 243 -15
30 24 51 81 41 112 -4 13 -43 79 -87 147 l-81 124 33 61 c132 248 125 232 113
274 -28 92 -77 99 -272 38 l-145 -45 -80 86 c-44 48 -88 97 -98 110 -42 53
-109 67 -164 33z m135 -162 c153 -166 155 -168 202 -168 23 0 100 18 171 41
71 22 134 39 139 37 5 -2 -25 -64 -65 -138 -46 -84 -75 -147 -75 -166 0 -28
53 -123 140 -249 16 -23 27 -45 25 -47 -3 -3 -81 13 -174 35 -151 36 -172 39
-200 27 -21 -8 -67 -58 -137 -147 -59 -74 -108 -132 -111 -129 -3 2 -11 72
-18 156 -9 99 -18 159 -28 174 -10 15 -66 45 -161 87 -80 35 -146 67 -146 70
0 3 21 14 48 24 218 82 251 97 267 121 13 21 43 245 45 337 0 15 12 5 78 -65z"/>
<path d="M14738 8445 c-15 -8 -86 -92 -159 -186 -72 -94 -137 -173 -144 -175
-7 -3 -109 15 -227 41 -196 42 -216 45 -253 33 -53 -17 -85 -66 -85 -127 0
-42 10 -61 120 -226 66 -99 120 -187 120 -196 0 -9 -42 -95 -94 -193 -52 -97
-98 -186 -101 -197 -19 -60 30 -142 96 -159 36 -10 57 -5 269 65 127 42 237
75 245 73 7 -2 84 -77 170 -168 90 -95 172 -172 193 -183 58 -27 135 -5 165
47 8 14 14 98 17 251 l5 230 185 101 c209 115 236 135 245 187 9 49 0 81 -33
118 -24 27 -52 38 -237 90 -115 32 -214 64 -220 71 -7 7 -27 101 -45 208 -18
107 -41 214 -52 237 -30 66 -115 93 -180 58z m86 -104 c3 -5 22 -101 41 -212
19 -112 43 -219 52 -238 23 -44 58 -59 288 -123 253 -70 252 -63 5 -197 -109
-59 -201 -116 -215 -133 l-25 -30 0 -221 c0 -122 -4 -228 -9 -236 -16 -25 -40
-5 -205 169 -154 163 -186 189 -237 190 -14 0 -126 -34 -249 -75 -123 -42
-230 -73 -237 -71 -23 9 -15 34 51 154 108 198 136 260 136 296 0 28 -26 73
-125 224 -120 180 -139 222 -101 222 6 0 107 -21 224 -46 281 -61 252 -72 432
161 125 163 157 194 174 166z"/>
<path d="M2824 8330 c-61 -19 -126 -73 -158 -130 -28 -49 -31 -64 -31 -135 0
-116 47 -194 149 -248 59 -31 183 -31 242 0 102 54 149 132 149 248 0 116 -48
196 -149 247 -46 24 -152 33 -202 18z m176 -47 c190 -77 187 -358 -5 -439
-153 -65 -329 53 -328 221 0 119 78 209 208 238 27 6 83 -3 125 -20z"/>
<path d="M12506 7499 c-14 -11 -26 -26 -26 -34 0 -29 -53 -194 -80 -251 -34
-69 -73 -96 -194 -133 -87 -27 -96 -35 -96 -81 0 -47 18 -63 95 -85 165 -47
204 -96 260 -324 20 -83 41 -111 83 -111 43 0 59 25 92 144 56 198 89 240 227
283 96 29 123 50 123 91 0 39 -23 57 -111 86 -162 53 -191 93 -259 363 -17 69
-65 91 -114 52z m69 -28 c3 -5 16 -52 29 -105 33 -129 78 -220 125 -254 21
-15 75 -40 122 -56 126 -43 139 -74 40 -102 -100 -29 -176 -70 -203 -111 -27
-43 -62 -127 -78 -190 -26 -107 -32 -123 -48 -132 -30 -16 -42 2 -68 103 -28
111 -65 200 -97 234 -28 30 -95 65 -172 88 -113 34 -114 67 -3 102 129 40 171
71 213 154 19 40 45 114 57 163 12 50 26 96 31 103 11 14 43 16 52 3z"/>
</g>
</svg>
