<svg xmlns="http://www.w3.org/2000/svg" viewBox="0 0 2099 1990" fill="#333" role="img" aria-label="line art">
<g transform="translate(0.000000,1990.000000) scale(0.100000,-0.100000)"
fill="#333" stroke="none">
<path d="M10600 19494 c-240 -11 -547 -55 -800 -114 -1107 -257 -2027 -835
-2655 -1669 -242 -321 -477 -783 -461 -906 9 -77 90 -114 209 -98 37 5 67 8
67 6 0 -1 -36 -48 -81 -105 -198 -253 -382 -570 -429 -738 -30 -111 -29 -217
5 -286 76 -156 255 -213 455 -145 47 16 86 28 88 27 1 -2 -24 -59 -57 -127
-103 -218 -176 -461 -217 -724 -26 -167 -27 -632 -1 -814 63 -440 189 -828
418 -1292 61 -123 110 -226 108 -229 -2 -3 -55 -28 -119 -55 -626 -274 -1226
-757 -1670 -1345 -423 -561 -756 -1253 -905 -1880 -41 -173 -44 -179 -142
-340 -223 -364 -394 -695 -494 -955 -193 -506 -196 -516 -149 -592 12 -18 7
-31 -36 -109 -214 -391 -307 -683 -274 -864 l11 -63 -48 -49 c-26 -27 -104
-100 -173 -162 -460 -414 -901 -670 -1519 -880 -287 -98 -359 -127 -501 -202
-298 -158 -514 -349 -664 -588 -264 -420 -194 -915 154 -1088 159 -79 335 -87
551 -24 44 13 79 21 79 19 0 -2 -29 -46 -64 -99 -196 -290 -295 -595 -296
-905 0 -179 44 -294 152 -394 114 -106 244 -149 448 -148 247 0 495 70 807
227 l130 64 0 -73 c0 -465 1043 -863 2943 -1124 157 -22 310 -42 340 -45 30
-4 179 -20 330 -36 2067 -225 4780 -219 6875 16 1371 153 2432 392 2995 674
462 231 595 506 368 766 -267 307 -1044 578 -2252 784 -98 16 -182 30 -187 30
-4 0 -15 23 -24 51 -92 311 -501 626 -964 744 -195 49 -279 58 -546 58 -271 1
-372 -10 -621 -62 l-135 -29 -33 51 c-48 75 -79 139 -119 247 -34 92 -87 282
-87 314 0 8 33 38 73 65 294 198 601 523 813 860 50 80 66 97 109 118 175 89
484 284 682 431 889 664 1478 1578 1682 2609 19 98 48 305 53 388 3 35 6 40
36 49 114 32 257 264 315 508 32 136 31 460 -1 633 -81 434 -290 935 -585
1400 -62 99 -107 189 -107 216 0 5 18 0 40 -11 46 -23 117 -35 154 -26 38 9
97 65 117 111 40 91 48 322 18 503 -73 441 -380 899 -828 1239 -15 11 -1 14
694 149 235 45 469 80 745 111 197 22 1083 25 1300 5 875 -82 1519 -229 2185
-499 476 -192 856 -414 1231 -717 41 -34 67 -11 123 106 328 690 411 1471 236
2213 -222 941 -890 1859 -1904 2614 -1360 1013 -3270 1497 -5193 1315 l-167
-16 -75 66 c-310 270 -756 516 -1191 658 -422 137 -917 203 -1365 182z m440
-119 c597 -28 1242 -244 1755 -588 132 -88 262 -188 275 -211 3 -5 -69 -21
-160 -37 -299 -50 -490 -126 -677 -271 -35 -26 -65 -48 -67 -48 -2 0 -43 29
-90 65 -334 252 -754 394 -1251 424 -207 13 -371 5 -602 -30 -519 -78 -1019
-299 -1420 -628 -803 -659 -1154 -1706 -947 -2831 116 -632 419 -1267 830
-1741 186 -215 331 -341 664 -579 509 -364 968 -817 1364 -1343 214 -286 374
-532 644 -994 331 -565 420 -685 562 -751 45 -21 68 -26 130 -24 289 5 479
225 520 603 6 57 13 105 15 107 1 2 31 -39 66 -90 183 -272 364 -447 534 -517
89 -37 209 -36 286 2 150 73 223 237 236 529 l6 127 84 -79 c233 -220 472
-240 672 -55 113 105 156 223 156 433 0 78 1 142 2 142 5 0 119 -224 168 -330
314 -681 378 -1227 190 -1617 -29 -58 -65 -113 -98 -149 -53 -57 -54 -58 -85
-45 -60 25 -120 193 -158 440 -18 117 -29 141 -68 141 -41 0 -52 -27 -65 -165
-45 -474 -152 -783 -264 -761 -83 17 -164 133 -222 319 -22 71 -32 88 -50 93
-46 11 -57 0 -121 -124 -144 -281 -284 -452 -370 -452 -31 0 -69 43 -85 98
-16 53 -16 227 0 306 15 79 -17 124 -68 96 -37 -19 -44 -50 -49 -212 -6 -191
8 -261 66 -329 136 -158 338 -39 537 316 62 110 53 108 92 25 110 -240 301
-319 429 -178 68 75 125 235 181 508 4 17 7 20 11 10 29 -85 49 -128 79 -167
43 -56 44 -80 13 -309 -120 -902 -614 -1810 -1335 -2452 -667 -594 -1435 -978
-2680 -1339 -338 -98 -913 -229 -1150 -263 -44 -6 -93 -13 -110 -17 -26 -5
-14 11 95 123 255 262 495 597 665 926 75 147 81 181 28 194 -41 11 -53 -3
-129 -148 -399 -757 -997 -1328 -1591 -1518 -196 -63 -343 -84 -573 -84 -274
0 -447 40 -619 141 -224 132 -399 420 -418 687 -7 100 -22 128 -66 124 -48 -5
-58 -34 -46 -133 5 -44 21 -122 34 -173 14 -52 25 -97 25 -102 0 -26 -628 170
-674 211 -5 4 25 24 65 45 149 74 338 205 536 371 62 52 115 98 118 104 4 5
45 9 93 9 981 0 1972 689 2793 1940 70 107 145 217 166 243 21 27 71 90 111
140 323 406 617 1003 761 1547 198 744 154 1347 -140 1932 -398 794 -1113
1322 -1969 1455 -142 22 -536 25 -675 5 -202 -29 -513 -102 -625 -146 -12 -5
-32 26 -85 125 -513 973 -623 1894 -322 2685 66 173 197 409 278 502 34 38 37
64 9 92 -30 30 -49 25 -129 -40 -166 -132 -361 -200 -464 -161 -35 14 -95 69
-114 104 -79 154 124 556 530 1050 95 115 103 129 91 161 -13 35 -41 38 -122
12 -117 -36 -230 -53 -247 -35 -40 40 178 474 378 754 232 324 559 656 882
896 633 470 1452 793 2255 889 123 15 412 28 515 24 44 -2 136 -6 205 -9z
m-75 -786 c329 -42 609 -130 847 -265 95 -53 249 -161 263 -183 3 -6 -11 -33
-33 -59 -177 -214 -291 -514 -333 -875 -16 -140 -6 -553 16 -672 32 -167 9
-234 -129 -384 -100 -107 -132 -164 -151 -264 -8 -40 -26 -106 -40 -147 -74
-213 -113 -517 -95 -732 49 -559 331 -988 854 -1299 528 -314 1070 -464 1526
-421 104 10 106 10 145 -15 142 -91 391 -321 508 -470 252 -319 371 -631 371
-973 0 -316 -74 -347 -303 -125 -100 97 -125 110 -155 79 -24 -24 -20 -47 29
-144 265 -528 306 -956 107 -1142 -194 -182 -443 -99 -669 224 -71 101 -93
117 -129 93 -25 -16 -26 -20 -20 -79 28 -255 28 -370 0 -509 -55 -268 -252
-331 -483 -153 -141 109 -304 313 -467 586 -69 115 -84 135 -108 138 -54 7
-59 -9 -52 -153 24 -445 -105 -698 -379 -746 -62 -11 -68 -10 -120 15 -108 53
-211 192 -464 626 -466 797 -749 1196 -1168 1645 -285 306 -705 668 -1028 885
-651 438 -1178 1290 -1340 2164 -54 295 -73 672 -45 921 43 380 162 764 332
1069 448 802 1301 1317 2283 1379 86 6 346 -3 430 -14z m3680 -69 c1111 -71
2048 -309 2930 -745 570 -282 1022 -593 1494 -1028 144 -133 416 -415 408
-423 -2 -3 -42 14 -88 35 -171 80 -355 108 -510 77 -177 -36 -307 -113 -474
-280 -137 -138 -223 -259 -318 -446 -279 -552 -289 -1167 -24 -1560 20 -30 35
-55 34 -57 -2 -1 -53 19 -115 46 -219 97 -519 204 -789 280 -285 80 -461 114
-1508 291 -1887 318 -2443 421 -3030 561 -262 63 -585 153 -585 165 0 15 77
135 177 276 223 315 225 326 221 1063 -3 528 3 638 47 812 78 306 329 613 692
842 l82 52 138 15 c322 33 894 44 1218 24z m-1566 -83 c-15 -12 -61 -49 -104
-82 -246 -189 -449 -466 -519 -708 -57 -196 -61 -252 -61 -877 -1 -720 -2
-725 -160 -945 -118 -164 -184 -264 -211 -317 -13 -27 -28 -48 -33 -48 -44 0
-309 131 -377 186 -56 47 -68 77 -62 173 6 106 35 162 145 282 147 160 170
234 138 452 -28 185 -28 592 -1 752 94 563 381 926 847 1070 73 22 364 82 409
84 10 0 6 -7 -11 -22z m6101 -2084 c164 -34 419 -182 523 -303 156 -182 402
-606 523 -900 326 -795 331 -1656 15 -2453 -17 -43 -44 -103 -59 -133 l-27
-54 -79 96 c-398 481 -1007 969 -1637 1310 -167 91 -227 144 -319 285 -244
371 -233 940 26 1464 180 362 456 630 709 689 124 28 187 28 325 -1z m-7657
-774 c65 -64 201 -138 362 -199 63 -23 70 -29 67 -51 -11 -82 -5 -279 11 -339
43 -166 189 -397 367 -583 459 -480 1100 -771 1920 -873 68 -8 126 -17 128
-19 7 -7 -417 -88 -563 -106 -150 -20 -457 -17 -589 5 -239 39 -458 113 -741
251 -309 151 -474 263 -650 440 -208 208 -334 444 -392 732 -36 178 -22 549
28 736 12 45 11 45 52 6z m661 -298 c215 -64 483 -131 771 -192 237 -50 807
-161 1060 -205 565 -100 558 -99 1415 -243 261 -44 556 -94 655 -111 99 -17
234 -40 300 -51 832 -137 1488 -363 2145 -740 442 -253 955 -652 1235 -960
l30 -33 -40 24 c-212 124 -284 163 -440 240 -923 454 -2026 690 -3221 691
-445 0 -782 -25 -1161 -88 -501 -83 -1227 39 -1786 300 -539 252 -1012 718
-1113 1098 -28 106 -23 309 8 309 6 0 71 -17 142 -39z m-3480 -2930 c752 -121
1412 -598 1801 -1301 187 -339 295 -732 295 -1077 l0 -82 -72 -103 c-241 -346
-549 -645 -791 -770 -174 -90 -347 -120 -487 -84 -236 60 -272 243 -110 566
52 105 97 169 153 218 174 153 205 195 172 232 -32 36 -62 25 -139 -48 -248
-238 -560 -467 -800 -589 -337 -170 -646 -175 -732 -11 -69 133 96 494 346
753 204 212 215 230 170 270 -32 29 -59 12 -175 -112 -290 -311 -580 -552
-824 -687 -307 -169 -578 -169 -678 1 -26 44 -28 56 -28 153 0 93 4 117 35
210 68 205 230 491 431 761 87 116 96 147 54 175 -29 19 -22 23 -204 -106
-283 -199 -614 -384 -811 -453 -307 -108 -489 -65 -541 128 -48 175 36 512
217 866 54 105 57 109 182 216 565 487 1224 806 1809 877 70 9 142 18 158 20
79 11 446 -4 569 -23z m-2958 -1358 c-78 -204 -117 -427 -97 -559 67 -454 529
-446 1279 23 57 36 105 63 107 61 2 -1 -28 -52 -66 -113 -241 -382 -332 -717
-247 -905 32 -70 118 -150 196 -182 90 -36 294 -33 412 6 156 52 373 175 544
310 33 25 61 45 62 43 2 -1 -11 -43 -28 -92 -76 -219 -35 -386 114 -461 258
-131 683 -9 1136 326 41 31 47 23 24 -31 -28 -64 -52 -179 -52 -245 0 -238
186 -376 485 -361 176 9 323 64 515 192 175 116 414 351 578 567 36 48 69 85
73 83 14 -9 -43 -339 -87 -505 -186 -698 -538 -1353 -949 -1766 -245 -245
-410 -325 -612 -295 -153 23 -244 92 -277 211 l-17 61 29 37 c17 20 40 46 52
57 130 116 341 461 463 756 48 117 127 350 127 376 0 47 -62 71 -92 36 -8 -10
-22 -45 -32 -78 -79 -264 -229 -582 -377 -801 -267 -393 -576 -575 -934 -549
-199 15 -329 69 -386 162 -73 118 65 474 312 801 89 117 270 385 337 498 46
77 47 115 2 129 -35 11 -62 -17 -147 -151 -502 -796 -998 -1243 -1378 -1244
-175 0 -319 79 -379 209 -18 39 -21 64 -20 166 1 177 44 318 189 613 l73 149
83 68 c238 191 459 398 459 429 0 23 -36 56 -60 56 -12 0 -57 -35 -108 -83
-422 -401 -917 -743 -1256 -868 -303 -112 -541 -88 -631 65 -53 90 -70 236
-44 382 11 62 11 62 72 100 208 127 519 416 799 742 91 106 104 135 72 166
-35 36 -57 21 -185 -126 -273 -314 -561 -578 -765 -701 -192 -115 -438 -132
-480 -32 -21 50 2 173 82 447 157 539 464 1148 812 1613 85 114 244 306 249
301 2 -2 -12 -43 -31 -93z m-1175 -2369 c56 -61 187 -87 324 -65 39 6 78 12
88 14 18 2 19 -7 18 -123 -1 -69 3 -142 8 -163 11 -45 26 -26 -229 -302 -349
-378 -665 -682 -799 -767 -54 -34 -121 -39 -121 -10 0 30 106 319 221 602 66
161 436 840 459 840 4 0 17 -12 31 -26z m1899 -259 c0 -2 -17 -44 -39 -92
-205 -469 -166 -802 109 -930 33 -16 60 -30 60 -34 0 -10 -186 -233 -312 -374
-458 -512 -1215 -1180 -1701 -1500 -45 -29 -93 -62 -107 -73 -54 -40 -241
-153 -365 -219 -298 -159 -500 -208 -573 -140 -56 52 -67 91 -67 242 0 129 3
149 34 255 34 118 121 344 169 439 l27 54 75 18 c572 135 1665 1095 2394 2104
80 110 95 126 184 186 93 64 112 75 112 64z m-1248 -367 c174 -85 435 -59 722
71 38 17 71 30 73 28 7 -8 -199 -268 -383 -482 -690 -804 -1557 -1473 -1952
-1508 -56 -5 -66 -3 -90 18 -25 22 -27 28 -26 102 2 139 60 318 185 568 117
235 146 277 200 290 137 35 479 349 987 908 l125 137 52 -52 c28 -29 76 -65
107 -80z m2367 -367 c-26 -86 -37 -184 -27 -247 l9 -56 -123 -176 c-438 -635
-751 -1017 -1192 -1458 -480 -479 -845 -747 -1166 -854 -316 -106 -480 -4
-511 319 -12 123 -9 129 68 181 635 428 1508 1231 1985 1826 l89 111 117 6
c99 4 132 10 213 39 156 55 327 164 479 306 36 34 68 61 71 62 4 0 -1 -27 -12
-59z m1182 -421 c71 -154 212 -232 424 -234 115 -1 197 17 293 65 41 21 77 37
79 36 7 -8 -218 -305 -361 -477 -595 -715 -1334 -1187 -1971 -1259 -155 -17
-225 -22 -225 -15 0 4 55 64 123 133 447 459 893 1017 1245 1557 71 109 74
112 137 138 35 15 99 50 142 76 43 27 79 49 80 50 1 0 16 -32 34 -70z m-1089
-6 c95 -79 241 -117 455 -118 l152 -1 -16 -25 c-531 -830 -1361 -1749 -1913
-2117 -325 -217 -564 -279 -844 -218 -71 15 -196 68 -196 82 0 4 32 25 71 46
443 235 1146 901 1675 1587 175 226 504 681 551 761 21 35 27 36 65 3z m-4108
-1203 c3 -4 -15 -55 -40 -112 -201 -457 -231 -780 -88 -948 43 -50 63 -21
-176 -256 -733 -722 -1413 -1238 -1910 -1450 -361 -154 -666 -84 -792 182
-134 282 -8 684 305 980 225 211 451 335 869 474 692 231 1262 577 1728 1050
87 89 95 95 104 80z m886 -798 c5 -120 48 -271 98 -349 72 -111 156 -155 310
-163 l102 -6 -86 -135 c-498 -781 -939 -1346 -1443 -1851 -258 -258 -430 -408
-604 -527 -727 -496 -1367 -643 -1631 -375 -86 86 -112 181 -102 366 16 320
146 635 383 927 89 109 126 142 238 205 459 263 1033 728 1655 1341 l225 221
74 7 c147 13 397 118 651 274 117 71 130 78 130 65z m7634 -164 c-91 -125
-202 -255 -323 -376 -622 -620 -1360 -758 -1897 -355 -46 35 -84 66 -84 70 0
4 73 22 163 41 672 140 1526 410 2082 659 61 27 112 47 114 46 2 -2 -23 -40
-55 -85z m-6873 -295 c45 -54 166 -108 304 -135 80 -15 294 -18 373 -5 l54 9
-33 -59 c-229 -416 -422 -716 -694 -1079 -730 -972 -1548 -1656 -1895 -1584
-116 24 -211 92 -253 182 -46 96 -45 99 25 158 364 300 802 769 1186 1267 253
329 611 852 803 1174 44 74 102 106 130 72z m956 -198 c107 -44 279 -104 360
-125 l42 -11 -40 -93 c-80 -182 -340 -695 -435 -857 -313 -533 -596 -854 -854
-966 -59 -26 -75 -29 -185 -29 -192 0 -313 52 -359 153 l-18 41 126 140 c469
524 890 1116 1181 1664 38 70 69 127 71 127 2 0 52 -20 111 -44z m621 -191
l84 -18 46 -71 c106 -162 281 -301 470 -372 l87 -32 114 -377 c62 -207 111
-378 109 -380 -2 -3 -114 -11 -249 -20 -134 -8 -316 -20 -404 -25 -189 -13
-755 -63 -973 -87 -83 -9 -155 -14 -158 -11 -3 4 17 37 44 75 174 239 429 702
627 1138 96 212 94 207 108 202 7 -2 50 -12 95 -22z m2910 -56 c80 -73 197
-152 307 -207 118 -59 224 -90 399 -117 l38 -6 70 -147 c39 -81 94 -197 123
-259 l54 -113 -39 -84 c-21 -46 -42 -86 -47 -89 -5 -3 -41 3 -80 13 -304 80
-598 37 -796 -114 l-47 -36 -519 0 -519 0 -12 53 c-34 158 -58 499 -45 652 l7
87 41 16 c138 53 378 191 521 299 l59 45 166 25 c91 13 182 28 201 33 19 4 39
8 43 9 5 1 39 -26 75 -60z m1625 -246 c39 -146 98 -301 152 -396 25 -44 45
-82 45 -86 0 -3 -41 -19 -90 -34 -101 -31 -128 -55 -111 -100 15 -39 39 -40
137 -7 49 17 152 47 229 66 798 198 1491 74 1909 -341 116 -115 162 -181 204
-293 90 -240 -52 -452 -281 -418 -44 7 -45 8 -67 69 -82 230 -273 453 -490
571 -283 154 -754 218 -1205 165 -104 -13 -122 -20 -131 -55 -12 -47 20 -67
96 -59 667 70 1149 -42 1418 -330 264 -282 310 -602 99 -690 -76 -32 -261 -29
-389 6 l-38 10 0 72 c-1 325 -225 581 -601 686 -143 39 -259 52 -478 52 -198
0 -221 -6 -221 -56 0 -49 21 -54 220 -54 254 1 415 -26 577 -94 302 -127 447
-392 374 -680 -61 -235 -185 -307 -423 -243 -159 42 -325 125 -642 319 -409
251 -736 363 -1121 383 l-120 6 -79 51 c-169 107 -423 210 -623 253 -46 9 -83
22 -83 28 0 23 108 153 172 206 197 166 472 204 786 109 65 -20 77 -28 102
-65 44 -63 115 -121 199 -161 123 -60 187 -55 179 14 -3 29 -6 31 -120 82 -74
32 -154 101 -184 156 l-18 35 53 109 54 109 -116 246 c-65 135 -118 252 -120
258 -1 9 28 15 97 21 162 13 480 110 570 172 42 30 50 21 79 -92z m-2849 -378
c8 -320 38 -523 103 -708 19 -54 33 -100 30 -103 -2 -2 -41 -11 -87 -19 -46
-8 -93 -22 -106 -30 -29 -19 -31 -55 -4 -80 18 -17 25 -17 122 -1 462 73 872
56 1241 -50 553 -159 986 -574 991 -949 1 -83 -2 -96 -32 -157 -63 -129 -187
-177 -329 -126 -29 11 -32 17 -43 75 -36 206 -188 465 -354 603 -257 212 -710
357 -1177 377 l-147 6 -17 -26 c-19 -29 -13 -62 13 -76 9 -4 76 -11 147 -15
473 -25 882 -156 1118 -359 237 -204 382 -594 286 -767 -67 -122 -207 -145
-438 -70 -130 41 -123 35 -110 106 36 189 -35 412 -178 565 -175 187 -543 334
-890 356 l-92 6 -12 -27 c-9 -19 -9 -32 -1 -51 13 -28 12 -28 184 -50 489 -63
805 -274 874 -582 37 -167 -20 -375 -133 -485 -166 -162 -439 -47 -958 402
-462 400 -920 577 -1545 596 -251 7 -318 24 -385 93 -46 50 -48 139 -5 229 65
131 246 283 400 334 113 37 287 37 431 -1 187 -48 248 -80 295 -152 68 -105
215 -205 319 -217 38 -4 45 -1 60 22 28 42 9 71 -57 90 -88 25 -187 97 -231
166 -16 25 -15 28 58 132 41 58 75 114 75 123 0 10 -13 61 -30 114 -78 252
-250 834 -250 847 0 12 11 13 68 7 197 -23 543 0 702 46 36 10 70 18 77 17 9
-1 13 -59 17 -211z m1041 -727 c-30 -46 -58 -82 -62 -81 -113 22 -643 28 -697
7 -13 -5 -23 8 -46 60 -17 36 -30 70 -30 75 0 16 51 18 482 19 l408 2 -55 -82z
m-1761 -12 c9 -30 16 -60 16 -66 0 -10 -75 -124 -101 -154 -4 -4 -54 10 -111
32 -290 114 -575 110 -787 -10 -372 -209 -493 -592 -235 -744 73 -43 131 -55
319 -64 331 -17 444 -31 640 -82 342 -88 575 -215 920 -503 469 -392 654 -494
875 -483 70 3 94 9 139 33 64 35 138 115 176 191 21 42 32 53 44 48 381 -154
642 -97 707 155 11 42 14 46 40 43 182 -17 263 1 349 80 173 158 174 454 3
720 -46 71 -168 219 -206 248 l-25 20 34 0 c112 0 385 -62 548 -125 102 -39
267 -120 360 -178 197 -121 358 -214 463 -268 431 -219 694 -194 824 78 19 40
34 79 34 87 0 25 14 26 116 5 129 -27 291 -23 375 10 114 44 196 148 206 262
l6 57 91 4 c199 9 328 126 358 325 l10 70 221 -38 c1435 -248 2279 -618 2196
-961 -70 -292 -766 -591 -1894 -812 -523 -103 -1313 -213 -1870 -261 -93 -8
-271 -24 -395 -35 -237 -21 -693 -49 -1225 -76 -369 -19 -2226 -28 -2620 -13
-573 21 -1266 62 -1685 99 -441 39 -411 36 -755 76 -1675 193 -2826 506 -3185
865 -104 104 -127 207 -70 318 27 54 38 65 145 135 64 42 119 76 124 76 4 0
14 -19 22 -42 55 -167 273 -302 461 -284 254 23 643 274 1053 678 l120 119 20
-28 c89 -124 205 -178 411 -190 166 -10 293 31 452 144 67 48 221 195 294 281
l44 52 115 15 c361 44 1491 137 1761 144 l57 1 15 -54z"/>
<path d="M9915 17820 c-787 -124 -1248 -923 -955 -1657 127 -319 411 -585 738
-693 298 -98 648 -73 926 66 289 145 522 417 615 718 51 164 68 402 41 556
-85 488 -436 867 -915 986 -113 28 -343 40 -450 24z m314 -110 c454 -57 838
-417 931 -872 79 -385 -61 -797 -357 -1051 -338 -288 -824 -349 -1213 -152
-110 56 -133 82 -40 45 137 -54 371 -63 531 -21 277 72 521 303 609 577 185
575 -237 1156 -840 1156 -394 0 -709 -231 -846 -621 -2 -8 -7 -12 -10 -9 -10
11 36 188 70 271 193 466 663 739 1165 677z m-402 -658 c130 -67 182 -221 117
-350 -102 -206 -407 -181 -478 40 -20 62 -20 81 -1 145 35 119 144 199 260
190 33 -2 79 -14 102 -25z"/>
<path d="M11014 15331 c-206 -174 -474 -305 -726 -357 -55 -11 -136 -17 -240
-18 -165 -1 -186 -7 -174 -44 9 -27 99 -37 254 -28 271 15 527 107 787 281
184 123 237 179 203 213 -20 20 -31 15 -104 -47z"/>
</g>
</svg>
