<svg xmlns="http://www.w3.org/2000/svg" viewBox="0 0 2024 2362" fill="#333" role="img" aria-label="line art">
<g transform="translate(0.000000,2362.000000) scale(0.100000,-0.100000)"
fill="#333" stroke="none">
<path d="M14578 23209 c-14 -6 -29 -18 -33 -27 -4 -9 -9 -150 -11 -312 l-3
-295 -75 -72 c-42 -39 -149 -136 -238 -214 -191 -166 -197 -174 -198 -216 0
-44 14 -50 176 -68 167 -19 445 -73 460 -89 11 -11 236 -521 249 -566 20 -66
45 -100 74 -100 37 0 48 15 106 140 27 58 90 186 140 285 l90 179 165 27 c278
45 570 112 602 139 24 19 20 52 -11 92 -11 14 -84 69 -163 123 -238 164 -348
249 -348 268 0 9 47 111 104 225 57 114 112 230 122 259 l18 52 -24 26 c-37
39 -54 36 -406 -82 l-201 -66 -109 65 c-194 117 -439 244 -457 237 -1 0 -14
-5 -29 -10z m164 -150 c122 -61 316 -170 377 -212 l44 -30 121 40 c67 23 183
63 258 89 76 26 141 44 145 40 4 -4 -18 -58 -50 -119 -187 -360 -191 -367
-181 -395 5 -14 36 -48 68 -74 62 -50 85 -66 310 -219 75 -51 133 -95 129 -99
-18 -17 -523 -124 -639 -136 -55 -6 -67 -11 -84 -34 -19 -26 -188 -377 -223
-462 -9 -21 -20 -38 -25 -38 -5 0 -39 66 -75 148 -151 337 -196 435 -205 444
-14 14 -312 72 -444 88 -60 7 -108 16 -108 20 0 4 51 52 113 106 61 54 159
143 217 197 58 54 114 105 124 114 17 14 18 25 12 105 -5 84 3 478 11 478 2 0
49 -23 105 -51z"/>
<path d="M3812 22123 c-21 -32 -63 -98 -92 -148 -30 -49 -54 -91 -55 -93 -2
-1 -63 -14 -136 -28 -259 -50 -260 -60 -31 -213 50 -34 92 -68 92 -76 0 -8
-31 -83 -70 -166 -38 -83 -70 -159 -70 -169 0 -50 37 -44 328 58 l113 39 67
-45 c37 -25 104 -71 150 -104 101 -71 128 -72 119 -4 -3 22 -14 114 -24 204
l-17 162 35 30 c18 17 80 67 137 111 56 44 102 86 102 94 0 25 -28 35 -191 70
-90 19 -173 39 -185 44 -11 5 -48 59 -84 122 -112 201 -123 208 -188 112z
m187 -221 c13 -28 31 -54 40 -56 9 -3 87 -21 174 -41 86 -21 157 -40 157 -44
0 -3 -11 -13 -26 -22 -14 -8 -65 -49 -114 -90 l-89 -74 0 -50 c0 -27 6 -111
13 -185 8 -74 12 -136 11 -138 -1 -1 -54 34 -116 79 -153 109 -144 106 -220
76 -80 -31 -309 -100 -315 -94 -3 2 27 69 66 147 38 78 70 153 70 166 0 20
-23 39 -125 106 -68 46 -125 86 -125 89 0 3 66 19 147 35 l147 29 42 72 c24
40 64 105 89 144 l47 72 51 -85 c29 -46 63 -108 76 -136z"/>
<path d="M9544 22029 c-1011 -42 -2105 -278 -3058 -659 -1064 -425 -2012
-1015 -2863 -1783 -292 -263 -717 -708 -926 -969 -34 -42 -66 -77 -71 -77 -5
-1 -79 41 -165 92 -373 224 -628 356 -705 364 -84 10 -116 -40 -77 -121 30
-61 187 -234 444 -488 l220 -218 -41 -57 c-385 -538 -763 -1199 -971 -1696
-91 -216 -93 -277 -9 -277 60 0 71 11 149 147 307 539 685 1043 1098 1466 53
53 99 97 104 97 5 0 50 -39 100 -87 51 -49 196 -185 322 -303 375 -351 616
-581 860 -822 358 -353 1070 -1068 1073 -1076 1 -4 -39 -59 -89 -122 -50 -63
-204 -266 -342 -450 -505 -674 -645 -832 -872 -982 -206 -137 -379 -188 -637
-188 l-149 0 -131 45 c-157 54 -195 57 -235 16 -53 -53 -70 -169 -34 -239 58
-114 295 -270 520 -343 l86 -27 -3 -44 c-4 -55 33 -113 140 -220 203 -201 498
-322 874 -359 127 -13 398 -7 518 11 38 6 70 9 72 7 2 -2 -12 -50 -31 -107
-18 -58 -63 -199 -98 -315 -199 -641 -265 -848 -327 -1016 -170 -460 -343
-805 -596 -1184 -243 -365 -349 -500 -558 -710 -197 -198 -260 -279 -327 -418
-139 -292 -115 -556 86 -956 124 -247 261 -427 525 -691 190 -191 302 -276
479 -364 290 -146 603 -177 881 -87 49 16 94 25 101 21 28 -15 275 -32 369
-25 475 34 805 235 1176 715 86 112 135 182 322 461 273 407 456 620 702 818
348 279 614 405 1141 542 332 85 524 143 653 194 61 25 116 45 122 45 10 0
144 -219 187 -305 130 -264 228 -603 279 -961 30 -212 33 -777 5 -1054 -35
-345 -95 -702 -157 -935 -38 -142 -270 -828 -283 -837 -13 -8 -255 -54 -442
-82 -123 -20 -166 -22 -240 -16 -131 12 -451 12 -540 -1 -43 -6 -123 -24 -179
-40 -93 -27 -114 -29 -261 -29 -88 0 -226 5 -306 9 l-146 9 -114 61 c-285 150
-576 198 -779 126 -114 -40 -123 -40 -286 0 -1655 408 -3088 1348 -4111 2695
-371 488 -695 1053 -925 1615 -39 94 -77 176 -86 182 -39 31 -92 1 -92 -52 0
-105 251 -810 436 -1223 604 -1350 1483 -2502 2640 -3460 104 -85 506 -391
541 -410 13 -8 14 -20 3 -101 -17 -118 -8 -301 19 -403 28 -107 63 -175 132
-251 32 -36 59 -67 59 -70 0 -2 -19 -10 -42 -17 -55 -16 -210 -88 -265 -123
-24 -15 -52 -27 -63 -27 -68 0 -383 132 -438 183 -31 29 -59 95 -84 197 -19
80 -20 104 -13 400 10 455 -21 615 -154 798 -51 70 -101 51 -101 -38 0 -16
-18 -102 -41 -192 -64 -257 -56 -400 31 -583 41 -84 137 -214 171 -229 11 -5
21 -19 23 -30 11 -61 37 -194 42 -213 11 -39 -11 -26 -108 66 -195 185 -339
395 -520 761 -140 284 -199 391 -280 513 -151 226 -354 396 -476 401 -91 3
-82 -41 68 -339 173 -344 305 -505 495 -601 55 -28 114 -55 131 -61 26 -9 43
-32 103 -142 40 -73 104 -178 142 -234 l70 -102 -38 -3 c-21 -2 -84 -1 -139 3
l-102 7 -33 46 c-237 337 -497 525 -770 557 -111 13 -125 -27 -58 -165 166
-344 463 -493 1010 -506 l176 -4 134 -133 c74 -74 161 -152 193 -173 l59 -39
-124 -7 c-68 -4 -128 -3 -134 2 -16 13 -240 98 -303 115 -79 21 -244 30 -316
16 -116 -22 -223 -91 -293 -189 -59 -82 -35 -130 77 -156 150 -34 283 -48 404
-44 145 6 198 22 335 105 146 89 169 94 340 87 128 -6 151 -10 206 -35 33 -15
99 -39 146 -54 46 -15 90 -28 98 -31 9 -3 -11 -30 -57 -79 -115 -120 -149
-212 -139 -375 15 -250 137 -507 337 -710 255 -259 509 -344 793 -267 55 15
100 27 102 27 1 0 5 -51 7 -112 8 -177 57 -293 176 -420 83 -88 134 -124 257
-186 240 -120 476 -150 715 -92 393 96 700 450 700 807 0 94 0 95 23 89 205
-60 379 -38 558 70 148 90 307 275 369 430 13 32 25 61 26 63 2 2 43 -30 91
-72 147 -125 320 -225 478 -276 44 -14 82 -29 85 -33 3 -3 -22 -26 -55 -50
-194 -145 -275 -315 -246 -519 55 -374 294 -712 619 -877 134 -68 173 -77 327
-76 112 0 141 4 208 26 42 14 78 23 78 19 1 -3 1 -31 0 -61 -13 -363 289 -672
738 -756 118 -22 325 -15 436 15 300 82 544 306 648 595 25 69 29 97 31 188 1
122 -5 116 91 93 76 -19 213 -19 290 -1 220 52 433 238 555 484 97 196 121
494 56 697 -14 44 -26 83 -26 86 0 4 46 9 103 11 83 4 117 11 183 37 90 35
260 142 340 215 29 25 56 46 60 46 5 0 18 -21 28 -47 77 -187 333 -423 569
-526 369 -159 691 -123 933 105 l51 48 23 -60 c57 -152 208 -300 365 -359 199
-75 512 -68 732 14 297 112 539 398 600 712 l18 89 65 -33 c162 -80 432 -103
697 -57 172 29 336 97 466 191 92 68 344 299 352 322 29 92 -333 511 -616 714
-115 82 -317 167 -395 167 -20 0 -24 7 -29 47 -23 188 -62 312 -141 448 -45
77 -154 197 -219 243 -52 36 6 61 145 62 98 0 171 -19 300 -80 165 -77 282
-99 433 -80 158 19 327 84 436 166 96 72 114 114 66 152 -25 20 -204 59 -380
83 -208 29 -422 -23 -575 -140 -42 -32 -61 -41 -80 -37 -14 3 -62 11 -108 17
-46 7 -80 15 -75 19 4 4 62 48 129 98 66 49 155 119 196 154 l76 65 199 6
c526 17 747 119 1003 462 147 197 178 320 85 338 -86 16 -413 -158 -601 -320
-109 -94 -254 -301 -254 -362 0 -16 -13 -19 -97 -25 -88 -5 -206 -9 -226 -7
-4 1 29 43 74 94 92 103 149 186 204 297 34 69 44 79 118 130 204 139 445 356
526 473 74 109 171 362 171 450 0 68 -59 63 -193 -18 -340 -204 -479 -379
-617 -771 -94 -267 -177 -401 -372 -596 -133 -132 -198 -187 -198 -165 0 8 13
68 28 133 27 112 33 125 95 212 177 250 234 505 172 777 -27 117 -38 137 -80
138 -62 0 -238 -234 -317 -423 -96 -227 -88 -440 20 -548 l44 -45 -37 -166
c-20 -91 -41 -174 -46 -183 -10 -18 -285 -223 -355 -264 -38 -23 -43 -23 -76
-10 -74 31 -198 49 -303 43 -123 -7 -193 -26 -314 -83 -73 -34 -92 -40 -88
-26 3 9 24 70 47 134 25 71 45 152 52 206 l11 90 81 68 c1150 978 2047 2211
2625 3610 133 323 292 783 367 1063 111 416 164 659 228 1051 146 889 154
1943 20 2845 -258 1737 -967 3324 -2088 4675 -340 410 -841 908 -1244 1237
-1407 1148 -3040 1847 -4847 2073 -500 62 -1029 82 -1571 59z m989 -99 c1454
-99 2758 -481 3997 -1173 548 -306 1104 -696 1555 -1092 667 -585 1192 -1180
1647 -1867 898 -1353 1400 -2808 1545 -4478 25 -292 25 -1096 0 -1390 -58
-670 -167 -1276 -338 -1870 -301 -1051 -754 -1988 -1409 -2912 -52 -73 -80
-95 -80 -64 0 31 -156 318 -244 451 -105 156 -314 426 -406 523 l-60 63 39
127 c140 447 180 873 125 1331 -50 419 -241 873 -514 1216 -101 127 -187 220
-244 264 l-53 41 -7 133 c-18 340 -77 618 -193 902 -104 257 -322 582 -544
810 l-87 90 -6 105 c-137 2176 -1227 4190 -2971 5485 -865 643 -1852 1084
-2918 1304 -505 105 -843 140 -1429 148 l-408 6 -10 36 c-23 80 -51 231 -57
306 -7 95 -15 115 -49 115 -32 0 -39 -20 -55 -150 -12 -111 -54 -309 -66 -321
-5 -4 -80 -15 -168 -23 -1196 -122 -2341 -529 -3347 -1192 -219 -145 -370
-254 -566 -413 -79 -64 -153 -122 -165 -130 -20 -12 -34 -6 -177 79 -85 51
-157 94 -159 96 -8 7 236 289 433 499 1333 1423 3096 2403 5001 2779 546 108
867 145 1560 180 118 6 666 -4 828 -14z m-3079 -1905 c87 -260 228 -434 436
-537 36 -18 66 -33 68 -34 2 -1 -33 -37 -78 -80 -142 -136 -250 -329 -315
-564 -46 -163 -37 -155 -80 -70 -121 240 -286 402 -533 521 -51 24 -92 46 -92
49 0 3 21 17 48 32 119 67 293 251 357 379 41 80 82 191 110 295 31 119 34
128 39 123 2 -2 20 -53 40 -114z m1026 -39 c1155 -106 2209 -449 3180 -1034
1743 -1051 2976 -2796 3384 -4787 54 -267 122 -711 111 -724 -4 -3 -7 7 -60
234 -183 778 -464 1375 -914 1940 -108 135 -395 428 -546 557 -514 438 -1109
750 -1975 1038 -364 121 -948 267 -1294 322 -14 2 -34 43 -80 163 -280 719
-623 1194 -964 1334 -280 116 -379 48 -557 -384 -119 -287 -272 -848 -310
-1130 -4 -27 -8 -57 -11 -65 -3 -13 -48 -15 -321 -15 -289 0 -330 -2 -447 -23
-172 -31 -379 -91 -548 -158 -76 -30 -142 -53 -146 -50 -4 2 -33 42 -65 88
-32 45 -92 132 -134 192 -260 373 -644 589 -1053 591 -120 0 -159 -15 -195
-75 -56 -97 -2 -449 150 -977 36 -125 64 -230 63 -234 -2 -4 -37 12 -78 36
-41 23 -223 125 -405 226 -404 224 -473 262 -845 471 -362 202 -363 203 -585
323 -161 88 -308 169 -620 344 -55 31 -100 61 -100 68 0 13 69 72 240 204
1073 832 2354 1353 3695 1503 220 24 215 25 212 -4 -4 -37 -64 -171 -113 -251
-74 -124 -224 -256 -388 -345 -107 -58 -103 -109 13 -138 321 -80 610 -375
696 -710 25 -97 24 -96 70 -96 46 0 60 18 60 78 0 116 82 409 157 561 70 141
203 295 306 354 65 38 60 85 -11 108 -65 21 -205 97 -257 138 -72 58 -139 143
-190 243 -52 99 -51 95 -27 102 35 11 741 -4 902 -18z m713 -1011 c297 -77
563 -373 836 -930 283 -577 470 -1252 512 -1850 17 -249 -7 -807 -41 -962 -13
-55 -40 -123 -50 -123 -4 0 -54 13 -111 30 -57 16 -155 38 -217 49 -63 10
-115 21 -118 23 -2 3 6 31 17 64 49 137 1 942 -87 1469 -90 540 -344 1267
-627 1793 -102 190 -203 348 -245 384 -29 24 -30 27 -14 41 35 30 65 33 145
12z m-7347 -106 c88 -39 295 -154 564 -315 398 -237 521 -309 680 -400 95 -55
147 -91 153 -106 15 -39 20 -287 8 -368 -13 -84 -37 -167 -52 -176 -23 -14
-1188 1110 -1363 1315 -65 77 -63 82 10 50z m7171 -31 c210 -225 638 -1246
777 -1855 80 -353 156 -1057 156 -1457 0 -147 -3 -179 -22 -238 l-22 -68 -200
0 c-233 0 -486 -14 -671 -36 -158 -19 -140 -33 -223 179 -150 382 -238 719
-289 1112 -21 165 -24 647 -4 780 6 44 13 105 16 135 13 183 108 604 204 905
71 225 218 575 240 575 4 0 21 -15 38 -32z m-6502 -832 c53 -48 95 -92 93 -96
-2 -5 -76 -86 -164 -182 -389 -417 -681 -805 -971 -1290 -52 -87 -96 -158 -98
-158 -12 0 162 373 282 605 188 361 375 674 581 972 49 70 106 154 128 185 21
31 42 56 46 55 4 -1 50 -42 103 -91z m1090 -141 c88 -49 201 -110 250 -138 50
-27 141 -77 204 -110 94 -51 116 -68 128 -95 22 -53 61 -228 78 -352 18 -130
31 -600 18 -668 l-8 -43 -300 292 c-165 160 -391 377 -502 482 -112 105 -203
194 -203 199 0 5 7 19 15 31 40 61 58 176 59 364 l1 182 50 -28 c28 -16 122
-68 210 -116z m2335 91 c304 -70 520 -205 704 -441 69 -87 183 -255 193 -283
4 -9 17 -30 30 -46 l24 -29 -38 -22 c-21 -12 -90 -50 -153 -85 -139 -77 -358
-220 -498 -326 -158 -120 -133 -114 -236 -59 -105 57 -94 38 -177 324 -87 301
-130 484 -169 726 -30 184 -25 234 30 263 34 18 156 9 290 -22z m-1480 -562
c74 -42 185 -105 245 -139 61 -34 202 -113 314 -175 195 -109 205 -115 223
-157 27 -62 63 -208 84 -348 26 -170 27 -656 1 -795 -40 -217 -60 -300 -72
-300 -7 0 -211 200 -454 445 l-441 446 7 87 c13 144 9 607 -6 707 -12 86 -45
250 -57 287 -9 30 14 21 156 -58z m6063 22 c1172 -254 2081 -609 2727 -1065
695 -490 1199 -1132 1520 -1936 373 -934 488 -2123 310 -3223 -82 -504 -170
-839 -508 -1932 -309 -998 -451 -1678 -477 -2285 -4 -88 -10 -174 -14 -191
l-6 -32 -150 88 c-82 48 -198 121 -257 161 -134 92 -143 95 -171 66 -18 -17
-30 -58 -55 -181 -18 -88 -55 -243 -83 -345 -129 -484 -133 -723 -14 -959 52
-103 127 -199 216 -278 35 -32 65 -60 67 -63 1 -4 -28 -19 -64 -35 -203 -89
-386 -265 -468 -450 -63 -142 -72 -348 -22 -503 l7 -23 -148 0 c-225 1 -411
-39 -578 -122 l-80 -41 -180 6 c-251 9 -329 26 -470 105 -144 82 -235 119
-374 153 -87 21 -128 37 -168 65 -60 41 -116 101 -108 114 7 12 85 36 181 56
129 27 224 82 307 178 485 564 559 1355 194 2086 -82 165 -235 396 -470 709
-233 310 -308 422 -381 567 -106 213 -142 392 -133 669 13 409 93 679 492
1655 364 891 561 1527 644 2085 91 608 -10 1173 -323 1810 -135 274 -263 449
-447 612 -139 123 -376 273 -432 273 -13 0 -17 5 -13 18 21 70 40 406 40 712
0 354 -12 502 -65 777 -31 166 -148 611 -184 706 -9 23 1 22 138 -7z m-2138
-72 l47 -7 -6 -41 c-17 -124 -18 -616 -1 -776 15 -147 46 -354 61 -402 3 -12
0 -18 -10 -18 -9 0 -23 -12 -33 -27 -9 -16 -72 -85 -139 -154 -274 -286 -388
-451 -653 -947 -217 -407 -303 -547 -475 -772 -577 -757 -1469 -1277 -2466
-1440 -212 -35 -544 -30 -743 11 -310 63 -567 209 -708 402 -29 40 -30 81 0
73 94 -28 416 -34 576 -11 555 79 1138 358 1620 775 234 203 387 387 773 930
329 462 597 757 972 1071 219 183 510 389 628 445 41 19 52 30 52 48 0 33 -24
50 -57 42 -67 -17 -358 -208 -580 -381 -67 -52 -127 -95 -132 -95 -5 0 -85 40
-178 88 -397 209 -466 245 -613 320 -85 44 -155 85 -155 90 0 13 154 131 291
222 470 316 939 501 1392 549 95 10 472 13 537 5z m-2937 -503 c61 -35 207
-115 582 -316 74 -40 329 -173 565 -295 237 -123 432 -224 434 -226 2 -2 -86
-93 -196 -201 -289 -287 -476 -512 -747 -900 -43 -62 -81 -113 -83 -113 -14 0
-263 223 -501 449 -125 119 -171 169 -166 180 41 102 92 398 104 604 15 274
-19 655 -76 840 -8 26 11 21 84 -22z m3084 -922 c30 -120 75 -265 123 -394
l45 -120 -60 -60 c-136 -138 -337 -420 -560 -785 -345 -565 -455 -726 -656
-966 -438 -521 -1070 -891 -1674 -980 -155 -22 -441 -15 -581 15 -117 25 -229
59 -229 69 0 4 54 20 121 36 680 157 1432 584 1906 1080 324 339 488 583 835
1241 107 204 186 331 303 490 128 173 378 455 400 450 5 -1 17 -35 27 -76z
m-3233 -616 c245 -233 371 -348 511 -467 63 -54 121 -104 129 -111 24 -23
-215 -321 -424 -529 -590 -586 -1472 -950 -2120 -876 -229 26 -456 107 -615
218 -155 108 -195 174 -154 253 11 22 20 29 32 24 139 -55 255 -84 362 -90
419 -25 779 144 1109 519 141 161 203 240 509 646 152 201 289 383 307 405
100 128 148 185 157 185 5 0 94 -80 197 -177z m3485 -94 c66 -137 63 -135 233
-115 278 33 757 46 938 26 112 -13 263 -44 377 -76 113 -33 167 -27 203 21 14
17 25 37 25 43 0 72 287 -106 480 -298 182 -181 308 -383 459 -737 346 -812
331 -1450 -61 -2653 -93 -287 -242 -671 -523 -1355 -161 -390 -281 -784 -321
-1055 -24 -157 -24 -431 -1 -560 55 -295 150 -476 502 -945 307 -409 428 -596
521 -806 275 -616 227 -1274 -131 -1774 -139 -194 -176 -220 -390 -276 -139
-36 -181 -54 -208 -91 -28 -37 -16 -85 34 -142 23 -26 40 -48 38 -50 -2 -1
-42 -10 -89 -20 -198 -41 -340 -156 -437 -353 -25 -51 -48 -93 -51 -93 -4 0
-24 27 -46 60 -87 136 -235 239 -401 280 -155 39 -392 15 -559 -55 -21 -9 -41
-13 -45 -10 -13 14 -4 460 13 585 46 349 93 534 261 1035 153 459 183 562 224
770 82 412 121 815 121 1240 1 336 -16 524 -71 800 -66 330 -225 732 -385 970
-19 27 -34 53 -34 57 0 3 48 35 106 70 622 372 944 924 1015 1736 16 182 7
704 -16 882 -50 405 -117 625 -190 625 -40 0 -43 -23 -11 -94 80 -180 131
-591 130 -1071 0 -340 -8 -447 -55 -685 -146 -736 -621 -1263 -1362 -1510 -92
-30 -287 -87 -435 -124 -581 -150 -811 -251 -1157 -506 -302 -223 -517 -465
-820 -921 -290 -435 -432 -614 -634 -797 -256 -231 -529 -332 -876 -325 l-140
3 85 59 c287 200 513 524 695 998 52 133 187 577 183 601 -2 16 -11 23 -35 25
-37 4 -41 -5 -118 -255 -112 -369 -264 -702 -426 -939 -70 -102 -264 -296
-359 -358 -341 -225 -715 -244 -1095 -56 -179 89 -285 168 -460 344 -276 279
-416 467 -530 718 -188 410 -190 612 -11 918 39 68 87 123 236 275 256 262
341 370 593 752 366 555 527 919 810 1823 58 184 115 369 127 410 35 121 121
384 128 392 4 4 50 -8 103 -27 747 -261 1703 52 2419 791 231 239 405 479 715
989 283 465 408 650 577 853 38 45 72 82 76 82 4 -1 29 -46 56 -101z m6540
-2365 c477 -539 690 -1117 670 -1819 -15 -567 -144 -1086 -534 -2150 -303
-826 -445 -1355 -539 -2010 -54 -369 -89 -884 -66 -937 l13 -26 -64 -16 c-84
-21 -81 -23 -88 35 -10 73 -30 129 -93 254 -96 192 -231 352 -391 465 l-63 45
6 100 c28 479 33 527 91 880 84 505 192 917 492 1885 251 810 366 1271 426
1710 83 600 94 1085 40 1619 -9 82 -1 80 100 -35z m853 -1936 c279 -295 512
-737 598 -1133 129 -592 58 -1200 -215 -1860 -36 -88 -212 -438 -390 -775
-239 -454 -380 -819 -465 -1196 -15 -65 -28 -121 -30 -122 -2 -2 -33 8 -70 23
-167 66 -394 97 -575 77 -58 -6 -106 -9 -108 -7 -2 2 1 12 7 23 6 12 11 61 11
111 0 244 73 869 141 1216 88 443 229 927 433 1485 390 1064 515 1521 557
2040 16 208 16 206 41 183 12 -10 41 -39 65 -65z m-14797 -1878 c807 -1432
2046 -2541 3560 -3187 374 -160 847 -313 1223 -397 25 -6 39 -26 17 -26 -19 0
-128 -149 -166 -229 -21 -44 -42 -81 -45 -81 -3 0 -22 24 -42 53 -223 317
-616 395 -1013 201 -158 -77 -287 -208 -340 -345 -10 -24 -19 -46 -20 -48 -7
-8 -201 134 -409 298 -1232 976 -2194 2240 -2805 3685 -56 134 -191 481 -207
536 -3 8 40 -70 94 -175 55 -104 123 -233 153 -285z m15396 -1073 c304 -371
544 -749 604 -953 l12 -41 -73 -94 c-231 -298 -500 -598 -815 -911 -193 -191
-530 -498 -546 -498 -4 0 -12 19 -19 42 -19 71 -58 139 -117 200 l-55 58 7 55
c8 73 64 290 116 450 86 267 230 588 424 950 140 260 279 541 336 678 29 70
58 127 64 126 6 0 34 -28 62 -62z m-3163 -1133 c123 -214 297 -591 373 -809
35 -99 104 -352 104 -380 0 -56 -249 63 -417 199 -142 115 -323 324 -323 373
0 13 31 148 69 301 38 152 77 314 87 360 10 47 22 81 28 79 5 -2 41 -57 79
-123z m57 92 c19 -12 103 -62 185 -110 83 -48 168 -101 190 -117 22 -16 67
-47 100 -68 33 -22 77 -54 98 -73 l39 -33 -22 -65 c-44 -132 -191 -417 -210
-405 -5 3 -16 29 -26 58 -46 142 -274 626 -364 772 -43 71 -42 77 10 41z
m4685 -188 c-62 -190 -170 -322 -435 -534 -102 -81 -140 -107 -140 -95 0 6 13
44 30 86 81 204 175 346 302 458 80 70 262 191 266 177 2 -6 -8 -47 -23 -92z
m-1014 -358 c23 -163 -27 -376 -127 -536 -66 -106 -87 -129 -109 -121 -25 10
-56 91 -62 165 -13 152 96 415 240 578 37 43 39 40 58 -86z m-2951 43 c131
-149 246 -380 263 -530 l5 -41 -83 -51 c-203 -124 -305 -314 -305 -566 l0 -95
-43 27 -44 26 -6 166 c-9 216 -19 296 -63 472 l-37 145 36 50 c63 89 185 336
213 432 6 21 21 13 64 -35z m-880 -517 c161 -168 349 -287 527 -334 l68 -17 6
-70 c4 -39 7 -112 8 -164 1 -93 1 -93 -21 -86 -122 39 -167 46 -275 43 l-112
-3 -59 43 c-202 147 -332 407 -332 661 0 131 4 135 64 65 28 -32 84 -94 126
-138z m5020 176 c0 -19 -91 -159 -150 -229 -103 -124 -202 -209 -305 -259 -81
-39 -234 -88 -244 -78 -2 2 18 41 45 86 91 151 268 297 525 433 101 53 129 63
129 47z m-15947 -316 c92 -73 164 -157 257 -299 81 -121 246 -434 236 -444 -3
-4 -25 2 -48 12 -124 54 -247 167 -347 317 -64 96 -261 476 -261 503 0 22 78
-20 163 -89z m12783 59 c342 -62 504 -221 504 -496 0 -111 -28 -211 -113 -396
-54 -119 -71 -146 -117 -188 -29 -28 -77 -79 -106 -114 l-53 -63 -73 -2 c-79
-3 -158 -33 -209 -82 l-26 -25 5 128 c5 154 -5 192 -99 349 -94 160 -120 271
-83 363 17 43 72 85 151 116 48 19 62 43 37 62 -20 15 -36 11 -109 -21 -117
-53 -159 -118 -158 -246 0 -103 16 -152 88 -275 99 -169 108 -192 113 -282 5
-88 -5 -181 -17 -167 -4 5 -13 27 -19 50 -15 51 -81 128 -133 155 -82 42 -178
33 -253 -22 l-39 -28 -53 96 c-45 81 -90 145 -216 306 -24 31 -41 148 -32 232
28 284 183 455 480 531 163 41 366 48 530 19z m-8521 -374 c318 -87 622 -318
685 -520 69 -220 -26 -417 -316 -657 -87 -72 -115 -88 -190 -115 -120 -42
-200 -84 -220 -114 l-16 -25 -30 21 c-62 44 -170 61 -251 38 -22 -6 -41 -9
-43 -7 -2 2 12 25 30 51 18 25 46 74 62 109 l29 63 0 231 0 231 35 68 c47 92
76 110 190 111 47 1 91 2 98 3 8 1 12 11 10 28 -3 24 -9 29 -48 36 -100 18
-206 -10 -262 -70 -75 -79 -103 -199 -87 -377 14 -169 7 -238 -37 -325 -18
-37 -42 -75 -53 -85 -18 -17 -19 -15 -18 56 2 156 -87 255 -238 267 l-70 6 -7
125 c-7 123 -18 191 -54 322 -17 65 -17 69 0 125 64 207 217 367 397 418 80
22 299 15 404 -14z m2499 -169 c-36 -142 -74 -349 -95 -522 -14 -113 -19 -505
-7 -582 l7 -46 -67 -54 -67 -55 -38 28 c-57 42 -203 114 -292 145 -44 15 -82
29 -84 31 -3 2 30 35 71 73 197 181 426 613 479 903 19 103 -4 138 -102 153
-22 4 -37 9 -34 13 10 9 249 58 257 52 3 -4 -9 -66 -28 -139z m-5684 71 c73
-155 93 -273 91 -533 -1 -113 -5 -230 -9 -260 l-8 -55 -48 65 c-107 144 -153
284 -144 439 5 84 75 391 89 391 4 0 17 -21 29 -47z m1854 7 c107 -27 169 -63
251 -145 135 -135 210 -312 235 -556 19 -190 16 -225 -28 -274 -39 -44 -92
-142 -92 -169 0 -30 -19 -25 -47 13 -58 79 -145 130 -220 131 -40 0 -43 2 -43
27 0 78 -60 138 -215 216 -128 64 -170 124 -169 242 0 82 17 132 65 194 29 37
25 63 -8 59 -59 -7 -123 -146 -123 -268 0 -135 63 -214 249 -311 103 -54 131
-85 131 -144 0 -37 -5 -47 -30 -65 -79 -56 -132 -177 -131 -298 0 -95 7 -90
-89 -59 -25 8 -99 32 -165 53 -321 102 -434 216 -481 487 -46 260 31 533 190
685 177 168 478 244 720 182z m2976 -5 c0 -2 -41 -68 -91 -145 -86 -134 -196
-330 -237 -423 -15 -34 -43 -61 -128 -127 -147 -113 -303 -250 -405 -357 l-84
-88 -119 5 -119 5 60 55 c260 237 344 511 228 742 l-27 53 39 32 c137 116 400
219 613 241 93 10 270 15 270 7z m395 -30 c121 -14 226 -25 233 -25 6 0 12 -4
12 -10 0 -5 -5 -10 -10 -10 -41 0 -457 -214 -704 -362 -82 -49 -151 -87 -153
-84 -11 11 165 318 265 462 45 65 41 65 357 29z m-1196 -61 l35 -6 -65 -40
c-35 -23 -77 -52 -93 -65 l-29 -24 -69 68 c-37 37 -68 70 -68 74 0 7 236 1
289 -7z m1485 -96 c-42 -184 -156 -431 -293 -636 l-81 -120 -77 -8 c-165 -17
-408 -8 -573 20 -166 27 -230 43 -230 54 0 22 261 216 453 336 273 170 744
414 804 416 8 0 7 -17 -3 -62z m4804 7 c212 -50 426 -249 570 -529 36 -71 36
-71 37 -204 0 -114 -2 -131 -15 -125 -124 55 -238 66 -297 27 -19 -12 -28 -14
-31 -5 -8 23 -55 72 -86 88 -21 11 -72 19 -162 23 -158 9 -220 27 -265 78 -62
71 -96 199 -71 271 13 38 6 61 -18 61 -35 0 -45 -29 -45 -129 0 -85 3 -103 29
-159 59 -127 138 -171 333 -183 151 -9 194 -23 219 -70 16 -31 15 -36 -4 -93
-30 -89 -34 -128 -22 -198 11 -61 50 -150 70 -163 20 -12 9 -21 -42 -37 -124
-39 -391 -88 -404 -75 -3 3 18 43 45 89 70 116 68 144 -10 183 -133 68 -379
151 -532 181 -62 12 -91 22 -97 35 -38 71 -52 305 -24 413 84 327 507 595 822
521z m3767 -60 c136 -21 255 -47 255 -56 0 -14 -140 -90 -210 -114 -193 -66
-410 -58 -560 20 l-34 18 24 19 c61 50 194 102 295 117 89 13 120 12 230 -4z
m-15332 -131 c77 -20 218 -90 287 -144 121 -94 345 -339 326 -357 -9 -10 -143
16 -224 43 -161 53 -282 130 -368 236 -37 44 -134 213 -134 232 0 11 51 6 113
-10z m14054 -59 c226 -61 375 -201 473 -444 48 -119 62 -195 61 -331 -1 -155
-22 -245 -92 -387 -43 -87 -61 -112 -130 -178 -130 -124 -236 -160 -444 -152
-185 7 -294 43 -460 149 -122 79 -124 81 -113 131 22 96 -15 208 -88 263 -38
30 -32 44 19 44 125 1 236 83 349 261 126 199 162 234 231 225 48 -6 83 -36
113 -101 31 -65 31 -120 -2 -180 -28 -53 -25 -78 8 -73 15 2 31 20 51 58 26
49 28 62 24 120 -12 148 -93 240 -210 240 -88 0 -147 -54 -258 -234 -117 -191
-196 -247 -357 -254 l-94 -4 40 52 c93 122 95 270 6 361 l-35 36 49 59 c224
269 588 413 859 339z m-1548 -295 c76 -38 111 -103 114 -212 l2 -62 -75 -13
c-97 -16 -150 -37 -207 -80 l-47 -36 -22 28 c-47 59 -58 209 -21 280 52 101
164 142 256 95z m598 -156 c52 -39 73 -81 73 -148 -1 -80 -24 -128 -93 -193
-66 -63 -78 -65 -100 -17 -25 52 -114 142 -174 176 -61 35 -58 28 -34 76 24
47 76 96 121 117 51 23 170 16 207 -11z m-7641 -53 c45 -44 348 -84 622 -84
l223 1 -33 -25 c-72 -54 -81 -56 -195 -42 -201 24 -382 -2 -608 -87 l-98 -37
-83 28 -83 28 35 41 c38 44 193 186 203 186 4 0 11 -4 17 -9z m-1663 -22 c87
-24 145 -115 134 -210 -8 -63 -52 -163 -69 -155 -91 38 -155 49 -249 43 l-99
-6 0 50 c0 131 85 254 193 279 45 11 48 11 90 -1z m8293 -130 c34 -16 80 -46
103 -66 l43 -38 -25 -45 c-35 -62 -50 -142 -45 -234 4 -90 2 -92 -110 -84
-104 8 -186 61 -235 152 -28 53 -31 204 -5 251 58 106 144 127 274 64z m-8831
11 c43 -16 127 -111 159 -178 l30 -62 -63 -57 c-70 -63 -105 -113 -132 -188
-16 -45 -21 -50 -45 -47 -65 8 -164 87 -201 161 -29 58 -25 182 9 246 26 49
74 102 113 123 25 14 96 15 130 2z m5570 -34 c443 -121 756 -421 720 -689 -24
-173 -124 -318 -346 -498 -77 -63 -111 -82 -173 -103 -142 -48 -236 -103 -236
-138 0 -40 42 -42 116 -5 163 81 311 111 518 104 128 -4 162 -8 222 -30 228
-80 359 -218 431 -452 30 -99 25 -342 -10 -458 -72 -236 -225 -426 -421 -522
-140 -69 -240 -81 -382 -45 -220 56 -386 190 -528 427 -33 54 -68 105 -78 113
-19 15 -18 17 1 60 27 59 27 141 1 199 -11 24 -19 45 -17 47 1 2 31 -6 66 -16
130 -41 224 -22 390 77 151 90 240 133 275 133 133 0 152 -241 24 -325 -60
-40 -46 -87 18 -60 45 19 101 88 118 146 50 167 -24 299 -168 299 -60 0 -140
-36 -305 -138 -162 -100 -260 -107 -426 -32 l-50 23 45 19 c97 41 168 124 190
222 23 103 -44 219 -153 266 -57 25 -169 31 -219 11 -35 -13 -35 -10 3 45 16
24 45 75 62 112 l32 67 0 230 0 230 32 65 c47 93 65 103 193 110 103 5 105 5
105 30 0 31 -51 44 -147 36 -115 -8 -168 -49 -225 -172 l-28 -59 0 -240 0
-240 -38 -72 c-21 -39 -47 -79 -57 -88 -18 -16 -19 -15 -13 38 16 157 -61 269
-207 299 l-58 12 -7 100 c-7 106 -33 257 -59 339 -22 73 8 174 89 302 144 224
397 304 700 221z m3860 23 c54 -15 167 -89 198 -131 138 -181 98 -435 -85
-545 -121 -72 -239 -76 -366 -12 -180 92 -260 316 -175 490 49 98 130 168 233
200 38 11 150 10 195 -2z m-6482 -89 c144 -39 351 -131 416 -185 l32 -27 -21
-32 c-104 -155 -157 -408 -130 -625 7 -56 10 -104 7 -107 -14 -14 -241 113
-290 161 -102 102 -215 313 -289 542 -43 134 -59 157 -87 128 -26 -25 33 -207
132 -407 46 -93 80 -168 77 -168 -9 0 -125 95 -214 174 -43 38 -130 134 -193
213 -112 140 -143 165 -157 127 -8 -20 -8 -18 78 -134 214 -288 567 -553 936
-703 29 -11 42 -27 69 -81 18 -37 59 -95 91 -130 l59 -63 -119 -48 c-156 -62
-190 -58 -425 55 -361 174 -607 470 -809 976 -62 156 -67 186 -33 208 57 37
315 128 414 146 89 16 369 4 456 -20z m1318 -26 c279 -81 460 -374 476 -769
l6 -140 -41 -28 c-46 -32 -78 -77 -111 -157 -13 -30 -25 -56 -26 -58 -2 -2
-27 22 -56 54 -63 66 -132 104 -189 104 -24 0 -42 5 -44 13 -2 6 -9 30 -15 53
-15 58 -65 104 -172 159 -166 86 -216 154 -207 282 5 70 32 138 70 180 23 25
21 56 -4 61 -64 12 -150 -201 -128 -317 21 -112 76 -177 212 -248 123 -65 158
-97 165 -151 5 -41 3 -45 -49 -100 -88 -92 -127 -193 -114 -298 3 -30 5 -54 3
-54 -24 0 -226 58 -298 85 -297 114 -408 279 -409 608 0 221 61 397 182 523
33 35 65 64 70 64 4 0 29 15 55 34 150 107 441 154 624 100z m3258 2 c167 -31
375 -96 524 -163 84 -39 86 -42 58 -81 -29 -41 -133 -255 -185 -378 -94 -224
-188 -366 -356 -535 -228 -231 -438 -349 -621 -349 -88 0 -122 13 -155 61 -90
130 -255 238 -432 282 -48 12 -89 23 -91 24 -14 9 304 283 327 283 4 0 34 -9
68 -19 142 -45 534 -85 709 -73 l110 7 3 28 3 27 -168 0 c-203 0 -592 42 -641
69 -39 22 340 228 591 321 221 81 419 132 636 165 117 17 121 19 121 46 0 31
-26 34 -153 16 -214 -31 -527 -120 -731 -206 -52 -23 -98 -41 -101 -41 -26 0
151 256 243 352 74 78 86 108 43 108 -49 0 -180 -155 -316 -373 l-90 -143
-119 -70 c-195 -113 -382 -255 -557 -421 l-76 -73 -59 0 -59 0 76 73 c207 198
291 405 248 607 -10 49 -9 53 18 92 133 194 379 331 678 378 83 13 353 5 454
-14z m-5659 -36 c127 -24 133 -27 126 -68 -18 -115 185 -563 362 -797 45 -59
45 -60 33 -103 -56 -209 -268 -446 -468 -522 -80 -31 -234 -39 -323 -16 -231
59 -439 240 -570 495 l-22 43 21 48 c25 57 27 146 6 205 -8 22 -15 43 -15 46
0 3 26 -3 58 -14 44 -15 75 -18 142 -15 96 5 162 31 287 111 39 25 99 60 132
77 140 70 233 12 218 -135 -7 -71 -29 -110 -83 -148 -71 -50 -50 -96 26 -57
74 38 120 129 120 237 0 123 -73 203 -186 203 -46 0 -182 -64 -278 -130 -117
-80 -228 -111 -321 -90 -55 12 -165 59 -165 70 0 3 23 17 51 31 146 68 215
231 150 357 -16 32 -18 42 -8 42 8 0 47 15 88 34 193 89 448 128 619 96z
m-4285 -31 c90 -21 275 -88 275 -99 0 -14 -166 -101 -235 -123 -114 -36 -287
-28 -532 25 -30 6 -53 17 -53 24 0 7 23 37 51 68 113 123 274 158 494 105z
m13977 -9 c160 -54 290 -144 501 -349 127 -123 264 -286 310 -371 l29 -51 -39
-37 c-176 -169 -333 -292 -438 -342 -292 -140 -764 -148 -982 -18 -51 31 -52
33 -58 87 -11 108 -29 175 -67 253 -21 44 -38 81 -38 82 0 2 24 6 53 10 30 3
73 12 96 21 41 14 44 13 216 -44 104 -34 192 -70 217 -87 108 -76 235 -138
335 -163 100 -26 141 -27 150 -5 9 25 -17 39 -114 63 -97 25 -201 65 -223 88
-13 13 -11 14 25 9 163 -22 350 -14 552 25 111 21 140 35 130 63 -8 21 -48 20
-182 -5 -217 -40 -499 -34 -680 15 -27 8 -86 24 -130 35 -95 26 -165 51 -165
60 1 3 26 24 57 46 144 102 262 313 293 522 19 124 19 123 41 123 12 0 62 -14
111 -30z m-10546 -74 c197 -92 125 -341 -111 -385 -57 -11 -61 -7 -68 70 -6
71 -41 161 -83 217 -25 32 -26 34 -8 54 61 66 180 86 270 44z m-462 -21 c286
-135 292 -558 9 -687 -75 -35 -228 -32 -305 4 -74 34 -139 101 -180 186 -45
92 -48 225 -7 313 88 188 302 269 483 184z m-1305 -14 c130 -50 246 -81 351
-93 99 -12 102 -13 127 -48 14 -19 42 -49 61 -66 l35 -30 -48 -19 c-79 -30
-175 -134 -175 -189 0 -8 -12 -23 -26 -33 -14 -10 -62 -51 -107 -92 -179 -161
-239 -195 -335 -189 -87 5 -124 41 -130 125 -4 53 -1 61 27 97 35 44 37 69 5
74 -28 4 -78 -56 -94 -113 -24 -86 19 -184 99 -225 125 -63 244 -21 437 153
102 92 112 97 120 70 40 -134 180 -233 330 -233 59 0 65 -2 59 -17 -4 -10 -8
-39 -10 -65 -3 -40 -13 -58 -58 -115 -76 -95 -153 -215 -192 -300 -38 -83 -70
-108 -181 -143 -219 -68 -427 -19 -638 151 -258 209 -442 600 -396 843 34 179
250 360 556 465 78 27 94 26 183 -8z m7204 12 c24 -6 22 -10 -52 -89 -39 -41
-66 -63 -69 -56 -2 8 -31 47 -64 89 l-60 75 114 -7 c62 -4 121 -9 131 -12z
m3454 -19 c145 -69 175 -232 62 -345 -70 -70 -140 -69 -239 1 l-30 21 29 52
c40 71 53 126 52 223 l-1 83 38 -6 c20 -3 60 -16 89 -29z m-1258 -184 c21 -10
59 -24 84 -31 l46 -11 -39 -47 c-55 -65 -70 -107 -70 -195 0 -56 -5 -83 -19
-108 -11 -18 -36 -75 -56 -127 -76 -202 -138 -285 -230 -311 -107 -30 -199 71
-166 181 14 45 6 63 -25 57 -26 -5 -48 -77 -40 -132 19 -125 137 -197 263
-161 100 29 190 145 256 330 14 39 31 82 37 97 l13 27 49 -44 c67 -60 127 -78
237 -73 71 3 96 9 135 31 27 15 50 26 52 25 7 -7 36 -95 36 -108 0 -8 -8 -35
-17 -60 -36 -96 -65 -255 -72 -391 -6 -135 -6 -137 -40 -183 -52 -72 -192
-171 -288 -203 -161 -54 -408 -27 -607 65 -216 100 -419 286 -499 457 -48 102
-48 105 13 172 113 127 244 357 337 588 12 30 13 31 119 42 122 14 265 47 302
71 14 9 52 26 85 38 33 12 61 22 63 23 1 0 20 -8 41 -19z m320 -85 c30 -57
132 -154 189 -179 46 -21 47 -23 31 -79 -45 -162 -322 -196 -422 -51 -74 106
-35 245 92 326 63 40 81 37 110 -17z m-9013 -23 c7 -4 15 -34 19 -67 10 -77
38 -152 81 -216 42 -63 42 -61 -5 -108 -77 -77 -208 -72 -313 12 -106 85 -108
233 -4 324 54 48 184 80 222 55z m9710 -137 c21 -56 15 -144 -14 -201 -41 -81
-145 -155 -239 -170 -127 -20 -212 125 -151 258 l25 54 42 -4 c86 -8 250 44
290 92 20 24 28 20 47 -29z m475 -21 c155 -103 294 -156 471 -179 55 -7 75
-28 126 -130 38 -78 52 -145 52 -256 0 -482 -401 -859 -916 -859 -327 0 -556
145 -637 405 -41 132 -28 382 29 577 14 44 17 48 37 41 12 -4 56 -8 97 -8 89
1 153 29 230 101 74 70 103 132 108 236 l4 87 42 -21 c113 -57 175 -124 197
-212 17 -67 -7 -145 -91 -299 -120 -220 -142 -313 -98 -409 50 -108 156 -131
293 -64 110 55 206 170 164 197 -22 14 -27 11 -55 -31 -75 -114 -245 -175
-315 -112 -73 65 -55 156 83 412 75 139 91 193 86 277 -4 80 -33 145 -89 199
l-38 37 43 28 c24 15 47 32 50 38 12 19 24 13 127 -55z m-9231 -40 c106 -96
106 -236 0 -327 -99 -84 -199 -68 -271 44 l-33 52 24 15 c60 38 146 138 175
204 33 75 35 75 105 12z m-664 -236 c65 -31 75 -33 177 -32 l107 0 0 -40 c0
-152 -207 -274 -380 -226 -125 34 -144 193 -36 293 50 45 47 45 132 5z m4734
-66 c72 -57 92 -152 56 -259 -25 -74 -34 -79 -105 -54 -82 28 -154 35 -225 22
-69 -13 -63 -15 -69 26 -13 82 51 221 120 264 76 47 165 47 223 1z m-4293
-181 c21 -44 27 -70 27 -121 -1 -107 -47 -170 -194 -270 -225 -152 -298 -244
-288 -365 9 -111 84 -160 243 -160 82 0 97 3 158 33 49 24 67 39 67 53 0 32
-27 33 -93 3 -114 -51 -266 -33 -302 37 -45 85 17 173 225 324 138 99 191 150
222 213 30 62 36 164 14 231 -21 65 -22 61 27 61 23 0 65 11 94 24 l52 24 42
-71 c99 -169 206 -286 337 -368 79 -49 80 -52 88 -164 20 -270 -207 -585 -506
-703 -131 -52 -214 -65 -369 -59 -502 19 -859 367 -777 757 20 95 106 271 185
378 69 93 77 99 99 79 80 -70 242 -81 365 -24 76 35 122 79 159 154 l32 66 33
-38 c18 -21 45 -64 60 -94z m3720 77 c46 -27 97 -90 135 -165 l33 -65 -25 -16
c-79 -53 -140 -131 -175 -224 -21 -56 -34 -59 -104 -24 -146 74 -201 235 -131
382 61 128 168 172 267 112z m988 -257 c75 -34 125 -120 111 -193 -17 -94
-123 -182 -234 -195 l-49 -5 -6 64 c-7 78 -37 161 -79 219 -37 51 -33 63 42
102 64 33 152 37 215 8z m-508 -6 c80 -24 142 -72 195 -150 133 -197 68 -450
-141 -553 -82 -40 -220 -40 -303 1 -259 127 -296 489 -67 650 92 65 208 84
316 52z m-1217 -42 c116 -45 222 -73 315 -85 l90 -12 55 -59 c30 -33 56 -63
58 -67 1 -4 -17 -15 -41 -24 -68 -26 -121 -77 -152 -148 -21 -47 -39 -71 -71
-93 -23 -16 -86 -70 -140 -118 -140 -127 -231 -166 -317 -138 -97 32 -126 162
-52 231 29 27 32 55 9 64 -27 10 -64 -22 -90 -77 -68 -147 26 -290 191 -289
102 0 183 45 339 189 49 46 92 83 95 83 4 0 14 -21 23 -48 41 -115 174 -206
303 -207 l70 0 0 -90 0 -90 -44 -55 c-69 -86 -134 -189 -171 -272 -39 -87 -73
-112 -198 -147 -215 -59 -387 -22 -588 128 -182 135 -314 323 -396 564 -29 83
-32 104 -32 217 -1 111 2 130 22 171 33 67 124 163 206 218 152 103 387 202
436 184 8 -3 44 -17 80 -30z m682 -353 c9 -82 31 -140 79 -212 47 -70 47 -67
7 -105 -70 -66 -144 -80 -238 -44 -111 42 -163 108 -164 205 -1 136 103 229
249 223 l60 -2 7 -65z m926 -125 c64 -57 97 -130 88 -194 -14 -100 -96 -181
-192 -189 -69 -6 -106 15 -151 85 l-36 57 34 25 c84 62 143 139 178 234 14 36
20 35 79 -18z m-488 -272 l115 -2 3 -35 c7 -73 -70 -176 -163 -217 -63 -28
-193 -32 -240 -7 -109 58 -113 192 -10 287 l44 40 68 -32 c63 -30 77 -32 183
-34z m227 -141 c53 -78 73 -131 73 -197 0 -110 -43 -165 -235 -302 -140 -100
-219 -184 -240 -255 -27 -94 1 -170 77 -209 87 -45 234 -42 329 6 55 29 69 49
47 71 -13 13 -21 11 -68 -13 -109 -57 -286 -38 -318 33 -42 91 25 185 233 328
113 78 185 147 215 211 31 65 38 157 16 221 -21 63 -23 61 34 68 27 4 74 20
104 35 l55 29 32 -56 c102 -182 218 -314 360 -410 68 -45 77 -55 82 -89 57
-341 -197 -689 -590 -810 -119 -36 -352 -39 -475 -5 -424 116 -653 419 -573
758 26 111 126 298 218 408 l24 30 63 -28 c132 -59 313 -19 410 92 22 24 47
64 56 88 21 56 31 55 71 -4z"/>
<path d="M17060 15775 c-6 -8 -16 -48 -21 -89 -16 -125 -104 -389 -180 -538
-146 -286 -377 -509 -642 -618 -60 -25 -78 -37 -83 -56 -11 -41 9 -52 114 -59
264 -19 487 -127 614 -297 90 -120 159 -304 213 -571 24 -115 32 -141 51 -154
18 -11 27 -12 44 -3 20 10 20 16 14 128 -25 439 196 797 540 877 38 9 95 15
126 13 64 -3 90 11 90 48 0 20 -11 29 -64 53 -197 89 -401 279 -510 473 -89
161 -176 424 -215 658 -12 68 -26 129 -32 137 -15 17 -43 17 -59 -2z m59 -416
c44 -156 77 -242 143 -372 93 -183 192 -299 359 -424 49 -36 89 -67 89 -68 0
-2 -30 -12 -67 -24 -236 -72 -434 -293 -506 -565 -13 -49 -26 -85 -30 -79 -4
5 -18 43 -33 84 -106 299 -310 489 -604 563 l-92 23 92 64 c262 179 455 447
574 797 21 62 40 111 42 109 2 -2 17 -51 33 -108z"/>
<path d="M11276 16354 c-24 -23 -6 -46 52 -66 106 -38 375 -205 594 -370 715
-538 1160 -1170 1387 -1973 148 -521 197 -896 188 -1445 -12 -776 -123 -1313
-537 -2605 -350 -1093 -477 -1807 -415 -2337 50 -431 166 -662 474 -944 165
-152 183 -163 206 -144 26 22 17 38 -67 118 -221 207 -263 251 -325 344 -252
378 -294 924 -132 1716 78 384 171 719 384 1387 285 896 417 1463 475 2050 18
179 24 662 11 830 -71 913 -345 1695 -800 2285 -301 391 -731 767 -1182 1033
-184 108 -286 148 -313 121z"/>
<path d="M8076 12584 c-9 -8 -16 -31 -16 -50 0 -42 -15 -106 -47 -204 -87
-264 -305 -530 -524 -640 -161 -82 -408 -95 -645 -35 -135 34 -192 65 -285
151 -87 82 -123 95 -135 48 -23 -91 149 -295 321 -382 202 -101 467 -110 707
-22 381 139 615 447 683 898 27 175 17 252 -30 252 -7 0 -21 -7 -29 -16z"/>
<path d="M3945 8559 c-72 -39 -113 -79 -142 -137 -41 -84 -44 -248 -9 -455 28
-163 38 -191 78 -220 60 -45 108 -15 184 114 172 294 209 579 90 689 -38 35
-143 40 -201 9z m135 -79 c44 -23 53 -155 20 -286 -18 -71 -118 -289 -155
-339 -14 -18 -16 -18 -31 -3 -41 40 -73 403 -44 494 28 91 148 167 210 134z"/>
<path d="M14946 4090 c-58 -23 -82 -43 -106 -90 -43 -85 -29 -188 32 -247 136
-132 353 -41 352 147 -1 89 -56 164 -143 195 -55 19 -75 18 -135 -5z m150 -75
c58 -38 78 -111 50 -180 -41 -97 -202 -100 -251 -6 -65 127 82 264 201 186z"/>
<path d="M6018 3830 c-69 -21 -148 -124 -148 -193 0 -56 24 -112 66 -154 148
-148 390 -11 344 194 -26 117 -147 188 -262 153z m115 -74 c52 -22 79 -59 84
-113 14 -160 -206 -216 -263 -68 -46 121 63 231 179 181z"/>
<path d="M10385 2628 c-68 -24 -135 -119 -135 -191 0 -137 131 -242 258 -207
94 25 174 140 157 228 -26 137 -153 214 -280 170z m165 -93 c76 -73 57 -192
-36 -231 -45 -19 -70 -18 -119 6 -98 47 -104 183 -10 242 45 29 126 21 165
-17z"/>
<path d="M18802 20462 c-15 -13 -24 -50 -41 -169 -27 -189 -66 -350 -125 -516
-127 -362 -298 -531 -714 -712 -106 -46 -122 -60 -104 -99 8 -18 21 -26 49
-31 231 -34 342 -92 501 -259 156 -164 223 -333 344 -866 12 -51 15 -55 44
-58 42 -4 51 11 70 108 88 467 304 785 638 940 104 49 182 74 276 90 84 14
100 23 100 54 0 30 -30 56 -115 102 -233 125 -443 329 -569 551 -112 200 -243
582 -281 824 -7 46 -44 67 -73 41z m78 -426 c71 -243 162 -448 262 -594 108
-155 286 -326 434 -417 36 -22 64 -44 62 -50 -2 -5 -34 -20 -73 -33 -374 -126
-626 -391 -765 -805 -21 -62 -40 -105 -43 -97 -3 8 -21 72 -41 142 -68 244
-140 397 -250 527 -96 114 -268 240 -378 277 -26 8 -48 19 -48 23 0 4 30 21
68 39 166 78 342 217 442 352 109 147 203 389 260 668 13 61 25 111 27 109 1
-2 21 -65 43 -141z"/>
<path d="M1330 15488 c-37 -39 -179 -259 -263 -410 -68 -123 -28 -104 -337
-163 -298 -57 -330 -69 -330 -126 0 -37 42 -72 283 -232 108 -73 197 -137 197
-144 0 -18 -61 -155 -147 -333 -115 -238 -127 -275 -103 -321 15 -27 44 -24
189 17 141 41 522 169 562 190 26 13 34 9 204 -107 98 -67 221 -152 273 -190
97 -71 116 -76 151 -44 12 12 12 32 -3 142 -21 158 -62 579 -58 592 6 17 181
164 330 276 145 109 159 125 148 170 -8 31 -32 39 -261 85 -213 44 -386 84
-422 100 -14 6 -38 40 -62 87 -21 43 -67 123 -101 178 -34 54 -75 126 -92 158
-56 112 -100 133 -158 75z m76 -120 c9 -18 57 -100 107 -182 49 -83 103 -179
118 -213 20 -46 34 -63 51 -67 89 -17 601 -135 605 -140 2 -2 -48 -42 -111
-90 -63 -47 -143 -112 -178 -144 -36 -31 -84 -74 -107 -94 -36 -32 -42 -42
-37 -65 3 -16 17 -154 31 -308 14 -154 28 -290 32 -302 7 -32 -7 -29 -62 14
-117 89 -402 284 -423 290 -13 3 -43 -4 -72 -16 -125 -54 -625 -210 -636 -198
-2 2 44 100 102 218 112 226 154 324 154 363 0 35 -14 46 -313 240 -82 53
-146 100 -143 105 7 10 8 10 291 62 271 49 249 41 271 91 42 92 278 468 295
468 5 0 16 -14 25 -32z"/>
<path d="M2710 12207 c-21 -10 -28 -26 -42 -97 -27 -127 -54 -203 -121 -334
-88 -172 -201 -287 -387 -396 -61 -36 -70 -45 -70 -76 0 -30 18 -42 86 -60 88
-22 205 -97 283 -180 86 -92 163 -240 227 -438 52 -159 72 -189 113 -167 23
13 28 36 35 176 9 161 50 282 141 410 78 111 210 212 315 241 99 29 108 72 23
113 -79 38 -165 105 -246 191 -108 115 -216 340 -258 539 -17 80 -47 104 -99
78z m68 -297 c89 -237 181 -368 349 -497 l73 -56 -61 -36 c-175 -103 -311
-285 -369 -492 -11 -39 -21 -74 -23 -76 -2 -2 -20 36 -40 84 -88 213 -227 372
-402 460 l-50 26 29 21 c16 12 69 53 117 93 136 112 257 310 315 515 10 37 19
66 20 65 1 -1 20 -49 42 -107z"/>
</g>
</svg>
