<svg xmlns="http://www.w3.org/2000/svg" viewBox="0 0 1825 2732" fill="#333" role="img" aria-label="line art">
<g transform="translate(0.000000,2732.000000) scale(0.100000,-0.100000)"
fill="#333" stroke="none">
<path d="M12045 26896 c-93 -43 -161 -144 -190 -283 -8 -37 -22 -184 -30 -326
-22 -368 -37 -436 -172 -760 -205 -494 -250 -732 -179 -952 32 -100 33 -92
-15 -105 -79 -21 -151 -122 -178 -248 -16 -77 -14 -273 5 -383 35 -207 117
-403 234 -558 68 -90 215 -234 282 -276 56 -35 56 -34 19 -127 -67 -173 -106
-353 -196 -907 -135 -835 -169 -1129 -169 -1481 l-1 -245 -52 28 c-56 30 -131
43 -185 33 -45 -8 -113 -67 -140 -120 -29 -56 -36 -177 -15 -241 15 -44 15
-46 -1 -40 -113 49 -152 58 -270 64 l-123 6 76 90 c162 191 346 480 490 768
192 382 222 646 88 763 l-35 31 33 53 c41 67 173 352 228 492 83 215 120 411
102 543 -39 281 -235 406 -461 293 l-68 -33 -6 82 c-19 225 -118 407 -284 516
-158 105 -347 123 -509 48 l-61 -29 -28 29 c-110 115 -745 129 -1132 24 -210
-56 -341 -136 -374 -225 -2 -4 -28 -4 -58 2 -171 32 -474 -58 -698 -207 -40
-26 -74 -46 -76 -44 -2 2 13 74 34 159 74 295 82 386 45 515 -20 71 -68 142
-110 162 -19 9 -35 20 -35 24 0 4 27 50 60 101 180 278 354 702 426 1038 34
156 43 367 20 464 -61 258 -263 340 -485 196 -34 -22 -66 -38 -70 -35 -5 2
-12 25 -15 49 -10 65 -54 193 -81 235 -70 110 -177 162 -331 162 -278 -1 -453
-153 -530 -461 -15 -58 -28 -107 -30 -109 -3 -3 -12 6 -21 20 -72 104 -207
204 -348 258 -275 105 -639 8 -901 -241 -197 -187 -278 -358 -277 -586 l0
-113 -71 71 c-168 166 -336 234 -611 247 -429 20 -840 -130 -1090 -399 -113
-121 -155 -221 -155 -368 0 -142 46 -251 153 -366 37 -40 88 -86 114 -103 28
-19 41 -32 32 -35 -8 -3 -41 -12 -74 -21 -244 -68 -416 -219 -444 -392 -42
-262 250 -582 644 -706 94 -29 528 -129 665 -152 52 -9 96 -18 98 -19 1 -2
-10 -17 -26 -34 -35 -38 -55 -107 -43 -149 27 -94 78 -139 386 -341 291 -191
412 -283 580 -442 364 -343 517 -424 825 -437 104 -4 152 -1 210 12 41 9 89
18 105 21 l30 6 124 -259 c188 -390 245 -536 297 -763 33 -146 30 -158 -17
-60 -147 310 -391 376 -617 165 -162 -150 -258 -362 -293 -644 -7 -55 -16
-101 -19 -101 -3 0 -18 37 -34 83 -127 368 -338 603 -592 663 -124 29 -208 3
-301 -92 l-52 -54 -47 71 c-26 39 -76 102 -112 140 l-63 69 35 57 c94 153 130
300 130 528 0 196 -20 289 -94 458 -118 270 -360 521 -635 659 -218 110 -469
154 -643 113 -202 -48 -377 -232 -438 -460 -24 -91 -29 -310 -10 -426 34 -208
132 -468 237 -629 129 -197 258 -314 454 -410 283 -139 534 -147 784 -23 l94
47 52 -56 c29 -31 87 -107 129 -170 l77 -114 -12 -90 c-12 -95 -7 -244 11
-332 7 -28 10 -56 8 -61 -2 -6 -39 18 -84 53 -300 231 -572 224 -685 -16 -33
-71 -34 -77 -33 -193 0 -104 4 -130 28 -200 57 -165 203 -360 402 -539 62 -55
111 -102 109 -104 -2 -2 -90 39 -197 92 -106 52 -240 111 -298 130 l-105 35
-7 98 c-9 138 -68 314 -183 542 -164 328 -446 620 -772 802 -414 229 -996 318
-1400 213 -229 -59 -343 -145 -343 -259 0 -98 74 -179 261 -284 369 -208 509
-323 799 -651 228 -258 314 -329 537 -442 143 -72 280 -121 393 -139 65 -11
70 -14 63 -33 -5 -12 -8 -53 -8 -91 0 -177 179 -366 528 -560 37 -20 67 -39
65 -40 -2 -2 -58 -10 -124 -19 -229 -30 -353 -84 -480 -211 -87 -86 -125 -148
-150 -246 -52 -203 131 -383 485 -475 125 -32 414 -74 576 -82 l130 -7 -110
-61 c-189 -106 -325 -216 -426 -344 -34 -44 -64 -78 -66 -77 -1 2 -20 31 -42
65 -74 114 -240 330 -336 435 -118 131 -218 221 -465 416 -329 261 -382 304
-387 317 -2 7 7 29 21 51 63 96 54 209 -27 308 l-25 29 55 60 c163 181 172
411 21 540 -92 79 -244 102 -350 54 l-54 -25 -17 47 c-23 65 -84 130 -159 170
-54 29 -76 35 -148 38 l-85 5 -39 44 c-60 68 -105 88 -206 88 -74 0 -93 -4
-144 -29 -85 -42 -157 -119 -208 -223 -41 -84 -43 -92 -43 -180 l0 -91 -50 -7
c-175 -23 -385 -255 -385 -424 0 -84 51 -170 122 -207 27 -14 28 -18 28 -84 0
-165 100 -284 249 -297 74 -7 131 10 170 50 l32 32 54 -52 c32 -31 69 -56 93
-64 l40 -12 -5 -72 c-5 -63 -2 -79 19 -126 75 -163 272 -239 467 -180 157 48
259 181 233 306 -5 28 -9 51 -8 53 5 5 263 -179 356 -253 148 -119 370 -325
474 -440 108 -120 148 -172 125 -163 -259 100 -539 112 -949 42 -555 -94 -660
-119 -797 -185 -232 -114 -270 -257 -93 -346 92 -47 175 -56 425 -50 247 6
527 48 890 136 235 56 329 71 446 71 181 0 224 -32 452 -338 33 -44 89 -154
178 -350 71 -157 165 -354 208 -438 l78 -153 -86 81 c-143 136 -273 208 -370
208 -43 0 -109 -29 -135 -58 -26 -30 -36 -19 -36 41 0 258 -87 524 -210 647
-259 259 -640 134 -754 -249 -57 -192 -33 -435 64 -669 22 -51 36 -92 32 -90
-4 2 -43 22 -87 44 -171 88 -355 129 -550 121 -150 -6 -219 -22 -330 -77 -199
-97 -325 -290 -325 -494 0 -245 138 -448 407 -597 l97 -53 -34 -10 c-273 -71
-468 -182 -655 -371 -195 -196 -286 -408 -272 -630 18 -288 233 -434 558 -380
211 35 385 104 628 250 79 47 144 85 145 83 1 -2 8 -16 16 -31 48 -95 227
-117 590 -71 143 17 295 28 505 35 165 5 359 12 431 15 125 6 244 -6 244 -25
0 -4 -25 -18 -55 -30 -224 -93 -448 -337 -471 -513 -4 -27 -8 -48 -11 -48 -2
0 -25 11 -51 24 -248 125 -1032 223 -1194 149 -67 -30 -91 -72 -84 -143 11
-112 144 -555 222 -736 98 -230 187 -347 481 -634 l208 -203 -75 6 c-92 8
-235 -6 -342 -34 -75 -19 -81 -19 -99 -3 -55 49 -657 89 -974 64 -340 -27
-684 -141 -953 -316 -213 -139 -264 -241 -193 -389 40 -85 94 -140 244 -254
181 -137 280 -197 509 -311 316 -156 600 -240 820 -240 l106 0 12 -52 c15 -74
43 -127 92 -177 215 -217 619 -190 991 65 43 30 80 54 81 54 2 0 -14 -34 -36
-75 -109 -209 -155 -457 -113 -620 50 -195 199 -334 390 -365 393 -63 722 330
726 864 0 82 2 97 12 82 74 -119 143 -213 199 -270 37 -38 68 -71 68 -73 0 -3
-11 -14 -24 -24 -14 -11 -38 -47 -55 -81 -91 -182 23 -371 321 -528 52 -27 86
-51 78 -53 -8 -3 -42 -10 -75 -17 -134 -27 -330 -125 -366 -183 -77 -128 87
-214 449 -235 l117 -7 -75 -44 c-97 -57 -140 -90 -225 -171 l-70 -68 -157 -31
c-325 -64 -640 -192 -928 -378 -361 -234 -818 -760 -1215 -1398 -172 -276
-198 -359 -134 -421 29 -28 34 -29 143 -32 143 -5 271 13 651 89 642 128 1137
274 1438 425 48 24 87 42 87 40 0 -2 -7 -31 -15 -63 -46 -180 -65 -504 -46
-808 14 -232 18 -258 43 -284 41 -44 50 -37 370 287 642 649 678 690 778 872
29 52 55 98 59 102 14 15 102 -16 116 -41 52 -100 195 -138 337 -90 193 65
375 256 575 599 57 100 83 136 86 123 3 -10 13 -56 22 -103 42 -211 137 -500
201 -606 120 -200 315 -270 496 -178 26 13 48 21 48 17 0 -61 -177 -1084 -270
-1563 -180 -927 -259 -1625 -247 -2180 8 -419 51 -632 155 -768 54 -71 152
-102 207 -66 23 15 26 15 55 -9 78 -66 192 -40 242 56 21 40 22 60 29 362 12
545 67 1041 194 1758 131 734 140 761 71 206 -76 -605 -96 -958 -96 -1669 0
-659 19 -799 122 -897 87 -83 218 -84 281 -2 25 33 77 171 77 204 0 37 18 2
24 -47 28 -216 91 -325 223 -385 159 -73 291 24 324 237 17 110 -2 573 -35
874 -10 93 14 3 63 -229 131 -621 185 -762 314 -824 63 -30 147 -29 203 4 42
25 94 95 94 127 0 9 12 18 30 22 57 11 60 33 61 428 1 222 4 342 10 323 5 -16
22 -97 39 -180 34 -163 81 -328 111 -388 98 -190 320 -213 412 -42 57 105 7
506 -130 1050 -41 166 -45 187 -40 270 6 114 49 398 57 388 26 -29 183 -742
275 -1247 76 -415 106 -504 194 -563 40 -27 107 -31 150 -9 34 18 87 76 96
106 6 18 12 21 33 16 132 -29 227 -3 267 74 34 66 63 287 85 655 6 99 20 286
31 415 93 1106 138 1928 139 2533 0 125 4 227 8 227 5 0 21 -82 36 -182 15
-101 42 -280 61 -398 33 -209 61 -405 125 -870 86 -627 271 -1683 351 -2005
89 -357 181 -490 339 -489 104 1 191 47 230 124 43 85 37 148 -41 408 -126
423 -287 1043 -344 1325 -86 430 -184 1158 -255 1900 l-11 117 25 31 c40 47
83 145 120 275 76 265 104 550 86 877 -6 115 -9 211 -7 213 2 2 27 -51 57
-119 258 -588 468 -859 724 -932 207 -60 389 72 440 317 40 195 3 423 -109
665 -19 42 -35 77 -35 79 0 2 26 -13 57 -33 217 -138 859 -372 1301 -473 150
-35 690 -128 952 -165 367 -52 463 -45 546 39 77 76 82 175 19 362 -138 413
-513 889 -872 1107 -107 65 -522 237 -572 237 -11 0 -32 23 -55 59 -101 164
-405 370 -746 505 -52 21 -99 41 -103 45 -4 4 32 13 80 20 210 29 387 77 539
146 74 34 206 62 414 87 143 17 752 18 757 1 3 -7 34 -36 71 -65 37 -29 127
-106 202 -172 212 -186 313 -242 455 -253 162 -13 417 95 471 198 22 43 18
110 -9 150 -81 121 -460 239 -767 239 -63 0 -207 9 -320 20 -113 11 -278 20
-367 20 -90 0 -163 3 -163 8 0 8 200 123 307 176 88 44 177 78 275 105 l74 21
54 -23 c87 -35 352 -32 502 6 287 72 630 242 677 335 55 111 28 164 -124 247
-193 105 -340 112 -555 27 -208 -82 -484 -294 -563 -433 -19 -33 -31 -41 -77
-54 -111 -31 -232 -78 -336 -131 -146 -74 -421 -242 -439 -268 -13 -18 -31
-23 -115 -31 -55 -6 -100 -9 -100 -6 0 2 14 19 31 39 65 73 75 120 57 251 -3
20 15 33 159 115 227 131 307 190 479 361 291 290 409 491 345 592 -44 70
-125 85 -481 86 -449 1 -891 -57 -1190 -158 -57 -19 -105 -33 -107 -31 -2 2
16 35 40 72 25 38 59 98 77 134 18 36 33 66 34 67 1 1 32 -7 69 -19 118 -36
205 -1 258 104 25 48 29 48 67 -6 61 -84 152 -139 261 -157 158 -25 317 64
441 246 64 94 83 110 179 149 109 46 162 78 201 123 89 101 100 239 29 362
-11 18 -19 35 -17 36 2 1 48 7 104 13 174 20 302 76 383 169 72 82 89 196 51
343 -11 41 -20 96 -20 122 0 56 45 177 69 185 127 40 299 125 380 187 248 191
435 579 540 1119 65 333 87 700 47 780 -45 90 -97 91 -242 7 -151 -88 -361
-180 -644 -280 -401 -142 -610 -259 -796 -444 -55 -56 -110 -114 -121 -130
l-19 -28 -45 15 c-24 8 -44 17 -44 20 0 3 29 28 65 55 90 69 282 268 367 382
161 217 242 354 330 561 106 247 142 387 239 936 45 255 49 273 72 285 56 30
132 174 132 250 0 16 20 1 88 -63 154 -148 294 -197 438 -154 258 76 342 417
177 716 -2 3 30 9 72 12 221 16 339 180 306 422 -29 208 -177 429 -336 500
-91 41 -242 62 -342 47 -72 -10 -72 -9 -38 57 148 293 63 624 -192 744 -80 37
-223 49 -322 27 -166 -37 -287 -160 -322 -328 l-11 -53 -48 69 c-162 230 -419
337 -661 274 -143 -38 -278 -151 -348 -293 -80 -162 -76 -273 15 -385 l33 -41
-74 -5 c-123 -8 -231 -78 -253 -163 -8 -29 -11 -30 -83 -37 -106 -11 -342 -55
-467 -88 -59 -15 -109 -26 -111 -25 -2 2 29 47 68 99 83 110 149 230 192 348
38 102 79 278 79 338 0 63 5 66 100 84 240 45 931 213 1056 257 192 67 301
148 355 263 16 34 29 68 29 77 0 31 44 39 148 29 53 -5 196 -16 317 -25 253
-17 248 -17 500 -58 278 -45 443 -44 575 1 281 97 432 281 447 542 7 117 -9
187 -71 315 -47 95 -166 249 -247 318 -41 36 -153 113 -172 120 -5 1 12 41 37
87 62 119 80 190 79 330 -1 135 -28 245 -93 370 -112 213 -243 300 -454 300
l-104 0 -6 63 c-22 203 -200 356 -413 357 l-71 0 -18 53 c-73 220 -229 428
-358 476 -81 30 -184 29 -274 -4 -38 -14 -72 -25 -76 -25 -3 0 -6 23 -6 51 0
280 -260 549 -530 549 -202 0 -423 -156 -565 -397 -33 -57 -63 -103 -66 -103
-3 0 -13 24 -22 54 -37 117 -134 224 -252 278 -40 18 -68 23 -140 23 -83 0
-96 -3 -167 -37 -43 -20 -78 -36 -78 -34 0 2 7 23 16 47 88 246 218 750 254
987 69 450 35 708 -85 662 -38 -14 -57 -55 -126 -259 -222 -663 -480 -1139
-866 -1597 -37 -45 -126 -150 -196 -234 -193 -228 -384 -490 -488 -669 -43
-72 -39 -76 -59 64 -34 229 -120 366 -240 382 l-42 6 6 101 c31 492 79 854
172 1311 74 359 124 558 144 570 5 3 31 -3 57 -15 146 -62 343 -85 514 -60
186 27 478 149 685 285 119 78 262 221 300 300 36 75 45 180 20 239 -22 53
-24 50 47 84 152 75 298 220 562 556 260 332 342 425 596 677 163 162 235 241
253 277 83 164 -47 297 -307 318 -40 3 -82 7 -94 10 l-21 4 20 52 c31 82 23
171 -22 236 -100 147 -316 240 -496 213 -41 -6 -81 -11 -88 -11 -7 0 -28 30
-46 66 -60 122 -183 216 -318 245 -35 7 -97 9 -163 6 l-105 -5 -11 77 c-33
220 -156 357 -353 392 -119 21 -328 -16 -465 -81 -67 -32 -170 -119 -194 -164
-8 -14 -17 -26 -21 -26 -3 0 -21 37 -39 83 -140 350 -355 528 -536 443z m193
-143 c166 -133 301 -465 342 -837 43 -397 15 -800 -80 -1146 -99 -362 -134
-455 -186 -503 l-41 -36 -12 81 c-29 189 -95 278 -203 278 -93 -1 -208 -95
-276 -227 -20 -40 -40 -73 -44 -73 -24 0 -141 279 -163 389 -34 167 13 364
189 787 132 317 160 422 176 664 6 85 15 219 20 296 13 185 36 263 96 323 42
42 46 43 94 39 37 -4 61 -14 88 -35z m1140 -265 c86 -44 148 -163 154 -297 l3
-54 -80 -27 c-273 -94 -516 -261 -675 -465 l-55 -69 -7 144 c-4 80 -14 203
-23 274 -9 73 -14 151 -10 180 9 71 57 167 106 211 135 121 445 176 587 103z
m-5929 -378 c115 -33 184 -160 209 -385 7 -70 7 -70 -40 -163 -41 -81 -136
-352 -168 -481 l-11 -43 -44 89 c-85 174 -225 245 -396 202 -30 -8 -58 -14
-63 -14 -9 0 -49 137 -49 170 0 34 52 280 72 337 46 133 101 204 198 252 88
44 212 59 292 36z m6503 -76 c167 -53 260 -244 213 -440 -47 -202 -186 -386
-629 -834 -204 -207 -331 -347 -403 -445 l-22 -30 -46 52 c-30 35 -68 63 -113
85 -65 32 -71 33 -187 32 -96 0 -132 -5 -177 -22 -32 -11 -58 -19 -58 -16 0 3
22 82 50 177 73 255 98 365 116 521 22 185 33 224 94 327 70 117 160 221 260
302 291 235 681 361 902 291z m-7628 -179 c146 -38 299 -152 375 -279 37 -61
97 -226 106 -291 6 -39 5 -41 -59 -92 -197 -158 -324 -462 -326 -772 l0 -75
-59 90 c-202 307 -496 389 -853 239 -14 -5 -18 -2 -18 13 0 10 -18 59 -41 108
-111 240 -110 450 3 642 42 71 204 236 283 287 185 121 423 173 589 130z
m1803 -95 c137 -83 131 -422 -16 -860 -112 -333 -312 -719 -459 -882 -44 -50
-117 -160 -158 -238 l-29 -55 -3 65 c-2 36 2 146 8 245 6 99 15 302 20 450 9
309 17 362 105 660 89 299 149 427 242 516 115 110 216 144 290 99z m6495 -47
c79 -37 162 -115 173 -161 8 -39 -9 -93 -46 -148 -28 -40 -30 -41 -101 -48
-144 -14 -287 -53 -453 -123 -44 -18 -81 -33 -82 -33 -1 0 18 32 43 71 89 137
135 261 149 401 8 79 5 77 155 74 84 -1 103 -5 162 -33z m453 -496 c114 -32
147 -65 119 -119 -9 -18 -105 -121 -213 -228 -234 -232 -364 -379 -596 -675
-296 -377 -393 -476 -543 -552 l-73 -37 -152 -1 c-144 -1 -157 -3 -247 -34
-52 -18 -150 -61 -218 -96 -68 -35 -121 -58 -119 -52 3 7 26 58 51 115 85 190
119 390 93 558 -7 49 -5 54 32 110 64 96 201 254 349 401 385 387 705 573
1067 622 99 14 388 6 450 -12z m-7880 -28 c96 -65 154 -247 171 -542 6 -102
-15 -620 -32 -794 l-5 -53 -32 17 c-47 25 -141 23 -193 -5 -83 -43 -186 -203
-239 -372 -24 -76 -28 -78 -64 -21 -30 46 -97 116 -132 137 -10 6 -21 45 -32
114 -10 59 -28 151 -41 205 -51 213 -67 599 -32 759 20 91 64 208 107 283 129
226 391 362 524 272z m-2459 -3 c231 -49 427 -216 606 -518 l41 -70 -46 -39
c-61 -53 -139 -171 -168 -256 -37 -104 -34 -304 5 -421 15 -46 26 -86 23 -88
-2 -2 -55 23 -118 55 -350 182 -586 242 -979 248 -141 2 -248 7 -254 13 -6 6
-21 10 -34 10 -49 0 -155 63 -229 136 -187 183 -193 405 -14 597 173 187 468
317 796 351 76 8 300 -3 371 -18z m1175 -566 c262 -50 481 -371 574 -841 14
-74 28 -142 31 -151 4 -13 -3 -18 -33 -23 -127 -22 -206 -79 -266 -193 -40
-75 -81 -208 -91 -292 -4 -30 -9 -72 -12 -92 l-6 -37 -76 65 c-42 35 -114 82
-158 104 -86 42 -135 88 -248 228 -29 37 -86 103 -127 148 -56 61 -87 106
-125 185 -160 323 -149 546 35 730 130 130 339 200 502 169z m6165 -158 c40
-26 65 -134 71 -307 6 -177 14 -198 71 -193 34 3 39 7 65 63 78 163 314 315
490 315 116 0 213 -70 258 -185 34 -86 34 -282 1 -400 -32 -112 -117 -285
-201 -408 -78 -115 -84 -136 -45 -166 37 -29 59 -26 118 13 73 48 338 189 423
225 191 81 337 83 388 4 85 -129 -109 -349 -465 -528 -441 -221 -749 -210
-1106 42 -55 38 -130 86 -169 107 -216 116 -404 330 -494 561 -106 271 -119
582 -30 704 36 51 55 51 101 4 51 -54 84 -116 123 -233 19 -57 42 -111 51
-122 21 -22 57 -23 78 -2 18 18 19 22 17 89 -5 145 89 343 193 406 34 21 45
23 62 11z m-7796 -493 c212 -19 402 -71 621 -170 245 -110 393 -219 508 -373
38 -50 96 -121 130 -158 l61 -67 -49 -27 c-92 -50 -134 -138 -133 -284 0 -69
6 -114 22 -163 12 -38 20 -70 18 -72 -2 -2 -61 26 -133 61 -186 91 -275 115
-455 121 -80 3 -153 9 -162 14 -9 5 -106 24 -215 44 -269 47 -684 146 -790
189 -274 112 -483 335 -483 515 0 55 41 132 96 180 174 154 552 228 964 190z
m3527 -74 c38 -27 58 -99 57 -210 0 -87 -8 -131 -58 -335 -32 -129 -60 -260
-63 -290 -3 -30 -15 -67 -25 -83 l-20 -27 -30 25 c-200 168 -531 -34 -623
-380 -36 -133 -29 -327 15 -453 11 -30 18 -57 16 -59 -2 -2 -27 2 -56 8 -99
21 -219 -8 -295 -74 -87 -73 -121 -241 -76 -374 12 -34 21 -66 21 -71 0 -11
-187 -66 -274 -82 -90 -15 -187 -12 -297 10 -209 43 -287 93 -604 387 -197
183 -293 256 -611 466 -314 207 -363 258 -296 305 88 63 314 76 477 28 111
-33 255 -102 399 -190 117 -71 147 -78 183 -44 34 31 29 58 -31 182 -64 131
-80 194 -74 285 9 123 53 166 163 159 119 -7 233 -86 391 -270 45 -54 80 -62
112 -28 16 17 20 43 25 148 8 161 21 236 56 340 35 102 72 156 126 188 112 65
231 -1 325 -179 54 -102 75 -127 112 -127 42 0 64 30 93 127 43 145 65 204
112 296 57 110 96 143 165 138 30 -2 95 -69 121 -125 25 -53 67 -96 93 -96 45
0 66 26 140 172 107 213 170 276 231 233z m2151 -315 c105 -12 184 -33 202
-55 9 -10 6 -23 -10 -55 -12 -23 -24 -62 -27 -88 l-5 -47 -147 -1 c-373 -3
-717 -122 -807 -279 -10 -18 -11 -18 -45 2 -47 29 -151 63 -193 63 l-34 0 5
63 c5 55 2 71 -23 121 -22 46 -26 62 -18 84 24 69 303 164 559 191 118 12 431
13 543 1z m754 -78 c124 -61 228 -197 263 -343 16 -69 21 -304 6 -313 -4 -3
-14 14 -21 37 -30 100 -123 244 -195 300 -101 80 -232 102 -362 63 l-61 -19
-34 38 c-64 73 -74 115 -37 167 52 72 150 109 280 105 84 -2 103 -6 161 -35z
m-2010 -212 c111 -31 96 -146 -30 -232 -26 -17 -66 -48 -88 -67 -23 -20 -114
-74 -204 -121 -170 -89 -257 -154 -280 -211 -12 -28 -16 -30 -44 -23 -17 5
-73 8 -124 9 -125 1 -142 15 -145 130 -1 73 1 84 27 125 104 162 380 334 616
384 78 17 221 20 272 6z m1448 -96 c25 -8 54 -21 65 -29 18 -15 18 -17 -22
-58 -40 -41 -150 -201 -207 -301 l-28 -48 -25 43 c-35 63 -58 84 -116 109 -75
32 -157 24 -327 -33 -74 -24 -152 -48 -172 -51 -37 -7 -38 -6 -38 24 0 17 -7
47 -15 66 -13 33 -13 39 5 74 42 83 169 142 401 189 209 42 383 48 479 15z
m489 -79 c106 -53 208 -227 234 -397 l6 -38 -42 0 c-98 -1 -189 -51 -415 -227
-87 -67 -159 -122 -162 -122 -3 0 -17 26 -33 59 -48 101 -126 160 -212 160
l-27 0 57 108 c65 122 169 284 227 354 97 117 254 161 367 103z m-1600 -157
c36 -18 71 -42 76 -53 6 -11 22 -36 38 -56 15 -20 27 -38 27 -42 0 -3 -33 -11
-72 -17 -128 -22 -221 -64 -285 -131 -35 -38 -72 -112 -73 -146 0 -15 -8 -25
-23 -28 -32 -8 -262 12 -324 29 -86 23 -193 70 -193 85 0 27 70 78 214 153
131 70 263 151 337 209 63 49 176 48 278 -3z m2366 -42 c104 -44 150 -224 109
-424 -40 -195 -206 -599 -326 -791 -32 -52 -36 -55 -93 -67 -33 -6 -61 -11
-62 -10 -1 1 5 28 12 61 8 32 26 143 41 245 39 273 29 478 -31 604 -23 47 -13
92 40 203 70 143 207 222 310 179z m-3851 -10 c43 -18 69 -63 95 -164 11 -46
29 -96 41 -111 21 -31 26 -51 11 -51 -5 0 -32 -20 -59 -45 -124 -112 -152
-286 -71 -447 11 -21 19 -39 19 -41 0 -2 -36 -7 -79 -10 -44 -4 -97 -13 -118
-22 -39 -16 -39 -16 -113 19 -114 54 -174 346 -112 546 53 169 161 294 282
326 59 16 65 16 104 0z m4520 -76 c66 -47 86 -66 81 -78 -44 -113 -90 -304
-175 -732 -77 -387 -135 -860 -147 -1204 l-6 -179 -33 -49 c-70 -104 -114
-339 -99 -525 4 -46 4 -83 1 -83 -19 0 -76 114 -93 185 -25 111 -25 537 0 775
38 347 190 1331 243 1568 50 225 107 397 129 388 7 -2 52 -32 99 -66z m-2283
-46 c51 -46 83 -143 74 -218 l-7 -51 -227 -99 c-124 -55 -257 -117 -295 -138
-56 -32 -71 -36 -78 -25 -4 8 -28 41 -53 74 -76 102 -151 146 -268 158 -63 7
-67 9 -61 29 27 88 110 131 309 161 125 19 286 59 373 92 125 48 194 53 233
17z m4149 -316 c-11 -90 -37 -237 -56 -326 -45 -210 -189 -695 -249 -837 -113
-272 -325 -592 -639 -970 -158 -190 -256 -330 -256 -367 0 -11 -26 -29 -75
-53 -113 -54 -246 -147 -346 -242 -102 -98 -96 -107 -74 97 15 146 34 213 95
332 112 219 296 476 599 833 251 296 326 392 448 575 185 277 374 665 514
1055 50 140 54 147 57 108 2 -23 -6 -115 -18 -205z m-3019 42 c82 -102 84
-398 5 -780 -35 -168 -38 -172 -130 -228 -239 -146 -488 -375 -611 -560 l-68
-104 -41 49 c-22 26 -64 72 -94 102 l-54 54 4 316 c7 451 22 494 248 722 139
139 433 374 553 440 76 43 148 38 188 -11z m-2887 0 c43 -11 124 -38 179 -60
180 -73 230 -81 512 -87 281 -6 292 -9 358 -82 65 -72 92 -120 79 -139 -22
-31 -69 -126 -81 -164 l-13 -38 -126 0 c-148 0 -210 -12 -405 -75 -240 -79
-304 -75 -536 34 -80 38 -164 75 -185 82 -77 27 -156 165 -163 284 -4 65 -2
74 29 124 37 61 97 100 188 125 72 19 74 19 164 -4z m2038 -107 c10 -9 34 -49
55 -89 l36 -74 -101 -104 c-199 -205 -243 -313 -259 -635 l-6 -135 -32 70
c-67 147 -140 240 -250 319 -69 49 -196 114 -272 139 -61 20 -61 18 -29 90 55
123 117 165 486 328 268 118 327 132 372 91z m-6058 -108 c386 -113 691 -393
820 -755 85 -237 76 -530 -24 -735 -22 -47 -44 -85 -48 -85 -4 0 -16 14 -25
30 -33 56 -129 150 -246 242 -422 333 -779 783 -921 1160 -36 95 -35 110 9
133 103 53 276 57 435 10z m-524 -97 c0 -7 20 -62 45 -123 151 -370 521 -826
918 -1133 113 -87 220 -196 245 -249 16 -34 16 -35 -8 -53 -141 -107 -385
-146 -574 -92 -353 101 -600 360 -736 771 -59 176 -75 265 -74 421 0 192 33
304 125 420 39 49 59 62 59 38z m3583 -254 c38 -13 87 -34 110 -46 l42 -23 0
-105 c0 -93 3 -112 27 -163 43 -91 123 -200 209 -282 43 -41 73 -75 66 -75 -7
0 -51 11 -97 24 -47 14 -139 36 -205 50 -164 35 -262 84 -343 170 -144 154
-174 341 -70 430 69 60 132 64 261 20z m633 -59 c49 -14 154 -57 234 -95 187
-89 244 -104 380 -98 91 4 124 11 247 52 238 78 354 92 523 62 158 -28 373
-141 448 -235 66 -82 211 -401 183 -401 -5 0 -34 11 -66 25 -192 85 -521 121
-697 76 -188 -48 -347 -180 -390 -323 -10 -35 -14 -39 -36 -33 -14 3 -43 21
-66 39 -102 83 -196 125 -393 176 -65 17 -126 35 -135 40 -10 6 -35 13 -55 16
-85 13 -303 175 -409 303 -151 183 -172 343 -53 403 52 27 176 24 285 -7z
m3524 -378 c137 -69 -16 -527 -347 -1036 -260 -399 -448 -581 -659 -635 -99
-26 -99 -26 -61 52 113 225 137 527 60 750 -30 89 -29 91 69 239 226 338 780
710 938 630z m-4427 -109 c34 -35 91 -79 125 -98 61 -34 63 -37 123 -155 l62
-120 -27 -39 c-82 -122 -41 -258 125 -416 l69 -65 26 -125 c14 -69 29 -186 34
-262 l10 -136 -53 -85 c-28 -47 -61 -100 -72 -118 l-20 -34 -2 70 c-6 165 -49
448 -98 645 -49 194 -128 396 -247 634 -28 55 -77 156 -109 224 -62 131 -62
128 -12 141 2 1 31 -27 66 -61z m8414 -18 c171 -79 279 -273 259 -462 -7 -66
-8 -67 -62 -108 -340 -257 -640 -675 -920 -1284 -162 -353 -230 -490 -288
-590 -31 -52 -56 -99 -56 -104 0 -9 -23 -22 -39 -22 -4 0 -2 24 5 53 7 28 25
167 39 307 41 412 56 497 191 1052 41 168 81 352 89 407 18 116 48 208 113
336 186 374 432 526 669 415z m-1087 -130 c144 -74 207 -217 196 -445 -7 -150
-19 -215 -100 -545 -116 -475 -153 -665 -181 -934 -8 -83 -17 -152 -20 -154
-2 -2 -15 19 -30 48 -54 106 -162 193 -257 206 -26 4 -52 12 -57 18 -5 6 -17
76 -26 156 -22 195 -38 295 -90 560 -52 267 -61 365 -45 479 32 234 142 444
285 546 132 95 229 114 325 65z m-6874 -56 c110 -22 111 -25 27 -60 l-74 -32
-24 49 c-36 70 -42 66 71 43z m2029 -35 c339 -41 592 -187 753 -434 82 -124
97 -186 96 -385 -1 -190 -17 -265 -81 -396 -130 -263 -517 -427 -744 -314
-224 112 -393 288 -521 545 -184 367 -186 708 -6 870 118 106 276 142 503 114z
m-1340 -123 c242 -56 313 -85 443 -178 46 -33 94 -63 108 -67 24 -6 25 -8 28
-126 8 -258 133 -578 314 -803 19 -24 32 -46 29 -49 -11 -11 -165 -2 -221 12
-74 19 -118 43 -205 108 -142 106 -229 194 -265 266 -74 145 -180 204 -329
180 -46 -8 -62 -6 -80 6 -13 8 -78 39 -145 69 -320 142 -518 359 -430 471 44
56 163 117 263 135 103 18 360 6 490 -24z m8001 -201 c138 -86 279 -376 305
-627 46 -448 -180 -860 -812 -1484 -112 -110 -230 -220 -261 -243 -32 -23 -58
-48 -58 -55 0 -9 -24 -15 -81 -20 -44 -4 -101 -9 -126 -13 -41 -5 -46 -4 -40
11 12 30 -13 159 -43 223 -76 163 -226 253 -422 253 -49 0 -88 3 -86 8 2 4 44
90 95 192 50 102 135 280 187 395 210 459 411 774 655 1028 303 315 534 426
687 332z m-2541 -500 c3 -22 26 -139 50 -260 24 -121 51 -278 60 -350 9 -71
22 -170 29 -218 11 -79 11 -89 -3 -94 -111 -35 -224 -127 -257 -208 -18 -45
-20 -46 -54 -41 -185 32 -244 37 -421 34 -104 -2 -189 0 -189 3 0 3 37 29 83
56 188 116 422 313 487 411 87 131 82 255 -14 326 -32 25 -154 34 -226 17 -24
-5 -46 -9 -47 -7 -6 6 77 116 192 256 66 80 158 196 205 258 l85 112 6 -128
c4 -70 10 -145 14 -167z m-1387 224 c37 -38 66 -111 89 -227 22 -108 25 -522
4 -672 -14 -100 -68 -329 -80 -343 -4 -4 -38 2 -74 14 l-67 22 0 46 c0 25 -13
138 -30 251 -74 510 -56 771 61 905 38 43 58 44 97 4z m-9733 -19 c838 -57
1453 -526 1710 -1305 35 -106 56 -245 36 -245 -6 0 -11 9 -11 20 0 30 -59 141
-140 265 -277 420 -550 675 -915 855 -391 192 -820 299 -1209 300 -106 1 -110
1 -82 16 79 43 235 83 370 94 50 4 93 8 96 8 3 1 68 -3 145 -8z m4436 -89
c119 -75 199 -254 235 -525 24 -180 15 -500 -20 -701 -24 -138 -140 -662 -148
-670 -1 -1 -25 1 -53 5 -74 13 -276 12 -356 -1 -38 -7 -72 -10 -75 -7 -12 13
-84 324 -104 453 -47 292 -37 754 21 987 53 211 201 426 329 477 51 20 123 13
171 -18z m929 -148 c3 -3 -6 -14 -20 -25 -14 -11 -53 -47 -87 -80 -34 -33 -67
-57 -73 -53 -5 3 -10 26 -10 50 0 24 -7 79 -15 122 -8 43 -15 81 -15 85 0 6
208 -87 220 -99z m-2176 38 c235 -103 407 -394 511 -861 20 -91 42 -181 50
-200 8 -19 19 -84 25 -145 14 -144 44 -308 86 -475 19 -74 34 -138 34 -141 0
-4 -35 -19 -77 -34 -43 -15 -104 -40 -135 -56 -32 -16 -59 -29 -62 -29 -2 0
-29 46 -59 103 -128 238 -332 584 -443 750 -158 236 -199 307 -228 397 -77
237 -72 504 12 628 68 101 157 120 286 63z m-3389 4 c366 -57 790 -211 1055
-383 254 -164 490 -413 692 -727 71 -111 128 -210 128 -223 0 -5 -46 -12 -102
-15 -94 -5 -185 -26 -214 -49 -7 -5 -23 -4 -38 2 -15 5 -47 10 -70 10 -108 0
-328 79 -510 182 -135 78 -222 154 -388 341 -308 349 -479 494 -777 661 -168
94 -227 135 -260 181 l-21 30 27 7 c45 11 369 0 478 -17z m14438 -53 c103 -46
170 -142 165 -235 l-3 -52 -50 -8 c-122 -20 -196 -40 -229 -62 l-35 -23 6 141
c3 78 1 168 -4 199 -6 32 -7 61 -4 64 11 11 109 -4 154 -24z m-8509 -71 c127
-123 123 -442 -10 -799 -76 -202 -228 -487 -381 -712 -95 -140 -315 -439 -323
-440 -3 0 -32 26 -65 57 -74 70 -150 120 -249 163 -71 31 -75 35 -69 59 44
185 187 641 258 821 62 159 182 399 252 505 73 109 247 293 323 340 61 39 85
45 162 42 61 -2 71 -6 102 -36z m3332 -57 c84 -40 219 -196 287 -330 52 -103
102 -261 131 -412 l13 -70 -37 -11 c-55 -16 -53 -18 -118 72 -33 46 -119 151
-189 233 -267 310 -296 366 -244 480 31 68 73 78 157 38z m-3017 -299 c80 -64
171 -120 237 -144 114 -43 316 -52 370 -16 25 16 26 15 69 -24 53 -49 158
-117 254 -166 55 -27 83 -35 125 -35 98 0 98 0 130 -152 15 -73 54 -245 86
-383 81 -347 142 -675 174 -950 22 -185 46 -484 45 -563 l0 -67 -47 -30 c-58
-37 -104 -111 -122 -195 -29 -135 5 -391 81 -610 l40 -115 -1 -204 c-1 -113
-3 -208 -6 -212 -2 -4 -53 15 -112 42 -127 56 -404 151 -512 174 -113 25 -339
31 -423 11 -242 -57 -314 -229 -196 -473 97 -202 258 -345 632 -557 27 -15 47
-30 44 -32 -2 -2 -37 1 -78 7 -41 5 -154 9 -252 7 l-177 -3 -34 95 c-55 158
-135 356 -217 537 -42 94 -87 206 -99 249 -39 143 -121 319 -211 451 -16 23
-29 44 -29 46 0 2 39 -15 88 -40 240 -120 557 -177 757 -134 191 41 319 174
319 331 0 171 -116 342 -310 458 -48 28 -81 53 -73 56 8 2 57 9 109 15 362 44
713 294 760 539 33 180 -119 354 -365 416 -129 32 -377 45 -505 27 -30 -5 -56
-8 -58 -6 -1 1 37 33 85 71 406 321 558 694 391 957 -67 105 -168 151 -328
150 -297 -2 -639 -149 -970 -416 -58 -47 -106 -84 -107 -83 -1 0 45 93 101
206 148 299 217 519 232 743 6 89 8 96 24 85 9 -7 45 -35 79 -63z m4786 18
c38 -38 -2 -130 -100 -228 -146 -145 -366 -296 -615 -420 -74 -37 -147 -76
-161 -86 l-26 -18 -32 39 c-17 21 -31 43 -31 48 0 16 90 174 136 238 85 120
265 265 429 347 164 81 360 120 400 80z m3960 -17 c186 -85 321 -421 261 -653
-65 -257 -262 -408 -726 -559 -731 -236 -980 -325 -1097 -389 l-63 -34 -15 28
c-19 37 -89 98 -132 113 -42 15 -42 17 15 60 73 56 456 449 563 578 171 206
301 393 360 518 35 73 53 100 141 207 72 89 108 108 236 130 250 41 370 41
457 1z m-6131 -45 c103 -37 194 -102 317 -228 104 -107 329 -389 329 -413 0
-12 -16 -9 -170 36 -63 19 -167 48 -230 65 -305 82 -493 160 -672 277 -112 74
-121 105 -53 175 104 107 316 146 479 88z m-6219 -65 c276 -136 530 -447 885
-1081 67 -121 140 -250 160 -286 l38 -67 -42 -41 c-36 -35 -48 -41 -84 -41
-59 0 -83 14 -272 160 -91 70 -228 170 -305 223 -526 361 -788 696 -761 972 6
60 44 152 71 175 66 55 182 49 310 -14z m5577 -80 c-10 -116 36 -162 313 -321
l50 -29 -77 -18 c-100 -22 -169 -58 -223 -114 -52 -53 -69 -99 -63 -165 14
-143 234 -244 575 -266 l122 -8 -81 -65 c-256 -206 -313 -379 -158 -482 l25
-16 -26 -10 c-102 -40 -199 -205 -262 -447 -51 -195 -61 -280 -61 -556 l-1
-256 -54 81 c-30 44 -73 104 -97 131 l-42 50 -11 310 c-17 468 -28 654 -71
1200 -43 544 -70 910 -70 965 l0 35 63 2 c34 1 76 7 92 12 56 18 60 15 57 -33z
m-332 -61 c0 -42 29 -455 60 -840 16 -203 36 -471 45 -595 15 -229 38 -870 32
-877 -2 -2 -24 8 -48 21 -24 13 -61 29 -82 36 -34 11 -38 15 -34 38 6 32 -8
269 -28 472 -31 306 -101 709 -186 1065 -57 240 -119 520 -119 539 0 7 23 18
54 25 55 12 204 81 261 120 39 27 45 26 45 -4z m3818 -338 c113 -73 172 -255
172 -534 0 -80 3 -96 20 -113 29 -29 61 -25 111 14 153 116 343 146 484 77
119 -59 166 -145 174 -319 7 -141 12 -146 116 -138 308 26 374 19 438 -44 37
-38 38 -40 31 -92 -4 -29 -13 -68 -20 -87 -19 -45 -18 -64 5 -92 18 -23 26
-24 133 -24 126 0 177 -16 232 -71 73 -74 68 -157 -15 -248 -100 -109 -256
-160 -997 -326 -150 -34 -295 -64 -321 -67 -47 -5 -48 -5 -62 28 -19 46 -75
106 -121 130 -92 47 -186 32 -368 -58 -63 -31 -117 -56 -120 -55 -7 2 -15 41
-59 292 -37 210 -64 330 -191 865 -27 116 -50 217 -50 226 0 11 17 22 51 33
132 44 197 133 169 235 -14 52 -98 144 -167 183 -60 34 -58 30 -39 66 66 127
281 191 394 119z m-4690 -23 c47 -19 88 -58 115 -109 36 -65 31 -206 -9 -306
-97 -242 -388 -511 -754 -698 -119 -61 -541 -242 -760 -326 -91 -35 -172 -66
-181 -70 -14 -5 -18 4 -23 62 -10 92 -40 202 -76 273 -24 47 -27 61 -16 67 7
4 33 40 56 78 74 122 128 185 324 380 336 335 584 507 876 609 159 56 367 74
448 40z m2864 -60 c192 -104 194 -271 3 -291 -89 -9 -180 33 -235 109 -29 39
-30 46 -24 102 4 34 11 69 16 78 23 46 156 47 240 2z m-835 -37 c73 -25 177
-55 230 -67 54 -12 99 -23 102 -25 8 -9 -286 -145 -349 -162 -182 -48 -542 6
-653 98 -48 40 -47 63 6 113 72 69 194 97 402 91 124 -3 136 -5 262 -48z
m-9368 -45 c59 -30 60 -43 4 -95 -74 -69 -106 -134 -111 -227 l-4 -76 -100 1
-100 0 -20 39 c-26 51 -19 106 24 193 70 142 208 216 307 165z m11291 -42
c194 -24 318 -68 388 -137 50 -51 55 -83 15 -111 -51 -35 -97 -44 -244 -49
-258 -9 -481 29 -876 149 -93 28 -103 34 -103 55 0 27 20 37 120 59 167 38
526 55 700 34z m-10942 -106 c71 -35 101 -77 112 -154 5 -34 11 -64 14 -67 2
-3 -7 -28 -20 -56 -13 -29 -24 -63 -24 -76 0 -22 -2 -23 -37 -15 -69 16 -164
10 -217 -14 l-50 -22 -38 37 c-80 78 -99 172 -53 262 60 120 194 165 313 105z
m9467 -78 c-73 -251 -251 -449 -492 -548 -89 -36 -233 -47 -266 -19 -81 67
144 289 487 481 72 40 166 96 210 126 44 29 81 52 83 50 2 -1 -8 -42 -22 -90z
m-7545 -20 c147 -23 245 -58 505 -183 537 -257 823 -404 918 -472 53 -38 115
-74 142 -81 46 -13 47 -14 40 -47 -3 -19 -19 -67 -36 -108 -16 -40 -29 -80
-29 -89 0 -8 -4 -17 -10 -21 -5 -3 -104 24 -219 60 -277 87 -370 109 -589 139
-100 14 -190 30 -200 35 -10 5 -46 14 -80 21 -139 25 -343 120 -549 256 -292
193 -383 384 -220 463 86 42 177 49 327 27z m7710 -43 c0 -10 7 -88 15 -173
25 -278 29 -446 11 -528 -28 -132 -82 -224 -152 -257 -71 -34 -113 10 -122
125 -8 121 31 283 129 531 70 179 99 264 99 296 0 12 5 23 10 23 6 0 10 -8 10
-17z m5673 -80 c104 -80 216 -223 270 -345 30 -68 32 -80 32 -188 0 -111 -1
-117 -36 -191 -64 -133 -196 -232 -369 -275 -90 -23 -262 -14 -509 25 -107 17
-262 35 -345 41 -83 6 -234 18 -336 26 -102 8 -206 14 -231 14 -39 0 -47 4
-63 31 -52 88 -160 153 -287 172 -86 12 -96 23 -51 55 109 77 422 195 977 368
407 127 584 202 720 307 l70 54 50 -25 c28 -14 76 -45 108 -69z m-5060 30 c45
-19 156 -66 247 -104 335 -141 508 -267 527 -383 7 -47 -15 -66 -81 -66 -244
0 -621 247 -847 554 -16 21 -29 42 -29 46 0 14 102 -12 183 -47z m-9722 -21
c125 -65 135 -211 25 -361 -61 -83 -87 -96 -193 -96 l-92 0 -11 49 c-6 27 -19
69 -30 94 -13 30 -20 66 -20 111 0 180 166 284 321 203z m9471 -77 c153 -262
189 -356 196 -516 6 -163 -26 -265 -109 -347 -110 -107 -165 40 -189 507 -11
214 -27 321 -60 393 -30 67 -28 69 42 66 l62 -3 58 -100z m1147 -41 c2 -1 27
-103 56 -226 29 -123 76 -320 104 -438 28 -118 67 -307 87 -420 39 -226 62
-328 77 -348 5 -7 8 -14 6 -16 -2 -2 -51 -39 -109 -82 -189 -139 -331 -265
-577 -508 l-243 -239 54 124 c155 360 239 714 240 1014 1 264 -57 461 -166
562 -75 70 -211 69 -304 -2 -18 -14 -36 -25 -41 -25 -4 0 -8 51 -9 113 -1 69
-7 135 -17 172 -9 32 -14 61 -12 63 2 3 21 -9 42 -26 282 -222 616 -320 754
-221 100 71 85 219 -34 355 -22 25 -80 72 -131 105 l-91 61 155 -7 c85 -4 157
-9 159 -11z m-11949 -36 c0 -2 -7 -21 -15 -43 -8 -22 -14 -65 -14 -95 0 -30 6
-73 14 -95 8 -22 15 -41 15 -41 0 -1 -18 -4 -41 -8 -59 -9 -95 -31 -150 -88
-48 -50 -49 -50 -74 -34 -37 24 -58 72 -50 114 20 108 135 239 243 278 33 12
72 18 72 12z m365 -27 c92 -42 121 -104 95 -196 -31 -107 -44 -122 -115 -127
-33 -3 -75 -13 -92 -21 l-30 -16 -57 79 c-97 135 -102 222 -14 279 44 28 155
29 213 2z m471 -101 c73 -36 130 -155 105 -219 -6 -14 -15 -44 -20 -66 -16
-63 -77 -117 -139 -123 l-50 -4 -63 64 c-35 35 -81 72 -101 82 -44 20 -43 16
-19 58 11 18 27 58 35 89 33 114 148 169 252 119z m4539 -30 c301 -34 508
-173 624 -420 181 -383 -65 -778 -572 -919 -244 -68 -501 -68 -684 1 -354 132
-490 590 -277 934 24 40 44 80 44 91 0 29 126 146 196 181 210 106 460 155
669 132z m4752 -97 c-58 -182 -74 -359 -41 -461 84 -258 385 -172 485 138 10
30 18 53 19 50 52 -305 87 -381 190 -411 25 -7 46 -13 47 -14 2 -1 -22 -46
-52 -101 -119 -214 -254 -597 -331 -934 -20 -90 -19 -92 -38 92 -44 424 -181
838 -381 1143 -76 117 -221 263 -299 302 l-59 30 68 17 c123 31 266 107 370
199 22 19 41 34 43 32 2 -2 -8 -39 -21 -82z m-10047 -168 c14 -7 36 -25 49
-39 24 -25 24 -26 11 -103 -10 -61 -22 -91 -52 -136 -43 -63 -73 -81 -123 -71
-108 20 -164 135 -116 239 53 116 138 156 231 110z m1165 -24 c135 -61 122
-213 -25 -295 -78 -44 -200 -44 -305 -1 -38 16 -86 29 -105 29 -28 1 -36 5
-38 24 -2 12 2 24 10 26 138 38 195 80 249 181 13 24 30 46 39 49 42 11 138 4
175 -13z m-750 -55 c48 -22 115 -85 115 -107 0 -6 9 -22 20 -36 40 -51 10
-127 -63 -164 -83 -43 -241 -13 -289 53 -39 56 -32 195 13 252 28 36 130 37
204 2z m7475 -10 c250 -41 389 -164 347 -306 -54 -185 -344 -369 -654 -415
-118 -17 -368 -23 -553 -12 -680 38 -949 62 -988 86 -11 7 27 119 49 147 5 7
74 37 152 68 271 106 343 135 497 199 248 103 520 193 685 227 112 23 343 26
465 6z m1691 -48 c230 -115 479 -578 579 -1078 53 -265 77 -623 65 -985 -4
-126 -7 -249 -7 -272 -1 -42 -1 -43 -33 -43 -63 0 -280 -32 -337 -50 l-57 -18
-48 56 c-146 166 -272 415 -411 807 -143 405 -152 451 -152 739 0 286 32 477
111 674 80 200 148 241 290 170z m-6286 -87 c267 -37 353 -56 643 -145 117
-36 214 -66 217 -66 3 0 5 -33 5 -72 0 -63 14 -152 35 -224 6 -20 2 -21 -82
-27 -96 -6 -204 -37 -464 -133 -81 -30 -157 -54 -170 -53 -13 1 -85 -4 -159
-11 -192 -17 -404 -3 -700 46 -262 44 -468 144 -526 256 -67 129 108 349 334
423 172 55 486 58 867 6z m7999 28 c34 -16 73 -75 101 -152 69 -188 59 -508
-25 -830 -93 -358 -208 -608 -528 -1152 -74 -126 -136 -231 -136 -231 -1 -1
-35 7 -76 17 -41 11 -122 22 -180 25 -136 7 -134 7 -115 44 10 19 17 70 21
142 15 310 172 988 310 1345 116 301 324 631 466 741 80 61 115 72 162 51z
m-10507 -287 c108 -104 95 -215 -34 -279 -81 -39 -196 -40 -262 -3 -85 48
-129 133 -101 199 10 24 19 30 58 36 66 10 127 41 175 90 l41 43 39 -21 c21
-12 59 -41 84 -65z m476 26 c132 -95 588 -463 688 -556 132 -121 346 -385 471
-578 72 -112 70 -102 43 -187 -13 -41 -27 -105 -31 -142 l-7 -66 -81 163
c-110 219 -179 335 -289 481 -193 257 -569 607 -870 809 l-90 60 54 23 c30 13
57 23 60 24 4 0 27 -14 52 -31z m4822 -413 c92 -17 258 -34 565 -55 423 -31
438 -33 555 -67 290 -84 435 -179 518 -338 42 -82 45 -174 6 -229 -66 -93
-147 -121 -344 -120 -299 1 -561 111 -880 369 -60 49 -123 96 -140 104 -16 8
-68 45 -115 82 -47 36 -140 103 -207 149 -68 45 -123 84 -123 88 0 4 31 42 34
42 1 0 60 -11 131 -25z m-1801 -57 c19 -29 48 -69 65 -89 l30 -35 -202 -165
c-317 -259 -586 -532 -686 -695 -34 -56 -142 -130 -318 -218 -234 -117 -438
-120 -550 -9 -99 98 -81 303 43 496 142 220 401 393 854 570 367 144 539 196
652 196 l77 1 35 -52z m8454 8 c71 -37 97 -161 67 -321 -48 -258 -162 -473
-378 -712 -36 -39 -66 -75 -68 -80 -2 -5 -35 -21 -74 -37 -185 -77 -481 -238
-760 -415 -124 -78 -376 -263 -409 -300 -26 -29 -29 -28 -104 36 -37 31 -95
74 -129 96 l-62 39 50 81 c154 249 384 523 713 852 533 531 1001 840 1154 761z
m-4135 -31 c190 -89 336 -299 611 -875 253 -529 305 -623 414 -755 23 -27 42
-53 42 -56 0 -4 -37 -33 -82 -65 -46 -32 -114 -88 -153 -126 -46 -45 -75 -66
-86 -63 -30 10 -255 250 -353 378 -413 540 -610 969 -611 1337 0 111 3 130 23
173 40 80 102 96 195 52z m-2635 -126 c183 -123 240 -167 351 -274 236 -227
426 -510 507 -755 36 -111 41 -281 10 -344 -47 -94 -143 -146 -269 -146 -40 0
-89 5 -109 10 -89 25 -278 186 -384 327 -128 170 -343 567 -394 728 -41 130
-96 278 -126 336 l-23 46 77 37 c42 21 104 57 137 81 33 24 66 44 73 44 8 1
75 -40 150 -90z m9240 62 c169 -88 228 -267 160 -491 -40 -130 -103 -211 -212
-277 -34 -20 -69 -43 -78 -51 -15 -13 -21 -13 -52 2 -19 9 -39 16 -45 16 -5 0
-19 19 -29 43 -35 78 -113 127 -204 127 l-38 0 0 128 c1 355 46 460 225 519
64 21 220 12 273 -16z m-1027 -30 c178 -61 317 -231 375 -459 32 -125 28 -142
-32 -142 -25 0 -62 -9 -83 -19 -42 -22 -101 -84 -101 -107 0 -24 -24 -26 -120
-8 -73 13 -116 29 -204 74 -61 31 -155 76 -209 100 -61 26 -116 59 -145 85
l-47 43 0 74 c0 161 136 323 315 375 59 17 178 10 251 -16z m-9611 -125 c39
-19 94 -40 121 -47 49 -13 50 -14 45 -43 -4 -17 -31 -172 -61 -345 -89 -511
-135 -682 -234 -881 -172 -348 -450 -566 -662 -521 -137 30 -224 131 -281 328
-32 111 -32 360 -1 475 50 179 149 324 373 549 170 171 583 518 617 519 6 0
44 -15 83 -34z m877 -96 c42 -86 144 -393 182 -550 154 -636 99 -1169 -137
-1307 -99 -59 -226 -27 -334 82 -102 103 -157 241 -196 490 -41 259 -47 355
-47 830 l0 460 122 7 c107 7 319 41 332 54 19 19 49 -7 78 -66z m-3793 -180
c154 -23 423 -135 450 -189 l16 -30 -48 24 c-125 63 -333 55 -652 -25 -165
-41 -379 -84 -580 -117 -302 -48 -634 -39 -715 21 -20 14 -20 14 0 37 49 55
167 110 320 148 74 19 675 125 755 134 76 8 389 6 454 -3z m3136 -562 c8 -217
29 -462 46 -554 5 -28 2 -32 -26 -44 -111 -46 -236 -268 -274 -486 -28 -158
-14 -455 34 -703 5 -30 8 -56 6 -58 -2 -2 -32 43 -66 101 -89 148 -179 266
-295 382 -155 156 -254 213 -372 214 -165 0 -278 -112 -290 -289 -7 -104 -9
-104 -79 14 -78 130 -546 1074 -539 1085 3 4 25 11 50 15 70 10 143 38 272
104 64 33 118 59 119 58 2 -1 -3 -31 -11 -67 -44 -218 -18 -443 76 -638 50
-103 121 -177 216 -223 65 -33 73 -34 178 -33 95 0 119 4 178 27 367 144 632
586 744 1244 9 56 18 101 20 99 2 -1 8 -113 13 -248z m9076 182 c132 -33 266
-70 300 -81 l60 -21 0 -62 c0 -39 6 -73 17 -95 9 -19 17 -35 17 -36 0 -1 -33
-30 -74 -63 -40 -34 -118 -102 -172 -152 -136 -125 -215 -165 -314 -158 -39 3
-73 8 -76 11 -3 3 13 33 36 67 126 185 135 356 25 465 -52 53 -133 91 -224
107 -75 13 -87 25 -47 51 76 50 147 45 452 -33z m724 25 c60 -50 101 -43 124
19 5 15 13 18 48 13 58 -8 82 -35 80 -90 -3 -54 8 -64 76 -70 37 -4 61 -12 78
-28 29 -27 30 -43 4 -76 -30 -39 -25 -68 16 -99 39 -30 57 -64 47 -89 -6 -18
-73 -55 -98 -55 -24 0 -56 -60 -49 -92 l6 -28 -69 0 -69 0 -49 55 c-55 63 -72
66 -127 29 -36 -25 -39 -26 -63 -10 -46 30 -94 152 -73 186 22 35 -8 74 -61
81 -83 11 -96 90 -16 94 47 2 65 31 58 95 -5 53 -4 58 22 78 39 31 67 27 115
-13z m1149 -47 c197 -61 364 -413 282 -595 -42 -91 -161 -129 -321 -101 -79
14 -116 29 -302 122 -116 58 -217 106 -224 106 -18 0 -17 18 1 50 22 39 18 93
-13 151 -23 45 -27 64 -24 110 l4 56 72 36 c194 96 359 116 525 65z m-2236
-138 c149 -56 170 -140 79 -315 -75 -144 -345 -385 -614 -548 -511 -309 -1354
-626 -1571 -590 -35 5 -35 6 -55 92 -30 125 -76 247 -133 345 -27 48 -47 91
-44 96 15 25 224 182 363 274 505 333 902 516 1322 610 99 22 158 32 345 60
75 11 250 -2 308 -24z m-4964 -67 c7 -15 59 -98 117 -185 57 -88 104 -161 104
-164 0 -2 -33 17 -72 44 -40 27 -97 62 -125 78 l-53 29 0 113 c0 113 7 134 29
85z m-814 -28 c183 -38 483 -151 684 -256 202 -106 333 -200 526 -379 55 -52
152 -136 215 -188 63 -52 119 -99 124 -103 5 -5 -5 -35 -24 -70 -18 -35 -48
-103 -66 -153 -22 -61 -37 -90 -46 -87 -7 2 -96 16 -198 32 -429 64 -651 148
-1156 440 -298 172 -444 300 -525 463 -113 229 -27 332 271 322 63 -2 151 -11
195 -21z m-5988 -15 c24 -10 65 -40 93 -66 117 -110 165 -262 190 -599 21
-284 50 -413 167 -725 40 -105 149 -336 212 -447 23 -40 40 -73 39 -73 -2 0
-78 27 -168 61 -91 33 -219 75 -284 93 l-120 33 -41 79 c-68 132 -153 271
-202 331 -113 138 -255 387 -301 528 -49 148 -66 344 -41 467 29 143 133 286
232 321 62 22 173 21 224 -3z m4207 -196 c74 -105 194 -234 279 -299 36 -27
66 -53 66 -56 1 -3 -32 -12 -72 -18 -124 -20 -237 -84 -364 -205 -35 -32 -63
-57 -63 -55 0 3 10 47 22 99 23 104 31 431 15 630 l-7 95 32 -54 c18 -29 59
-91 92 -137z m-3355 16 c32 -22 119 -56 171 -65 39 -8 18 32 331 -615 155
-321 213 -430 341 -644 49 -81 87 -150 85 -152 -2 -2 -46 12 -98 30 -79 29
-95 37 -97 57 -2 13 -37 76 -77 139 -40 63 -136 215 -214 338 -78 123 -169
273 -202 334 -51 92 -279 578 -279 593 0 9 12 5 39 -15z m11801 -37 c43 -98
116 -148 208 -141 l47 3 8 -90 c17 -190 -5 -377 -55 -461 -34 -57 -123 -143
-171 -165 -60 -27 -216 -27 -289 1 -94 35 -165 126 -175 224 -9 89 65 272 172
421 37 52 221 255 231 255 1 0 12 -21 24 -47z m864 -190 c106 -54 226 -114
267 -133 155 -72 213 -168 214 -355 0 -103 -2 -114 -30 -170 -58 -115 -168
-154 -300 -105 -51 19 -76 39 -166 129 -121 122 -162 181 -290 417 -50 93 -95
174 -100 181 -7 8 5 13 43 18 77 11 124 38 139 80 7 19 17 35 22 35 5 0 95
-44 201 -97z m-8230 -91 c71 -170 158 -413 153 -426 -6 -14 -98 -39 -107 -29
-4 4 -28 62 -54 128 -26 66 -68 163 -93 216 l-45 96 35 47 c20 25 38 55 42 66
3 11 9 20 13 20 4 0 29 -53 56 -118z m6902 -38 c-114 -229 -115 -380 -3 -526
l37 -48 -31 -15 c-16 -9 -64 -38 -105 -65 -41 -27 -84 -52 -94 -55 -11 -4 -61
10 -117 31 -230 86 -437 118 -774 119 l-236 0 151 79 c309 161 511 294 682
451 l86 78 68 -17 c109 -29 218 -20 305 24 39 19 71 35 73 34 2 -1 -17 -41
-42 -90z m-3343 -30 c394 -86 667 -496 667 -1001 0 -567 -366 -935 -930 -935
-284 -1 -530 80 -755 249 -102 77 -171 159 -225 268 -196 397 -93 943 229
1211 130 108 207 155 296 179 193 53 544 67 718 29z m-3766 -101 c19 -43 57
-134 84 -203 45 -114 48 -126 33 -137 -19 -14 -34 -9 -34 13 0 62 -152 240
-274 320 l-59 39 54 7 c30 4 72 13 94 21 62 23 64 22 102 -60z m8040 -48 c25
-49 61 -114 80 -143 l34 -53 -10 -110 c-11 -129 -37 -196 -79 -205 -15 -3 -35
-10 -45 -15 -36 -19 -128 61 -146 128 -8 30 5 131 19 148 27 33 63 176 68 274
6 121 6 121 79 -24z m-9973 18 c47 -191 178 -368 324 -441 68 -33 85 -37 169
-40 109 -5 106 -2 144 -138 25 -87 25 -90 4 -289 -7 -77 -28 -304 -45 -505
-17 -201 -33 -374 -35 -385 -4 -19 -12 -20 -172 -21 -131 0 -190 -5 -268 -22
-54 -12 -100 -20 -101 -19 -5 7 -58 199 -64 232 -4 22 -21 79 -37 126 -69 192
-163 760 -163 984 0 160 35 318 98 441 28 56 100 144 116 144 8 0 20 -26 30
-67z m1519 -4 c163 -55 358 -231 382 -345 6 -29 2 -34 -44 -68 -86 -63 -187
-180 -211 -244 -45 -117 10 -251 141 -348 47 -34 49 -37 35 -58 -8 -11 -60
-93 -114 -181 -128 -204 -227 -346 -338 -482 -94 -114 -261 -293 -275 -293 -4
0 -28 14 -53 31 -65 43 -200 105 -276 125 -36 10 -70 21 -75 25 -8 6 -7 49 2
141 7 73 27 282 43 463 36 392 46 483 66 593 34 188 92 307 208 429 126 134
235 203 347 222 82 13 95 13 162 -10z m-3974 -86 c143 -84 382 -352 613 -688
l48 -69 -60 -17 c-107 -29 -145 -83 -138 -195 10 -149 125 -332 398 -635 41
-45 68 -80 59 -77 -347 130 -811 120 -1069 -24 -262 -145 -275 -342 -34 -495
l76 -48 -38 -8 c-22 -4 -181 -11 -354 -16 -217 -7 -366 -16 -480 -31 -183 -24
-429 -25 -451 -3 -21 21 9 60 81 108 145 96 457 184 715 200 117 7 145 19 145
60 0 34 -20 52 -107 95 -176 87 -392 279 -451 400 -80 163 -64 267 52 335 91
54 289 71 444 39 149 -30 433 -133 594 -215 110 -56 157 -63 182 -27 27 38 19
58 -75 208 -120 191 -200 351 -298 596 -50 125 -83 352 -62 420 5 16 12 41 15
57 17 78 94 89 195 30z m-1524 -193 c315 -80 573 -289 752 -611 l63 -114 -58
-8 c-148 -20 -196 -31 -261 -62 -139 -67 -186 -140 -186 -288 0 -83 -2 -97
-15 -94 -8 3 -67 23 -130 45 -63 23 -149 46 -190 52 -41 6 -89 13 -107 16 -49
7 -381 177 -453 232 -335 255 -271 701 119 827 123 40 321 42 466 5z m6885
-60 c274 -32 374 -53 500 -105 111 -45 293 -103 394 -125 68 -15 382 -60 418
-60 29 0 30 -2 25 -32 -21 -120 -19 -228 9 -413 l6 -41 -38 4 c-22 2 -84 -6
-139 -18 -91 -20 -145 -22 -625 -31 -566 -9 -766 -3 -964 31 -524 89 -833 293
-708 466 135 185 374 294 737 337 82 10 237 5 385 -13z m-2176 -82 c-9 -31
-14 -35 -24 -18 -5 9 -5 19 2 27 17 21 30 15 22 -9z m8922 -122 c-150 -268
-385 -558 -901 -1111 -92 -99 -204 -224 -249 -277 -44 -54 -84 -98 -88 -98 -3
0 -18 21 -33 48 -67 115 -192 256 -359 404 l-39 35 32 56 32 57 159 0 c385 0
701 89 852 241 78 77 103 132 103 229 0 104 -33 171 -132 267 l-74 71 73 45
c40 25 87 51 103 57 17 6 39 15 51 21 15 8 32 8 60 0 130 -37 303 -20 394 39
l45 30 3 -25 c2 -15 -11 -51 -32 -89z m-10594 33 c106 -53 259 -208 377 -379
167 -244 356 -634 436 -901 l32 -106 -65 -32 c-35 -18 -66 -31 -67 -29 -2 2
-15 30 -30 63 -41 94 -167 275 -257 370 -106 112 -204 190 -415 332 -200 133
-224 157 -255 256 -34 107 -33 301 1 371 42 86 139 108 243 55z m9286 -34
c474 -75 771 -291 676 -491 -24 -51 -98 -110 -189 -154 -177 -84 -340 -113
-635 -113 -326 0 -516 35 -850 158 -85 31 -173 62 -195 68 -22 5 -95 27 -163
48 -162 51 -368 89 -476 89 -11 0 -15 18 -18 84 l-3 83 90 6 c129 8 222 30
460 107 271 89 357 109 540 125 201 18 624 13 763 -10z m1429 -36 c20 -22 58
-52 85 -65 32 -16 48 -31 48 -43 0 -18 -35 -211 -100 -556 -100 -527 -314
-945 -669 -1309 -132 -135 -188 -179 -288 -230 -40 -19 -74 -39 -77 -44 -3 -5
-41 -19 -84 -31 l-78 -23 -125 48 c-208 80 -318 67 -434 -51 -28 -28 -59 -70
-69 -93 -22 -48 -26 -50 -52 -21 -10 12 -36 30 -56 40 -21 11 -38 22 -38 24 0
8 50 83 106 161 l51 70 81 16 c275 54 439 270 388 509 l-17 80 53 67 c67 84
182 214 368 412 424 453 717 817 830 1033 14 26 28 47 33 47 4 0 24 -18 44
-41z m-11430 -419 c211 -50 445 -154 640 -284 340 -225 506 -392 630 -634 l44
-84 -71 -65 c-39 -36 -91 -92 -116 -124 -44 -58 -46 -59 -72 -45 -15 7 -54 21
-87 30 -109 31 -341 175 -507 313 -373 314 -678 700 -678 859 0 55 78 68 217
34z m8314 -81 c338 -44 869 -282 1225 -550 195 -146 376 -357 436 -508 30 -74
31 -180 3 -236 -119 -242 -506 -260 -960 -46 -282 133 -597 323 -780 470 -150
120 -335 311 -335 345 0 7 18 37 41 67 78 104 163 300 184 427 l7 42 47 0 c26
0 86 -5 132 -11z m-4491 -110 c0 -4 -19 -14 -42 -23 -24 -9 -114 -54 -201
-101 -87 -47 -160 -85 -162 -85 -6 0 117 200 157 256 l29 41 109 -41 c60 -23
110 -44 110 -47z m2174 -143 c54 -111 142 -226 220 -287 l55 -43 -22 -24
c-104 -113 -500 -403 -788 -578 -557 -337 -1156 -511 -1382 -400 -88 43 -112
85 -111 195 3 316 378 687 952 940 331 146 545 216 802 261 239 43 219 48 274
-64z m-1794 68 c62 -10 204 -17 407 -21 l312 -5 15 -39 c9 -22 16 -41 16 -43
0 -2 -82 -45 -182 -94 -307 -151 -568 -337 -705 -502 -30 -36 -62 -74 -71 -86
-9 -11 -53 -35 -97 -53 -44 -18 -138 -58 -210 -88 -214 -91 -420 -152 -606
-177 l-47 -7 -45 78 c-26 43 -69 105 -96 138 l-50 60 103 105 c56 58 134 144
173 191 39 47 93 105 120 129 160 141 611 384 788 423 37 9 80 6 175 -9z m980
-19 c0 -7 -88 -45 -105 -45 -13 0 -27 35 -17 44 7 8 122 8 122 1z m4368 -130
c16 -6 15 -17 -1 -40 -13 -17 -16 -17 -60 14 -26 18 -47 34 -47 37 0 5 83 -4
108 -11z m-11932 -66 c182 -25 411 -124 494 -213 90 -98 151 -154 228 -213 40
-31 70 -58 67 -61 -3 -4 -46 -14 -94 -24 -143 -29 -327 -85 -419 -128 -47 -22
-90 -40 -97 -40 -7 0 -52 -25 -101 -57 -446 -283 -554 -337 -791 -394 -101
-24 -238 -29 -299 -11 -174 51 -238 266 -151 506 105 288 441 554 797 630 79
17 261 20 366 5z m10364 -412 c158 -146 343 -286 524 -397 204 -124 494 -572
603 -929 35 -116 39 -277 7 -331 -64 -110 -183 -108 -360 5 -154 99 -241 221
-279 396 -88 395 -288 816 -606 1271 -105 150 -107 153 -87 170 19 17 21 15
79 -56 32 -40 86 -99 119 -129z m-1459 83 c119 -56 247 -93 385 -111 l97 -12
-6 -161 c-20 -483 -121 -883 -333 -1306 -151 -302 -293 -501 -441 -620 -208
-168 -339 -159 -412 26 -133 338 -2 1092 300 1733 94 200 272 501 295 501 6 0
58 -22 115 -50z m-6708 -5 c181 -27 284 -71 623 -266 56 -32 144 -79 195 -104
52 -25 130 -64 174 -88 44 -24 106 -49 137 -56 83 -20 82 -19 49 -92 -16 -35
-37 -91 -46 -124 -10 -33 -19 -61 -20 -63 -2 -2 -52 8 -111 22 -60 14 -190 42
-289 61 -99 19 -245 51 -325 71 -99 24 -186 37 -275 43 -383 26 -793 155 -915
287 -75 82 -39 154 117 233 164 82 441 113 686 76z m7930 -100 c252 -353 453
-736 556 -1058 162 -508 91 -1027 -140 -1027 -104 0 -198 74 -310 243 -260
393 -589 1286 -654 1774 l-7 52 49 6 c92 12 243 54 320 88 43 19 85 34 93 33
8 0 50 -51 93 -111z m-5399 -59 c427 -111 686 -476 638 -899 -28 -247 -105
-434 -257 -624 -149 -186 -353 -314 -574 -358 -118 -24 -364 -16 -471 14 -242
70 -495 251 -582 416 -142 271 -124 725 41 1031 80 148 196 274 272 294 24 7
77 29 119 50 162 82 313 111 545 106 142 -3 186 -8 269 -30z m3702 -144 c-134
-268 -239 -544 -307 -807 -32 -124 -36 -134 -97 -215 -188 -250 -410 -408
-628 -449 -151 -29 -211 54 -186 254 51 401 231 711 493 849 194 102 543 327
714 460 39 30 73 55 78 55 4 1 -26 -66 -67 -147z m6403 -189 c-28 -422 -130
-846 -274 -1138 -119 -241 -251 -380 -442 -467 -118 -53 -108 -56 -109 26 -6
310 -335 451 -733 313 -39 -14 -71 -22 -71 -18 0 14 113 144 194 224 118 116
336 288 637 502 448 319 556 418 755 695 51 70 56 54 43 -137z m-125 130
c-196 -261 -273 -330 -759 -676 -258 -183 -445 -330 -569 -448 -49 -46 -86
-75 -82 -64 5 11 11 65 13 120 6 111 -14 186 -63 244 -13 16 -24 36 -24 46 0
30 199 219 300 285 167 109 290 166 607 279 179 64 426 166 528 219 78 40 83
40 49 -5z m-8465 -159 c-85 -309 110 -518 456 -489 155 13 359 61 529 125 44
16 81 28 83 26 2 -2 -12 -31 -32 -64 -46 -76 -118 -254 -140 -341 l-16 -67
-67 4 c-37 2 -168 22 -292 43 -293 51 -737 96 -1153 116 l-129 6 8 61 c11 97
7 244 -10 326 -9 41 -16 78 -16 82 0 4 17 10 38 13 203 33 410 95 619 185 76
32 139 58 140 56 2 -2 -6 -39 -18 -82z m3301 -68 c72 -268 218 -688 315 -909
l43 -98 -9 -97 c-35 -375 -91 -492 -236 -492 -171 0 -305 293 -334 727 l-10
158 50 168 c60 199 95 360 118 554 9 78 19 141 20 139 2 -2 21 -69 43 -150z
m1790 -126 c63 -32 67 -38 49 -89 -15 -41 -21 -40 -56 17 -16 26 -37 59 -47
75 -23 34 -19 34 54 -3z m-8960 -10 c41 -6 150 -28 241 -50 91 -22 231 -51
310 -65 136 -24 348 -70 355 -77 2 -2 -1 -33 -6 -68 -5 -36 -10 -93 -10 -127
l0 -63 -34 0 c-43 0 -135 -28 -290 -89 -330 -130 -771 -209 -1096 -198 -172 6
-241 20 -332 69 -120 64 -147 136 -91 245 142 282 578 475 953 423z m9260
-106 c47 -14 137 -33 201 -42 l117 -17 -73 -109 -73 -110 -59 -16 c-78 -22
-137 -53 -161 -87 -19 -26 -21 -27 -28 -8 -4 11 -29 67 -55 124 l-49 104 16
56 c30 111 45 143 63 136 9 -4 54 -18 101 -31z m858 -311 c139 -54 200 -61
346 -38 161 25 240 7 304 -70 128 -156 23 -428 -279 -721 -162 -157 -155 -153
-221 -110 -112 74 -264 106 -422 87 -55 -6 -103 -8 -107 -4 -18 18 -51 227
-56 353 -9 236 39 416 134 500 80 70 127 71 301 3z m-11953 -69 c257 -33 513
-93 616 -144 152 -77 331 -258 452 -458 l57 -94 -57 -87 c-32 -48 -63 -96 -68
-106 -10 -17 -12 -17 -45 0 -26 14 -49 16 -104 12 l-71 -5 -100 102 c-173 176
-526 459 -855 684 -58 40 -118 83 -135 98 l-30 25 110 -6 c61 -3 164 -13 230
-21z m-377 -27 c31 -24 127 -92 212 -152 331 -231 619 -462 784 -629 l99 -100
-24 -15 c-58 -36 -136 -128 -159 -187 -47 -124 -36 -295 31 -477 36 -101 37
-98 -10 -80 -29 11 -40 22 -44 43 -4 20 -30 46 -89 92 -104 82 -469 442 -529
523 -134 180 -210 357 -324 754 -54 189 -64 249 -44 262 24 15 39 10 97 -34z
m11711 -24 c39 -33 60 -148 61 -323 0 -191 35 -421 71 -466 8 -9 -58 -74 -75
-74 -3 0 -35 23 -72 50 -67 52 -172 108 -276 149 l-58 23 40 45 c81 92 108
257 67 406 l-15 58 36 59 c21 33 50 65 67 74 43 21 127 20 154 -1z m-6119 -38
c600 -48 828 -76 1179 -144 29 -6 77 -11 105 -11 l51 0 0 -132 c0 -130 1 -134
31 -188 36 -64 89 -105 160 -122 87 -22 171 -126 182 -224 11 -98 -102 -244
-240 -309 -127 -60 -355 -85 -453 -50 -22 8 -51 15 -64 15 -61 0 -377 128
-618 249 -108 54 -364 201 -447 257 -57 38 -346 295 -346 307 0 5 17 39 39 75
40 69 111 238 111 264 0 34 26 35 310 13z m-2471 -83 c23 -162 86 -309 178
-412 l43 -48 -75 -72 c-213 -207 -574 -439 -854 -550 -463 -184 -878 -181
-962 5 -65 141 33 372 244 577 140 135 439 301 612 338 27 6 54 15 60 19 5 5
60 21 120 36 61 15 166 47 235 72 286 103 346 123 366 123 18 0 22 -10 33 -88z
m4749 -207 c-6 -39 -11 -151 -11 -250 0 -162 2 -190 25 -276 28 -102 71 -197
113 -247 88 -105 277 -111 425 -12 24 16 46 28 47 26 2 -2 -6 -41 -17 -87 -11
-46 -28 -154 -37 -239 -9 -85 -18 -157 -20 -159 -2 -2 -29 21 -61 52 -115 109
-234 123 -332 40 -24 -21 -45 -32 -50 -27 -37 38 -145 818 -151 1092 l-2 83
38 39 c21 22 40 38 41 37 2 -2 -2 -34 -8 -72z m-6253 5 c66 -4 154 -6 195 -3
86 6 86 6 -21 -65 -43 -28 -106 -76 -142 -106 l-64 -55 -28 52 c-16 29 -47 79
-69 112 -65 94 -64 89 -25 81 19 -4 88 -11 154 -16z m7459 -175 c82 -408 272
-610 510 -541 130 38 209 166 246 399 14 84 21 93 40 47 26 -63 169 -269 225
-323 112 -111 267 -162 372 -122 55 21 134 92 169 150 52 89 94 255 94 369 0
35 3 65 6 69 3 3 34 -18 68 -47 34 -29 88 -68 119 -87 31 -18 57 -36 57 -40 0
-3 -19 -12 -42 -19 -118 -35 -213 -109 -238 -185 -12 -35 -11 -58 6 -207 6
-55 5 -59 -45 -146 l-52 -90 -40 9 c-203 46 -569 -301 -815 -773 l-63 -123 -1
184 c0 366 -68 616 -205 757 -106 108 -249 144 -359 90 -116 -57 -205 -198
-292 -461 -26 -80 -49 -143 -52 -141 -7 7 38 374 59 485 11 58 54 239 94 401
41 162 81 330 90 373 10 43 20 75 24 70 4 -4 15 -48 25 -98z m-1380 -142 c34
-392 69 -628 136 -910 l29 -122 -30 -67 c-17 -36 -32 -64 -34 -62 -7 6 -61
250 -84 373 -34 184 -119 685 -130 770 -6 44 -13 92 -16 107 -4 24 3 33 48 67
29 22 55 40 58 40 3 1 13 -88 23 -196z m-2567 67 c42 -45 111 -106 152 -137
201 -150 458 -370 574 -493 259 -272 475 -594 523 -780 25 -95 22 -248 -5
-325 -11 -32 -21 -67 -21 -76 0 -12 -13 -18 -51 -23 -87 -12 -159 -45 -212
-98 l-49 -49 -81 -2 c-77 -2 -148 -26 -247 -84 -3 -2 -5 39 -5 89 0 155 -45
213 -165 213 -60 0 -106 -15 -191 -62 -3 -2 -12 29 -19 69 -16 92 -130 522
-171 648 -43 131 -127 318 -217 485 -138 255 -208 430 -180 446 49 27 143 107
208 176 41 44 76 81 77 82 2 0 37 -35 80 -79z m8441 -20 c60 -26 124 -91 142
-144 20 -62 8 -140 -44 -270 -61 -156 -65 -200 -31 -346 34 -146 29 -185 -27
-246 -112 -122 -360 -158 -578 -85 -140 47 -241 109 -368 226 -11 9 -8 26 13
88 41 123 30 248 -31 369 -25 49 -25 53 -9 63 9 5 54 41 99 78 180 152 354
243 536 282 92 20 233 13 298 -15z m-6113 -47 c10 -82 90 -564 130 -783 37
-203 106 -500 129 -553 12 -30 11 -44 -6 -123 -36 -167 -23 -161 -107 -50
-126 168 -321 375 -478 506 -58 49 -62 54 -72 113 -19 110 -30 201 -26 205 3
3 28 15 58 26 126 52 251 166 309 283 52 106 42 231 -27 333 -19 29 -35 55
-35 59 0 6 84 38 106 40 7 1 15 -23 19 -56z m1340 -263 c-94 -373 -125 -579
-145 -970 -6 -113 -13 -212 -16 -220 -3 -8 -29 46 -57 120 l-52 135 1 195 c0
360 69 642 199 815 28 39 69 96 90 128 21 31 39 56 41 54 1 -1 -26 -117 -61
-257z m-5269 179 c113 -72 239 -132 325 -156 l61 -17 -7 -35 c-12 -67 -127
-375 -202 -541 -135 -302 -244 -479 -388 -628 l-90 -93 -90 -2 c-69 -2 -99 -8
-131 -24 -44 -23 -108 -89 -118 -121 -4 -11 -32 -33 -63 -48 -53 -27 -64 -29
-177 -28 -136 0 -201 18 -279 78 -179 136 -127 497 120 825 108 144 355 385
480 467 148 98 291 212 383 307 41 42 76 77 76 77 1 0 46 -28 100 -61z m7766
-28 c97 -25 247 -96 326 -154 70 -53 68 -49 46 -108 -10 -27 -17 -79 -17 -136
l-2 -91 -55 -23 c-124 -51 -439 -243 -528 -322 -51 -45 -55 -47 -116 -47 l-63
0 -62 66 c-51 53 -65 76 -77 122 -26 99 -23 121 29 211 65 112 75 161 53 256
-23 96 -16 128 36 165 101 73 281 99 430 61z m-6621 -156 c16 -44 92 -206 169
-360 76 -154 155 -323 174 -375 39 -107 143 -487 186 -680 15 -69 31 -133 35
-143 5 -12 -8 -33 -49 -78 -32 -34 -64 -72 -73 -86 -22 -33 -33 -14 -33 59 0
79 -34 268 -65 363 -117 357 -392 532 -664 421 -55 -22 -69 -24 -109 -15 -29
6 -65 6 -95 0 -33 -6 -50 -5 -55 3 -18 28 -1 602 24 822 l6 51 111 6 c117 6
271 40 348 75 24 11 48 19 53 18 4 -1 21 -38 37 -81z m7653 27 c88 -32 162
-94 205 -172 35 -62 36 -69 36 -165 0 -119 -20 -169 -97 -241 -159 -149 -418
-133 -589 36 -123 122 -148 350 -49 449 110 110 143 122 325 117 82 -2 125 -9
169 -24z m-11035 -78 c26 -16 26 -16 23 -117 -3 -85 0 -111 17 -157 53 -141
222 -229 445 -233 l94 -1 6 -44 c15 -108 -41 -275 -115 -343 l-42 -38 -41 28
c-45 31 -97 51 -131 51 -49 0 -128 -35 -174 -76 l-47 -42 -48 59 c-125 154
-203 304 -248 474 -29 108 -29 233 -2 295 51 112 189 188 263 144z m2679 -359
c-12 -218 -6 -491 11 -524 12 -21 9 -27 -22 -60 -87 -90 -156 -233 -202 -416
l-33 -130 -10 40 c-24 86 -32 244 -21 387 13 182 50 326 126 498 33 74 81 192
108 263 26 70 49 126 50 125 2 -2 -2 -84 -7 -183z m2503 -1 c81 -23 102 -34
154 -79 33 -28 128 -105 210 -170 326 -258 562 -491 681 -673 20 -31 63 -89
96 -129 l58 -71 0 -99 -1 -98 -37 45 c-327 394 -690 742 -1232 1182 -85 69
-175 144 -200 166 l-45 41 111 -44 c60 -24 153 -56 205 -71z m2844 77 c102
-46 183 -183 226 -381 31 -140 34 -525 6 -715 -14 -91 -153 -815 -182 -941 -4
-20 -9 -20 -142 -16 -123 4 -225 -2 -402 -24 -54 -7 -54 -7 -46 17 10 30 10
49 0 274 -24 556 90 1275 255 1607 89 180 171 231 285 179z m-6847 -102 c-153
-188 -234 -325 -286 -484 l-29 -87 -21 36 c-27 45 -74 74 -134 82 -27 4 -48 8
-48 9 0 1 10 28 21 61 16 44 22 87 24 168 l2 109 109 24 c60 13 172 46 249 73
77 26 142 48 143 49 2 1 -11 -17 -30 -40z m4436 -25 c3 -9 6 -36 6 -60 l0 -45
-66 53 -66 53 33 6 c61 11 87 10 93 -7z m4816 -56 c39 -68 108 -134 181 -176
l49 -27 -7 -60 c-22 -168 1 -452 51 -639 l23 -87 -46 -92 c-51 -102 -65 -111
-143 -87 -43 12 -44 17 -23 97 75 287 -123 403 -497 292 -66 -19 -68 -19 -87
0 -10 10 -45 28 -77 40 -136 48 -169 87 -168 196 2 174 170 331 595 559 46 25
91 46 99 46 8 -1 31 -28 50 -62z m-1126 19 c65 -65 61 -325 -8 -580 -71 -261
-264 -643 -465 -919 -65 -91 -379 -488 -386 -488 -1 0 -19 7 -40 15 -20 9 -76
26 -123 39 -58 16 -87 28 -86 37 6 59 119 586 140 647 198 592 500 1060 796
1235 77 46 136 50 172 14z m-4245 -119 c233 -188 248 -203 256 -251 4 -23 22
-118 41 -212 38 -184 74 -397 74 -431 0 -21 -1 -21 -62 -9 -35 7 -91 16 -124
20 l-61 7 18 49 c45 117 42 312 -6 456 -36 105 -72 172 -179 332 -51 78 -91
141 -88 141 3 0 62 -46 131 -102z m6290 -77 c79 -69 136 -107 293 -190 131
-70 186 -121 212 -198 39 -115 -2 -193 -134 -250 -30 -14 -77 -34 -105 -46
-66 -29 -117 -76 -175 -162 -121 -179 -266 -242 -403 -176 -119 58 -212 247
-251 514 -16 107 -22 402 -8 423 5 9 23 9 62 3 138 -24 337 35 415 121 24 26
18 29 94 -39z m-4432 29 c104 -63 224 -306 327 -663 87 -302 104 -428 111
-818 l5 -297 -85 -26 c-115 -36 -216 -83 -297 -139 l-67 -46 -64 82 c-212 271
-309 522 -339 874 -26 311 33 602 180 887 81 158 144 198 229 146z m-8303 -71
c129 -16 138 -20 94 -47 -167 -104 -231 -347 -129 -490 15 -20 30 -42 34 -48
3 -6 -73 9 -171 32 -97 24 -221 50 -277 59 -176 27 -683 74 -905 85 -266 12
-370 20 -370 29 1 10 121 96 198 141 194 111 472 204 717 239 89 13 705 13
809 0z m776 -29 c179 -29 323 -101 442 -223 48 -50 85 -93 83 -97 -2 -4 -21
-10 -41 -13 -93 -15 -175 -98 -196 -198 l-12 -58 -90 -23 c-81 -21 -114 -23
-301 -22 -199 0 -215 2 -300 27 -176 54 -279 121 -311 202 -93 245 310 470
726 405z m10122 -45 c16 -13 46 -29 68 -35 l39 -10 -27 -58 c-23 -49 -27 -70
-27 -152 0 -145 47 -224 165 -278 52 -24 53 -26 30 -35 -186 -77 -341 -167
-523 -304 -55 -42 -98 -72 -96 -67 3 5 43 88 91 184 132 267 195 451 225 661
10 65 19 119 21 119 2 0 17 -11 34 -25z m-3943 -239 c50 -44 93 -87 95 -95 3
-9 12 -68 21 -131 9 -63 28 -168 42 -233 14 -65 23 -120 21 -123 -4 -3 -168
53 -176 60 -1 2 -18 95 -38 206 -19 112 -44 243 -54 292 -23 99 -24 111 -11
106 5 -1 50 -39 100 -82z m-2207 45 c152 -73 260 -284 299 -586 14 -106 7
-433 -11 -485 -6 -19 -13 -65 -15 -102 -9 -155 -184 -758 -216 -749 -60 16
-211 12 -289 -9 -47 -12 -91 -22 -99 -23 -15 -2 -95 111 -192 270 -96 157
-201 454 -254 719 -59 290 -20 585 105 794 77 130 136 164 263 155 74 -6 88
-4 142 20 77 33 192 31 267 -4z m-2629 -33 c10 -12 15 -28 12 -37 -3 -8 -8
-34 -12 -56 -7 -56 32 -105 83 -105 19 0 34 -4 34 -10 0 -5 -4 -10 -9 -10 -5
0 -18 -16 -30 -35 -15 -26 -27 -35 -46 -35 -45 0 -74 -39 -68 -93 8 -68 -25
-98 -128 -117 -44 -8 -58 -7 -101 12 -60 26 -97 14 -111 -37 -43 -149 -182
-198 -236 -84 -22 46 -59 50 -112 13 -61 -42 -129 -44 -196 -4 -74 43 -70 57
25 110 81 45 84 93 8 129 -72 35 -69 100 8 159 38 29 132 30 194 2 72 -32 114
0 94 72 -16 63 13 107 85 127 44 13 105 -19 143 -74 16 -23 36 -45 45 -49 25
-9 64 11 71 38 3 14 14 28 25 31 10 3 30 20 44 37 43 51 142 60 178 16z m1543
-185 c-1 -76 3 -169 7 -207 l8 -68 -48 42 c-26 23 -78 60 -116 82 l-67 40 65
67 c36 36 85 92 108 124 23 31 42 57 43 57 0 0 0 -62 0 -137z m-5041 17 c252
-12 771 -63 945 -91 140 -23 475 -106 680 -168 74 -23 142 -41 152 -41 36 0
26 -18 -20 -35 -225 -85 -438 -248 -511 -393 l-32 -62 -125 5 c-229 10 -474
83 -772 230 -343 170 -625 374 -691 500 -39 74 -35 79 72 72 50 -4 187 -11
302 -17z m8853 -374 c73 -82 162 -188 197 -234 62 -83 158 -242 151 -250 -2
-2 -44 29 -93 69 -102 84 -202 150 -360 238 -110 62 -111 63 -107 94 3 18 -8
96 -25 175 -45 210 -45 212 37 127 37 -38 127 -137 200 -219z m4292 179 c75
-68 -19 -341 -213 -615 -77 -108 -316 -347 -426 -424 -168 -120 -461 -280
-742 -406 l-128 -57 -38 66 c-37 64 -186 225 -247 268 l-30 21 77 94 c42 52
157 180 256 284 414 439 745 651 1190 764 141 35 265 37 301 5z m-8428 -25
c146 -45 282 -165 441 -391 42 -59 49 -78 72 -189 30 -142 103 -387 145 -492
17 -40 30 -77 30 -81 0 -5 -26 12 -57 38 -96 77 -260 191 -355 247 -49 29
-108 64 -130 77 -64 37 -180 153 -237 235 -109 158 -185 365 -167 457 20 105
117 143 258 99z m-2302 -93 c0 -1 -4 -18 -10 -37 -26 -90 74 -200 205 -228 20
-4 34 -11 33 -17 -6 -18 -253 -248 -339 -315 -230 -178 -436 -257 -644 -247
-303 14 -428 225 -260 439 101 128 314 249 585 329 88 26 430 87 430 76z
m1389 -89 c225 -90 273 -119 313 -193 30 -54 74 -181 80 -230 3 -29 2 -30 -52
-37 -287 -41 -441 -238 -379 -484 6 -25 9 -47 6 -51 -25 -24 -142 72 -225 185
-122 165 -247 469 -277 672 -3 25 -8 52 -11 60 -3 13 12 18 75 28 92 13 161
45 210 96 19 20 39 36 45 36 5 0 102 -37 215 -82z m3241 47 c22 -27 23 -90 1
-175 -12 -46 -21 -96 -21 -110 0 -16 -12 -37 -31 -56 -129 -122 -371 -507
-562 -896 -51 -102 -98 -187 -104 -187 -19 -1 -17 7 43 182 72 209 118 391
154 600 23 134 36 184 64 242 80 170 209 315 336 378 80 40 101 44 120 22z
m-2704 -72 c28 -132 85 -264 170 -395 25 -39 43 -72 41 -75 -3 -2 -31 3 -63
11 -33 8 -85 18 -117 22 -54 6 -58 8 -53 29 13 53 -68 279 -129 359 l-26 34
48 7 c26 3 62 13 78 20 42 19 44 18 51 -12z m3788 -13 c378 -82 870 -361 1088
-618 22 -26 65 -74 96 -107 32 -33 76 -93 100 -133 24 -40 72 -107 108 -150
35 -42 64 -83 64 -91 0 -7 -29 -41 -65 -73 -67 -62 -131 -156 -162 -240 l-17
-48 -73 0 c-176 0 -461 98 -719 246 -348 200 -665 504 -849 815 -139 236 -125
366 46 414 72 20 252 13 383 -15z m-660 -126 c11 -4 16 -19 16 -43 0 -113 111
-328 274 -530 82 -101 83 -94 -44 -221 -181 -180 -496 -401 -759 -534 -134
-68 -356 -166 -375 -166 -2 0 -16 20 -30 44 -14 24 -45 68 -70 98 l-44 54 32
75 c136 311 421 783 595 986 136 158 324 268 405 237z m-4579 -40 c49 -20 130
-20 183 2 24 9 44 15 46 13 11 -14 78 -388 88 -492 38 -404 -134 -779 -395
-859 -294 -89 -539 154 -478 474 44 230 103 339 334 627 82 102 156 201 163
219 17 38 12 36 59 16z m11747 -190 c95 -8 106 -18 81 -75 -56 -126 -337 -437
-515 -569 -47 -36 -168 -111 -267 -167 l-181 -102 -57 34 c-130 77 -393 139
-638 150 -66 3 -149 8 -184 11 l-63 6 123 62 c146 72 199 108 256 169 71 77
65 160 -15 195 -64 27 -214 16 -317 -24 -14 -6 -9 5 19 39 32 39 44 47 72 47
18 0 66 13 106 29 40 15 109 40 153 54 357 117 981 179 1427 141z m-10157
-214 c240 -60 474 -179 728 -372 117 -89 467 -420 467 -441 0 -6 -7 -19 -17
-29 -9 -10 -21 -27 -27 -37 -6 -11 -30 -47 -53 -80 -42 -61 -71 -141 -80 -216
-8 -65 -11 -70 -31 -52 -15 14 -72 17 -437 21 -443 5 -494 9 -685 56 -376 93
-664 264 -711 421 -26 84 43 173 168 218 126 45 141 67 103 157 -75 182 -4
311 203 369 74 21 255 14 372 -15z m8590 -216 c-60 -54 -293 -164 -540 -255
-121 -44 -305 -115 -410 -156 -104 -41 -197 -77 -205 -80 -8 -3 71 40 175 94
105 55 231 124 280 154 50 30 113 63 140 73 28 11 97 42 155 71 188 93 307
133 395 134 l50 0 -40 -35z m2792 -84 c57 -28 107 -58 110 -66 13 -35 -101
-108 -311 -199 -222 -97 -442 -144 -605 -132 -129 10 -132 15 -65 94 128 149
385 306 569 347 116 26 181 17 302 -44z m-4940 -16 c298 -46 519 -218 633
-494 136 -328 132 -725 -10 -1028 -107 -229 -298 -399 -544 -487 -609 -218
-1234 1 -1476 518 -86 184 -114 334 -107 572 10 318 85 489 279 632 27 19 48
41 48 48 0 19 106 90 195 131 246 113 655 159 982 108z m-2785 -191 c21 -15
37 -31 38 -34 0 -3 -66 -14 -147 -23 -174 -21 -338 -49 -408 -70 -27 -9 -50
-14 -52 -12 -2 1 44 42 101 89 58 48 137 123 177 166 l72 79 91 -83 c50 -46
108 -97 128 -112z m4968 -133 c358 -32 613 -130 635 -245 23 -116 -291 -317
-624 -400 -217 -54 -291 -60 -761 -59 -239 1 -466 5 -505 10 l-70 9 -7 104
c-4 57 -16 149 -28 204 -12 54 -20 100 -18 102 7 6 587 235 633 249 104 33
505 47 745 26z m-4647 -92 c249 -150 531 -255 747 -278 51 -5 94 -11 97 -14 3
-2 0 -44 -6 -93 -6 -48 -11 -107 -11 -129 l0 -42 -57 -6 c-152 -18 -370 -59
-593 -111 -234 -55 -665 -88 -846 -65 -325 40 -563 197 -564 371 0 58 47 156
96 198 135 119 566 227 917 230 l118 1 102 -62z m-2278 -115 c57 -18 82 -32
143 -81 51 -41 142 -166 142 -196 0 -12 8 -33 18 -46 30 -43 24 -209 -10 -283
-83 -177 -324 -287 -539 -247 -130 24 -226 98 -282 218 -27 57 -31 79 -35 174
-6 131 12 207 66 287 20 30 44 66 53 80 8 15 48 43 90 64 110 56 236 67 354
30z m944 -135 c-52 -132 -18 -261 100 -378 148 -148 351 -222 675 -245 l89 -7
-97 -44 c-54 -24 -117 -55 -140 -69 -40 -23 -44 -24 -57 -9 -21 25 -262 127
-482 203 -62 21 -191 68 -287 104 -96 36 -201 73 -232 83 -57 17 -58 18 -58
54 0 21 -3 57 -6 81 l-5 44 123 48 c68 27 182 79 253 116 72 38 133 69 137 70
4 0 -2 -23 -13 -51z m8086 -273 c174 -25 412 -104 469 -156 l31 -29 -38 -34
c-20 -18 -74 -48 -120 -66 -155 -63 -288 -51 -410 36 -52 37 -307 253 -307
260 0 10 287 2 375 -11z m-10810 -36 c150 -29 271 -39 469 -39 99 0 177 -2
175 -5 -7 -6 -418 -71 -654 -102 -306 -40 -608 -33 -740 17 -37 14 -25 27 70
71 189 89 421 108 680 58z m1116 -177 c14 -42 29 -84 33 -93 5 -12 -8 -25 -56
-54 -87 -53 -379 -348 -494 -500 -110 -145 -189 -266 -237 -361 -43 -85 -76
-115 -200 -178 -206 -104 -445 -123 -604 -47 -136 66 -181 189 -90 246 60 38
46 105 -22 105 -84 0 -157 90 -149 185 10 115 125 272 273 372 186 125 474
230 747 273 136 22 392 69 508 95 41 9 116 20 165 24 50 5 92 9 95 10 3 0 17
-34 31 -77z m3758 38 c12 -6 21 -26 25 -57 12 -81 47 -214 77 -291 29 -74 30
-92 3 -92 -16 0 -222 -137 -419 -280 -170 -123 -190 -130 -498 -172 -213 -29
-599 -32 -717 -5 -151 34 -250 103 -250 173 0 244 690 557 1560 709 152 26
193 29 219 15z m-2421 -101 c119 -45 273 -101 342 -124 146 -51 400 -154 400
-164 0 -3 -16 -17 -36 -30 -55 -38 -130 -125 -161 -189 -88 -180 26 -338 289
-402 49 -12 156 -26 261 -32 97 -7 177 -15 177 -19 0 -17 -114 -107 -177 -139
-71 -37 -88 -59 -98 -123 -11 -70 -91 -137 -180 -150 -195 -30 -525 184 -615
398 -89 216 -364 648 -493 780 l-72 72 37 49 c21 27 48 73 60 101 13 29 29 53
36 53 7 0 110 -37 230 -81z m5274 61 c353 -16 458 -39 748 -160 503 -210 789
-457 709 -613 -96 -187 -439 -181 -1059 19 -80 25 -170 59 -200 74 -30 15
-154 71 -275 125 -224 99 -365 171 -365 188 0 6 13 51 29 101 16 50 35 129 41
176 17 122 11 114 80 107 32 -4 164 -11 292 -17z m-6327 -321 c64 -26 61 -13
40 -184 -16 -137 -19 -437 -5 -570 11 -102 12 -98 -66 -250 -160 -315 -332
-541 -492 -646 -143 -94 -292 -87 -292 14 0 64 -48 95 -102 66 -48 -26 -119
37 -142 126 -59 223 37 588 228 870 177 260 477 586 600 651 l59 32 58 -43
c32 -23 83 -53 114 -66z m595 40 c0 -5 13 -15 30 -20 40 -14 125 -121 273
-344 375 -565 486 -1080 288 -1337 -62 -82 -111 -107 -225 -117 -76 -7 -93
-13 -139 -44 -117 -79 -181 -93 -265 -57 -133 57 -220 228 -316 623 -88 358
-118 823 -73 1122 l12 80 96 12 c97 12 195 40 258 73 41 22 61 25 61 9z m5370
-278 c30 -16 125 -59 210 -96 526 -229 884 -463 1112 -730 67 -78 148 -218
148 -256 0 -65 -50 -95 -142 -85 -177 20 -373 89 -650 227 -390 195 -444 242
-745 649 -55 75 -116 153 -136 173 l-35 38 51 79 51 79 40 -25 c23 -14 66 -38
96 -53z m-2250 -14 c48 -71 156 -183 229 -237 67 -50 70 -56 40 -65 -11 -4
-64 -66 -118 -138 -265 -358 -920 -864 -1216 -942 -122 -31 -229 -9 -255 54
-27 67 9 225 87 373 118 225 394 497 778 769 341 241 337 238 380 238 37 0 43
-3 75 -52z m-5915 6 c-15 -36 -35 -129 -35 -164 0 -32 -4 -38 -27 -44 -47 -11
-222 -100 -336 -169 -480 -293 -1041 -720 -1527 -1165 -63 -58 -126 -114 -139
-125 l-24 -21 23 40 c112 190 365 536 548 750 135 157 378 395 482 472 266
195 599 348 923 422 108 25 121 26 112 4z m7986 -340 c72 -97 181 -237 241
-312 367 -456 533 -832 498 -1128 -23 -196 -129 -307 -269 -281 -177 32 -350
220 -531 578 -173 344 -280 606 -335 828 -19 74 -40 141 -48 150 -13 16 -37
87 -37 110 0 5 38 29 84 51 46 23 121 73 167 110 46 38 87 70 91 70 3 1 66
-78 139 -176z m2200 148 c83 -28 315 -128 399 -172 221 -114 507 -398 674
-669 86 -138 206 -393 206 -437 0 -3 -38 31 -85 75 -209 199 -419 304 -1030
522 -277 99 -440 165 -625 253 -162 77 -342 180 -305 174 195 -33 333 -30 461
8 108 32 216 139 230 226 8 45 5 45 75 20z m-10118 -165 c44 -46 47 -52 37
-79 -15 -44 -12 -91 9 -147 48 -126 168 -210 349 -243 l63 -12 -60 -86 c-346
-496 -825 -722 -2036 -963 -417 -83 -653 -114 -668 -89 -40 65 722 747 1303
1165 312 225 633 429 783 497 144 66 130 63 152 33 11 -15 42 -49 68 -76z
m6510 -95 c59 -16 109 -30 112 -33 6 -6 -49 -270 -86 -408 -107 -405 -384
-895 -619 -1096 -145 -124 -312 -145 -368 -45 -73 130 0 558 159 924 64 148
214 372 352 527 32 36 86 102 120 146 l61 82 80 -35 c45 -19 129 -47 189 -62z
m-1583 56 c0 -1 -39 -41 -86 -87 l-86 -85 7 70 c4 39 10 73 14 78 8 8 151 32
151 24z m-284 -74 c-3 -21 -11 -87 -18 -148 -11 -107 -13 -112 -64 -190 -103
-159 -154 -295 -161 -432 -7 -116 9 -166 72 -220 l43 -38 -19 -70 c-10 -39
-18 -83 -18 -100 -1 -17 -5 -25 -10 -20 -5 6 -66 183 -135 394 l-126 383 35
41 c29 33 54 84 71 144 2 7 25 23 51 37 110 57 223 175 223 233 0 19 5 23 31
23 31 0 31 -1 25 -37z m2686 2 c19 -67 58 -323 79 -516 33 -298 33 -779 1
-954 -47 -252 -116 -447 -173 -488 -33 -24 -76 -8 -131 49 -111 116 -240 545
-308 1024 -34 237 -53 751 -31 830 7 25 8 25 151 31 136 6 291 28 343 49 37
15 60 7 69 -25z m2047 -74 c296 -162 472 -239 881 -386 488 -176 663 -253 830
-365 143 -96 330 -285 330 -333 0 -7 -12 -24 -26 -38 -61 -57 -340 -28 -1174
122 -199 36 -350 73 -570 141 -182 55 -512 170 -506 175 1 2 52 -9 112 -24
142 -36 281 -39 334 -8 90 53 122 166 80 277 -46 123 -171 279 -353 439 -42
38 -74 69 -70 69 4 0 63 -31 132 -69z m-8480 -243 c-6 -12 -58 -81 -114 -153
-295 -376 -447 -668 -694 -1330 -86 -231 -96 -254 -107 -243 -12 13 -25 341
-19 468 13 250 42 414 96 545 26 64 37 77 117 143 82 67 151 138 248 257 44
53 168 233 175 253 2 6 40 18 85 27 44 8 112 26 150 39 38 13 70 22 72 21 2
-2 -2 -14 -9 -27z m56 -55 c-32 -128 -22 -342 21 -450 l25 -62 -52 -102 c-29
-56 -79 -137 -111 -181 -59 -79 -692 -738 -709 -738 -13 0 -14 -2 62 198 191
498 352 815 550 1077 50 66 118 157 152 202 34 46 64 83 66 83 2 0 0 -12 -4
-27z m2716 -74 c67 -33 70 -44 39 -124 l-11 -29 -26 44 c-41 73 -74 140 -68
140 3 0 33 -14 66 -31z m563 -466 c74 -225 169 -520 211 -658 42 -137 110
-353 150 -480 621 -1935 989 -3339 973 -3711 -4 -101 -20 -124 -83 -124 -115
0 -156 125 -300 905 -198 1077 -314 1559 -680 2840 -256 896 -358 1227 -469
1519 -34 89 -33 91 17 103 23 6 43 11 44 12 1 0 62 -182 137 -406z m-356 370
c117 -321 141 -396 132 -414 -6 -10 -19 -80 -31 -156 -11 -76 -23 -151 -28
-168 -7 -29 -8 -28 -25 30 -9 33 -45 149 -80 257 l-64 196 13 59 c21 98 58
223 66 223 4 0 12 -12 17 -27z m1702 -98 c-96 -233 -166 -512 -178 -705 l-7
-105 -68 199 c-37 110 -85 235 -107 279 -22 44 -40 85 -40 92 0 7 51 49 113
92 61 44 159 117 217 162 57 44 105 81 106 81 1 0 -15 -43 -36 -95z m1074 -30
c4 -55 18 -179 32 -274 32 -227 37 -455 24 -1196 -16 -902 -50 -1529 -139
-2560 -11 -126 -25 -309 -31 -405 -24 -400 -53 -628 -84 -658 -31 -32 -142 -9
-132 26 34 120 -5 597 -84 1017 -33 173 -35 323 -11 615 45 524 131 1349 186
1775 45 351 57 533 75 1111 7 226 13 322 23 350 79 213 123 320 128 310 4 -6
9 -56 13 -111z m-3065 7 c78 -154 190 -506 290 -907 115 -460 169 -717 321
-1535 139 -743 249 -1229 409 -1795 39 -137 107 -377 150 -532 119 -420 150
-583 118 -624 -52 -68 -133 -38 -186 68 -57 114 -179 654 -396 1758 -268 1365
-409 1910 -737 2838 l-129 368 26 45 c48 82 77 181 82 286 3 54 10 95 15 92 4
-3 21 -31 37 -62z m1526 -377 c61 -126 380 -1121 499 -1555 221 -809 476
-1934 545 -2415 52 -363 65 -640 32 -730 -6 -16 -13 -47 -16 -68 -4 -21 -19
-52 -35 -70 -28 -31 -29 -31 -48 -13 -51 46 -66 101 -147 541 -70 380 -112
584 -155 755 -21 85 -120 497 -220 915 -363 1525 -505 2053 -676 2519 -49 132
-49 136 -31 136 6 0 53 20 102 44 104 50 96 54 150 -59z m-381 -27 c2 -7 14
-45 27 -85 22 -67 22 -78 12 -160 -10 -80 -100 -523 -108 -532 -9 -9 -87 262
-92 320 -7 88 38 416 64 462 7 12 93 8 97 -5z m-1347 -208 c48 -139 51 -151
38 -177 -8 -16 -30 -96 -49 -180 -19 -83 -84 -317 -145 -519 -202 -677 -353
-1301 -405 -1679 -62 -444 -84 -1075 -55 -1600 14 -273 1 -329 -60 -245 -139
193 -168 807 -75 1600 31 266 103 737 154 1010 21 113 64 340 95 505 54 287
128 719 195 1133 39 245 36 238 97 246 26 4 68 17 93 30 25 13 50 24 55 25 6
0 33 -66 62 -149z m2979 -7 c-3 -65 -8 -188 -11 -273 -10 -255 -24 -443 -51
-665 -21 -182 -41 -288 -43 -235 -4 87 -131 792 -157 872 l-15 47 65 79 c64
77 196 269 196 284 0 4 5 8 11 8 8 0 9 -34 5 -117z m-2180 -188 c53 -179 74
-266 69 -284 -3 -14 -12 -78 -19 -141 -37 -321 -50 -419 -56 -413 -4 5 -19 67
-34 138 -15 72 -48 218 -73 325 -40 172 -44 204 -39 272 8 115 58 392 68 375
4 -8 42 -130 84 -272z m723 -122 c105 -341 133 -453 122 -501 -5 -26 -24 -175
-41 -332 -17 -157 -34 -293 -38 -304 -9 -21 -205 593 -197 616 2 7 9 58 14
113 11 112 91 505 103 505 4 0 21 -44 37 -97z m-1337 -210 c53 -152 57 -168
42 -184 -8 -9 -22 -47 -29 -83 -8 -37 -34 -128 -59 -204 -94 -289 -159 -578
-281 -1251 -158 -864 -228 -1498 -224 -2011 2 -211 -15 -247 -87 -181 l-31 28
-9 229 c-23 581 -6 1145 47 1554 52 400 200 1018 415 1733 62 208 121 414 130
458 10 43 20 79 23 79 3 0 32 -75 63 -167z m2422 158 c15 -24 139 -770 166
-1001 6 -52 17 -138 25 -190 8 -52 15 -127 16 -165 2 -85 -73 -838 -82 -827
-7 7 -38 169 -64 327 -8 50 -30 218 -50 375 -43 345 -69 508 -140 880 -54 286
-85 462 -85 490 0 9 19 22 48 32 26 10 70 33 97 52 54 38 61 41 69 27z m-412
-96 c29 -8 57 -15 63 -15 6 0 16 -37 24 -87 7 -49 37 -218 66 -376 78 -410
143 -823 132 -833 -2 -3 -23 69 -46 158 -87 337 -198 720 -317 1090 -42 131
-42 136 -4 104 17 -14 54 -32 82 -41z m1530 -324 c34 -17 69 -31 79 -31 20 0
16 24 54 -360 123 -1241 245 -1884 565 -2960 67 -227 77 -279 60 -320 -17 -40
-44 -58 -104 -66 -43 -6 -50 -4 -77 22 -92 87 -148 283 -278 979 -126 675
-148 811 -246 1517 -36 260 -81 572 -100 693 -44 285 -95 625 -95 638 0 5 18
-11 40 -36 24 -26 66 -59 102 -76z m-2708 -173 c44 -154 51 -190 45 -228 -4
-25 -8 -126 -9 -225 0 -99 -5 -245 -10 -325 -15 -229 -33 -420 -38 -415 -3 2
-33 152 -66 332 l-61 327 12 111 c6 60 19 184 27 275 21 214 38 342 43 336 3
-3 29 -87 57 -188z m-661 -108 c20 -69 57 -208 82 -310 43 -169 46 -189 36
-235 -6 -27 -15 -129 -21 -225 -6 -96 -24 -321 -40 -500 -33 -365 -44 -577
-65 -1255 -24 -752 -42 -943 -101 -1057 -20 -39 -70 -39 -107 0 -71 74 -81
175 -80 842 2 750 17 1016 92 1630 22 179 54 453 71 610 30 274 76 605 87 623
8 12 8 12 46 -123z m1437 -238 c28 -112 77 -315 109 -450 l59 -247 -23 -119
c-13 -65 -31 -173 -41 -240 -9 -66 -20 -124 -23 -128 -4 -4 -55 153 -114 350
-94 316 -106 362 -97 392 6 19 10 59 10 89 0 94 55 569 65 560 2 -3 27 -96 55
-207z m-547 -467 c31 -115 75 -289 98 -385 l42 -175 -17 -105 c-15 -89 -73
-578 -93 -777 -3 -35 -9 -63 -13 -63 -7 0 -105 387 -144 567 -22 97 -20 136
14 528 16 187 32 399 35 470 6 125 11 162 19 154 2 -2 29 -98 59 -214z m-634
-353 c96 -440 150 -725 140 -743 -7 -13 -7 -38 0 -77 16 -86 39 -351 51 -587
6 -115 22 -354 35 -529 53 -683 24 -866 -127 -798 -89 40 -111 81 -148 277
-59 317 -62 359 -67 990 -5 593 2 831 32 1158 8 84 20 215 26 292 11 138 16
172 23 164 2 -2 18 -68 35 -147z m1462 -355 c30 -127 34 -155 23 -172 -15 -25
-40 -141 -55 -265 -6 -52 -15 -99 -19 -103 -10 -11 -73 219 -66 241 5 16 66
437 66 456 0 35 20 -27 51 -157z m-526 -585 c66 -331 73 -377 64 -420 -10 -47
-33 -833 -27 -904 5 -49 -7 -39 -21 19 -7 27 -53 190 -103 363 l-91 315 11
205 c10 186 67 764 79 800 8 22 6 30 88 -378z"/>
<path d="M6425 18160 c-33 -5 -98 -21 -145 -35 -162 -51 -243 -110 -314 -228
-34 -58 -35 -60 -33 -165 2 -98 5 -112 32 -161 121 -220 456 -275 762 -125
116 57 216 146 258 230 75 151 10 328 -153 417 -99 54 -283 84 -407 67z m297
-88 c143 -47 220 -132 226 -252 5 -87 -24 -146 -107 -221 -112 -102 -256 -159
-420 -166 -213 -10 -339 46 -405 180 -29 57 -32 101 -12 193 28 131 120 209
318 269 109 33 293 31 400 -3z"/>
<path d="M11515 15120 c-155 -24 -296 -90 -376 -176 -114 -123 -176 -273 -165
-401 36 -398 369 -609 816 -516 282 58 480 268 480 509 0 367 -358 645 -755
584z m275 -75 c208 -55 350 -194 400 -391 44 -172 5 -303 -125 -422 -125 -115
-298 -168 -514 -160 -141 6 -206 24 -299 85 -176 117 -269 398 -187 568 111
228 287 333 560 334 66 1 132 -5 165 -14z"/>
<path d="M6562 13045 c-186 -35 -347 -154 -477 -353 -64 -98 -77 -138 -83
-259 -6 -124 22 -230 88 -331 136 -211 328 -292 563 -238 432 100 652 523 461
886 -123 234 -319 339 -552 295z m280 -93 c158 -77 278 -284 278 -477 0 -144
-51 -263 -160 -375 -117 -121 -314 -198 -479 -188 -260 16 -474 330 -411 604
30 129 197 333 330 403 109 58 162 71 276 68 90 -2 107 -6 166 -35z"/>
<path d="M11360 8544 c-122 -22 -284 -78 -365 -126 -188 -112 -265 -252 -265
-484 0 -503 339 -827 802 -765 328 44 566 199 685 446 94 197 81 460 -33 646
-77 127 -230 236 -384 274 -95 24 -333 28 -440 9z m425 -68 c284 -76 452 -317
431 -618 -20 -288 -230 -514 -561 -604 -92 -25 -314 -30 -395 -10 -217 55
-371 215 -440 456 -27 93 -38 291 -21 370 19 89 86 196 155 247 110 82 276
145 452 173 84 13 307 5 379 -14z"/>
</g>
</svg>
